<?xml version="1.0" encoding="UTF-8" standalone="no"?>
<!-- Created with Inkscape (http://www.inkscape.org/) -->

<svg
   version="1.1"
   id="svg9"
   width="5333.3335"
   height="5333.3335"
   viewBox="0 0 5333.3335 5333.3335"
   xmlns="http://www.w3.org/2000/svg"
   xmlns:svg="http://www.w3.org/2000/svg">
  <defs
     id="defs13" />
  <g
     id="g17"
     transform="matrix(1.3333333,0,0,-1.3333333,0,5333.3333)">
    <g
       id="g19"
       transform="scale(0.1)">
      <path
         d="m 26160.1,31166.1 c -2157,-65.5 -4349.5,-700.5 -5985.5,-2005 -2159,-1721.5 -4670,-1736 -6977.5,-1354 0,0 402.5,272 491,1324.5 72.5,864 309.5,1211 309.5,1211 -621.5,268 -589,525 -589,525 -496.5,-439.5 -1095.5,-345.5 -1095.5,-345.5 0,0 369.5,-321.5 353.5,-1278 -16.5,-956 -868,-924 -844,-393.5 24,530.5 -273,940 -273,940 -2349,2085.5 787.5,3862.5 787.5,3862.5 235.5,3471.5 5721.5,1864.5 5721.5,1864.5 2121,557 3326.5,-889.5 4291,-1066 964,-177 1269.5,-1221.5 1269.5,-1221.5 980.5,193 2541,-2064 2541,-2064"
         style="fill:#862b90;fill-opacity:1;fill-rule:nonzero;stroke:none"
         id="path23" />
      <path
         d="m 11243.1,32455.6 c 462.1,631.3 1170.1,1039.7 1180.1,1045.4 51.2,29 84.4,81.7 88.3,140.4 46.7,687.8 319.7,1210.4 811.3,1553.4 564.7,394.1 1350.7,518.4 2117.9,518.4 1301.6,0 2548.7,-357.8 2568.5,-363.6 2.2,-0.7 4.4,-1.3 6.7,-1.8 -136.9,-20.4 -278.1,-49.2 -423.4,-87.4 0,0 -992,268.5 -2083.7,268.5 -1326.7,0 -2800.6,-396.8 -2818.3,-2154.3 0,0 -784.6,-348.4 -1447.4,-919 m 13015.1,207.2 c -361.2,193.2 -707.2,322.1 -973.9,322.1 -46.2,0 -90.2,-3.9 -131.3,-12 0,0 -305.5,1044.5 -1269.5,1221.5 -810.3,148.3 -1790.5,1192.9 -3341,1192.9 -115.7,0 -234.6,-5.8 -356.8,-18.2 290.5,69.6 563,99.7 819.6,99.7 934.6,0 1657.9,-398.6 2266.7,-734 384.8,-212.1 717.2,-395.2 1045.9,-455.5 843.5,-154.7 1130.6,-1089.4 1133.2,-1098.4 22.2,-75.8 91.5,-125.9 167.9,-125.9 11.2,0 22.5,1.1 33.9,3.3 28.8,5.6 58.5,8.4 89.3,8.4 175.2,0 382,-88.5 601.4,-233.3 -25.9,-56.7 -54.3,-113.6 -85.4,-170.6"
         style="fill:#cfaad3;fill-opacity:1;fill-rule:nonzero;stroke:none"
         id="path25" />
      <path
         d="m 26795.6,23580.6 c 0,0 -16173,-4563 -19891.01,-1745 -2825,2141 -2305.99,5362.5 -547.99,6549.5 126.5,-260.5 377,-453.5 377,-453.5 -236,-1157 1478.5,-1725 1478.5,-1725 -1114.5,1136 -611,1436 -793.01,1843 -102,227.5 -106.49,526 -90.5,744.5 204.51,41.5 417.51,58.5 637,48.5 1337.01,-60 3206.01,-700.5 5231.51,-1035.5 2307.5,-382 4818.5,-367.5 6977.5,1354 1636,1304.5 3828.5,1939.5 5985.5,2005 1408,43 2801.5,-156.5 4014.5,-570 -128,-114 -207.5,-257 -191,-435.5 64,-691.5 -796.5,-755.5 -937,-1221.5 -136.5,-453.5 -614,-831.5 -639.5,-851.5 36,12.5 997.5,358.5 997.5,642.5 0,289 996.5,369.5 1012.5,739 10,221.5 267,552.5 686,751 1375,-654 2404,-1627.5 2769.5,-2867 1125,-3811 -7077,-3772.5 -7077,-3772.5"
         style="fill:#4c2d7e;fill-opacity:1;fill-rule:nonzero;stroke:none"
         id="path27" />
      <path
         d="m 11217.2,21089.2 v 0 c -1839.01,0.1 -3362.21,245.6 -4206.88,885.9 -421.9,319.7 -778.93,673.7 -1066.52,1053.4 -175.2,1343.1 1097.97,2436.2 2490.89,2436.2 266.22,0 536.71,-39.9 802.41,-125.6 971.1,-313.5 1942.1,-563.5 3071.9,-563.5 1825.7,0 4066.9,652.3 7399.6,2744 2737,1718 5421.7,2505.1 7598.5,2505.1 843.7,0 1611.1,-118.3 2275.6,-346.4 -59,-47.8 -127.9,-95.9 -205,-148.4 -207.7,-141.4 -422.4,-287.6 -498.7,-540.4 -120.6,-400.7 -561.2,-749.5 -579.9,-764.2 -67.3,-52.7 -86.6,-146.4 -45.6,-221.5 31.4,-57.6 91,-91.2 153.6,-91.2 19.1,0 38.5,3.1 57.4,9.6 330.9,114.9 1094.6,419.9 1114.7,792.9 42.5,50.5 233,127.8 348.6,174.7 222.4,90.3 466.5,189.4 587.6,355.5 550.1,-336.2 985,-776.7 1278.7,-1313.7 46.9,-85.7 88.4,-171.8 124.7,-258 -48.1,-8.1 -96,-18.7 -143.6,-31.5 -838.2,-226.7 -1272.5,-1103.5 -1334.3,-1236.8 -92.9,-138.9 -760.1,-1189.3 -509.8,-2361.1 -464.6,-83.5 -920.7,-142.8 -1334.6,-184.9 -66.3,466.4 -110.7,729.5 -112,737.6 -9.6,56.4 -46.2,104.5 -97.9,128.9 -1749.9,825.7 -3914.1,1063.2 -5825.1,1063.2 -701.6,0 -1369.1,-32 -1969.4,-78.7 -2413.2,-187.8 -4292.6,-646.8 -4311.3,-651.5 -8.8,-2.1 -17.4,-4.9 -25.7,-8.4 l -3293,-1377.5 c -1.2,-0.5 -2.4,-1 -3.5,-1.5 l -1621.3,-678.2 c -42.9,-17.9 -76.8,-52.1 -94.4,-95.1 -17.6,-43 -17.4,-91.2 0.5,-134.1 4.1,-9.6 249.2,-602.9 501.8,-1668.4 -178.5,-4.2 -354.8,-6.4 -528,-6.4"
         style="fill:#46207c;fill-opacity:1;fill-rule:nonzero;stroke:none"
         id="path29" />
      <path
         d="m 6305.39,28131.6 c -727.34,-568.2 -1189.09,-1527.4 -1217.04,-2550.2 -37.11,-1358.2 645.46,-2638.9 1921.97,-3606.3 844.67,-640.3 2367.87,-885.8 4206.88,-885.9 6013.4,-0.1 15407.7,2625 15530.9,2659.8 15.7,4.4 32.7,7 48.3,6.6 51.8,1 5244.6,-1.8 6660.5,1883.6 357.1,475.4 438.1,1019.8 247.9,1664.3 -327.2,1109.6 -1225.4,2049.3 -2599.8,2721.4 -326.7,-177.3 -507.3,-434.6 -513.1,-563.7 -13.3,-307.3 -359,-447.6 -664.1,-571.4 -115.6,-46.9 -306.1,-124.2 -348.6,-174.7 -20.1,-373 -783.8,-678 -1114.7,-792.9 -80.9,-27.9 -170.1,6.5 -211,81.6 -41,75.1 -21.7,168.8 45.6,221.5 18.7,14.7 459.3,363.5 579.9,764.2 76.3,252.8 291,399 498.7,540.4 284.9,194 458.2,327.4 431.6,614.5 -11.8,128.2 13.1,250.7 72.7,362.9 -2727.1,847.4 -6807.6,742.5 -9598.3,-1483 -1345.1,-1072.7 -2933.2,-1594.4 -4853.8,-1594.4 -12.3,0 -24.4,0 -36.7,0 -1660,5.8 -3293.3,395 -4734.4,738.3 -1049.51,250.1 -1955.88,466.1 -2701.07,499.6 -155.32,7.1 -309.82,-0.4 -460.84,-22.1 -3.05,-171.7 12.99,-370.8 81.91,-524.5 70.71,-158.2 63.42,-299.2 56.4,-435.6 -14.01,-271.3 -31.48,-609 701.83,-1356.5 56.56,-57.6 66.33,-146.5 23.58,-215.1 -42.77,-68.6 -126.9,-98.9 -203.54,-73.5 -73.98,24.4 -1763.57,599.3 -1611.96,1822.4 -64.5,59.1 -156.96,152.6 -239.72,268.7 m 4939.61,-7393 c -2116.91,0 -3604,319.2 -4446.11,957.5 -1368.95,1037.5 -2100.68,2420.7 -2060.39,3894.8 33.32,1220.3 601.63,2319 1520.19,2939.2 42.04,28.4 94.33,37.1 143.33,24 48.97,-13.2 89.84,-46.9 112.02,-92.6 106.17,-218.6 324.45,-389.8 326.65,-391.5 52.56,-40.8 77.68,-108.2 64.39,-173.4 -105.85,-518.8 266.3,-910 648.13,-1166.1 -294.28,455.7 -279.36,744.5 -267.55,973.2 5.79,112.2 9.97,193.3 -26.31,274.5 -117.92,263 -122.35,595.8 -105.28,828.7 5.74,78.2 62.84,143.1 139.72,158.7 221.04,44.8 449.88,62.1 679.76,51.8 778.22,-35 1699.56,-254.5 2766.35,-508.7 2859.5,-681.3 6418.2,-1529.3 9325.6,789.2 1304,1039.9 3015.5,1716.2 4949.4,1955.7 1785.1,221 3637.7,46.4 5216.2,-491.9 58.9,-20.1 102.7,-69.9 115,-131 12.4,-61 -8.6,-123.9 -55.1,-165.3 -132.4,-117.9 -139.4,-221.2 -133.1,-288.7 46.9,-507.2 -302.5,-745 -583.2,-936.1 -164.6,-112.1 -320.1,-217.9 -360.5,-352 -29.6,-98.3 -72.6,-192.6 -123,-281.1 74.2,50.1 124.9,95.3 138.5,129.3 4.8,249.4 277.7,360.2 566.5,477.3 143.6,58.3 442.5,179.6 446.1,262.5 14.3,318.6 337.5,689.2 785.9,901.6 47.4,22.5 102.6,22.5 150.1,-0.1 1510.2,-718.3 2500,-1747.3 2862.1,-2975.5 220.7,-747.5 118.5,-1411.6 -303.7,-1973.7 -1484.4,-1976.2 -6470.9,-2023.2 -6917.3,-2023.4 -340.3,-94.9 -4257.2,-1176.6 -8544.9,-1926.6 -2821.8,-493.5 -5169,-740.3 -7029.5,-740.3"
         style="fill:#390176;fill-opacity:1;fill-rule:nonzero;stroke:none"
         id="path31" />
      <path
         d="m 28697.7,16596.1 -289.3,-1157.2 c 658.9,-819.6 2483,-1430.3 2483,-1430.3 l 699.1,932.1 c -1673.1,530.8 -2892.8,1655.4 -2892.8,1655.4"
         style="fill:#a17e89;fill-opacity:1;fill-rule:nonzero;stroke:none"
         id="path33" />
      <path
         d="m 28600,15483.7 c 558.9,-623.2 1834.2,-1123 2228.7,-1267.1 l 476.6,635.6 c -1182.5,421.2 -2103.6,1099.6 -2506.4,1427.4 l -198.9,-795.9 m 2291.4,-1650.1 c -18.5,0 -37.3,2.9 -55.5,9 -76.5,25.7 -1880.7,636.8 -2563.9,1486.7 -34.3,42.6 -46.7,98.9 -33.4,152.1 l 289.3,1157.1 c 15,59.9 60.4,107.5 119.6,125.2 59.2,17.7 123.3,3 168.7,-38.9 12,-11 1213.2,-1105.2 2827.2,-1617.3 54.1,-17.1 96.5,-59.4 113.8,-113.4 17.3,-54 7.3,-113 -26.7,-158.4 l -699.1,-932.1 c -33.7,-44.9 -86,-70 -140,-70"
         style="fill:#390176;fill-opacity:1;fill-rule:nonzero;stroke:none"
         id="path35" />
      <path
         d="m 30521.5,14334.8 c -351.5,141.7 -862.2,369.1 -1301.8,648.8 0.9,332.6 -1.3,659.6 -6,979.9 326.1,-233.5 764.2,-514.9 1282.5,-768.9 12.5,-39.7 28.9,-81.5 49.7,-125.3 0,0 -225.6,-383.4 -24.4,-734.5"
         style="fill:#825883;fill-opacity:1;fill-rule:nonzero;stroke:none"
         id="path37" />
      <path
         d="m 30719.9,14069.9 c -299.2,111 -938.3,365.9 -1501.2,708.7 0.5,68.7 0.8,136.7 1,205 439.6,-279.7 950.3,-507.1 1301.8,-648.8 44.1,-77.1 108.9,-152.6 201,-222.2 l -2.6,-42.7 m -223.7,1124.7 c -518.3,254 -956.4,535.4 -1282.5,768.9 -1.1,73.9 -2.3,147.3 -3.7,220.5 306.2,-225.8 736.1,-512.5 1251.7,-775.6 -0.3,-63.1 9.5,-134.3 34.5,-213.8"
         style="fill:#390176;fill-opacity:1;fill-rule:nonzero;stroke:none"
         id="path39" />
      <path
         d="m 28279.1,7016.1 c -30.5,-139.5 -62.5,-278.5 -95.5,-416.5 0,0 -4468,-2764 -11636,-1510.5 l -1141,498 c 0,0 52,143 137,409.5 -2978.5,-43 -4653,1165.5 -4653,1165.5 636,1813 1041.5,3519 1282.5,5090.5 730.5,4759.5 -47,8282.5 -496.5,9782 -5,16.5 -9.5,32.5 -14.5,48 -9.5,31.5 -19,62.5 -28.5,92 -4.5,14.5 -9,29 -13.5,43.5 -4,14.5 -9,28.5 -13.5,42.5 -5.5,17 -11,34 -16,50.5 -11.5,36.5 -23,71 -34.5,104 -32,95 -60,174.5 -83,237.5 -5.5,15.5 -11,30.5 -16,44 -33.5,89.5 -52.5,135 -52.5,135 l 4074,1704.5 844,353 c 0,0 7425,1832 11989.5,-321.5 0,0 1,-5.5 2.5,-16 0.5,-3.5 1.5,-7.5 2,-12 0,-1 0.5,-2 0.5,-3 0.5,-2.5 1,-6 1.5,-9 1,-4.5 1.5,-9.5 2.5,-15 0.5,-5 1.5,-10 2.5,-15.5 1,-6 2,-12.5 3,-19 1,-5 1.5,-10 2.5,-15.5 2.5,-16 5.5,-33.5 8.5,-53 2,-12 4,-24.5 6,-37.5 6,-37 12.5,-79.5 19.5,-126.5 2,-13.5 4.5,-28 6.5,-42.5 8,-54 17,-113.5 26.5,-178.5 3,-22.5 6.5,-45.5 10,-69 329,-2262.5 1327,-10366 -127,-16939.5"
         style="fill:#ffffff;fill-opacity:1;fill-rule:nonzero;stroke:none"
         id="path41" />
      <path
         d="m 28406.1,23955.6 c -3.5,23.5 -7,46.5 -10,69 -9.5,65 -18.5,124.5 -26.5,178.5 -2,14.5 -4.5,29 -6.5,42.5 -7,47 -13.5,89.5 -19.5,126.5 -2,13 -4,25.5 -6,37.5 -3,19.5 -6,37 -8.5,53 -1,5.5 -1.5,10.5 -2.5,15.5 -1,6.5 -2,13 -3,19 -1,5.5 -2,10.5 -2.5,15.5 -1,5.5 -1.5,10.5 -2.5,15 -0.5,3 -1,6.5 -1.5,9 0,1 -0.5,2 -0.5,3 -0.5,4.5 -1.5,8.5 -2,12 -1.5,10.5 -2.5,16 -2.5,16 -4564.5,2153.5 -11989.5,321.5 -11989.5,321.5 l -0.7,-0.3 c 266.3,-535.7 3624,-7658.8 225.8,-19799.7 7167.9,-1253.5 11635.9,1510.5 11635.9,1510.5 33,138 65,277 95.5,416.5 1454,6573.5 456,14677 127,16939.5"
         style="fill:#cc3737;fill-opacity:1;fill-rule:nonzero;stroke:none"
         id="path43" />
      <path
         d="m 11949.3,6446.6 c -18.6,0 -37.5,3 -56.1,9.3 -91.5,31 -140.6,130.3 -109.7,221.8 7.7,22.6 769.3,2295.8 1193.3,5453.2 390.3,2906.7 566.2,7179.6 -812,11028.7 -32.6,91 14.8,191.2 105.8,223.8 90.8,32.7 191.2,-14.8 223.7,-105.8 C 13897.1,19359.7 13719,15024 13322.6,12076.7 12893.7,8887.6 12122.8,6588.4 12115,6565.5 c -24.7,-72.9 -92.7,-118.9 -165.7,-118.9"
         style="fill:#390176;fill-opacity:1;fill-rule:nonzero;stroke:none"
         id="path45" />
      <path
         d="m 12646.1,6205.2 c -20.4,0 -41.3,3.6 -61.5,11.2 -90.5,34 -136.3,134.9 -102.3,225.4 8.2,21.9 828.6,2228.3 1281.7,5416.9 417.3,2936.6 599.8,7331.9 -901,11594 -32.1,91.1 15.7,191.1 106.9,223.2 91.2,32.1 191,-15.8 223.2,-107 1525.5,-4332 1340.2,-8790.9 916.1,-11768.6 -459.1,-3224.2 -1290.9,-5459.5 -1299.3,-5481.6 -26.3,-70.3 -93,-113.5 -163.8,-113.5"
         style="fill:#390176;fill-opacity:1;fill-rule:nonzero;stroke:none"
         id="path47" />
      <path
         d="m 14795.3,11713.6 c -242.7,-1885.3 -645.5,-3751 -1185.4,-5576.8 -49.8,-155.5 -282.6,-89.8 -239.8,70.9 584.1,1800.2 1034.2,3646.3 1325.5,5520.1 9.5,60.5 106.6,54.5 99.7,-14.2"
         style="fill:#390176;fill-opacity:1;fill-rule:nonzero;stroke:none"
         id="path49" />
      <path
         d="m 14990.1,14976.1 h -2.6 c -69,1.4 -123.8,58.4 -122.4,127.5 106.1,5333.9 -1199.8,8637.2 -1213,8670 -25.9,64 5.1,136.8 69.1,162.6 64.2,25.9 136.9,-5.1 162.7,-69.1 13.4,-33.3 1338.3,-3384.1 1231.1,-8768.5 -1.4,-68.2 -57,-122.5 -124.9,-122.5"
         style="fill:#390176;fill-opacity:1;fill-rule:nonzero;stroke:none"
         id="path51" />
      <path
         d="m 14708.5,24204.5 c 283.4,-995.8 450.7,-2013.4 575.5,-3038.6 5.4,-47.9 -67.1,-60.8 -76.3,-11.1 -133,755.5 -296.9,1506.4 -506.9,2244 -70.5,245.3 -145.5,492.7 -230,728 -52.6,160.2 184.5,239.5 237.7,77.7"
         style="fill:#390176;fill-opacity:1;fill-rule:nonzero;stroke:none"
         id="path53" />
      <path
         d="m 15633.7,21815.5 c 427.1,-1642.7 603.4,-3351.7 631.5,-5045.6 30.9,-1697.9 -127.6,-3402.7 -496.5,-5060.2 -6.6,-31.2 -37.3,-51.1 -68.5,-44.5 -29.6,6.3 -49.1,34.3 -45.3,63.8 27.4,210.2 55.3,420.2 85.7,629.5 l 44.3,312.8 c 208.4,1769.4 257,3576.2 158.4,5355.2 -74.5,1255.8 -201.3,2525 -412.9,3764.4 -6.1,29.2 13.5,58.4 43.1,63.2 27.2,4.7 53.1,-12.5 60.2,-38.6"
         style="fill:#390176;fill-opacity:1;fill-rule:nonzero;stroke:none"
         id="path55" />
      <path
         d="m 15463.5,9493.6 c -104.2,-898.1 -296.6,-1783.4 -558,-2648.7 -85.8,-289.5 -186.7,-574.5 -291.1,-858.6 -23.8,-64.9 -95.7,-98.1 -160.5,-74.3 -64.8,23.8 -98.1,95.7 -74.3,160.5 236.6,548.7 440.7,1112.2 608.1,1686.5 167.8,571.8 308.7,1155.1 404.9,1743.2 6,43.9 75.3,39 70.9,-8.6"
         style="fill:#390176;fill-opacity:1;fill-rule:nonzero;stroke:none"
         id="path57" />
      <path
         d="m 16032,23562.3 c -102.3,297.6 -211.1,590.7 -326.2,878.9 l 671.6,280.9 c 5.4,1.3 12.4,3 21.1,5.1 82.2,-180.1 212.5,-484.2 364.8,-908.4 l -731.3,-256.5"
         style="fill:#c3b2d6;fill-opacity:1;fill-rule:nonzero;stroke:none"
         id="path59" />
      <path
         d="m 16763.3,23818.8 c -152.3,424.2 -282.6,728.3 -364.8,908.4 263,62.2 2017.9,463.2 4226.5,634.6 591.7,45.9 1249.5,77.4 1940.4,77.4 1837.5,0 3908.6,-223 5588.8,-991.4 14,-87 37.2,-235.2 66.9,-437.8 -1512.3,431.3 -3170.9,581 -4745.1,581 -3571.8,0 -6708.4,-770.7 -6708.4,-770.7 l -4.3,-1.5"
         style="fill:#a0274a;fill-opacity:1;fill-rule:nonzero;stroke:none"
         id="path61" />
      <path
         d="m 11843.4,22093.2 c -87.9,292.2 -163.5,508.1 -213.6,643 l 596.2,249.4 c 77.9,-225.8 150.7,-453.5 218.3,-681.6 l -600.9,-210.8 m 931.5,326.8 c -69.8,234.7 -144.9,468.6 -225.4,700.9 l 374.2,156.6 c 82.3,-241.4 159.2,-482.5 231.1,-724.3 l -379.9,-133.2 m 710.5,249.2 c -74,248 -153.3,496 -238.1,743.6 l 466,194.9 c 54.6,-154.4 141.5,-414.7 243.9,-773.1 l -471.8,-165.4 m 707.5,248.1 c -104.8,366.2 -193.6,631.4 -248.8,787 l 587.8,245.9 c 60.2,-181 115.8,-366.8 168.9,-551.4 26.1,-92 51.6,-184.2 76.4,-276.6 l -584.3,-204.9 m 766.4,268.8 c -60.7,287 -128.7,572.8 -205.8,856.8 l 629.4,263.2 c 113.8,-285.2 219.9,-572.2 318.6,-859.7 l -742.2,-260.3"
         style="fill:#c3b2d6;fill-opacity:1;fill-rule:nonzero;stroke:none"
         id="path63" />
      <path
         d="m 12444.3,22304 c -67.6,228.1 -140.4,455.8 -218.3,681.6 l 323.5,135.3 c 80.5,-232.3 155.6,-466.2 225.4,-700.9 l -330.6,-116"
         style="fill:#390176;fill-opacity:1;fill-rule:nonzero;stroke:none"
         id="path65" />
      <path
         d="m 13154.8,22553.2 c -71.9,241.8 -148.8,482.9 -231.1,724.3 l 323.6,135.3 c 84.8,-247.6 164.1,-495.6 238.1,-743.6 l -330.6,-116"
         style="fill:#390176;fill-opacity:1;fill-rule:nonzero;stroke:none"
         id="path67" />
      <path
         d="m 13957.2,22834.6 c -102.4,358.4 -189.3,618.7 -243.9,773.1 l 230.8,96.6 c 55.2,-155.6 144,-420.8 248.8,-787 l -235.7,-82.7"
         style="fill:#390176;fill-opacity:1;fill-rule:nonzero;stroke:none"
         id="path69" />
      <path
         d="m 14777.2,23122.2 c -24.8,92.4 -50.3,184.6 -76.4,276.6 -53.1,184.6 -108.7,370.4 -168.9,551.4 l 221.6,92.7 c 77.1,-284 145.1,-569.8 205.8,-856.8 l -182.1,-63.9"
         style="fill:#390176;fill-opacity:1;fill-rule:nonzero;stroke:none"
         id="path71" />
      <path
         d="m 17107.9,7289.7 c 2,-0.1 5.2,-0.3 9.2,-0.5 -3.1,0.2 -6.1,0.4 -9.2,0.5"
         style="fill:#390176;fill-opacity:1;fill-rule:nonzero;stroke:none"
         id="path73" />
      <path
         d="m 17104.5,7289.9 c 1.1,-0.1 2.2,-0.1 3.4,-0.2 -2.2,0.1 -3.4,0.2 -3.4,0.2"
         style="fill:#390176;fill-opacity:1;fill-rule:nonzero;stroke:none"
         id="path75" />
      <path
         d="m 16595,5259.2 -970.3,423.7 c 21.3,63.6 48.5,146.1 80.6,246.4 3.8,9.1 6.8,18.6 9,28.4 102.1,321.2 249.9,812.4 413.7,1441.2 302,-52.3 627.3,-89.4 976.4,-108.8 -148.9,-659.8 -318.3,-1337.8 -509.4,-2030.9"
         style="fill:#c3b2d6;fill-opacity:1;fill-rule:nonzero;stroke:none"
         id="path77" />
      <path
         d="m 20221.7,4940.4 c -1103,0 -2316.7,90.1 -3623.3,317.3 l -3.4,1.5 c 191.1,693.1 360.5,1371.1 509.4,2030.9 0.4,0 -0.1,0 0.2,0 0,0 0.1,-0.1 0.2,-0.2 -0.2,0 -0.3,0 -0.3,0 0.1,0 0.2,0 0.3,0 20.8,-20.4 1745.4,-1701 5208.3,-1701.3 1565.8,-0.1 3486.7,343.5 5767.1,1339.4 -16.3,-71.9 -32.9,-143.7 -49.8,-215.1 -258,-147.3 -1326,-721 -3037.2,-1173.6 -1165,-308.1 -2789.6,-598.9 -4771.5,-598.9"
         style="fill:#a0274a;fill-opacity:1;fill-rule:nonzero;stroke:none"
         id="path79" />
      <path
         d="m 15391.1,6170.4 c -242.8,0 -476.6,8.5 -701.1,24.1 77.1,215.3 150.6,431.6 215.5,650.4 80.8,267.4 155,536.7 222,807.8 204.8,-70.7 423.1,-132.9 656.8,-185.5 -142.8,-546.9 -272.9,-986.6 -369.8,-1296.8 -7.8,0 -15.6,0 -23.4,0 m -950.9,44.6 c -273.8,26 -532.8,62.4 -776.4,106.1 172.7,595 330.9,1194.4 473.6,1797.1 246.9,-153.3 524.1,-291.5 835.5,-409.5 -150,-507.4 -328.5,-1006.2 -532.7,-1493.7 m -1018.5,152.9 c -193.4,40 -376,84.5 -547.6,131.6 111.6,323.8 354.3,1067.5 614.4,2114.7 143,-134 300.9,-262.2 475.7,-382.7 -164.5,-626.1 -345.6,-1247.4 -542.5,-1863.6 m -883.4,231.3 c -131.7,42.1 -255.5,85.3 -371.1,128.5 114.3,364.2 399.2,1320.2 685.4,2655.7 101.2,-159.8 216.8,-317.4 348.8,-470.2 -280.8,-1166.6 -549.9,-1987 -663.1,-2314 m -696.9,259.1 c -359.4,153.9 -609.1,295.3 -740.5,376 498.3,1441.8 849.2,2814.3 1089.1,4097.2 47.8,-421.7 159.1,-944.5 404.1,-1473.2 -303.5,-1501.2 -624.4,-2588.9 -752.7,-3000"
         style="fill:#c3b2d6;fill-opacity:1;fill-rule:nonzero;stroke:none"
         id="path81" />
      <path
         d="m 12167.2,6727.7 c -117,43.8 -225.7,87.7 -325.8,130.6 128.3,411.1 449.2,1498.8 752.7,3000 73.5,-158.6 159.1,-317.8 258.5,-474.9 -286.2,-1335.5 -571.1,-2291.5 -685.4,-2655.7"
         style="fill:#390176;fill-opacity:1;fill-rule:nonzero;stroke:none"
         id="path83" />
      <path
         d="m 12874.1,6499.5 c -117.1,32.2 -229,65.6 -335.8,99.7 113.2,327 382.3,1147.4 663.1,2314 88.2,-102.1 183.7,-202 287.1,-299 -260.1,-1047.2 -502.8,-1790.9 -614.4,-2114.7"
         style="fill:#390176;fill-opacity:1;fill-rule:nonzero;stroke:none"
         id="path85" />
      <path
         d="m 13663.8,6321.1 c -82.4,14.7 -163.2,30.4 -242.1,46.8 196.9,616.2 378,1237.5 542.5,1863.6 55.9,-38.5 113.8,-76.4 173.2,-113.3 -142.7,-602.7 -300.9,-1202.1 -473.6,-1797.1"
         style="fill:#390176;fill-opacity:1;fill-rule:nonzero;stroke:none"
         id="path87" />
      <path
         d="m 14690,6194.5 c -84.6,5.8 -167.9,12.7 -249.8,20.5 204.2,487.5 382.7,986.3 532.7,1493.7 50.5,-19.2 102.3,-37.9 154.6,-56 -67,-271.1 -141.2,-540.4 -222,-807.8 -64.9,-218.8 -138.4,-435.1 -215.5,-650.4"
         style="fill:#390176;fill-opacity:1;fill-rule:nonzero;stroke:none"
         id="path89" />
      <path
         d="m 17104.8,7289.9 c -0.1,0 -0.2,0 -0.3,0 0,0 0.1,0 0.3,0 v 0"
         style="fill:#390176;fill-opacity:1;fill-rule:nonzero;stroke:none"
         id="path91" />
      <path
         d="m 13582.9,30865.8 v 0 0 m -0.8,-19.3 v -0.2 0.2 m 0,-0.3 v -0.4 0.4 m -385,-3214.4 c -56.2,0 -111.4,27 -145.2,77.1 -54.1,80.1 -33,188.9 47.1,243 0.1,0.2 336.4,260.7 414.8,1194.4 47.2,561.8 163.6,920.8 247,1115 -220,115.1 -349.3,231.1 -424.7,332.2 -247.9,-160.1 -500.6,-222.7 -696.1,-244.5 106.4,-220.5 210.4,-574.1 201.4,-1107.6 -6.9,-408.8 -159,-723.6 -417.4,-863.9 -176.7,-95.9 -384.8,-93.8 -543.3,5.4 -157.2,98.5 -242.1,271.8 -232.9,475.6 18.6,409 -184.5,744.9 -231,816 -670.9,601.7 -975.5,1243.2 -905.3,1907.1 121.3,1147.7 1328.5,1970.8 1658.4,2175.5 72.2,754 392.5,1334.1 953,1725.1 1572.1,1096.5 4514.3,334.4 4937.8,216.6 1503.1,376.6 2586.8,-220.4 3380.2,-657.5 358.1,-197.3 667.4,-367.7 940.1,-417.7 848.5,-155.6 1231.4,-895.8 1357,-1207.3 h 0.3 c 1046.8,0 2407.1,-1921.5 2565.7,-2150.8 55,-79.5 35.1,-188.5 -44.4,-243.5 -79.5,-54.9 -188.4,-35.1 -243.5,44.4 -578.5,836.1 -1731.7,2115.8 -2363.2,1991.9 -89,-17.4 -176.4,35.8 -201.8,122.6 -2.6,9 -289.7,943.7 -1133.2,1098.4 -328.7,60.3 -661.1,243.4 -1045.9,455.5 -791.7,436.2 -1777.1,979.2 -3169.1,613.5 -30.8,-8.2 -63.2,-7.7 -93.7,1.3 -31.4,9.2 -3163.6,907.8 -4686.4,-154.8 -491.6,-343 -764.6,-865.6 -811.3,-1553.4 -3.9,-58.7 -37.1,-111.4 -88.3,-140.4 -14.3,-8.2 -1445.8,-834.1 -1563.7,-1957.2 -57.8,-550.2 213.4,-1095.9 806.1,-1622.2 9.5,-8.4 18.1,-17.9 25.5,-28.1 13.6,-18.8 333,-466.1 306.4,-1050.9 -3.5,-76.2 20.4,-132.6 69,-163.1 51.7,-32.2 124.7,-30.1 190.5,5.6 68.3,37.1 227.8,166 234.5,562.1 14.2,845.3 -292.7,1141.8 -295.8,1144.7 -58.8,51.3 -75.5,134.2 -42.7,204.9 33,70.8 109.9,110.1 186.9,98.1 4.5,-0.8 527.5,-72.6 952.5,303.6 54.5,48.3 133.2,57.8 197.6,23.8 59.3,-31.2 95,-93.2 93.3,-159.2 9.6,-48.6 111.8,-199.6 483.6,-359.9 48.1,-20.7 84.3,-61.7 98.8,-112 14.6,-50.2 6,-104.3 -23.5,-147.4 -1.3,-1.9 -212.9,-332.1 -279.6,-1126.8 -92.8,-1104.3 -519.4,-1422.5 -567.7,-1455.2 -30,-20.3 -64.1,-30 -97.8,-30"
         style="fill:#390176;fill-opacity:1;fill-rule:nonzero;stroke:none"
         id="path93" />
      <path
         d="m 13834.7,30406.4 c 436.1,1119.5 1406.4,2244.5 2395,2917.9 l 209.9,139.9 c 26.3,17.5 61.8,10.4 79.3,-15.9 17,-25.5 10.6,-59.4 -13.2,-77.5 -445.4,-365.2 -853.8,-772.6 -1207.7,-1225.8 -356,-443.3 -654.6,-937.4 -922.3,-1437.9 -64,-122.8 -162.8,-313.8 -218.8,-436.2 -98.8,-195.5 -392.4,-72.7 -322.2,135.5"
         style="fill:#390176;fill-opacity:1;fill-rule:nonzero;stroke:none"
         id="path95" />
      <path
         d="m 14824,33391.1 c -400.2,-806.1 -760.5,-1850 -537.3,-2748 25.8,-94 -30.2,-191.2 -124.4,-215.9 -98.4,-26.4 -199.9,38.7 -217.1,139.1 -46.6,260.3 -45.5,524.3 -13.5,783.7 65.2,504.7 233.8,982.7 447,1438.5 106.9,225.4 223,443.6 356.9,655.4 35.6,54.5 120.3,6 88.4,-52.8"
         style="fill:#390176;fill-opacity:1;fill-rule:nonzero;stroke:none"
         id="path97" />
      <path
         d="m 13180.3,33279.1 c -171.7,-374.5 -227.6,-816.1 -123.5,-1216.1 30.1,-136.8 92.6,-261.8 152.1,-385.7 40.5,-127.4 93.1,-260.2 150.7,-382.3 56.3,-118.9 120.7,-232.5 193.9,-329.6 138.9,-198.9 -156.1,-399.9 -290,-196 -156.2,264.1 -241.8,535.5 -308.4,829.2 -150.9,334.3 -194.2,871 -38,1318.8 47,142.4 105,277.6 183.7,408.2 13.1,21.7 41.3,28.8 63.1,15.6 21.6,-12.9 28.2,-40.6 16.4,-62.1"
         style="fill:#390176;fill-opacity:1;fill-rule:nonzero;stroke:none"
         id="path99" />
      <path
         d="m 11841.4,30890.2 c 107.6,-92.8 246.4,-158.5 385.5,-184.9 44.8,-9.4 90.2,-12.9 134.2,-15.1 99.1,-5.1 175.3,-89.5 170.2,-188.6 -5.1,-99 -89.5,-175.2 -188.6,-170.2 -28.4,1.5 -54.5,9.4 -78.1,22.4 -108.7,54.7 -209,124.9 -293.9,210.1 -82.8,83.4 -149.6,173.7 -198.9,280.9 -9.5,21.1 -0.1,45.9 20.9,55.4 17.4,7.9 36.3,2.7 48.7,-10"
         style="fill:#390176;fill-opacity:1;fill-rule:nonzero;stroke:none"
         id="path101" />
      <path
         d="m 18130.3,35358 c -415.1,-158.4 -838.2,-363.1 -1157.9,-679.6 -46.9,-51.3 -128.9,14.3 -88.7,71.1 284.5,396.2 685.9,681.5 1102.8,927.6 225.2,114.2 379.1,-225.6 143.8,-319.1"
         style="fill:#390176;fill-opacity:1;fill-rule:nonzero;stroke:none"
         id="path103" />
      <path
         d="m 15431.8,27778.3 c -638.4,0 -1276.5,59.6 -1903,152.7 133.6,216 283.2,584.3 333.8,1186 66.7,794.7 278.3,1124.9 279.6,1126.8 7.9,11.7 14.4,24.2 19.3,37.2 56.7,122.6 151.9,306.6 214.2,426.1 267.7,500.5 566.3,994.6 922.3,1437.9 353.9,453.2 762.3,860.6 1207.7,1225.8 23.8,18.1 30.2,52 13.2,77.5 -11,16.6 -29.1,25.5 -47.6,25.5 -10.9,0 -21.9,-3.1 -31.7,-9.6 l -209.9,-139.9 c -759,-516.9 -1507.1,-1300 -2011,-2142.5 -13.3,757.1 283,1560.3 605.3,2209.3 22.1,40.8 -11.8,76.5 -46.6,76.5 -15.3,0 -30.9,-7 -41.8,-23.7 -133.9,-211.8 -250,-430 -356.9,-655.4 -213.2,-455.8 -381.8,-933.8 -447,-1438.5 -29,-235 -32.6,-473.7 1.6,-710.1 -9.1,-20 -17.9,-39.8 -26.7,-59.8 -213,114 -295.2,214.9 -317.4,265.3 3.1,37.7 -7,78.9 -35.7,120 -0.1,0.1 -0.1,0.2 -0.2,0.2 -2.9,4.3 -6.1,8.6 -9.4,12.6 -69.2,94.2 -130.5,203.1 -184.3,316.8 -57.6,122.1 -110.2,254.9 -150.7,382.3 -59.5,123.9 -122,248.9 -152.1,385.7 -104.1,400 -48.2,841.6 123.5,1216.1 11.8,21.5 5.2,49.2 -16.4,62.1 -7.4,4.5 -15.6,6.6 -23.7,6.6 -15.6,0 -30.8,-7.9 -39.4,-22.2 -78.7,-130.6 -136.7,-265.8 -183.7,-408.2 -156.2,-447.8 -112.9,-984.5 38,-1318.8 54.5,-240.4 121.8,-465.8 230,-684.6 -278.9,-195 -577,-225.1 -733.8,-225.1 -68.5,0 -110.1,5.8 -111.4,6 -9.2,1.4 -18.5,2.1 -27.6,2.1 -7.7,0 -15.3,-0.5 -22.8,-1.4 -20.9,2.2 -41.8,5.3 -62.6,9.7 -139.1,26.4 -277.9,92.1 -385.5,184.9 -8.4,8.6 -19.8,13.7 -31.6,13.7 -5.7,0 -11.5,-1.1 -17.1,-3.7 -21,-9.5 -30.4,-34.3 -20.9,-55.4 49.3,-107.2 116.1,-197.5 198.9,-280.9 67.2,-67.4 143.9,-125.4 226.9,-173.8 25.8,-26.2 307.5,-332.1 293.9,-1142.9 -6.7,-396.1 -166.2,-525 -234.5,-562.1 -34.8,-18.9 -71.6,-28.4 -106.2,-28.4 -30.8,0 -59.9,7.6 -84.3,22.8 -48.6,30.5 -72.5,86.9 -69,163.1 2.1,46.2 2,91.5 0.1,135.8 275.1,240.8 254.4,981.1 -6.2,1326.6 -369.6,490.2 -329.4,699.1 -329.4,699.1 0,0 400.6,-206.9 731.5,-206.8 304.8,0 550.4,175.5 369.4,849.7 -377.7,1406.2 522.3,1904.4 522.3,1904.4 -450,-1607.1 450,-1671.4 450,-1671.4 337.5,1575 1500,2057.2 1500,2057.2 -509,-803.6 -680.4,-1784 -680.4,-1784 932.2,1317.9 2175,1459.7 2175,1459.7 -1785.5,-1954.5 -1239.8,-4028.2 1283.8,-4028.1 959.4,0.1 2204.9,299.8 3716.5,1019.9 1382.2,658.3 2151,1366.7 2528.1,2058.1 346.4,-185.3 706.6,-429.6 1024,-676 198.2,-218.3 384.9,-446.4 545.7,-660 -271.7,-15.5 -543.2,-39.8 -813,-73.2 -1933.9,-239.5 -3645.4,-915.8 -4949.4,-1955.7 -1439.7,-1148.1 -3038.5,-1519.6 -4633.7,-1519.6"
         style="fill:#6f1e88;fill-opacity:1;fill-rule:nonzero;stroke:none"
         id="path105" />
      <path
         d="m 25282.2,31986.8 c -317.4,246.4 -677.6,490.7 -1024,676 31.1,57 59.5,113.9 85.4,170.6 305.6,-201.7 635.6,-512.7 938.6,-846.6"
         style="fill:#a277b7;fill-opacity:1;fill-rule:nonzero;stroke:none"
         id="path107" />
      <path
         d="m 15430.5,27605.1 c -678.9,0 -1355.7,65.9 -2017.2,167.5 34.8,39.9 74.4,92 115.5,158.4 626.5,-93.1 1264.6,-152.7 1903,-152.7 1595.2,0 3194,371.5 4633.7,1519.6 1304,1039.9 3015.5,1716.2 4949.4,1955.7 269.8,33.4 541.3,57.7 813,73.2 43.2,-57.5 84.6,-113.9 123.8,-168.8 -2089.2,-99 -4193.7,-734.4 -5777.1,-1996.9 -1476.1,-1177 -3116.4,-1556.1 -4744.1,-1556"
         style="fill:#390176;fill-opacity:1;fill-rule:nonzero;stroke:none"
         id="path109" />
      <path
         d="m 13413.3,27772.6 c -72.2,11.1 -144.4,22.6 -216.2,34.5 0,0 402.5,272 491,1324.5 45.8,545.4 157.1,884.7 232.9,1060.9 25.8,-12.9 54.5,-19.9 83.2,-19.9 58.8,0 117.8,29.4 152.7,98.3 1.5,3.3 3,6.7 4.6,10.1 -4.9,-13 -11.4,-25.5 -19.3,-37.2 -1.3,-1.9 -212.9,-332.1 -279.6,-1126.8 -50.6,-601.7 -200.2,-970 -333.8,-1186 -41.1,-66.4 -80.7,-118.5 -115.5,-158.4 m -1262.2,708.9 c -181.6,0 -339,136.8 -328.5,369.1 0.8,17.5 0.4,34.5 0.5,51.8 67.7,6.3 125.8,33.3 174.5,76 1.9,-44.3 2,-89.6 -0.1,-135.8 -3.5,-76.2 20.4,-132.6 69,-163.1 24.4,-15.2 53.5,-22.8 84.3,-22.8 34.6,0 71.4,9.5 106.2,28.4 68.3,37.1 227.8,166 234.5,562.1 13.6,810.8 -268.1,1116.7 -293.9,1142.9 21.9,-12.8 44.3,-24.9 67,-36.3 23.6,-13 49.7,-20.9 78.1,-22.4 3.1,-0.1 6.2,-0.2 9.3,-0.2 31.3,0 61,8.1 86.8,22.4 105.4,-182.9 237.5,-529.4 227.8,-1109.5 -9.3,-537.4 -282.3,-762.6 -515.5,-762.6 m 1688,1936.1 c -198,103.6 -305.3,201.8 -363.3,280 60.2,24.6 107.9,80.6 113.4,147.8 22.2,-50.4 104.4,-151.3 317.4,-265.3 -23.7,-54.1 -46.2,-108.3 -67.5,-162.5 m -1307.6,98.1 c -2.4,92.9 -76,169.7 -170.4,174.5 -23.6,1.2 -47.6,2.7 -71.6,5.4 7.5,0.9 15.1,1.4 22.8,1.4 9.1,0 18.4,-0.7 27.6,-2.1 1.3,-0.2 42.9,-6 111.4,-6 156.8,0 454.9,30.1 733.8,225.1 24,-48.5 50,-96.7 78.4,-144.6 2.2,-3.3 4.4,-6.5 6.6,-9.6 -270.4,-184.3 -551.6,-234.4 -738.6,-244.1 m 1021.8,449.9 c -3.1,4.2 -6.3,8.4 -9.4,12.6 3.3,-4 6.5,-8.3 9.4,-12.6 m 12398.4,192.4 c -39.2,54.9 -80.6,111.3 -123.8,168.8 -160.8,213.6 -347.5,441.7 -545.7,660 -303,333.9 -633,644.9 -938.6,846.6 25.4,55.7 48.3,111.2 68.9,166.5 858,-547.3 1747.6,-1833.8 1747.6,-1833.8 -69.4,-2.1 -139,-4.8 -208.4,-8.1"
         style="fill:#390176;fill-opacity:1;fill-rule:nonzero;stroke:none"
         id="path111" />
      <path
         d="m 14004.2,30172.6 c -28.7,0 -57.4,7 -83.2,19.9 44.4,102.9 76.6,150.1 76.6,150.1 -58.4,25.2 -111,50.3 -158.5,75 21.3,54.2 43.8,108.4 67.5,162.5 8.8,20 17.6,39.8 26.7,59.8 3.6,-24.6 7.5,-49.1 11.9,-73.6 14.6,-85.2 89.9,-145 172.5,-145 14.7,0 29.7,1.9 44.6,5.9 94.2,24.7 150.2,121.9 124.4,215.9 -43.5,174.9 -64.8,355.5 -68,538.7 503.9,842.5 1252,1625.6 2011,2142.5 l 209.9,139.9 c 9.8,6.5 20.8,9.6 31.7,9.6 18.5,0 36.6,-8.9 47.6,-25.5 17,-25.5 10.6,-59.4 -13.2,-77.5 -445.4,-365.2 -853.8,-772.6 -1207.7,-1225.8 -356,-443.3 -654.6,-937.4 -922.3,-1437.9 -62.3,-119.5 -157.5,-303.5 -214.2,-426.1 -1.6,-3.4 -3.1,-6.8 -4.6,-10.1 -34.9,-68.9 -93.9,-98.3 -152.7,-98.3"
         style="fill:#390176;fill-opacity:1;fill-rule:nonzero;stroke:none"
         id="path113" />
      <path
         d="m 14117.7,30421.3 c -82.6,0 -157.9,59.8 -172.5,145 -4.4,24.5 -8.3,49 -11.9,73.6 -34.2,236.4 -30.6,475.1 -1.6,710.1 65.2,504.7 233.8,982.7 447,1438.5 106.9,225.4 223,443.6 356.9,655.4 10.9,16.7 26.5,23.7 41.8,23.7 34.8,0 68.7,-35.7 46.6,-76.5 -322.3,-649 -618.6,-1452.2 -605.3,-2209.3 3.2,-183.2 24.5,-363.8 68,-538.7 25.8,-94 -30.2,-191.2 -124.4,-215.9 -14.9,-4 -29.9,-5.9 -44.6,-5.9"
         style="fill:#390176;fill-opacity:1;fill-rule:nonzero;stroke:none"
         id="path115" />
      <path
         d="m 13475.8,30697.6 c -75.8,102.2 -67.2,170 -67.2,170 -45.5,-40.3 -91.8,-76 -138.5,-107.8 -2.2,3.1 -4.4,6.3 -6.6,9.6 -28.4,47.9 -54.4,96.1 -78.4,144.6 -108.2,218.8 -175.5,444.2 -230,684.6 -150.9,334.3 -194.2,871 -38,1318.8 47,142.4 105,277.6 183.7,408.2 8.6,14.3 23.8,22.2 39.4,22.2 8.1,0 16.3,-2.1 23.7,-6.6 21.6,-12.9 28.2,-40.6 16.4,-62.1 -171.7,-374.5 -227.6,-816.1 -123.5,-1216.1 30.1,-136.8 92.6,-261.8 152.1,-385.7 40.5,-127.4 93.1,-260.2 150.7,-382.3 53.8,-113.7 115.1,-222.6 184.3,-316.8 3.1,-4.2 6.3,-8.4 9.4,-12.6 0.1,0 0.1,-0.1 0.2,-0.2 28.7,-41.1 38.8,-82.3 35.7,-120 -5.5,-67.2 -53.2,-123.2 -113.4,-147.8"
         style="fill:#390176;fill-opacity:1;fill-rule:nonzero;stroke:none"
         id="path117" />
      <path
         d="m 12352,30331.2 c -3.1,0 -6.2,0.1 -9.3,0.2 -28.4,1.5 -54.5,9.4 -78.1,22.4 -22.7,11.4 -45.1,23.5 -67,36.3 -83,48.4 -159.7,106.4 -226.9,173.8 -82.8,83.4 -149.6,173.7 -198.9,280.9 -9.5,21.1 -0.1,45.9 20.9,55.4 5.6,2.6 11.4,3.7 17.1,3.7 11.8,0 23.2,-5.1 31.6,-13.7 107.6,-92.8 246.4,-158.5 385.5,-184.9 20.8,-4.4 41.7,-7.5 62.6,-9.7 24,-2.7 48,-4.2 71.6,-5.4 94.4,-4.8 168,-81.6 170.4,-174.5 -27.5,-1.5 -52.9,-2 -75.9,-2 -88.7,0 -142.5,8.4 -142.5,8.4 0,0 57.2,-49.8 125.7,-168.5 -25.8,-14.3 -55.5,-22.4 -86.8,-22.4"
         style="fill:#390176;fill-opacity:1;fill-rule:nonzero;stroke:none"
         id="path119" />
      <path
         d="m 30700.8,16313.2 h 332.9 l 62.1,1006.9 c -735.8,-593.9 -395,-1006.9 -395,-1006.9"
         style="fill:#a17e89;fill-opacity:1;fill-rule:nonzero;stroke:none"
         id="path121" />
      <path
         d="m 30808.7,16488.2 h 60.4 l 22.4,363 c -106.9,-168.2 -102.2,-292.4 -82.8,-363 m 225,-350 h -332.9 c -52.2,0 -101.7,23.4 -135,63.7 -14.6,17.6 -141.8,180.4 -115.2,443.7 27.8,273.6 207.9,546.4 535.3,810.7 54,43.5 128.6,51 190.2,19.2 61.6,-31.7 98.6,-97 94.4,-166.2 l -62.2,-1006.9 c -5.7,-92.2 -82.2,-164.2 -174.6,-164.2"
         style="fill:#390176;fill-opacity:1;fill-rule:nonzero;stroke:none"
         id="path123" />
      <path
         d="m 33342.3,27074.7 c -1832.1,1333.9 -2748.2,-755.4 -2748.2,-755.4 0,0 -787.5,-1133 -466.1,-2346.4 321.5,-1213.4 1317.9,-819.7 1317.9,-819.7 0,0 -578.6,-1269.6 -241.1,-2362.5 337.5,-1092.8 -398.3,-2195.6 -109,-3470.6 l -204.4,-3311.5 c 0,0 -83,-1933.9 184.8,-3112.5 267.9,-1178.6 139.3,-5807.2 450,-6225 310.8,-417.9 525,21.4 460.8,867.8 -64.3,846.5 -182.2,4564.3 -128.6,5153.6 53.6,589.3 -80.4,2019.7 -2.7,3243.8 l 87.3,3441.9 c 0,0 17.2,1275 483.2,2046.5 466.1,771.4 -48.2,1796.4 209,2650 257.1,853.5 2539.3,3666 707.1,5000"
         style="fill:#d88454;fill-opacity:1;fill-rule:nonzero;stroke:none"
         id="path125" />
      <path
         d="m 31796.4,17821.6 c -55.1,446.3 -68.4,1097.9 212,1558 466.1,765 -48.2,1781.4 208.9,2627.7 257.2,846.4 2539.3,3635.3 707.2,4958 -267.6,193.1 -515.5,313.8 -743.9,379.2 331.2,-2.4 686,-140 1058.7,-411.3 1298.3,-945.6 305.9,-2752.5 -350.9,-3948.2 -200.1,-364.1 -358.1,-651.7 -420.8,-859.8 -123.2,-409 -84.5,-841.4 -47,-1259.5 44.6,-498.1 86.7,-968.5 -144.1,-1350.6 -313.7,-519.2 -434.1,-1237 -480.1,-1693.5"
         style="fill:#efcebb;fill-opacity:1;fill-rule:nonzero;stroke:none"
         id="path127" />
      <path
         d="m 31735.6,4699.3 c -15.3,12.5 -38.4,35.2 -68.3,75.4 -133.3,202.6 -180.3,1807.6 -214.6,2979.6 -37.5,1283.5 -76.3,2610.8 -205.8,3180.6 -259.5,1141.8 -181.5,3047.1 -180.8,3062.9 l 6.6,107.1 c 85.5,35 194.3,66.2 310.7,66.2 98.1,0 201.6,-22.2 301.1,-82.7 l -3.7,-144.4 c -4.1,-66.2 -7.7,-133 -10.7,-200.3 -55.1,-1.3 -108.4,-14 -159,-40.6 -488.5,-257 -47.5,-1307 0,-2721.5 38.2,-1134.6 -161.3,-3814.8 267.5,-4851.4 12.2,-261.6 23.8,-471.8 33.9,-604.5 39.6,-521.9 -35.7,-756.3 -76.9,-826.4 m -507,11931.4 41.9,678.6 c 1,16.6 -0.3,33.3 -4,49.5 -135.7,598 -30.2,1169.1 71.8,1721.4 106.4,575.6 216.3,1170.9 33.7,1762.2 -313.3,1014.4 227.7,2226.3 233.1,2238.3 29.5,64.6 16.5,140.5 -32.2,192.3 -33.6,35.8 -80.2,55 -127.6,55 -21.2,0 -42.5,-3.9 -62.9,-11.7 -2.1,-0.8 -130.1,-48.8 -297.9,-48.8 -102.5,0 -219.8,17.9 -332.2,75.4 -212.1,108.5 -365.2,335.5 -455.1,674.8 -58.7,221.7 -77.1,441.5 -68.8,651.8 74.4,-139.3 182.2,-248.8 333.7,-310.9 106.6,-43.8 206.3,-63.1 298.9,-63.1 688.6,0 980.8,1070.8 777.6,1113.1 -26.1,5.4 -51.3,7.8 -75.5,7.8 -189,0 -315.5,-147.3 -315.5,-147.3 0,0 -56.9,872.3 642.4,872.3 42,0 86.9,-3.1 134.6,-9.8 841,-117.5 1210.5,-841 739,-1462.5 -471.5,-621 -1461.5,-1998 -1237,-3219.5 224.5,-1221.5 353,-1510.5 64,-2346.5 -226.3,-654.4 -346.9,-1437.2 175.3,-1803.7 l -15.4,-606 c -6,0 -12,0.1 -18.1,0.1 -132.8,0 -291.2,-16 -479.4,-57.2 -8.2,-1.8 -16.4,-3.7 -24.4,-5.6"
         style="fill:#a85c5e;fill-opacity:1;fill-rule:nonzero;stroke:none"
         id="path129" />
      <path
         d="m 31445.3,23328 c 47.4,0 94,-19.2 127.6,-55 48.7,-51.8 61.7,-127.7 32.2,-192.3 -5.4,-12 -546.4,-1223.9 -233.1,-2238.3 182.6,-591.3 72.7,-1186.6 -33.7,-1762.2 -102,-552.3 -207.5,-1123.4 -71.8,-1721.4 3.7,-16.2 5,-32.9 4,-49.5 l -204.4,-3311.5 c -0.7,-15.8 -78.7,-1921.1 180.8,-3062.9 129.5,-569.8 168.3,-1897.1 205.8,-3180.6 34.3,-1172 81.3,-2777 214.6,-2979.6 29.9,-40.2 53,-62.9 68.3,-75.4 41.2,70.1 116.5,304.5 76.9,826.4 -62.1,817.6 -183.3,4578.5 -128.4,5182.6 22.7,249.4 9.9,671.1 -4.9,1159.4 -18.7,617 -42,1384.7 1.6,2076.3 l 87.2,3438.7 c 0.7,51.9 23.4,1329.6 508.5,2132.4 230.8,382.1 188.7,852.5 144.1,1350.6 -37.5,418.1 -76.2,850.5 47,1259.5 62.7,208.1 220.7,495.7 420.8,859.8 656.8,1195.7 1649.2,3002.6 350.9,3948.2 -492.6,358.6 -953.9,483.6 -1370.9,371.5 -726.2,-195.2 -1110.3,-1047.3 -1114.1,-1055.9 -4.5,-10.2 -10.1,-20.2 -16.5,-29.4 -7.3,-10.5 -736.7,-1083.8 -440.6,-2201.7 89.9,-339.3 243,-566.3 455.1,-674.8 296.5,-151.6 626.7,-27.9 630.1,-26.6 20.4,7.8 41.7,11.7 62.9,11.7 m 302.3,-18991.9 c -96,0 -225.1,46.8 -361.8,230.6 -179.1,240.8 -223.7,1153.1 -282.9,3177.4 -37.1,1266.8 -75.4,2576.7 -197.3,3113.2 -269.9,1187.8 -192.5,3078.9 -189,3158.8 l 203,3290.1 c -143.3,658.5 -32.6,1257.8 74.5,1837.6 103.3,558.6 200.7,1086.2 43.5,1595.3 -254.3,823.4 -26,1722.3 130.9,2181.2 -164.6,-11.2 -369.6,7 -571.1,108.7 -306.7,155 -521.6,457.5 -638.5,899 -322.6,1217.8 386.1,2333.8 482,2477.3 61.8,133.3 496.1,1010.1 1334.3,1236.8 525.1,142 1086.9,-1.3 1670.1,-426 1547.8,-1126.9 422.3,-3175.5 -250.2,-4399.6 -182.6,-332.4 -340.3,-619.4 -392.4,-792.3 -103.7,-344.2 -69.6,-724.6 -33.5,-1127.3 47.6,-532.2 96.9,-1082.6 -193.2,-1562.7 -435.5,-721 -457.9,-1946.1 -458.1,-1958.4 l -87.2,-3444 c -0.1,-2.2 -0.2,-4.5 -0.3,-6.6 -42.9,-676.1 -20.9,-1404.3 -1.4,-2046.9 15.2,-499.7 28.2,-931.2 3.7,-1201.6 -50.7,-557.6 59.6,-4214.1 128.7,-5124.5 29.9,-392.7 29.2,-1070.5 -310.6,-1197.4 -26.9,-10.1 -62,-18.7 -103.2,-18.7"
         style="fill:#390176;fill-opacity:1;fill-rule:nonzero;stroke:none"
         id="path131" />
      <path
         d="m 24454.6,16556.1 c -458,-787.5 -1840,-466 -1888,490 -35,692.5 257,1527 -415,2509 522.5,-282.5 1391,-564.5 2311.5,-68 11,-37 568.5,-1939 -8.5,-2931"
         style="fill:#390176;fill-opacity:1;fill-rule:nonzero;stroke:none"
         id="path133" />
      <path
         d="m 24491,16813 c 0,-339.9 -401.2,-615.5 -896,-615.5 -494.8,0 -896,275.6 -896,615.5 0,340 401.2,615.6 896,615.6 494.8,0 896,-275.6 896,-615.6"
         style="fill:#ef569c;fill-opacity:1;fill-rule:nonzero;stroke:none"
         id="path135" />
      <path
         d="m 11100.9,7234.3 c 402.5,-247 1913.6,-1063.9 4290.2,-1063.9 7.8,0 15.6,0 23.4,0 288.5,923.2 870.4,2993.6 1208.8,5623.4 419,3255.7 538.7,8052.4 -1240.4,12512.3 l -3753.1,-1569.9 c 177.6,-477.9 675.1,-1973.7 903.4,-4268.6 250.6,-2518.4 202.6,-6503.2 -1432.3,-11233.3 m 5497.5,-1976.6 c 3654.2,-635.5 6581.5,-198 8394.8,281.6 1711.2,452.6 2779.2,1026.3 3037.2,1173.6 940.3,3979.7 923.1,8594.2 741.9,11773.1 -177,3105.2 -540.4,5478.3 -618.1,5961.8 -2312,1057.4 -5363.9,1082 -7529.2,914 -2281.7,-177.1 -4079.1,-599.2 -4247.6,-639.7 l -671.6,-280.9 c 791.8,-1982.4 1282.2,-4189.7 1458.4,-6564.3 144.5,-1948.3 79,-4012.9 -194.9,-6136.6 -355.2,-2755.1 -975.8,-4904.6 -1255,-5782.6 -2.2,-9.8 -5.2,-19.3 -9,-28.4 -32.1,-100.3 -59.3,-182.8 -80.6,-246.4 l 973.7,-425.2 m 3622.9,-667.2 c -1127.8,0 -2368.3,92.5 -3703.8,326.1 -13.7,2.4 -27.1,6.4 -39.9,11.9 l -1141,498.3 c -84.6,36.9 -126,133.2 -94.5,220 1.3,3.7 22.7,63.4 59.6,173.9 -2849.3,22 -4445.2,1150.2 -4513.6,1199.6 -62.9,45.3 -88.4,126.6 -62.7,199.8 1655.5,4719.4 1708.3,8693.8 1461.1,11196.8 -268,2713.2 -936.3,4331.1 -943.1,4347.1 -17.9,42.9 -18.1,91.1 -0.5,134.1 17.6,43 51.5,77.2 94.4,95.1 l 4917.8,2057.2 c 8.3,3.5 16.9,6.3 25.7,8.4 18.7,4.7 1898.1,463.7 4311.3,651.5 2235.3,173.9 5402.1,144.3 7794.5,-984.5 51.7,-24.4 88.3,-72.5 97.9,-128.9 4.3,-25.6 437.9,-2597.3 637,-6086.4 184,-3223 200,-7912.7 -767.9,-11951.6 -10.8,-44.9 -38.9,-83.7 -78.1,-108.1 -46.6,-28.7 -1162.2,-710.8 -3177.1,-1245.7 -1190.6,-316.1 -2851.8,-614.6 -4877.1,-614.6"
         style="fill:#390176;fill-opacity:1;fill-rule:nonzero;stroke:none"
         id="path137" />
      <path
         d="m 16547.8,4913.9 c -15.7,0 -31.5,2.1 -47.3,6.5 -93.1,26 -147.4,122.6 -121.4,215.7 1818.2,6495.7 1660.9,11505.5 1208.9,14564.3 -488.3,3303.4 -1411,5089.6 -1420.3,5107.2 -44.9,85.6 -11.9,191.4 73.7,236.3 85.5,44.9 191.4,11.9 236.2,-73.7 39,-74.2 959.7,-1856.9 1456.6,-5218.6 291,-1969.1 373.3,-4071.9 244.7,-6250 -160.8,-2720.2 -652.9,-5566.5 -1462.7,-8459.8 -21.7,-77.3 -91.9,-127.9 -168.4,-127.9"
         style="fill:#390176;fill-opacity:1;fill-rule:nonzero;stroke:none"
         id="path139" />
      <path
         d="m 15676.3,16175.1 c -220.1,228.9 -584.1,235.9 -813,15.7 -6.1,-5.8 -621,-595.7 -1351.4,-1160.9 -650.1,-503 -1078.8,-745.2 -1346.7,-861.5 -265.2,-115.1 -572.1,-75.1 -796.3,107.4 -374.3,304.7 -748.7,868.3 -961,1306.4 239.7,288.5 685.3,938.6 461.2,1571 -300,846.5 -1376.79,825 -1542.86,567.9 0,0 -401.79,107.1 -610.71,246.4 -208.93,139.3 -814.29,107.2 -830.37,-648.2 0,0 -969.63,-305.4 -358.92,-1275 0,0 -37.5,-787.5 369.64,-1033.9 407.15,-246.5 487.5,342.8 487.5,342.8 0,0 480.21,-283 954.59,-198.5 0.82,-1.8 1.38,-3.7 2.22,-5.5 95.46,-206.3 970.11,-2020.6 2265.11,-2223 58,-9.1 122.8,-15.4 196.8,-15.4 412.4,0 1104.2,196.5 2413.5,1209.5 778.9,602.7 1418.2,1216 1445,1241.8 228.9,220.1 235.9,584.1 15.7,813"
         style="fill:#a17e89;fill-opacity:1;fill-rule:nonzero;stroke:none"
         id="path141" />
      <path
         d="m 9498.4,15224 1.1,-2.4 -1.1,2.4 m 2.28,-4.9 c 102.86,-221 935.72,-1933.1 2131.72,-2120 57.1,-8.9 112.6,-13.3 169.7,-13.3 524.5,0 1300.5,394.7 2306.4,1173 776.7,600.9 1404.3,1204 1430.7,1229.3 77.1,74.2 120.6,173.8 122.7,280.6 2.1,106.8 -37.6,208.1 -111.7,285.1 v 0 c -74,77 -173.6,120.5 -280.5,122.6 -107.2,3 -208,-37.6 -285,-111.7 -66.2,-63.2 -658.3,-625.9 -1365.7,-1173.2 -552.4,-427.4 -1018.1,-724.7 -1384.2,-883.6 -327.5,-142.1 -701.6,-91.5 -976.4,132.2 -422,343.6 -806.7,950.5 -1008,1365.8 -29.9,61.8 -21,135.4 22.9,188.2 195.5,235.2 628.7,842.3 430.9,1400.7 -161.6,455.8 -575.1,567.7 -745.42,594.6 -273.8,43.2 -458.6,-28.2 -485.96,-63.9 -41.21,-63.7 -118.36,-93.1 -191.67,-73.5 -17.54,4.7 -432.36,116.4 -662.68,269.9 -57.79,38.4 -203.73,57.5 -327.61,-7.1 -145.6,-76 -225.39,-248.6 -230.74,-499.2 -1.58,-75 -50.83,-140.7 -122.38,-163.2 -2.45,-0.8 -318.49,-106.2 -411.74,-363.9 -63.36,-175.1 -13.46,-394.1 148.31,-650.9 19.11,-30.4 28.44,-65.8 26.73,-101.6 -8.55,-190.2 26.05,-718.9 285.47,-875.9 48.27,-29.2 88.92,-40.9 108.7,-31.6 52.83,25.2 103.27,163.9 114.79,248.4 7.92,58 44.34,108.3 97.05,133.8 52.71,25.6 114.72,23.1 165.18,-6.7 3.99,-2.3 432.26,-248.6 835.03,-177 79.16,14.2 157.6,-27.5 190.44,-100.8 0.8,-1.8 1.95,-4.6 2.98,-7.1 m 2301.42,-2483.2 c -75.3,0 -148.5,5.7 -223.7,17.4 -1248.7,195.1 -2113.1,1750.9 -2344.23,2213.2 -288.4,-18.1 -561.4,66.1 -738.06,138.8 -45.29,-110.7 -121.99,-231.5 -250.1,-292.6 -92.18,-44.1 -243.46,-71.4 -440.74,48 -428.6,259.4 -457.28,926.8 -455.3,1136.4 -199.98,336.3 -251.07,643.6 -151.86,913.9 108.11,294.5 367.36,455.9 519.12,528.1 43.73,429.8 272.05,613.1 411.8,686 245.23,127.8 529.48,90.8 683.58,-12 117.85,-78.6 328.4,-153.2 464.8,-195.5 166.72,121 442.48,153 678.02,125.5 512.07,-59.9 915.37,-370.7 1078.57,-831.4 228.8,-645.4 -133.8,-1281.7 -419.3,-1651.3 206.7,-398.2 538.6,-883.4 864.7,-1148.9 172.9,-140.8 409,-172.4 616.1,-82.5 233.3,101.2 649.9,329.1 1309.3,839.3 705.2,545.7 1311.6,1124.1 1337,1148.5 144.6,139.1 333.4,214.2 534.7,209.5 200.3,-3.8 387.1,-85.5 526,-229.9 138.9,-144.3 213.2,-334.1 209.3,-534.4 -3.8,-200.4 -85.5,-387.1 -229.9,-526 -26.8,-25.8 -667.7,-641.7 -1459.2,-1254.1 -1083.8,-838.4 -1908.3,-1246 -2520.6,-1246"
         style="fill:#390176;fill-opacity:1;fill-rule:nonzero;stroke:none"
         id="path143" />
      <path
         d="m 9476.65,17631.6 c -91.44,-190.4 30.19,-347.8 199.96,-444.9 103.92,-64.9 108.41,-222.9 9.84,-294.4 l -15.22,-11.3 c -51.27,-14.6 -107.13,-48.9 -152.17,-80 -163.08,-109.3 -242.21,-300.5 -204.66,-495.8 2.91,-25 -15.03,-47.7 -40.06,-50.6 -20.35,-2.4 -39.16,9.1 -47.05,26.9 -72.41,146.8 -94.22,328.6 -35.94,488.6 59.11,169.5 170.15,313.1 314.88,419.6 l -5.36,-305.7 c -340.49,190.6 -521.02,560.5 -325.04,926.5 122.93,195.2 413.76,22.7 300.82,-178.9"
         style="fill:#390176;fill-opacity:1;fill-rule:nonzero;stroke:none"
         id="path145" />
      <path
         d="m 9635.86,17203.9 c 175.58,-62.8 466.44,-189.5 630.44,-51.2 12.5,11.4 31.8,10.6 43.2,-1.9 7,-7.6 9.3,-18 7.2,-27.4 -8.3,-35.9 -26.8,-71.3 -52,-101.5 -183.6,-188.5 -479.01,-184.1 -723.09,-155.1 -258.87,51.7 -154.09,427.3 94.25,337.1"
         style="fill:#390176;fill-opacity:1;fill-rule:nonzero;stroke:none"
         id="path147" />
      <path
         d="m 8059.01,17299.2 c 2.43,-168.1 10.24,-399.6 153.82,-501.7 349.67,-164.6 528.76,195.1 378.08,499.5 -51.23,102.1 88.21,192.7 160.86,106.1 130.26,-155 186.32,-368.9 132.97,-582.4 -83.88,-362.7 -531.52,-508.3 -850.31,-338 -304.29,172.5 -362.16,545.1 -323.11,856.7 38.96,223.3 359.34,184.6 347.69,-40.2"
         style="fill:#390176;fill-opacity:1;fill-rule:nonzero;stroke:none"
         id="path149" />
      <path
         d="m 8273.81,16618.4 c 158.71,-234 197.45,-566.4 -9.06,-805.7 -245.16,-272.8 -647.29,-100.3 -860.49,106.1 -169.48,157.1 54.15,411.3 231.56,263 106.09,-104.9 214.69,-217.5 355.35,-220 247.9,28.2 266.31,415.1 201.94,616.5 -16.42,48.7 52.14,82.3 80.7,40.1"
         style="fill:#390176;fill-opacity:1;fill-rule:nonzero;stroke:none"
         id="path151" />
      <path
         d="m 8289.06,16010.9 c 121.35,-205.5 215.05,-412.9 269.17,-650.3 25.05,-97.8 -35.83,-197.7 -134.56,-219.5 -96.47,-21.4 -192.02,39.5 -213.43,135.9 -5.15,23.2 -5.39,46.9 -1.71,68.9 16.52,96.8 22.74,201.6 20.3,308.1 -2.23,107.2 -12.09,218.2 -29.22,324.1 -9.1,51.8 63.43,77.8 89.45,32.8"
         style="fill:#390176;fill-opacity:1;fill-rule:nonzero;stroke:none"
         id="path153" />
      <path
         d="m 21529.8,21647.9 c 0,217.9 -45.2,423.1 -124.8,603.2 -494.3,172.3 -988.9,340.7 -1480.1,521.8 -327.4,-221.5 -548.7,-642.2 -548.7,-1125 0,-638.3 386.4,-1168 893.9,-1272.2 206.9,88.4 435,129.8 660.1,114.8 355.3,211 599.6,649.8 599.6,1157.4"
         style="fill:#390176;fill-opacity:1;fill-rule:nonzero;stroke:none"
         id="path155" />
      <path
         d="m 19197.9,23166.6 c 444.2,-60.4 869.7,-181.8 1292.2,-320.7 418.7,-142.4 830.7,-299.6 1219.3,-514.6 85.2,-48 115.3,-156 67.4,-241.2 -38.9,-69 -117.2,-101.8 -190.8,-86.4 -433.8,94.8 -847.2,248.4 -1255.8,417.6 -409.2,174.3 -809,363.8 -1182.7,611.4 -63.5,41.4 -24.4,145 50.4,133.9"
         style="fill:#390176;fill-opacity:1;fill-rule:nonzero;stroke:none"
         id="path157" />
      <path
         d="m 19690,19911.7 c 226.8,474.7 775.3,839.1 1313.2,739.3 185.7,-39.4 355.9,-142.9 454.4,-295.9 8.2,-12.7 4.5,-29.7 -8.2,-37.9 -5.9,-3.8 -12.3,-4.9 -18.8,-4.2 -89,7.1 -165.5,19.9 -241.1,21.6 -144.5,6.8 -276.8,-6 -415.6,-33 -338.4,-63.8 -731.1,-275.8 -1047.1,-423.8 -21.1,-12.4 -47.7,12 -36.8,33.9"
         style="fill:#390176;fill-opacity:1;fill-rule:nonzero;stroke:none"
         id="path159" />
      <path
         d="m 21085.2,21835.4 c 0,-226.4 -151.1,-409.9 -337.5,-409.9 -186.4,0 -337.5,183.5 -337.5,409.9 0,226.3 151.1,409.8 337.5,409.8 186.4,0 337.5,-183.5 337.5,-409.8"
         style="fill:#ffffff;fill-opacity:1;fill-rule:nonzero;stroke:none"
         id="path161" />
      <path
         d="m 20181.8,20716.8 c -86.2,0 -162.8,79.4 -175,185.2 -13,112.4 51.6,212.2 144.2,222.9 5.4,0.6 10.8,0.9 16.1,0.9 86.2,0 162.8,-79.3 175,-185.1 13,-112.5 -51.6,-212.2 -144.2,-222.9 -5.4,-0.6 -10.8,-1 -16.1,-1"
         style="fill:#b099c8;fill-opacity:1;fill-rule:nonzero;stroke:none"
         id="path163" />
      <path
         d="m 24806.9,22003.7 c -21.9,216.9 2.5,425.6 63.5,612.8 474.5,221.1 949.6,438.4 1420.1,668 348,-187.4 610.5,-583.6 659.1,-1064.1 64.2,-635 -266.9,-1200.9 -761.3,-1355.6 -214.8,67.1 -445.8,85.4 -668.3,47.7 -374.7,174.2 -662,586.3 -713.1,1091.2"
         style="fill:#390176;fill-opacity:1;fill-rule:nonzero;stroke:none"
         id="path165" />
      <path
         d="m 27037.8,23621.3 c -346.9,-284 -725.6,-512.8 -1115.2,-727.4 -389.5,-209.4 -785.2,-403.9 -1207.4,-541.8 -93.1,-29.7 -192.7,21.8 -222.4,115 -24,75.4 5.3,155.1 66.7,198.5 365,253 759.1,450.8 1161.3,634.7 406.4,180.7 817.5,344.3 1253.4,449.1 73.6,18.3 122.8,-80.9 63.6,-128.1"
         style="fill:#390176;fill-opacity:1;fill-rule:nonzero;stroke:none"
         id="path167" />
      <path
         d="m 26779,20424.1 c -473.7,169.4 -992.4,393.1 -1501.3,307.3 -75.4,-9.4 -151.3,-30.1 -239.4,-46.1 -14.9,-2.7 -29.2,7.2 -31.9,22.1 64.2,174 244.3,296.6 424.8,357.5 351.6,111.6 746.5,-14.5 1030.8,-223.7 139.5,-103.5 262.1,-226.4 350.1,-379.7 12.8,-20.9 -10.9,-47.6 -33.1,-37.4"
         style="fill:#390176;fill-opacity:1;fill-rule:nonzero;stroke:none"
         id="path169" />
      <path
         d="m 25824.3,22395.7 c 22.7,-225.2 191.5,-392.5 377,-373.8 185.4,18.8 317.3,216.6 294.5,441.7 -22.8,225.2 -191.6,392.6 -377,373.8 -185.5,-18.7 -317.3,-216.5 -294.5,-441.7"
         style="fill:#ffffff;fill-opacity:1;fill-rule:nonzero;stroke:none"
         id="path171" />
      <path
         d="m 25584.8,21221.3 c -0.7,0 -1.3,0.1 -2,0.1 -93.2,1.3 -167.5,94.1 -165.9,207.2 1.6,112.4 77.3,202.6 169.6,202.6 0.7,0 1.4,0 2,-0.1 93.2,-1.3 167.5,-94 165.9,-207.2 -1.6,-112.4 -77.3,-202.6 -169.6,-202.6"
         style="fill:#b099c8;fill-opacity:1;fill-rule:nonzero;stroke:none"
         id="path173" />
      <path
         d="m 23416.9,19042.8 c -1063.7,0 -1874.2,711 -1886.1,721.7 -71.9,64.6 -77.9,175.2 -13.4,247.2 64.6,71.8 175.1,77.8 247,13.5 64,-57.1 1561.7,-1360.7 3074.9,-65.8 73.3,62.8 183.8,54.2 246.7,-19.2 62.8,-73.4 54.2,-183.9 -19.2,-246.7 -568,-486.1 -1138.3,-650.7 -1649.9,-650.7"
         style="fill:#390176;fill-opacity:1;fill-rule:nonzero;stroke:none"
         id="path175" />
      <path
         d="m 23644.3,15936.1 c -105.1,0 -213.4,12.9 -322.8,39.5 -539,130.9 -903.9,547.6 -929.9,1061.7 -9.1,180.5 2.4,363.6 14.6,557.4 36.1,575.7 73.5,1171 -398.8,1861.5 -54.6,79.7 -34.2,188.6 45.6,243.2 79.8,54.5 188.7,34.1 243.2,-45.7 540.3,-789.8 495.4,-1505.7 459.3,-2080.9 -11.5,-183.7 -22.4,-357.2 -14.3,-517.9 21.8,-432.1 370.7,-668.2 662.8,-739.2 286.5,-69.6 693.9,-25.3 899.5,328.2 537.4,924 -2.6,2775 -8.1,2793.6 -27.5,92.6 25.3,190 117.9,217.6 92.6,27.6 190,-25.2 217.6,-117.8 24.3,-81.8 588.7,-2014.6 -24.8,-3069.4 -197.7,-339.9 -556.4,-531.7 -961.8,-531.8"
         style="fill:#390176;fill-opacity:1;fill-rule:nonzero;stroke:none"
         id="path177" />
      <path
         d="m 32758.4,15149.7 c 0,0 308.4,1800 -815.4,2228.5 v -699.8 c -165.3,25.1 -389.8,23.6 -690,-42.1 -843.7,-184.9 -634.8,-859.9 -634.8,-859.9 0,0 -297.3,-233 -72.3,-707.1 0,0 -401.8,-683 345.5,-1060.7 0,0 570.6,409.8 964.3,-72.3 0,0 806.3,-811.6 1234.8,-875.9 428.6,-64.3 632.2,1060.7 -332.1,2089.3"
         style="fill:#a17e89;fill-opacity:1;fill-rule:nonzero;stroke:none"
         id="path179" />
      <path
         d="m 33286.4,14359.5 c -0.2,0.4 -0.4,0.8 -0.5,1.2 0.1,-0.4 0.3,-0.8 0.5,-1.2 m -1.1,2.4 c -0.2,0.5 -0.4,1.1 -0.7,1.6 0.3,-0.5 0.5,-1.1 0.7,-1.6 m -1.1,2.6 c -0.2,0.6 -0.5,1.2 -0.8,1.8 0.3,-0.6 0.6,-1.2 0.8,-1.8 m -1.1,2.6 c -0.3,0.7 -0.6,1.4 -0.9,2.1 0.3,-0.7 0.6,-1.4 0.9,-2.1 m -1.2,2.7 c -0.3,0.8 -0.7,1.6 -1,2.4 0.4,-0.8 0.7,-1.6 1,-2.4 m -1.1,2.6 c -99.4,227.8 -247.5,467.5 -455.6,703.8 208.1,-236.3 356.2,-476 455.6,-703.8 m -455.8,703.9 c -0.8,0.9 -1.6,1.9 -2.4,2.7 0.8,-0.8 1.6,-1.8 2.4,-2.7 m -2.6,3.1 c -0.8,0.8 -1.5,1.6 -2.3,2.5 0.8,-0.9 1.5,-1.7 2.3,-2.5 m -2.6,2.9 c -0.8,0.9 -1.6,1.7 -2.4,2.6 0.8,-0.8 1.6,-1.8 2.4,-2.6 m -2.6,2.9 c -0.8,0.9 -1.5,1.7 -2.4,2.7 0.8,-0.9 1.6,-1.9 2.4,-2.7 m -2.6,2.9 c -3.4,3.9 -6.9,7.7 -10.4,11.6 3.5,-3.9 7,-7.7 10.4,-11.6 m -10.5,11.7 c -0.8,0.9 -1.6,1.9 -2.4,2.7 0.8,-0.9 1.6,-1.7 2.4,-2.7 m -2.9,3.3 c -0.7,0.7 -1.4,1.5 -2.1,2.3 0.7,-0.8 1.4,-1.6 2.1,-2.3 m -2.7,2.9 c -0.6,0.7 -1.3,1.5 -1.9,2.2 0.6,-0.7 1.3,-1.4 1.9,-2.2 m -2.6,2.9 c -0.6,0.7 -1.3,1.5 -1.9,2.2 0.6,-0.8 1.3,-1.5 1.9,-2.2 m -2.6,2.9 c -0.7,0.8 -1.3,1.5 -2,2.2 0.6,-0.7 1.3,-1.5 2,-2.2 m -2.6,2.8 c -0.7,0.8 -1.4,1.6 -2.2,2.5 0.7,-0.8 1.5,-1.7 2.2,-2.5 m -2.6,2.9 c -2.6,2.9 -5.2,5.7 -7.9,8.6 2.7,-2.9 5.3,-5.8 7.9,-8.6 m -8.3,9.1 c -0.7,0.8 -1.4,1.5 -2.1,2.3 0.7,-0.8 1.4,-1.5 2.1,-2.3 m -2.9,3.1 c -0.7,0.7 -1.2,1.3 -1.8,2 0.6,-0.6 1.2,-1.3 1.8,-2 m -2.7,2.9 c -0.5,0.6 -1.2,1.3 -1.7,1.9 0.6,-0.6 1.1,-1.2 1.7,-1.9 m -2.6,2.9 c -0.6,0.7 -1.2,1.2 -1.7,1.8 0.5,-0.6 1.1,-1.2 1.7,-1.8 m -2.7,2.9 c -0.6,0.6 -1.1,1.2 -1.7,1.8 0.5,-0.6 1.1,-1.2 1.7,-1.8 m -2.6,2.8 c -0.6,0.6 -1.2,1.3 -1.8,1.9 0.6,-0.6 1.2,-1.3 1.8,-1.9 m -2.6,2.8 c -0.7,0.7 -1.4,1.5 -2,2.1 0.6,-0.7 1.3,-1.4 2,-2.1 m -2.7,2.8 c -0.9,1 -1.7,1.9 -2.6,2.9 0.9,-1 1.8,-1.9 2.6,-2.9"
         style="fill:#ebebff;fill-opacity:1;fill-rule:nonzero;stroke:none"
         id="path181" />
      <path
         d="m 33234.6,13087.4 c -5.8,575.5 -246.7,1441.5 -828.6,2062.3 0,0 237,1384.6 -463,2014.1 v 214.4 c 725.4,-276.6 854.1,-1124.7 854.1,-1691.2 0,-311.1 -38.7,-537.3 -38.7,-537.3 v 0 0 0 c 0.9,-1 1.7,-1.9 2.6,-2.9 0.2,-0.2 0.5,-0.4 0.7,-0.7 0.6,-0.6 1.3,-1.4 2,-2.1 0.2,-0.3 0.5,-0.6 0.8,-0.9 0.6,-0.6 1.2,-1.3 1.8,-1.9 0.3,-0.4 0.6,-0.6 0.9,-1 0.6,-0.6 1.1,-1.2 1.7,-1.8 0.3,-0.4 0.7,-0.7 1,-1.1 0.5,-0.6 1.1,-1.1 1.7,-1.8 0.3,-0.3 0.5,-0.6 0.9,-1 0.5,-0.6 1.2,-1.3 1.7,-1.9 0.3,-0.3 0.6,-0.6 0.9,-0.9 0.6,-0.7 1.1,-1.3 1.8,-2 0.2,-0.2 0.5,-0.5 0.8,-0.8 0.7,-0.8 1.4,-1.5 2.1,-2.3 0.1,-0.2 0.3,-0.3 0.4,-0.5 2.7,-2.9 5.3,-5.7 7.9,-8.6 0.2,-0.2 0.3,-0.3 0.4,-0.4 0.8,-0.9 1.5,-1.7 2.2,-2.5 0.2,-0.2 0.4,-0.3 0.6,-0.6 0.7,-0.7 1.3,-1.4 2,-2.2 0.2,-0.3 0.4,-0.5 0.7,-0.7 0.6,-0.7 1.3,-1.5 1.9,-2.2 0.2,-0.2 0.5,-0.5 0.7,-0.7 0.6,-0.7 1.3,-1.5 1.9,-2.2 0.2,-0.2 0.4,-0.4 0.6,-0.6 0.7,-0.8 1.4,-1.6 2.1,-2.3 0.2,-0.2 0.3,-0.4 0.5,-0.6 0.8,-0.8 1.6,-1.8 2.4,-2.7 l 0.1,-0.1 c 3.5,-3.9 7,-7.7 10.4,-11.6 0.1,-0.1 0.2,-0.2 0.2,-0.2 0.9,-1 1.6,-1.8 2.4,-2.7 0.1,-0.2 0.2,-0.2 0.2,-0.3 0.8,-0.9 1.6,-1.7 2.4,-2.6 0.1,-0.1 0.2,-0.3 0.3,-0.4 0.8,-0.9 1.5,-1.7 2.3,-2.5 0.1,-0.2 0.1,-0.2 0.2,-0.4 0.8,-0.8 1.6,-1.8 2.4,-2.7 0.1,0 0.1,-0.1 0.2,-0.1 208.1,-236.3 356.2,-476 455.6,-703.8 l 0.1,-0.2 c 0.3,-0.8 0.7,-1.6 1,-2.4 0.1,-0.2 0.2,-0.4 0.3,-0.6 0.3,-0.7 0.6,-1.4 0.9,-2.1 0.1,-0.2 0.2,-0.5 0.3,-0.8 0.3,-0.6 0.6,-1.2 0.8,-1.8 0.2,-0.4 0.3,-0.6 0.4,-1 0.3,-0.5 0.5,-1.1 0.7,-1.6 0.2,-0.4 0.4,-0.8 0.6,-1.2 0.1,-0.4 0.3,-0.8 0.5,-1.2 265.1,-617.6 172.2,-1144.6 -51.8,-1272.1"
         style="fill:#d9cbd0;fill-opacity:1;fill-rule:nonzero;stroke:none"
         id="path183" />
      <path
         d="m 31985.5,14053.9 c 297.7,-298.4 862.7,-780.2 1131,-820.5 38.4,-5.9 71.7,39.6 92.2,78.8 149.4,284.7 69.1,1027.6 -578,1717.8 -37.4,39.9 -54,95.1 -44.8,149.1 2.5,15 223.4,1376.3 -467.9,1904 v -404.7 c 0,-51 -22.3,-99.4 -61,-132.7 -38.6,-33.2 -89.7,-48.2 -140.3,-40.3 -173.6,26.3 -384.3,12.9 -626.2,-40.1 -228.5,-50.1 -383.6,-142.7 -460.9,-275.5 -99.2,-170.3 -44.8,-359.8 -44.2,-361.6 21.5,-69.4 -2.1,-144.7 -59.2,-189.5 -16.2,-14 -178,-166 -22.2,-494.4 24.9,-52.4 22.1,-113.7 -7.3,-163.7 -0.8,-1.5 -132.5,-235.3 -63.8,-464.8 35.4,-118.1 120.6,-220 253.8,-303.9 273.9,151 751.4,259.8 1098.8,-158 z m 1139.8,-1171.2 c -20,0 -40.3,1.5 -60.7,4.6 -472.3,70.9 -1246.3,838.3 -1333,925.6 -4,4.1 -7.9,8.2 -11.4,12.6 -278.7,341.3 -682.1,72.3 -727.3,40.5 -52.8,-37.2 -122.7,-42.8 -180.4,-13.6 -272.4,137.6 -446,328.5 -516.1,567.2 -79.5,270.6 1.9,526.4 57.1,654.1 -135.3,348.7 -37.1,613.5 75.7,757.7 -16.6,122.7 -19.6,332.8 98,534.6 128.7,220.9 360.3,369.3 688.4,441.2 199.9,43.8 384.9,63.9 552.4,60.9 v 510.1 c 0,57.6 28.3,111.5 75.7,144.1 47.4,32.7 107.8,39.9 161.6,19.5 1107.6,-422.4 987.4,-1949.4 938.1,-2335.2 676.6,-760.2 804.6,-1620 575.2,-2057 -89.4,-170.5 -233.4,-266.9 -393.3,-266.9"
         style="fill:#390176;fill-opacity:1;fill-rule:nonzero;stroke:none"
         id="path185" />
      <path
         d="m 30558.9,15941.1 c 451,105 956.2,78.4 1355.5,-170.6 60.3,-37.3 11.8,-129.2 -53.1,-100.6 -192.5,75.8 -398.7,102.8 -603.8,85.4 -198,-16.4 -399,-63 -580,-143.5 -239,-105.5 -370.5,257.2 -118.6,329.3"
         style="fill:#390176;fill-opacity:1;fill-rule:nonzero;stroke:none"
         id="path187" />
      <path
         d="m 30478.5,15250 c 451.1,105 956.2,78.4 1355.5,-170.6 60.3,-37.3 11.9,-129.2 -53,-100.6 -192.6,75.8 -398.8,102.8 -603.9,85.4 -198,-16.4 -399,-62.9 -579.9,-143.5 -239.1,-105.4 -370.5,257.1 -118.7,329.3"
         style="fill:#390176;fill-opacity:1;fill-rule:nonzero;stroke:none"
         id="path189" />
      <path
         d="m 31280,23208.9 c 218.5,591.1 445.9,1160.7 799.2,1691.9 153.2,206.1 87.2,439.2 -38.8,592 -170.1,206.9 -408.6,115 -582.9,-43.6 -27.1,-24.7 -69.9,-22 -93.1,6.7 -14.6,18 -17.8,41.7 -10.5,62 28.3,78.4 70.6,153.9 129.8,223.2 59.8,67.8 139.8,129 238,162.2 197,73.3 435.3,8.2 587.4,-130.2 235.9,-200.7 301.7,-547.4 190.7,-827.8 -32.1,-87.9 -80.4,-169.6 -134.1,-245.2 -163.5,-234.5 -301.8,-499.6 -425.6,-770.1 -123.4,-271.5 -234.8,-554.5 -329.1,-834.9 -80.7,-217.4 -401.2,-109 -331,113.8"
         style="fill:#390176;fill-opacity:1;fill-rule:nonzero;stroke:none"
         id="path191" />
      <path
         d="m 11802.1,13085.8 c -57.1,0 -112.6,4.4 -169.7,13.3 -1196,186.9 -2028.86,1899 -2131.72,2120 -1.03,2.5 -2.18,5.3 -2.98,7.1 -28.55,63.7 -91.55,103.5 -159.53,103.5 -10.22,0 -20.56,-0.9 -30.91,-2.7 -51.06,-9.1 -102.51,-13.1 -153.47,-13.1 -265.07,0 -516.45,107.2 -625.18,160.6 -46.25,158.3 -110.6,304.5 -189.06,447.7 81.12,154.2 83.73,331 33.32,491.4 235.2,17.9 455.55,163.6 511.87,407.1 53.35,213.5 -2.71,427.4 -132.97,582.4 -20.44,24.4 -46.16,34.7 -71.44,34.7 -64.57,0 -126.23,-67.4 -89.42,-140.8 124.52,-251.5 23.87,-540.9 -212.2,-540.9 -41.59,0 -87.42,9 -136.92,28.8 4.12,-0.1 8.28,-0.2 12.51,-0.2 22.41,0 46.43,1.4 72.07,4.2 326.44,36.6 298.09,278.6 164.16,782.2 -28.59,107.5 -39.19,202.5 -38.2,285.6 5.7,0.3 11.36,0.4 16.95,0.4 63.5,0 118.65,-14.9 149.19,-35.2 137.33,-91.5 340.26,-168.2 485.45,-216.2 -38.81,-224 51.68,-436.3 219.76,-593.1 -56.53,-72.7 -101.49,-154.1 -132.33,-242.5 -24.52,-67.3 -34.86,-138.5 -33.23,-209.3 -159,-83.9 -497.93,-308.6 -431.88,-671.9 41.1,-226 241.13,-284.9 438.21,-284.9 213.88,0 424.29,69.3 424.29,69.3 0,0 1001.76,-1766.5 1880.36,-2259.4 81.7,-45.8 179.7,-66.5 290.6,-66.5 1081.7,0.1 3373.7,1979 3373.7,1979 127.2,290.7 50.7,565 -85.2,788.4 62.5,40 134.9,61.8 210.7,61.8 3.6,0 7.2,-0.1 10.8,-0.2 106.9,-2.1 206.5,-45.6 280.5,-122.6 v 0 c 74.1,-77 113.8,-178.3 111.7,-285.1 -2.1,-106.8 -45.6,-206.4 -122.7,-280.6 -26.4,-25.3 -654,-628.4 -1430.7,-1229.3 -1005.9,-778.3 -1781.9,-1173 -2306.4,-1173"
         style="fill:#825883;fill-opacity:1;fill-rule:nonzero;stroke:none"
         id="path193" />
      <path
         d="m 11802.1,12910.8 c -74,0 -138.8,6.3 -196.8,15.4 -1295,202.4 -2169.65,2016.7 -2265.11,2223 -0.84,1.8 -1.4,3.7 -2.22,5.5 -61.62,-11 -123.3,-15.7 -184.05,-15.7 -233.02,0 -451.84,70.2 -596.3,130.3 7.85,28.9 8.57,60.2 0.61,91.3 -8.84,38.7 -18.72,76.7 -29.62,113.9 108.73,-53.4 360.11,-160.6 625.18,-160.6 50.96,0 102.41,4 153.47,13.1 10.35,1.8 20.69,2.7 30.91,2.7 67.98,0 130.98,-39.8 159.53,-103.5 0.8,-1.8 1.95,-4.6 2.98,-7.1 102.86,-221 935.72,-1933.1 2131.72,-2120 57.1,-8.9 112.6,-13.3 169.7,-13.3 524.5,0 1300.5,394.7 2306.4,1173 776.7,600.9 1404.3,1204 1430.7,1229.3 77.1,74.2 120.6,173.8 122.7,280.6 2.1,106.8 -37.6,208.1 -111.7,285.1 v 0 c -74,77 -173.6,120.5 -280.5,122.6 -3.6,0.1 -7.2,0.2 -10.8,0.2 -75.8,0 -148.2,-21.8 -210.7,-61.8 -30.8,50.6 -64.5,98.5 -99.7,143.4 95.3,62.1 204.6,93.1 313.9,93.1 150.7,0 301.2,-59 413.9,-176.2 220.2,-228.9 213.2,-592.9 -15.7,-813 -26.8,-25.8 -666.1,-639.1 -1445,-1241.8 -1309.3,-1013 -2001.1,-1209.5 -2413.5,-1209.5 m -2303.7,2313.2 1.1,-2.4 -1.1,2.4 m -394.48,2381.7 c -145.19,48 -348.12,124.7 -485.45,216.2 -30.54,20.3 -85.69,35.2 -149.19,35.2 -5.59,0 -11.25,-0.1 -16.95,-0.4 0.77,65.8 8.81,124.2 20.92,175.2 97.08,-0.8 184.74,-26 242.28,-64.4 120.93,-80.6 306.45,-150.5 441.29,-195 -25.98,-55.9 -43.35,-111.7 -52.9,-166.8"
         style="fill:#390176;fill-opacity:1;fill-rule:nonzero;stroke:none"
         id="path195" />
      <path
         d="m 8078.81,15125.4 c -22.08,0 -54.91,12.1 -92.3,34.7 -14.45,8.7 -28.19,18.6 -41.28,29.5 82,143.7 122.61,366.3 140.96,504.1 48.39,16.1 94.64,41.6 137.19,78.4 2.82,-39.6 4.64,-79.1 5.45,-118.1 1.91,-83.4 -1.49,-165.8 -10.99,-244 -3.64,-10.7 -6.29,-21.8 -7.84,-33.1 -11.52,-84.5 -61.96,-223.2 -114.79,-248.4 -4.46,-2.1 -9.97,-3.1 -16.4,-3.1"
         style="fill:#825883;fill-opacity:1;fill-rule:nonzero;stroke:none"
         id="path197" />
      <path
         d="m 8079.06,14950.1 c -52.13,0 -112.78,17.7 -183.18,60.3 -26.18,15.8 -50.45,34 -73.07,53.9 48.58,21.2 88.94,66.7 122.42,125.3 13.09,-10.9 26.83,-20.8 41.28,-29.5 37.39,-22.6 70.22,-34.7 92.3,-34.7 6.43,0 11.94,1 16.4,3.1 52.83,25.2 103.27,163.9 114.79,248.4 1.55,11.3 4.2,22.4 7.84,33.1 -2.63,-21.7 -5.73,-43.1 -9.31,-64.1 -3.68,-22 -3.44,-45.7 1.71,-68.9 13.69,-61.6 57.66,-108.7 112.8,-129.1 -45.13,-99.5 -120.85,-197.8 -243.98,-197.8"
         style="fill:#390176;fill-opacity:1;fill-rule:nonzero;stroke:none"
         id="path199" />
      <path
         d="m 7991.17,15961.8 c -20.91,0.4 -41.11,3.2 -60.69,8 11.15,7.2 22.83,15.1 35.04,23.6 87.78,61.4 88.81,278.2 65.01,491.6 1.29,-0.8 2.6,-1.5 3.9,-2.3 59.24,-31.6 122.94,-52.4 187.93,-62.8 15.13,-199.3 -39.22,-436.2 -231.19,-458.1 m 1381.22,630.2 c -9.76,0 -19.09,0.1 -27.97,0.3 35.83,82.9 95.3,155.5 174.64,208.7 29.07,20.1 62.65,41.5 96.59,58.1 49.16,-4.4 99.63,-7.2 150.25,-7.2 183.72,0 369.1,36.9 498.8,170 6.9,8.2 13.2,16.8 19,25.7 -190.3,-403.5 -673.97,-455.6 -911.31,-455.6 m 700.51,498.6 c -136.64,0 -291.37,60 -407.17,102.5 -162.97,96.9 -277.08,250.2 -190.77,435 2.35,2.5 5.41,5.2 9.17,7.9 6.4,-305.7 436.55,-471.4 665.87,-538.1 -24.7,-5.1 -50.6,-7.3 -77.1,-7.3"
         style="fill:#825883;fill-opacity:1;fill-rule:nonzero;stroke:none"
         id="path201" />
      <path
         d="m 9474.96,17628.1 c 0.56,1.2 1.12,2.3 1.69,3.5 2.7,4.9 5.17,9.7 7.42,14.4 -0.03,-3.3 -0.01,-6.6 0.06,-10 -3.76,-2.7 -6.82,-5.4 -9.17,-7.9 m 25.21,120.7 c -4.47,27.6 -16.05,52.9 -32.51,74.3 22.88,9.2 47.74,17.4 74.26,24.4 -18.57,-34.2 -32.33,-67.1 -41.75,-98.7"
         style="fill:#390176;fill-opacity:1;fill-rule:nonzero;stroke:none"
         id="path203" />
      <path
         d="m 9158.12,16560.8 c -1.63,70.8 8.71,142 33.23,209.3 30.84,88.4 75.8,169.8 132.33,242.5 -168.08,156.8 -258.57,369.1 -219.76,593.1 9.55,55.1 26.92,110.9 52.9,166.8 98.13,-32.4 169.42,-51.4 169.42,-51.4 26.37,40.8 75.82,75.6 141.42,102 16.46,-21.4 28.04,-46.7 32.51,-74.3 -10.68,-35.9 -15.8,-70.1 -16.1,-102.8 -2.25,-4.7 -4.72,-9.5 -7.42,-14.4 -0.57,-1.2 -1.13,-2.3 -1.69,-3.5 -86.31,-184.8 27.8,-338.1 190.77,-435 -10.28,3.7 -20.25,7.4 -29.87,10.8 -26.43,9.6 -51.23,13.9 -74.15,13.9 -192.36,0 -251.41,-304.8 -20.1,-351 24.22,-2.9 48.97,-5.5 74.04,-7.7 -33.94,-16.6 -67.52,-38 -96.59,-58.1 -79.34,-53.2 -138.81,-125.8 -174.64,-208.7 -66.46,1.1 -107.55,6.1 -107.55,6.1 0,0 -31.41,-12.6 -78.75,-37.6"
         style="fill:#390176;fill-opacity:1;fill-rule:nonzero;stroke:none"
         id="path205" />
      <path
         d="m 9765.9,16851.9 c -50.62,0 -101.09,2.8 -150.25,7.2 -25.07,2.2 -49.82,4.8 -74.04,7.7 -231.31,46.2 -172.26,351 20.1,351 22.92,0 47.72,-4.3 74.15,-13.9 9.62,-3.4 19.59,-7.1 29.87,-10.8 115.8,-42.5 270.53,-102.5 407.17,-102.5 26.5,0 52.4,2.2 77.1,7.3 83.6,-24.3 140.5,-35.4 140.5,-35.4 -2.2,-5 -4.5,-10 -6.8,-14.9 -5.8,-8.9 -12.1,-17.5 -19,-25.7 -129.7,-133.1 -315.08,-170 -498.8,-170"
         style="fill:#390176;fill-opacity:1;fill-rule:nonzero;stroke:none"
         id="path207" />
      <path
         d="m 8372.87,16413.6 c -22.89,72.9 -56.7,142.4 -99.06,204.8 -9.11,13.5 -22.29,19.2 -35.48,19.2 -28.17,0 -56.4,-26.1 -45.22,-59.3 14.53,-45.5 24.84,-100.4 29.25,-158.4 -64.99,10.4 -128.69,31.2 -187.93,62.8 -1.3,0.8 -2.61,1.5 -3.9,2.3 -27.11,243.1 -86.44,481.9 -86.44,481.9 0,0 45.87,-176.4 297.7,-182 49.5,-19.8 95.33,-28.8 136.92,-28.8 236.07,0 336.72,289.4 212.2,540.9 -36.81,73.4 24.85,140.8 89.42,140.8 25.28,0 51,-10.3 71.44,-34.7 130.26,-155 186.32,-368.9 132.97,-582.4 -56.32,-243.5 -276.67,-389.2 -511.87,-407.1"
         style="fill:#390176;fill-opacity:1;fill-rule:nonzero;stroke:none"
         id="path209" />
      <path
         d="m 8086.19,15693.7 c 9.82,73.8 13.26,123.3 13.26,123.3 -27.85,-5.8 -55.68,-8.3 -82.92,-8.3 -159.63,0 -298.6,85.1 -298.6,85.1 0,0 6.33,-3.4 21.36,-3.4 28.13,0 86.72,11.8 191.19,79.4 19.58,-4.8 39.78,-7.6 60.69,-8 191.97,21.9 246.32,258.8 231.19,458.1 -4.41,58 -14.72,112.9 -29.25,158.4 -11.18,33.2 17.05,59.3 45.22,59.3 13.19,0 26.37,-5.7 35.48,-19.2 42.36,-62.4 76.17,-131.9 99.06,-204.8 50.41,-160.4 47.8,-337.2 -33.32,-491.4 -16.23,29.7 -33.08,59.2 -50.49,88.7 -9.3,16.1 -24.55,23.1 -39.89,23.1 -27.56,0 -55.41,-22.6 -49.56,-55.9 10.9,-67.4 18.85,-136.8 23.77,-206 -42.55,-36.8 -88.8,-62.3 -137.19,-78.4"
         style="fill:#390176;fill-opacity:1;fill-rule:nonzero;stroke:none"
         id="path211" />
      <path
         d="m 8323.04,15147.9 c -55.14,20.4 -99.11,67.5 -112.8,129.1 -5.15,23.2 -5.39,46.9 -1.71,68.9 3.58,21 6.68,42.4 9.31,64.1 9.5,78.2 12.9,160.6 10.99,244 -0.81,39 -2.63,78.5 -5.45,118.1 -4.92,69.2 -12.87,138.6 -23.77,206 -5.85,33.3 22,55.9 49.56,55.9 15.34,0 30.59,-7 39.89,-23.1 17.41,-29.5 34.26,-59 50.49,-88.7 78.46,-143.2 142.81,-289.4 189.06,-447.7 10.9,-37.2 20.78,-75.2 29.62,-113.9 7.96,-31.1 7.24,-62.4 -0.61,-91.3 -107.83,44.8 -174.24,83.9 -174.24,83.9 0,0 -14.08,-103.3 -60.34,-205.3"
         style="fill:#390176;fill-opacity:1;fill-rule:nonzero;stroke:none"
         id="path213" />
    </g>
  </g>
</svg>
