<?xml version="1.0" encoding="UTF-8" standalone="no"?>
<!-- Created with Inkscape (http://www.inkscape.org/) -->

<svg
   version="1.1"
   id="svg132"
   width="5333.3335"
   height="5333.3335"
   viewBox="0 0 5333.3335 5333.3335"
   xmlns="http://www.w3.org/2000/svg"
   xmlns:svg="http://www.w3.org/2000/svg">
  <defs
     id="defs136" />
  <g
     id="g140"
     transform="matrix(1.3333333,0,0,-1.3333333,0,5333.3333)">
    <g
       id="g142"
       transform="scale(0.1)">
      <path
         d="m 24521.7,30875.4 -0.9,-2.2 c -578.5,320.6 -3309.7,1659.7 -4126.1,1202.6 -696.9,-390.3 354.9,-1586.1 354.9,-1586.1 l 2885.3,-1689.5 v 0.1 L 17814.5,15181.3 27253,9654.4 c 355.6,-208.2 796,-44.9 968.6,359 l 6099.8,14272.8 c 162.6,380.4 26.7,835.2 -308.1,1031.3 l -9491.6,5557.9"
         style="fill:#0096f0;fill-opacity:1;fill-rule:nonzero;stroke:none"
         id="path146" />
      <path
         d="m 34158.7,24420.8 c -30.2,242.3 -161.6,464.8 -370.1,586.9 l -9491.5,5557.9 -1,-2.2 c -495.5,274.6 -2570.9,1296.7 -3668.9,1296.7 -74.5,0 -144.5,-4.7 -209.1,-14.7 19.5,20.8 44,39.3 74.1,56.1 87.8,49.2 210.1,71.2 358.3,71.2 884.2,0 2689.4,-784.3 3573.5,-1274.2 7.6,-4.2 15.5,-7.9 23.5,-11 l 9464.9,-5542.3 c 230.6,-135.1 334,-450.2 246.3,-724.4"
         style="fill:#99d5f9;fill-opacity:1;fill-rule:nonzero;stroke:none"
         id="path148" />
      <path
         d="m 27582,9763.6 c -78.5,0 -156.6,21.3 -228.1,63.2 l -210.1,123 c 238.3,84.3 438.8,274.2 545.3,526 l 5628.5,13303.4 c 197.6,467 28.5,1026.7 -384.9,1274.2 l -9391.1,5622.2 c -2.6,1.6 -5.2,3.1 -7.9,4.5 -778.4,419.8 -1362.4,627.7 -1767.8,627.7 -147.4,0 -271.3,-27.5 -372.2,-82.4 -154.1,-83.7 -247.1,-229.6 -261.7,-410.9 -9.4,-115.7 17.5,-236.6 73.1,-359.9 -289.6,173.8 -526.4,421.3 -689.1,720 -8.1,15 -16,30 -23.7,45 -3.6,6.9 -7,13.8 -10.5,20.8 -91.9,185.2 -134.6,344 -124.7,458.9 0.5,4.7 1,9.4 1.6,14 104.2,44.6 233.4,64.5 381,64.5 1057.6,0 3056.4,-1022.1 3533.7,-1296.7 l 0.9,2.2 9141.3,-5557.9 c 322.5,-196.1 453.4,-650.9 296.8,-1031.3 -1992.7,-4701.2 -3985.1,-9402 -5977.7,-14103.2 -4.7,-1.7 -9.4,-3.3 -14.1,-4.9 -45.5,-15 -92.1,-22.4 -138.6,-22.4"
         style="fill:#0073d3;fill-opacity:1;fill-rule:nonzero;stroke:none"
         id="path150" />
      <path
         d="m 18067.3,15264.7 9286.6,-5437.9 c 113.8,-66.7 244.1,-81.2 366.7,-40.8 138.1,45.6 253.8,157.1 317.4,305.9 l 6099.8,14272.8 c 122.2,285.9 21.1,636.1 -225.4,780.5 l -9464.9,5542.3 c -8,3.1 -15.9,6.8 -23.5,11 -1032.2,572.1 -3320.3,1545.4 -3931.8,1203 -77.7,-43.5 -118.3,-97.5 -131.5,-175.1 -55.3,-322.7 346.2,-878 518.4,-1081.1 l 2856.7,-1672.7 c 86.8,-50.9 122.2,-158.3 82.7,-250.8 L 18067.3,15264.7 m 9513.6,-5901 c -148.1,0 -294.8,39.9 -428.8,118.4 l -9438.5,5526.8 c -86.7,50.9 -122.2,158.4 -82.7,250.8 l 5751.2,13457.2 -2733.4,1600.5 c -18.4,10.7 -34.9,24.4 -49,40.4 -75.3,85.6 -732.5,852.9 -632.7,1435.9 33.6,196.4 147.8,354.2 330.1,456.3 972.3,544.6 3963.8,-1012.4 4291.5,-1186.6 11.8,-4.1 23.1,-9.3 34.1,-15.7 l 9491.5,-5557.9 c 421.1,-246.6 592.7,-809.8 390.8,-1282.1 L 28405.3,9935 c -108.7,-254.3 -312.7,-446.8 -559.6,-528.3 -87.2,-28.7 -176.3,-43 -264.8,-43"
         style="fill:#000072;fill-opacity:1;fill-rule:nonzero;stroke:none"
         id="path152" />
      <path
         d="m 23439,30504.3 c -1540.1,830.6 -2077.2,675.3 -2108,294 -32.8,-404.9 645,-1094.9 1700.1,-1672.9 L 16804.8,14280 24278.7,9931.7 c 122.9,-71.5 262,-101.2 400.1,-85.3 l 2258.3,259.1 c 246.9,28.4 462.5,198.5 568.1,448.1 L 33133.7,23857 c 159.7,377.5 26.5,827.5 -303.6,1025.1 L 23439,30504.3"
         style="fill:#ffffff;fill-opacity:1;fill-rule:nonzero;stroke:none"
         id="path154" />
      <path
         d="m 24871.1,10069.5 5862.7,13753.1 c 201.3,472.1 29.5,1034.9 -391.1,1281.2 l -7908.8,4631.1 c -633.9,457.6 -918.3,868.5 -903.9,1047.3 4.5,54.5 25,76.4 54.4,92.3 16.4,8.9 54.6,24.7 126.3,30 239.8,-94.4 519.3,-225.3 843.6,-400.2 l 9391.2,-5622.2 c 330.1,-197.6 463.3,-647.6 303.6,-1025.1 L 26620.6,10553.6 c -53.6,-126.6 -135.6,-232.8 -235.5,-310.4 l -1514,-173.7"
         style="fill:#c4c4de;fill-opacity:1;fill-rule:nonzero;stroke:none"
         id="path156" />
      <path
         d="m 17056.8,14364.5 7322.4,-4260.2 c 85.7,-49.9 181.4,-70.5 276.8,-59.5 l 2258.4,259.1 c 173.9,20 329.9,145.5 406.8,327.5 l 5628.7,13303.4 c 121.6,287.6 24,628.5 -222.4,775.9 l -9387.3,5620 c -1317.4,709.8 -1693.7,577.6 -1755.8,543.8 -29.4,-15.9 -49.9,-37.8 -54.4,-92.3 -18.9,-234.3 475.5,-867.3 1597.1,-1481.6 89.7,-49.1 127.7,-158.1 88.1,-252.4 L 17056.8,14364.5 m 7548.5,-4722 c -148.8,0 -294.7,39.6 -427,116.6 l -7473.9,4348.3 c -86.7,50.5 -122.5,157.4 -83.7,249.9 l 6157.5,14681.5 c -821.6,476.6 -1693.3,1193.5 -1646.2,1775.7 14.6,181.3 107.6,327.2 261.7,410.9 378.4,205.6 1078.4,27.3 2140,-545.3 2.7,-1.4 5.3,-2.9 7.9,-4.5 l 9391.1,-5622.2 c 413.4,-247.5 582.5,-807.2 384.9,-1274.2 L 27689.1,10475.8 c -133,-314.4 -412.4,-532.2 -729.2,-568.7 L 24701.6,9648 c -32.2,-3.7 -64.3,-5.5 -96.3,-5.5"
         style="fill:#000072;fill-opacity:1;fill-rule:nonzero;stroke:none"
         id="path158" />
      <path
         d="m 21121.6,30271.9 c -342.7,200.7 -631.6,502.8 -818.7,879.7 -120.2,242.3 -196,506.4 -110.2,708.5 L 13949.3,17220.5 c -215.3,-504.9 -205.2,-1092.4 27.3,-1586.9 150.3,-319.7 384.5,-580.9 671.6,-749 l 8997,-5268.3 c 355.8,-208.4 796.5,-44.7 969,359.7 l 5936,13924.9 c 162.1,380.3 26.2,834.7 -308.4,1030.6 l -9120.2,5340.4"
         style="fill:#0096f0;fill-opacity:1;fill-rule:nonzero;stroke:none"
         id="path160" />
      <path
         d="m 24523,10271.3 c -21,25.7 -41.4,51.9 -61.1,78.5 l 5476.7,13333 c 162.2,380.3 26.2,834.7 -308.4,1030.6 l -4056.3,2540.8 c -94.7,84.2 -203.8,153.3 -324.2,203.1 l -4061.9,2544.4 8953.1,-5242.6 c 246.2,-144.2 347.4,-494 225.6,-779.8 L 24523,10271.3 m -3706.7,19963.1 -40.4,25.3 v 0 c 0.4,1.5 0.8,3 1.1,4.4 13,-10 26.1,-19.9 39.3,-29.7"
         style="fill:#99d5f9;fill-opacity:1;fill-rule:nonzero;stroke:none"
         id="path162" />
      <path
         d="m 24989.5,18700.4 -5512.5,3424.2 1711.3,3977.9 5512.5,-3424.3 -1711.3,-3977.8"
         style="fill:#ffffff;fill-opacity:1;fill-rule:nonzero;stroke:none"
         id="path164" />
      <path
         d="m 23974.2,9725.4 c -78.5,0 -156.5,21.3 -228.1,63.2 l -1502.2,879.6 c 171.5,8 337.7,63.8 483.2,164.2 210.7,145.4 349.3,364.7 390.1,617.6 l 1200,7433 566.9,-352.2 c 13.6,-8.4 28.1,-15.1 43,-20.1 l -874.2,-6579.9 c -74.9,-564.2 74.8,-1130.6 409,-1581 l -220.2,-535.9 c -39.7,-28.5 -82.9,-50.8 -128.7,-65.9 -45.6,-15.1 -92.3,-22.6 -138.8,-22.6"
         style="fill:#0073d3;fill-opacity:1;fill-rule:nonzero;stroke:none"
         id="path166" />
      <path
         d="m 24241.7,9813.9 220.2,535.9 c 19.7,-26.6 40.1,-52.8 61.1,-78.5 l -92.5,-217 c -42.6,-99.8 -108.4,-182.7 -188.8,-240.4"
         style="fill:#76a4da;fill-opacity:1;fill-rule:nonzero;stroke:none"
         id="path168" />
      <path
         d="m 25602.6,23595.4 -476.8,296.3 333.1,2063.6 c 79.7,493.7 -241.6,959.3 -731.5,1059.9 l -5869.8,1205.2 1237.8,2902.4 c 9.1,-19.8 18.7,-39.8 28.7,-59.9 142.7,-287.6 340.8,-539.1 582.2,-741.8 22.9,-26.8 46.2,-47.7 69.6,-61.4 -268.6,-1048.9 419.9,-2131.3 1520.2,-2304.6 l 2690.1,-423.8 c 92.4,-14.5 180.6,-39.7 263.5,-74 l 324.2,-203.1 c 278.2,-247 432,-623.2 379.5,-1018.6 l -350.8,-2640.2"
         style="fill:#0073d3;fill-opacity:1;fill-rule:nonzero;stroke:none"
         id="path170" />
      <path
         d="m 25573.9,27254.2 -324.2,203.1 c 120.4,-49.8 229.5,-118.9 324.2,-203.1 m -4798,3005.5 c -23.4,13.7 -46.7,34.6 -69.6,61.4 23.2,-19.4 46.8,-38.4 70.7,-57 -0.3,-1.4 -0.7,-2.9 -1.1,-4.4"
         style="fill:#76a4da;fill-opacity:1;fill-rule:nonzero;stroke:none"
         id="path172" />
      <path
         d="m 24897.8,18992.5 -511.6,317.8 670.6,4154 488.1,-303.2 -512.1,-3854.6 -135,-314"
         style="fill:#c4c4de;fill-opacity:1;fill-rule:nonzero;stroke:none"
         id="path174" />
      <path
         d="M 20095.4,31122.8 14133,17142.1 c -192.1,-450.4 -183,-982.6 24.3,-1423.5 133.7,-284.5 338.4,-513.3 591.8,-661.7 l 8997,-5268.3 c 114,-66.8 244.3,-81.2 366.9,-40.6 138.2,45.6 253.9,157.2 317.5,306.3 l 5936,13925 c 121.8,285.8 20.6,635.6 -225.6,779.8 l -9120.2,5340.5 c -386,226 -696,559.1 -896.6,963.3 -10,20.1 -19.6,40.1 -28.7,59.9 M 23973.1,9325.6 c -148.1,0 -294.8,39.8 -428.9,118.4 l -8996.9,5268.3 c -323.4,189.3 -583.2,478.5 -751.4,836.3 -255,542.4 -266.4,1196.6 -30.3,1750.2 L 20009,31938.4 c 43.3,101.4 160.4,148.5 261.9,105.4 101.4,-43.2 148.7,-160.4 105.6,-261.8 -48.6,-114.5 -11.2,-306.8 105.3,-541.6 165.9,-334.3 422.1,-609.6 740.8,-796.2 l 9120.1,-5340.4 c 420.6,-246.3 592.4,-809.1 391.1,-1281.2 l -5935.9,-13925 c -108.6,-254.5 -312.5,-447.3 -559.6,-528.9 -87.4,-28.8 -176.6,-43.1 -265.2,-43.1"
         style="fill:#000072;fill-opacity:1;fill-rule:nonzero;stroke:none"
         id="path176" />
      <path
         d="m 19728.4,22203.6 5169.4,-3211.1 1551.6,3606.8 -5169.4,3211.1 -1551.6,-3606.8 m 5261.1,-3702.9 c -36.9,0 -73.4,10.2 -105.4,30.1 L 19371.6,21955 c -83.9,52.2 -117,157.9 -78,248.6 l 1711.2,3977.8 c 23,53.4 68.2,94.1 123.6,111.6 55.6,17.5 115.9,9.7 165.3,-20.9 l 5512.5,-3424.2 c 83.9,-52.2 117.1,-157.9 78,-248.6 L 25173,18621.5 c -23,-53.4 -68.2,-94.1 -123.6,-111.6 -19.6,-6.1 -39.8,-9.2 -59.9,-9.2"
         style="fill:#000072;fill-opacity:1;fill-rule:nonzero;stroke:none"
         id="path178" />
      <path
         d="m 13812.4,29052.4 -0.4,-2.2 c -658,119.9 -3719.5,529.9 -4411.38,-113.4 -590.59,-549.2 765.58,-1314.6 765.58,-1314.6 l 3305.7,-678.7 v 0 l -2234.4,-13840.9 10814,-2220.3 c 407.4,-83.6 802.3,189 868.6,599.5 l 2341.7,14505.3 c 62.4,386.6 -191,753.7 -574.6,832.5 l -10874.8,2232.8"
         style="fill:#fc9b28;fill-opacity:1;fill-rule:nonzero;stroke:none"
         id="path180" />
      <path
         d="m 22200,11066.8 c -35.9,0 -72.2,3.7 -108.3,11.1 l -199.6,41 c 197.3,143.8 334.3,362.6 373,608.2 l 2126.1,13503.7 c 76.8,487.7 -241.2,950.9 -723.8,1054.5 l -8410.8,1807.5 c 15.4,82.2 32.9,170.5 52.6,263.9 l 8945.3,-1836.6 c 383.7,-78.8 637,-445.9 574.6,-832.5 L 22487.4,11182.3 c -1.8,-11.4 -3.9,-22.7 -6.3,-33.9 -85.4,-53.8 -182.1,-81.6 -281.1,-81.6 M 10624.7,27731.9 c -317.7,66.5 -605,206.2 -838.69,406.7 -176.26,156.1 -317,326.3 -333.17,464 -0.92,7.8 -1.55,16.2 -1.55,25 0.04,9.3 0.75,18.3 2.14,27 0.15,0.9 0.29,1.8 0.42,2.8 6.63,37.5 27.84,82.1 82.78,133.1 62.25,57.9 152.84,106 266.11,145.3 274.56,38.5 587.56,54 912.86,54 452.8,0 929.3,-30.1 1357.5,-70.1 -5.1,-67.9 -9.8,-137.1 -14.1,-207.6 -158.1,13 -304.7,19.5 -439.6,19.5 -504,0 -846.7,-90.8 -1023.4,-272 -114.7,-117.5 -160.4,-271.3 -128.7,-432.9 20.4,-103.8 75.3,-202.2 157.4,-294.8"
         style="fill:#c27739;fill-opacity:1;fill-rule:nonzero;stroke:none"
         id="path182" />
      <path
         d="m 11465.2,13259.7 10626.5,-2181.8 c 143,-29.5 288.2,0.1 408.6,83.1 120.3,83.1 199.4,208.3 222.7,352.6 l 2341.7,14505.3 c 45.4,281.9 -138,547.7 -417.7,605.1 l -10845.6,2226.8 c -8.4,0.4 -16.8,1.4 -25.2,3 -1178.2,214.6 -3715,424.4 -4239.57,-63.3 -84.62,-78.6 -89.21,-141.7 -83.79,-187.9 29.3,-249.4 467.68,-605.8 785.06,-791.3 l 3274.2,-672.2 c 104.8,-21.6 174,-121.9 156.9,-227.5 L 11465.2,13259.7 m 10735.9,-2592.5 c -63,0 -126.5,6.5 -189.8,19.5 l -10814,2220.3 c -104.8,21.5 -174,121.8 -156.9,227.4 l 2203.9,13652 -3118.2,640.2 c -20.4,4.1 -40,11.4 -58,21.6 -96.66,54.6 -945.88,549 -1011.89,1107.4 -16.16,137.1 6.83,339.9 208.45,527.4 817.24,760 4191.24,228.7 4552.14,168.9 11.9,-0.2 23.9,-1.5 35.7,-3.9 l 10874.9,-2232.8 c 489.9,-100.6 811.2,-566.2 731.5,-1059.9 L 23117.2,11450 c -40.8,-252.9 -179.4,-472.2 -390.1,-617.6 -157.6,-108.8 -339.4,-165.2 -526,-165.2"
         style="fill:#000072;fill-opacity:1;fill-rule:nonzero;stroke:none"
         id="path184" />
      <path
         d="m 12833.6,28409.3 c -1746,298.6 -2239,5.4 -2170.3,-344.1 72.9,-371.2 925.8,-792.4 2124.2,-1005 L 10469.3,12007 19025.1,10273.9 c 140.7,-28.5 286.6,-15 419.6,38.9 l 2175.6,881.6 c 237.8,96.3 407.6,310.3 447.5,563.8 L 24194,25261.8 c 60.3,383.3 -189.3,746.8 -568.5,828.3 l -10791.9,2319.2"
         style="fill:#ffffff;fill-opacity:1;fill-rule:nonzero;stroke:none"
         id="path186" />
      <path
         d="m 19576.5,10581.7 2237.1,13944.1 c 79.1,493.4 -242.3,958.6 -731.7,1059 l -9072.2,1862.7 c -736.9,222.4 -1119.4,498.2 -1150.5,656.2 -6.5,33.1 -0.6,53.3 22.6,77 7.5,7.7 21.3,19.8 44.6,33.8 38.9,1.3 79.5,2 121.7,2 262.4,0 587.4,-26 985.1,-85.7 -1.2,-44.3 -2.3,-89 -3.3,-134.2 v 0 0 l 3120.2,-624.1 v 0 0 0 0 0 0 c 0,0.1 0,0.1 0,0.1 v 0.1 c 0.2,2.7 3.2,36.9 10.3,98.8 l 7899.3,-1697.6 c 379.3,-81.4 628.8,-445 568.5,-828.3 L 21502.1,11442 c -4.8,-29.9 -11.3,-59.3 -19.6,-88 l -1906,-772.3"
         style="fill:#c4c4de;fill-opacity:1;fill-rule:nonzero;stroke:none"
         id="path188" />
      <path
         d="m 10695.7,12164.9 8369.1,-1695.3 c 102.5,-20.7 207.9,-10.9 304.9,28.3 l 2175.6,881.6 c 171.8,69.6 296.5,226.6 325.3,409.7 l 2126.1,13503.7 c 43.8,278.4 -137.7,542.8 -413.2,601.9 l -10787.7,2318.3 c -1535.5,262.2 -1863.8,19 -1914,-32.4 -23.2,-23.7 -29.1,-43.9 -22.6,-77 41,-208.4 693.1,-621.6 1963.2,-846.9 106.9,-18.9 179,-119.8 162.5,-227 L 10695.7,12164.9 m 8475,-2105.4 c -61.9,0 -123.9,6.2 -185.2,18.7 l -8555.9,1733 c -104.4,21.2 -173.9,120.7 -157.7,226.1 l 2288.9,14862.8 c -939.7,191.2 -1987,584.4 -2093.5,1126.6 -31.7,161.6 14,315.4 128.7,432.9 296.7,304.3 1060.9,353.5 2271.2,146.5 2.8,-0.5 5.6,-1 8.3,-1.6 l 10791.9,-2319.2 c 482.6,-103.6 800.6,-566.8 723.8,-1054.5 L 22265.1,11727.1 c -50.5,-320.8 -268.8,-595.8 -569.8,-717.8 l -2175.6,-881.5 c -111.8,-45.3 -230.1,-68.3 -349,-68.3"
         style="fill:#000072;fill-opacity:1;fill-rule:nonzero;stroke:none"
         id="path190" />
      <path
         d="m 10592.4,27534.7 c -392.6,80.6 -758.19,267.3 -1042.22,550.1 -182.58,181.9 -326.64,395.9 -294,601.2 L 6867.37,13811.7 c -82.37,-513 80.64,-1034.9 440.35,-1409.7 v 0 c 232.52,-242.3 533.16,-408.2 862.11,-475.8 L 18478,9809.8 c 407.6,-83.7 802.8,189.3 868.7,600.2 l 2269.7,14147.4 c 62,386.5 -191.4,753.1 -574.7,831.8 l -10449.3,2145.5"
         style="fill:#fc9b28;fill-opacity:1;fill-rule:nonzero;stroke:none"
         id="path192" />
      <path
         d="m 18889.6,10065.1 c -19.6,3.7 -39.6,7.5 -60.2,11.4 0.5,3 1,6 1.4,9 l 2269.7,14147.4 c 62,386.5 -191.3,753.1 -574.7,831.8 l -8120.2,1893.8 8596,-1764.9 c 279.4,-57.3 462.8,-322.9 417.7,-604.5 L 19149.6,10441.7 c -23.2,-144.5 -102.2,-269.8 -222.6,-353 -12.2,-8.4 -24.7,-16.3 -37.4,-23.6"
         style="fill:#fed7a9;fill-opacity:1;fill-rule:nonzero;stroke:none"
         id="path194" />
      <path
         d="m 18626.4,9994.3 c -35.9,0 -72.2,3.7 -108.2,11.1 L 8209.97,12121.8 c -290.58,59.7 -552.73,204.4 -758.15,418.5 -314.55,327.7 -459.29,791.2 -387.26,1239.7 l 2284.67,14225.8 c 19.09,-20.8 39.11,-41.6 60.06,-62.4 170.36,-169.7 368.47,-309.7 586.95,-416.1 L 8901.25,20709.2 c -731.76,-4556.4 2186.65,-8905.5 6682.15,-9948.1 1363.7,-316.3 2563.2,-554.6 3246,-684.6 -2.7,-15.2 -5.8,-30.3 -9.3,-45.1 -61.7,-24.5 -127.2,-37.1 -193.7,-37.1"
         style="fill:#c27739;fill-opacity:1;fill-rule:nonzero;stroke:none"
         id="path196" />
      <path
         d="m 18820.1,10031.4 c 3.5,14.8 6.6,29.9 9.3,45.1 20.6,-3.9 40.6,-7.7 60.2,-11.4 -22.5,-13 -45.7,-24.3 -69.5,-33.7"
         style="fill:#c3a59c;fill-opacity:1;fill-rule:nonzero;stroke:none"
         id="path198" />
      <path
         d="M 9349.23,28005.8 7064.56,13780 c -72.03,-448.5 72.71,-912 387.26,-1239.7 205.42,-214.1 467.57,-358.8 758.15,-418.5 L 18518.2,10005.4 c 143.1,-29.4 288.4,0.2 408.8,83.3 120.4,83.2 199.4,208.5 222.6,353 l 2269.7,14147.4 c 45.1,281.6 -138.3,547.2 -417.7,604.5 l -10449.3,2145.5 c -441.9,90.7 -837.2,299.7 -1143.01,604.3 -20.95,20.8 -40.97,41.6 -60.06,62.4 M 18627.6,9594.7 c -62.9,0 -126.5,6.5 -189.8,19.5 L 8129.65,11730.6 c -370.22,76.1 -704.3,260.4 -966.01,533.2 -400.74,417.5 -585.21,1008 -493.41,1579.5 l 2388.62,14873.2 0.15,0.9 0.05,0.2 c 17.52,108.9 119.87,182.9 228.71,165.6 108.83,-17.4 183.01,-119.7 165.67,-228.6 -16.99,-106.6 67.43,-258.7 237.69,-428.2 250.49,-249.5 576.08,-421.1 941.48,-496.1 v 0 l 10449.3,-2145.5 c 489.4,-100.4 810.8,-565.6 731.7,-1059 L 19543.9,10378.4 c -40.6,-253 -179,-472.6 -389.9,-618.3 -157.6,-108.9 -339.6,-165.4 -526.4,-165.4"
         style="fill:#000072;fill-opacity:1;fill-rule:nonzero;stroke:none"
         id="path200" />
      <path
         d="m 17447.6,18311.4 -6367,1472.1 663.9,4045.9 6366.9,-1472.1 -663.8,-4045.9"
         style="fill:#ffffff;fill-opacity:1;fill-rule:nonzero;stroke:none"
         id="path202" />
      <path
         d="m 17447.6,18311.4 -6367,1472.1 663.9,4045.9 124.9,-28.9 -127.3,-776 c -273.8,-1668.4 794.8,-3262.7 2442,-3643.5 l 3313.3,-766.1 -49.8,-303.5"
         style="fill:#c4c4de;fill-opacity:1;fill-rule:nonzero;stroke:none"
         id="path204" />
      <path
         d="M 11307.9,19935.9 17285,18554 l 599,3650.9 -5977,1382 z m 6139.7,-1824.2 c -15.1,0 -30.2,1.7 -45,5.2 l -6367,1472.1 c -102.6,23.7 -169.1,123 -152.1,226.9 l 663.9,4045.8 c 8.9,54.5 40,102.9 85.9,133.6 45.9,30.7 102.6,41 156.1,28.7 l 6367,-1472.1 c 102.5,-23.8 169.1,-123 152.1,-226.9 l -663.9,-4045.9 c -8.9,-54.5 -40,-102.8 -85.8,-133.5 -33.2,-22.3 -72,-33.9 -111.2,-33.9"
         style="fill:#000072;fill-opacity:1;fill-rule:nonzero;stroke:none"
         id="path206" />
      <path
         d="m 12029.9,27996.6 3120.2,-624.1 c 0,0 199.7,2396.3 1597.5,4642.9 l -2695.8,-1323 -973.5,1547.6 c 0,0 -973.5,-698.9 -1048.4,-4243.4"
         style="fill:#ff1b40;fill-opacity:1;fill-rule:nonzero;stroke:none"
         id="path208" />
      <path
         d="m 15160.4,27471.5 v 0 c 6,51.2 14.8,121.4 27.4,208.4 v 0 c -12.6,-87 -21.4,-157.2 -27.4,-208.4"
         style="fill:#c4c4de;fill-opacity:1;fill-rule:nonzero;stroke:none"
         id="path210" />
      <path
         d="m 15150.1,27372.7 c 0.2,2.7 3.2,36.9 10.3,98.8 v 0 c -7.1,-61.9 -10.1,-96.1 -10.3,-98.8"
         style="fill:#9797c5;fill-opacity:1;fill-rule:nonzero;stroke:none"
         id="path212" />
      <path
         d="m 15150.1,27372.5 -3120.2,624.1 c 74.6,3530.2 1040.6,4237.7 1048.3,4243.4 -4.4,-3.3 -321.3,-235.7 -606.2,-1091.5 188.3,350 340,459.2 340,459.2 l 27.9,-44.4 c -555.8,-1665.5 480.9,-3510 2271.3,-3868.1 l 76.6,-15.3 c -12.6,-87 -21.4,-157.2 -27.4,-208.4 -7.1,-61.9 -10.1,-96.1 -10.3,-98.8 v -0.1 c 0,0 0,0 0,-0.1 v 0 0 0 0 0 0 M 13078.3,32240 v 0 0 m 0,0 c 0,0 0,0 0,0 0,0 0,0 0,0"
         style="fill:#c4154c;fill-opacity:1;fill-rule:nonzero;stroke:none"
         id="path214" />
      <path
         d="m 16353.2,31320.1 c 118.5,229.5 248.6,460.5 390.9,689.6 -142.4,-229.2 -272.1,-459.9 -390.6,-689.5 l -0.3,-0.1 m 391.3,690.2 c 1,1.6 2.1,3.4 3.1,5.1 v 0 c -1,-1.8 -2.1,-3.4 -3.1,-5.1"
         style="fill:#c2f6ff;fill-opacity:1;fill-rule:nonzero;stroke:none"
         id="path216" />
      <path
         d="m 13785.5,30060 -945.6,1503.3 c 48.2,144.4 108.4,287.5 181,428.1 35.1,67.8 69,126.9 101.2,179 l -43.8,69.6 973.5,-1547.6 2695.8,1323 c -1,-1.7 -2.1,-3.5 -3.1,-5.1 -0.2,-0.2 -0.3,-0.4 -0.4,-0.6 -142.3,-229.1 -272.4,-460.1 -390.9,-689.6 L 13785.5,30060"
         style="fill:#ffa4b3;fill-opacity:1;fill-rule:nonzero;stroke:none"
         id="path218" />
      <path
         d="m 13078.3,32240 v 0 0"
         style="fill:#c2f6ff;fill-opacity:1;fill-rule:nonzero;stroke:none"
         id="path220" />
      <path
         d="m 12472,31148.5 c 284.9,855.8 601.8,1088.2 606.2,1091.5 0,0 0,0 0.1,0 v 0 c 0,0 0,0 0,0 0,0 0,0 0,0 v 0 0 l 43.8,-69.6 c -32.2,-52.1 -66.1,-111.2 -101.2,-179 -72.6,-140.6 -132.8,-283.7 -181,-428.1 l -27.9,44.4 c 0,0 -151.7,-109.2 -340,-459.2"
         style="fill:#e7a1b7;fill-opacity:1;fill-rule:nonzero;stroke:none"
         id="path222" />
      <path
         d="M 12233.8,28159.4 14976,27611 c 76.4,586.6 359.6,2235.4 1270.5,3936 l -2106.7,-1033.9 c -91.9,-45.1 -202.6,-13.4 -257.1,72.9 l -831.6,1322.1 c -250,-356.7 -745.6,-1357.8 -817.3,-3748.7 z m 2916.3,-986.6 c -13.1,0 -26.2,1.3 -39.2,3.9 l -3120.2,624 c -94.9,19 -162.5,103.3 -160.5,200 76.2,3603 1088.6,4370.6 1131.6,4401.5 44.8,32.1 100.8,44.4 154.9,33.8 54,-10.6 101.3,-43.1 130.6,-89.7 l 877.8,-1395.5 2534.5,1243.8 c 80.1,39.2 176.3,20.8 236.1,-45.3 59.8,-66.1 68.5,-163.8 21.4,-239.5 -1354.2,-2176.5 -1566,-4530.4 -1568,-4553.9 -4.8,-56.7 -33.5,-108.8 -79,-143 -34.9,-26.2 -77.1,-40.1 -120,-40.1"
         style="fill:#000072;fill-opacity:1;fill-rule:nonzero;stroke:none"
         id="path224" />
      <path
         d="m 24118.3,25716.3 -2550.4,-758.7"
         style="fill:#ffffff;fill-opacity:1;fill-rule:nonzero;stroke:none"
         id="path226" />
      <path
         d="m 21567.8,24757.8 c -86,0 -165.5,56.1 -191.3,142.8 -31.4,105.8 28.8,216.9 134.5,248.4 l 2550.4,758.7 c 105.7,31.6 216.9,-28.7 248.3,-134.5 31.5,-105.7 -28.7,-216.8 -134.4,-248.3 l -2550.4,-758.7 c -19,-5.7 -38.2,-8.4 -57.1,-8.4"
         style="fill:#000072;fill-opacity:1;fill-rule:nonzero;stroke:none"
         id="path228" />
      <path
         d="M 33193.3,24306.4 H 30615.7"
         style="fill:#ffffff;fill-opacity:1;fill-rule:nonzero;stroke:none"
         id="path230" />
      <path
         d="m 33193.3,24106.7 h -2577.6 c -110.3,0 -199.7,89.4 -199.7,199.7 0,110.3 89.4,199.7 199.7,199.7 h 2577.6 c 110.3,0 199.7,-89.4 199.7,-199.7 0,-110.3 -89.4,-199.7 -199.7,-199.7"
         style="fill:#000072;fill-opacity:1;fill-rule:nonzero;stroke:none"
         id="path232" />
      <path
         d="m 20028.7,10677.5 c 49.5,44.7 71.3,78.8 84.7,145.4 13.9,69.2 24.4,139.2 36.2,208.8 23.1,135.4 43.3,271.2 64.6,406.8 42.7,271.6 82.2,543.7 122.7,815.6 81,543.8 161.9,1087.7 242.9,1631.6 161.9,1086.8 323.4,2174 459.9,3264.3 38.1,304.5 77.1,608.8 118.4,912.9 20.8,153.1 38.2,306.6 59.6,459.7 21.2,151.3 41.2,304 43.4,456.9 0.4,23.3 -33.8,27.6 -40.2,5.5 -75.7,-262.4 -104.7,-538.9 -151.9,-807.4 -47.6,-270.2 -89,-541.6 -135.3,-812.1 -92.7,-541 -176.2,-1083.5 -268.2,-1624.6 -92.2,-541.7 -165.2,-1087.4 -245.9,-1630.9 -80.8,-543.9 -161.6,-1087.9 -242.3,-1631.8 -44.7,-300.8 -91.3,-601.4 -133.6,-902.6 -21.5,-152.6 -43.9,-305.2 -64.2,-458 -9.9,-74.1 -19.4,-148.3 -28.5,-222.5 -4.9,-40.4 -13.1,-83.1 -6.8,-123.6 5.2,-34.2 22.8,-59 40.4,-88.3 9.7,-16.1 30.7,-17.9 44.1,-5.7"
         style="fill:#000072;fill-opacity:1;fill-rule:nonzero;stroke:none"
         id="path234" />
      <path
         d="m 20866.8,11010 c 52.6,123.5 62.7,254.5 79.3,387.1 17.5,139.3 32.7,279 48.9,418.6 32.4,278.1 65.4,556.1 97.5,834.3 63.3,550.5 127.9,1101.2 198.8,1650.8 19.8,154.2 37.8,308.6 57.3,462.8 19.9,157.5 48.2,315.1 53.4,473.8 0.9,26 -35.9,29 -43.7,5.9 -44.2,-132.1 -68.1,-269.7 -95.3,-406.2 -27.1,-136.5 -54.8,-273.1 -77.9,-410.3 -46.1,-273.6 -89.7,-546.9 -125.1,-822.1 -70.6,-550.4 -131.3,-1101.9 -190.8,-1653.6 -16.8,-156 -33.6,-311.9 -50.4,-467.9 -16.6,-154 -44.2,-311.4 -16.2,-464.8 5.2,-28.1 52.5,-35.9 64.2,-8.4"
         style="fill:#000072;fill-opacity:1;fill-rule:nonzero;stroke:none"
         id="path236" />
      <path
         d="m 22548.4,25232.5 c 2.6,-63.6 15.1,-126 21.2,-189.3 6.5,-67.9 11.4,-134.4 10.7,-202.8 -1.3,-140.4 -17.2,-279.5 -31.1,-419.1 -29.4,-296.9 -62,-593.4 -92.4,-890.2 -60.9,-596 -136.8,-1191.8 -177.4,-1789.6 -23,-337.6 -75.7,-672.1 -96,-1010 -1.9,-31.4 48.4,-38.4 55.1,-7.5 65.3,299 96,602.5 152.1,902.9 56,299.5 101,602.3 142.1,904.3 82.7,607 140,1218.3 195.5,1828.3 14.5,159.4 29.3,320.8 17.6,480.9 -10.4,142.4 -35,308.7 -132.5,419 -21.6,24.5 -66.2,5.2 -64.9,-26.9"
         style="fill:#000072;fill-opacity:1;fill-rule:nonzero;stroke:none"
         id="path238" />
      <path
         d="m 23305.5,25444.5 c -42.7,-94.2 -31.6,-221.5 -35.9,-323.5 -4.9,-118.1 -12.5,-236.3 -22.6,-354 -19.6,-230.1 -39.9,-459.8 -71.6,-688.6 -33,-237.2 -58.1,-474.6 -79.5,-713.1 -20.8,-233.2 -44.9,-466.1 -71.5,-699 -31.6,-277 -54.5,-555.3 -92.8,-831.5 -1.6,-10.9 14.9,-15.9 16.9,-4.6 42.3,235.3 98.5,467.8 146.3,702.1 48.6,237.9 91.6,478.2 148.7,714.2 55.8,230.4 115.5,461 149.4,696.1 34.8,241.2 65.3,483 75.9,726.7 5.6,129.9 2.4,261.3 -10.3,390.7 -6.8,68.4 -15.2,136.2 -28.6,203.7 -12.2,61.6 -20.8,129.8 -59.7,180.8 -15.1,19.6 -51.7,28.6 -64.7,0"
         style="fill:#000072;fill-opacity:1;fill-rule:nonzero;stroke:none"
         id="path240" />
      <path
         d="m 14609.4,27334 c 139.7,-63.5 276.4,-107.6 426.4,-140.9 143.6,-32 287.1,-63.7 431.3,-92.4 297.4,-59.3 594.5,-120 891.1,-183.3 152.5,-32.5 304.5,-67.8 458.3,-93.6 146.9,-24.5 296.1,-34.1 442.8,-61 150.8,-27.7 302.7,-48.3 454.1,-72.9 150.6,-24.4 299.7,-60.4 449.5,-89.4 170.3,-32.9 340,-68.2 509.8,-103.6 161.1,-33.6 331.5,-83.3 497,-81.1 23,0.3 35.4,34.8 12.4,45.8 -134.6,64.1 -289.3,90 -433.9,123.4 -148.6,34.2 -297.5,67.3 -445.6,103.8 -148,36.4 -296.4,71.5 -444.8,106.6 -148.6,35.1 -293.3,82.8 -440.3,122.8 -297.7,80.9 -588.9,175.7 -891.1,239.8 -297,62.9 -594.4,123 -893.5,175.3 -172.3,30.2 -345,55.2 -519,73.3 -80.6,8.4 -161.8,18.8 -243,19 -85.6,0.2 -168.8,-12.9 -252.9,-26.4 -29.4,-4.7 -35.6,-52.9 -8.6,-65.2"
         style="fill:#000072;fill-opacity:1;fill-rule:nonzero;stroke:none"
         id="path242" />
      <path
         d="m 25375.2,10019.6 c 104,57.8 144.6,203.5 195.8,305.7 59.3,118.3 113.8,239 167.5,359.9 107.7,242.1 217.8,483.4 323.1,726.6 104.1,240.4 195.5,490.5 281.1,738 86.2,249.2 196,489.3 281.8,738.5 3.7,10.7 -12.8,17.5 -18.1,7.7 -126.9,-231.6 -231.1,-474.8 -357.7,-706.5 -125.9,-230.3 -250.8,-466.9 -357.7,-706.5 -108,-242.2 -213.7,-485.5 -320.5,-728.2 -53.1,-120.7 -105.3,-241.9 -152.8,-364.9 -41.5,-107.2 -120.4,-233.3 -93.2,-349.7 5.2,-22.2 31.9,-31.1 50.7,-20.6"
         style="fill:#000072;fill-opacity:1;fill-rule:nonzero;stroke:none"
         id="path244" />
      <path
         d="m 26068.9,10016.5 c 27.5,42.3 65.9,71.2 90.8,115 20,35 37.1,71.9 55.4,107.7 44.3,86.3 88.1,172.6 129.2,260.6 78.7,168.6 156.8,337.5 234.2,506.8 153.1,334.9 300.3,672.7 446.3,1010.8 291.2,674.5 575.4,1354.6 827.7,2044.7 70.6,193.4 138.6,387.7 208.1,581.5 71.3,198.7 132.2,396.9 188.7,600.1 4,14.2 -17.8,24.4 -24.6,10.3 -78.4,-163.6 -155.5,-325.4 -224.6,-493.4 -72,-175.1 -146.6,-349.1 -220.6,-523.3 -143.3,-337.3 -282.9,-676.1 -424.9,-1014 -285.7,-679.8 -578.5,-1357 -881.4,-2029.3 -84.9,-188.3 -168.7,-377 -254.2,-565.1 -43.1,-94.9 -84.8,-190 -125.2,-286.1 -19.4,-46.2 -38.9,-92.4 -58.4,-138.6 -22.1,-52.1 -20.2,-104.4 -37,-158 -13.6,-43 47.4,-65.4 70.5,-29.7"
         style="fill:#000072;fill-opacity:1;fill-rule:nonzero;stroke:none"
         id="path246" />
      <path
         d="m 32327.6,24192.4 c -197.1,-312.8 -313.5,-672.3 -441.7,-1017.8 -129.2,-348.2 -263.8,-694.4 -402.4,-1039 -136.9,-340.3 -286.1,-675.6 -412.2,-1020.2 -126.6,-346 -260.4,-688.9 -413.6,-1024.2 -174.3,-381.4 -361.4,-756.2 -546.6,-1132.3 -23,-46.9 45.3,-88.1 70.8,-41.4 358.1,657.9 677.8,1336.7 1023.4,2001.2 342.8,659 606.1,1362.4 863.9,2058.4 143.2,386.3 301.3,780.9 336.9,1194 3.8,44 -57.8,54.1 -78.5,21.3"
         style="fill:#000072;fill-opacity:1;fill-rule:nonzero;stroke:none"
         id="path248" />
      <path
         d="m 31431.8,24363.2 c -51.7,-107.1 -67.7,-235.6 -98.7,-350.1 -30.1,-111.4 -66.6,-221.2 -105,-330 -77.5,-219.4 -180,-427.7 -264,-644.2 -88.5,-227.9 -158.4,-462.4 -250.4,-688.9 -48.5,-119.3 -97.6,-238.2 -148.2,-356.6 -50,-116.8 -104.1,-232.3 -139.6,-354.6 -6.8,-23.4 25.9,-36 38.5,-16.2 71,111.8 123.6,233.8 180.4,353.2 53.3,112 108.1,223.2 163.5,334.3 113,226.5 249.5,440.1 363.2,666.4 107.6,214.2 196.9,443.8 274.5,670.4 37.4,109.3 68.1,220.6 92.9,333.4 25.2,114.7 54.2,248.2 29.8,365 -12.8,61 -109.2,75.3 -136.9,17.9"
         style="fill:#000072;fill-opacity:1;fill-rule:nonzero;stroke:none"
         id="path250" />
      <path
         d="m 32359.9,24257.8 c -249.3,382.5 -640.5,653.7 -1019.9,895.2 -192.9,122.8 -389.2,241 -588.2,353.9 -201.1,114.1 -408.4,213.4 -601.5,341.6 -104.9,69.7 -216.5,131.3 -318,205.8 -104.9,77.1 -202.8,162 -310,236 -15.5,10.7 -30.4,-12 -19.1,-24.8 74,-84.4 156.2,-157.7 241.4,-230.7 84.2,-72.3 162,-151.6 246.6,-223.4 173.7,-147.5 361.6,-280.8 543.7,-417.8 182.4,-137.2 385.1,-249.5 579.5,-368.9 197.5,-121.2 388,-251.3 579,-382.3 208.5,-143 409.4,-296.9 628.8,-422.2 23.1,-13.2 53.1,13.9 37.7,37.6"
         style="fill:#000072;fill-opacity:1;fill-rule:nonzero;stroke:none"
         id="path252" />
      <path
         d="m 18736.5,5137.4 c -5755,0 -10420.31,220.8 -10420.31,493.1 0,272.3 4665.31,493.1 10420.31,493.1 5755,0 10420.3,-220.8 10420.3,-493.1 0,-272.3 -4665.3,-493.1 -10420.3,-493.1"
         style="opacity:0.5;fill:#b3b3b3;fill-opacity:1;fill-rule:nonzero;stroke:none"
         id="path254" />
    </g>
  </g>
</svg>
