<?xml version="1.0" encoding="UTF-8" standalone="no"?>
<!-- Created with Inkscape (http://www.inkscape.org/) -->

<svg
   version="1.1"
   id="svg1482"
   width="5333.3335"
   height="5333.3335"
   viewBox="0 0 5333.3335 5333.3335"
   xmlns="http://www.w3.org/2000/svg"
   xmlns:svg="http://www.w3.org/2000/svg">
  <defs
     id="defs1486" />
  <g
     id="g1490"
     transform="matrix(1.3333333,0,0,-1.3333333,0,5333.3333)">
    <g
       id="g1492"
       transform="scale(0.1)">
      <path
         d="m 20812.3,4076.6 c -4022.7,0 -7283.8,452.9 -7283.8,1011.5 0,294 903,558.7 2344.6,743.5 -29.8,-84.1 -56.3,-174.6 -78.8,-272 -54,-233.8 0.6,-475.5 149.9,-663.2 148.7,-187 371,-294.2 609.8,-294.2 h 2818.4 c 707.7,0 1285.5,573.6 1288.2,1278.6 0.2,72.1 -2,145 -6.6,218.6 52.5,0.2 105.5,0.3 158.3,0.3 52.8,0 105.8,-0.1 158.3,-0.3 -4.7,-73.6 -6.9,-146.5 -6.6,-218.6 2.6,-705 580.5,-1278.6 1288.2,-1278.6 h 2818.4 c 238.8,0 461,107.2 609.8,294.2 149.2,187.6 203.9,429.3 149.9,663.2 -22.5,97.4 -49,187.9 -78.8,272 1441.6,-184.8 2344.6,-449.5 2344.6,-743.5 0,-558.6 -3261.1,-1011.5 -7283.8,-1011.5"
         style="fill:#000000;fill-opacity:0;fill-rule:nonzero;stroke:none"
         id="path1496" />
      <path
         d="m 29880.9,14520.7 c -140,-566.7 -360.4,-1139.8 -699.6,-1661.8 -598.8,-921.3 -1566.5,-1683.1 -3112.7,-1969.3 -407.9,-76 -856.7,-118.3 -1348.8,-121.9 l 72.7,1260.2 c 0,0 2345.4,347.7 2982.3,3383.5 101.2,482.1 159.2,1031.9 158,1659 -0.8,337.4 150.5,662.2 421.3,862.4 18.1,13.4 36.8,26.2 56.1,39.1 688.7,454.6 1612.7,-25.2 1669.7,-848.2 44.5,-644.7 45.6,-1614 -199,-2603"
         style="fill:#ffffff;fill-opacity:1;fill-rule:nonzero;stroke:none"
         id="path1498" />
      <path
         d="m 29181.3,12858.9 c -598.8,-921.3 -1566.5,-1683.1 -3112.7,-1969.3 337,1167.4 1157.2,2664.1 3112.7,1969.3"
         style="fill:#777781;fill-opacity:1;fill-rule:nonzero;stroke:none"
         id="path1500" />
      <path
         d="m 29880.9,14520.7 c -1032.9,-419.8 -1693.3,149.6 -2106.1,890.7 101.2,482.1 159.2,1031.9 158,1659 -0.8,337.4 150.5,662.2 421.3,862.4 18.1,13.4 36.8,26.2 56.1,39.1 688.7,454.6 1612.7,-25.2 1669.7,-848.2 44.5,-644.7 45.6,-1614 -199,-2603"
         style="fill:#ff6f03;fill-opacity:1;fill-rule:nonzero;stroke:none"
         id="path1502" />
      <path
         d="m 28978.5,12924.3 c -9.9,2.9 -19.7,5.7 -29.6,8.5 -87.5,255.9 -275.7,465.7 -517,581.8 159.2,299.5 284.8,610.8 383.1,924 123.8,-39.2 256.1,-60.6 397.7,-60.6 136.8,0 282.2,20 436.7,63.1 -140.6,-521.5 -353.9,-1042.8 -670.9,-1516.8"
         style="fill:#bdc0d2;fill-opacity:1;fill-rule:nonzero;stroke:none"
         id="path1504" />
      <path
         d="m 28960.3,12897.3 c -3.6,11.9 -7.4,23.7 -11.4,35.5 9.9,-2.8 19.7,-5.6 29.6,-8.5 -6,-8.9 -12.1,-18.1 -18.2,-27"
         style="fill:#5f617a;fill-opacity:1;fill-rule:nonzero;stroke:none"
         id="path1506" />
      <path
         d="m 29212.7,14378 c -141.6,0 -273.9,21.4 -397.7,60.6 39.9,127 75.4,254.4 106.8,381.4 244.6,989 243.5,1958.3 198.9,2603 -13.4,194.4 -75.3,369.7 -171,518 13.5,0.6 27,0.9 40.6,0.9 130.7,0 262.7,-30.3 386.6,-91.6 290,-143.3 476.3,-420.3 498.5,-740.9 46.2,-666.3 43.9,-1667.4 -226,-2668.3 -154.5,-43.1 -299.9,-63.1 -436.7,-63.1"
         style="fill:#bd5c22;fill-opacity:1;fill-rule:nonzero;stroke:none"
         id="path1508" />
      <path
         d="m 24988.5,11860.5 -51.1,-883.6 c 1579,50.9 2801.6,532.6 3636.1,1433.4 1317.6,1422.2 1381.3,3554.5 1301.9,4699.1 -22.2,320.6 -208.5,597.6 -498.5,740.9 -278.8,137.8 -597.9,119.3 -853.5,-49.5 -16.2,-10.7 -32,-21.7 -47.2,-33 -212.4,-156.9 -339,-417.4 -338.3,-696.8 5.1,-2440.7 -887.1,-3735.6 -1636.4,-4391.9 -613.5,-537.4 -1226.8,-745.5 -1513,-818.6 m -268.6,-1298.1 c -56.2,0 -110,23 -148.7,63.8 -39.1,41.1 -59.4,96.5 -56.1,153.1 l 72.8,1260.4 c 5.6,96.9 78.3,176.6 174.2,191 7.4,1.2 754,122.4 1486.4,772.3 971.4,862 1482.9,2268.4 1479.1,4067.1 -0.9,409.3 187.9,793.5 504.9,1027.7 21,15.5 42.5,30.6 64.7,45.3 378.8,250.2 850.4,278.1 1261.5,75 422.2,-208.7 693.6,-612.5 726,-1080.4 83.9,-1210.6 12.3,-3470.8 -1410.2,-5006.2 -952.8,-1028.4 -2350.1,-1556.3 -4153.2,-1569.1 h -1.4"
         style="fill:#262f6a;fill-opacity:1;fill-rule:nonzero;stroke:none"
         id="path1510" />
      <path
         d="m 20472.9,5881.7 c -2.7,-604.7 -496.3,-1091.3 -1100.5,-1091.3 h -2818.5 c -381.3,0 -662.2,355.5 -576.3,727.2 55.3,239 136.4,431.8 231.5,586.5 v 0.5 c 368.4,600.4 935.6,636.4 935.6,636.4 h 3217 c 82.2,-324.4 111.7,-611.7 111.2,-859.3"
         style="fill:#777781;fill-opacity:1;fill-rule:nonzero;stroke:none"
         id="path1512" />
      <path
         d="M 19372.4,5327.2 H 16554 c -241.5,0 -442.3,142.7 -535.7,341.6 -14.7,-48.5 -28.6,-98.5 -40.8,-151.5 -85.8,-371.6 195.1,-727.1 576.5,-727.1 h 2818.4 c 604.2,0 1098,487 1100.2,1091.3 0.4,107.8 -5.5,223.5 -18.5,346.1 -92.8,-512.5 -542.8,-900.4 -1081.7,-900.4"
         style="fill:#ffffff;fill-opacity:1;fill-rule:nonzero;stroke:none"
         id="path1514" />
      <path
         d="m 19372.4,5327.2 h -1099.1 c 599.1,115.8 976.9,415.7 1134.4,864.9 362,62.1 642.6,172.2 824.4,260.6 35.6,-195.3 53.2,-386.3 52.5,-570.5 -0.1,-25.4 -1.2,-50.5 -3.4,-75.4 -198.1,-289.7 -531.7,-479.6 -908.8,-479.6 m -2280.2,0 H 16554 c -152.9,0 -289.6,57.3 -392.9,149.8 32.8,141.7 75.7,264.9 125,371.8 96.4,-184.2 314.2,-418 806.1,-521.6"
         style="fill:#5f617a;fill-opacity:1;fill-rule:nonzero;stroke:none"
         id="path1516" />
      <path
         d="M 19372.4,4978.1 H 16554 c -123.6,0 -238.6,55.5 -315.6,152.3 -77.5,97.5 -105.8,223.1 -77.8,344.6 0.2,0.7 0.3,1.3 0.5,2 103.3,-92.5 240,-149.8 392.9,-149.8 h 538.2 c 159.6,-33.6 348.1,-53.4 570.7,-53.4 224.2,0 427.6,18.1 610.4,53.4 h 1099.1 c 377.1,0 710.7,189.9 908.8,479.6 -40.4,-463.4 -433.2,-828.7 -908.8,-828.7"
         style="fill:#bdc0d2;fill-opacity:1;fill-rule:nonzero;stroke:none"
         id="path1518" />
      <path
         d="m 17153,6552.9 c -72.6,-7.4 -767.4,-103.4 -992.4,-1077.9 -28,-121.5 0.3,-247.1 77.8,-344.6 77,-96.8 192,-152.3 315.6,-152.3 h 2818.4 c 501.1,0 910.3,405.6 912.2,904.1 0.8,215.6 -23.4,440.6 -72.3,670.7 H 17153 M 19372.4,4602.2 H 16554 c -238.8,0 -461.1,107.2 -609.8,294.2 -149.3,187.7 -203.9,429.4 -149.9,663.2 297.5,1288.4 1296.3,1366.2 1338.7,1368.9 4,0.2 7.9,0.3 11.9,0.3 h 3216.7 c 86,0 161,-58.4 182.2,-141.7 78.5,-310.1 117.9,-615 116.8,-906.3 -2.7,-705 -580.5,-1278.6 -1288.2,-1278.6"
         style="fill:#262f6a;fill-opacity:1;fill-rule:nonzero;stroke:none"
         id="path1520" />
      <path
         d="m 20465.3,9848 -103.6,-3107 c 0,0 -1306.2,-915.1 -3217,0 l -95.6,599.9 L 16650,9848 h 3815.3"
         style="fill:#777781;fill-opacity:1;fill-rule:nonzero;stroke:none"
         id="path1522" />
      <path
         d="m 18827.3,6523.2 c -429.7,0.1 -941.2,87.2 -1512.5,345.9 l -57.3,359.4 c 203.9,-98.3 541.7,-233.1 942.5,-283.6 47.6,-6 94.8,-8.9 141.4,-8.9 525.5,0 977.2,370.6 1093.4,874.4 l 90.9,-3.1 519.3,-5.7 c 0.3,0 0.5,0 0.8,0 57.6,0 115.5,27 151.4,77.6 l 1.2,1.6 13.7,19.4 -35,-1051.7 c -178.3,-99.6 -658.2,-325.3 -1349.8,-325.3"
         style="fill:#5f617a;fill-opacity:1;fill-rule:nonzero;stroke:none"
         id="path1524" />
      <path
         d="m 17314.8,6869.1 c 1490.7,-674.9 2573.3,-182.2 2862.3,-20.6 l 93.7,2811.7 h -3400.5 l 444.5,-2791.1 M 18832,6143.6 c -501.4,0 -1099.3,107.3 -1768.3,427.7 -55.7,26.7 -94.8,79 -104.5,140 l -494.9,3107.3 c -8.6,54.4 7,109.8 42.7,151.6 35.7,41.9 88,66 143,66 h 3815.1 c 51,0 99.7,-20.7 135.1,-57.3 35.4,-36.6 54.5,-86.1 52.8,-137 l -103.5,-3107.3 c -2.1,-59.1 -31.7,-113.8 -80.1,-147.7 -37.8,-26.5 -649.9,-443.3 -1637.4,-443.3"
         style="fill:#262f6a;fill-opacity:1;fill-rule:nonzero;stroke:none"
         id="path1526" />
      <path
         d="m 21151.7,5881.7 c 2.7,-604.7 496.2,-1091.3 1100.5,-1091.3 h 2818.5 c 381.3,0 662.2,355.5 576.3,727.2 -55.3,239 -136.5,431.8 -231.5,586.5 v 0.5 c -368.4,600.4 -935.6,636.4 -935.6,636.4 h -3217 c -82.2,-324.4 -111.7,-611.7 -111.2,-859.3"
         style="fill:#777781;fill-opacity:1;fill-rule:nonzero;stroke:none"
         id="path1528" />
      <path
         d="m 22252.2,5327.2 h 2818.4 c 241.4,0 442.3,142.7 535.6,341.6 14.7,-48.5 28.7,-98.5 40.9,-151.5 85.8,-371.6 -195.1,-727.1 -576.5,-727.1 h -2818.4 c -604.3,0 -1098,487 -1100.2,1091.3 -0.4,107.8 5.4,223.5 18.5,346.1 92.7,-512.5 542.7,-900.4 1081.7,-900.4"
         style="fill:#ffffff;fill-opacity:1;fill-rule:nonzero;stroke:none"
         id="path1530" />
      <path
         d="m 25070.6,5327.2 h -538.2 c 491.6,103.5 709.5,337.2 805.9,521.4 49.5,-106.9 92.4,-230 125.2,-371.6 -103.4,-92.5 -240,-149.8 -392.9,-149.8 m -1719.3,0 h -1099.1 c -377.2,0 -710.8,190 -908.9,479.7 -2.1,24.8 -3.3,49.9 -3.4,75.2 -0.6,184.3 17,375.3 52.6,570.5 181.8,-88.3 462.3,-198.4 824.4,-260.5 157.5,-449.1 535.3,-749.1 1134.4,-864.9"
         style="fill:#5f617a;fill-opacity:1;fill-rule:nonzero;stroke:none"
         id="path1532" />
      <path
         d="m 25070.6,4978.1 h -2818.4 c -475.7,0 -868.6,365.4 -908.9,828.8 198.1,-289.7 531.7,-479.7 908.9,-479.7 h 1099.1 c 182.8,-35.3 386.2,-53.4 610.3,-53.4 222.7,0 411.1,19.8 570.8,53.4 h 538.2 c 152.9,0 289.5,57.3 392.9,149.8 0.2,-0.7 0.3,-1.3 0.5,-2 28,-121.5 -0.3,-247.1 -77.9,-344.6 -76.9,-96.8 -191.9,-152.3 -315.5,-152.3"
         style="fill:#bdc0d2;fill-opacity:1;fill-rule:nonzero;stroke:none"
         id="path1534" />
      <path
         d="m 21412.2,6552.9 c -48.7,-230 -73,-455.1 -72.3,-670.8 1.9,-498.4 411.1,-904 912.3,-904 h 2818.4 c 123.6,0 238.6,55.5 315.5,152.3 77.6,97.5 105.9,223.1 77.9,344.6 -226.1,978.9 -930.8,1071.7 -992,1077.9 h -3059.8 m 3658.4,-1950.7 h -2818.4 c -707.7,0 -1285.6,573.6 -1288.2,1278.6 -1.1,291.4 38.2,596.3 116.8,906.3 21.1,83.3 96.2,141.7 182.2,141.7 h 3216.7 c 3.9,0 7.9,-0.1 11.8,-0.3 42.4,-2.7 1041.3,-80.5 1338.8,-1368.9 54,-233.9 -0.7,-475.6 -149.9,-663.2 -148.8,-187 -371,-294.2 -609.8,-294.2"
         style="fill:#262f6a;fill-opacity:1;fill-rule:nonzero;stroke:none"
         id="path1536" />
      <path
         d="m 21159.2,9848 103.7,-3107 c 0,0 1306.1,-915.1 3217,0 l 95.6,599.9 399.1,2507.1 h -3815.4"
         style="fill:#777781;fill-opacity:1;fill-rule:nonzero;stroke:none"
         id="path1538" />
      <path
         d="m 22789.7,6519.6 c -689.1,0 -1163.9,226.4 -1342.2,328 l -35,1052.6 13.7,-19.4 1.8,-2.6 c 33.5,-46.5 88,-76.6 149.5,-76.6 0.7,0 1.3,0 2,0 l 519.5,5.7 90.8,3.1 c 116.2,-503.8 567.8,-874.4 1093.4,-874.4 46.6,0 93.8,2.9 141.4,8.9 400.8,50.5 738.5,185.2 942.4,283.6 l -57.2,-359.5 c -577,-261.4 -1090.2,-349.5 -1520.1,-349.4"
         style="fill:#5f617a;fill-opacity:1;fill-rule:nonzero;stroke:none"
         id="path1540" />
      <path
         d="m 21447.5,6847.6 c 289.5,-165 1360.5,-659.1 2862.3,21.4 l 444.5,2791.2 h -3400.5 l 93.7,-2812.6 m 1345.1,-704 c -987.6,0 -1599.6,416.8 -1637.4,443.3 -48.4,33.9 -78.1,88.6 -80.1,147.7 l -103.5,3107.3 c -1.7,50.9 17.4,100.4 52.8,137 35.4,36.6 84.1,57.3 135.1,57.3 h 3815.1 c 55,0 107.2,-24.1 142.9,-66 35.8,-41.8 51.3,-97.2 42.7,-151.6 l -494.9,-3107.3 c -9.7,-61 -48.8,-113.3 -104.4,-140 -668.9,-320.3 -1267,-427.7 -1768.3,-427.7"
         style="fill:#262f6a;fill-opacity:1;fill-rule:nonzero;stroke:none"
         id="path1542" />
      <path
         d="m 12266.7,17959.9 c 0,0 -739.1,2936.6 -2867.11,1883.5 -2095.74,-1037 -838.68,-4223.6 1433.51,-3774.8 l 1433.6,1891.3"
         style="fill:#ffffff;fill-opacity:1;fill-rule:nonzero;stroke:none"
         id="path1544" />
      <path
         d="m 9589.22,20088.9 c 18.67,-4.8 28.26,-8 40.61,-11.7 12.39,-3.5 22.7,-7.4 33.77,-11.2 22.27,-7.5 43.19,-15.9 63.83,-24.7 42.15,-16.7 81.09,-37.6 120.03,-59 77.23,-43.5 150.1,-94.6 216.14,-153.7 134.4,-115.8 241.6,-261.4 321.1,-417.2 18.5,-39.5 40.6,-78.2 54.1,-119.2 l 43.2,-122.5 c 13.5,-41 21.1,-82.9 31.7,-124.4 9.8,-41.6 21,-83 24.3,-124.9 10.2,-83.5 21.9,-167.2 20.6,-249.6 l 2.3,-124 c -2.1,-41.9 -6.2,-84.3 -9.8,-126.3 -5,-42.1 -6.2,-84.1 -14.7,-125.9 l -27.6,-125.1 -14.2,-62.2 -21.2,-60.9 -43.5,-121 c -71.4,-156.1 -162.3,-304.4 -281.9,-424.7 -118.4,-120.5 -254.93,-218.4 -400.48,-291 -72.97,-36.2 -147.71,-67 -224.89,-89.8 -76.94,-24.2 -153.83,-40.5 -236.85,-48.2 -27.79,-2.5 -52.4,17.9 -54.95,45.7 -1.86,20.3 8.54,38.9 25.12,48.5 l 4.24,2.4 c 253.77,145.6 477.84,332.1 633.19,548.6 79.57,107.8 134.52,227.2 182.22,347.6 l 26.8,94 13.6,46.8 7.4,48.8 15.4,97 c 4.8,32.4 2.9,66.4 4.8,99.4 1.1,33.2 3.9,66.1 4.7,99.4 l -5.7,102.2 c -0.6,68.8 -13.3,134.3 -23.1,200.2 -3.6,33.5 -12,65 -20,96.7 -8.4,31.5 -13.8,64.3 -24.3,94.8 l -32.6,90.6 c -9.4,31.1 -27.2,57.3 -39.3,86.7 -54.5,113.9 -128.36,215.7 -217.31,302.9 -22.5,21.5 -44.96,43.3 -70.09,61.7 -23.47,20.8 -49.11,38.4 -74.7,56.3 -25.77,17 -52.5,33.7 -79.02,48.1 -13.36,7.6 -26.68,14.9 -39.71,20.9 -6.46,3.1 -13.44,6.7 -19.02,9 -5.49,2.4 -13.59,5.8 -13.07,6.1 -100.15,27.3 -159.23,130.6 -131.95,230.8 27.3,100.2 130.62,159.3 230.79,132"
         style="fill:#262f6a;fill-opacity:1;fill-rule:nonzero;stroke:none"
         id="path1546" />
      <path
         d="m 10276.6,19882.5 c -248.8,0 -514.11,-69.2 -793.65,-207.6 -998.97,-494.3 -1086.86,-1455 -858.59,-2127.5 258.59,-761.7 1023.88,-1483.9 2103.24,-1306.9 l 1332.5,1758.2 c -95.4,313.9 -478.1,1410.3 -1258.2,1769.6 -165.4,76.2 -340.8,114.2 -525.3,114.2 m 118.1,-4046 c -1086.37,0 -1849.93,776 -2126.31,1590.1 -299.01,880.8 -90.96,2021.8 1047.86,2585.3 593.99,294 1147.15,326.7 1644.05,97.3 1073,-495.1 1472.2,-2037.9 1488.7,-2103.4 13.9,-55.3 2,-113.9 -32.5,-159.4 L 10982.9,15955 c -27.8,-36.7 -68.1,-61.9 -113.3,-70.8 -164.3,-32.5 -322.8,-47.7 -474.9,-47.7"
         style="fill:#262f6a;fill-opacity:1;fill-rule:nonzero;stroke:none"
         id="path1548" />
      <path
         d="m 11022.5,17470.7 c -82.4,0 -161.1,47.8 -196.6,128.1 l -3528.84,7982.8 c -47.95,108.5 1.12,235.3 109.62,283.3 108.44,48 235.3,-1 283.35,-109.6 l 3528.87,-7982.8 c 47.9,-108.5 -1.1,-235.4 -109.6,-283.4 -28.3,-12.4 -57.8,-18.4 -86.8,-18.4"
         style="fill:#262f6a;fill-opacity:1;fill-rule:nonzero;stroke:none"
         id="path1550" />
      <path
         d="m 8151.58,25519.8 c -82.1,-363.5 -443.27,-591.5 -806.69,-509.4 -363.41,82.1 -591.46,443.3 -509.36,806.7 82.1,363.4 443.26,591.4 806.68,509.3 363.42,-82.1 591.47,-443.2 509.37,-806.6"
         style="fill:#262f6a;fill-opacity:1;fill-rule:nonzero;stroke:none"
         id="path1552" />
      <path
         d="m 11303.9,19109.4 c 58.3,274.9 -133.4,543.3 -413.1,570.3 -362,34.9 -826.5,-23.6 -1076.85,-466.4 -448.89,-794.1 776.75,-1390.5 1363.75,-699.5 l 126.2,595.6"
         style="fill:#ffffff;fill-opacity:1;fill-rule:nonzero;stroke:none"
         id="path1554" />
      <path
         d="m 9590.47,17142.2 c 53.38,19.2 105.65,42 157.05,67.5 145.55,72.6 282.08,170.5 400.48,291 119.6,120.3 210.5,268.6 281.9,424.7 l 43.5,121 21.2,60.9 14.2,62.2 8.9,40.4 c 0.6,0 1.2,0 1.9,0 11.9,0 23.9,0.2 35.9,0.7 l 203.3,-460 c -157.5,-230.5 -493.6,-547.3 -1168.33,-608.4 m 1481.53,962.5 -101.7,230.2 c 74.5,45.8 144.6,105 207.4,178.9 l 47.3,223.4 c 155,64.6 175.6,128 175.6,128 0,0 135,-439.9 -328.6,-760.5 m -1343.81,658.9 c -35.63,120.2 -25.3,259.4 67.84,416.4 -75.95,-148.8 -93.37,-290 -67.84,-416.4"
         style="fill:#bdc0d2;fill-opacity:1;fill-rule:nonzero;stroke:none"
         id="path1556" />
      <path
         d="m 9352.36,17131.7 c -13.46,0 -26.97,0.1 -40.66,0.3 0,0 996.9,438.7 987,1104.6 70.8,-17.3 144.5,-26.6 219,-26.7 l -8.9,-40.4 -14.2,-62.2 -21.2,-60.9 -43.5,-121 c -71.4,-156.1 -162.3,-304.4 -281.9,-424.7 -118.4,-120.5 -254.93,-218.4 -400.48,-291 -51.4,-25.5 -103.67,-48.3 -157.05,-67.5 -75.13,-6.8 -154.37,-10.5 -238.11,-10.5"
         style="fill:#262f6a;fill-opacity:1;fill-rule:nonzero;stroke:none"
         id="path1558" />
      <path
         d="m 10758.8,17750.6 -203.3,460 c 141.9,5.6 285,44.6 414.8,124.3 l 101.7,-230.2 c -54,-37.4 -116.3,-73.2 -187.8,-106.5 0,0 -29.9,-107.9 -125.4,-247.6"
         style="fill:#262f6a;fill-opacity:1;fill-rule:nonzero;stroke:none"
         id="path1560" />
      <path
         d="m 10519.6,18209.9 c -0.7,0 -1.3,0 -1.9,0 -74.5,0.1 -148.2,9.4 -219,26.7 0,0.1 0,0 0,0.1 0,0 -469.59,186.6 -570.51,526.9 -25.53,126.4 -8.11,267.6 67.84,416.4 68.23,115 180.88,239.5 352.47,372.9 0,0 -223.55,-937.5 418.7,-937.5 18.6,0 37.9,0.7 58.1,2.4 301.3,24.3 486.4,72.2 599.7,119.4 l -47.3,-223.4 c -62.8,-73.9 -132.9,-133.1 -207.4,-178.9 -129.8,-79.7 -272.9,-118.7 -414.8,-124.3 -12,-0.5 -24,-0.7 -35.9,-0.7"
         style="fill:#bdc0d2;fill-opacity:1;fill-rule:nonzero;stroke:none"
         id="path1562" />
      <path
         d="m 11332.6,19390.3 c -28.8,7.8 -69.8,18.7 -105.7,26.9 -37.2,8.5 -74.9,16 -112.5,23.2 -75.2,14.1 -151.1,22.9 -225.8,29.4 -149.5,11.3 -296.6,4.1 -428.3,-28.3 -131,-34.4 -246.7,-90.1 -335.2,-178.7 -44.7,-43.9 -83.3,-94.7 -118,-151 -32.1,-55.2 -56.47,-110.9 -68.71,-165.3 -12.59,-54.4 -12.25,-106.9 -0.78,-157.9 11.35,-50.8 33.2,-101.6 67.89,-148.9 68.5,-95.3 183.2,-171.6 310,-214 127.1,-44.1 266.4,-61.9 406.7,-44.8 70.3,8 141.8,23.6 212.9,50.2 71.5,26.1 140.8,63.5 214.6,106.4 l 1.7,1 c 18.3,10.7 41.7,4.5 52.3,-13.8 6.4,-10.9 6.6,-23.9 1.9,-34.7 -36.8,-83.4 -93.1,-159.1 -161.5,-225.9 -69,-66.5 -153.2,-118.4 -243.9,-157 -182.4,-76.7 -392.1,-89.1 -587.3,-40 -194.5,49.9 -382.53,152.7 -524.39,320.8 -69.97,83.9 -127.2,185.4 -157.08,297.5 -30.18,111.7 -33.61,231.5 -12.73,341.6 20.33,110.6 61.49,211.3 111.14,302.5 49.25,89.2 114.19,172.2 188.47,246.6 149.22,150.5 347.19,247.3 541.69,289.8 195.6,44.8 389.2,43.5 573,19.4 92.2,-11.5 182.1,-31.2 270.5,-54.2 44.3,-11.5 88,-24.6 131.4,-39.5 44.7,-15.3 83.9,-29.3 133.8,-50.9 95.2,-41.2 139,-151.9 97.7,-247.1 -37.6,-86.8 -132.9,-130.9 -221.7,-106.7 l -12.1,3.4"
         style="fill:#262f6a;fill-opacity:1;fill-rule:nonzero;stroke:none"
         id="path1564" />
      <path
         d="m 23750.8,18147.8 c 0,0 3769.1,1683.6 3797.9,-7168.9 h -2347.8 c 0,0 402.8,6050.1 -1450.1,7168.9"
         style="fill:#ffffff;fill-opacity:1;fill-rule:nonzero;stroke:none"
         id="path1566" />
      <path
         d="m 25932.1,13613.4 h -364.2 c -13.3,207 -26.8,414.1 -40.7,621.1 -39.6,605 -70.4,1210.5 -184.6,1811.9 -12.6,262.4 -23.6,494.3 -32.5,686.6 l -17.6,391.5 c 0,0 430.3,-1112.4 639.6,-3511.1"
         style="fill:#bdc0d2;fill-opacity:1;fill-rule:nonzero;stroke:none"
         id="path1568" />
      <path
         d="m 25399.8,11166.9 h 1959.7 c -42.3,4462.6 -1061.1,6065.3 -1915,6621.8 -498.4,324.8 -982.1,326.8 -1288.9,276.6 1428.1,-1426.1 1294.7,-5880.1 1244.2,-6898.4 m 2148.9,-375.9 h -2347.8 c -52,0 -101.7,21.5 -137.2,59.5 -35.6,38 -53.8,89 -50.3,140.9 0.9,15 98.3,1521.4 -30.4,3141.6 -166.6,2096.7 -626.3,3429.3 -1329.4,3853.9 -59.9,36.1 -94.7,102.6 -90.4,172.4 4.3,69.9 47,131.6 111,160.1 39.6,17.7 982.1,426.3 1967.9,-210.8 1377.4,-890.1 2082.1,-3288.6 2094.6,-7129.1 0.1,-49.9 -19.6,-97.9 -54.9,-133.3 -35.3,-35.4 -83.2,-55.2 -133.1,-55.2"
         style="fill:#262f6a;fill-opacity:1;fill-rule:nonzero;stroke:none"
         id="path1570" />
      <path
         d="M 28814.6,12608.3 V 9478 c 0,0 -339.5,178.4 -874.6,0 v 3130.3 c 0,0 454.6,676.2 874.6,0"
         style="fill:#ffffff;fill-opacity:1;fill-rule:nonzero;stroke:none"
         id="path1572" />
      <path
         d="M 28128,12544.9 V 9719.8 c 200.8,36 370,28.1 498.6,7 v 2825.4 c -58.1,83.6 -137.2,166.7 -222.2,168.7 -1.1,0 -2.2,0 -3.3,0 -103.2,0 -214,-105.6 -273.1,-176 M 27940,9290 c -39,0 -77.5,12.1 -109.9,35.5 -49.1,35.3 -78.1,92.1 -78.1,152.5 v 3130.3 c 0,37.4 11.1,73.9 32,104.9 26.8,39.9 270.8,390.6 626.6,383.5 216,-3.9 405.7,-134.8 563.7,-389.2 18.5,-29.7 28.3,-64.1 28.3,-99.2 V 9478 c 0,-65.8 -34.4,-126.9 -90.7,-160.9 -56.4,-34 -126.4,-36.1 -184.7,-5.5 -9.4,4.6 -284,136 -727.8,-11.9 -19.4,-6.5 -39.4,-9.7 -59.4,-9.7"
         style="fill:#262f6a;fill-opacity:1;fill-rule:nonzero;stroke:none"
         id="path1574" />
      <path
         d="m 28814.6,12608.5 c 0,0 -174,107.4 -433.4,107.4 -129.4,0 -280.3,-26.8 -441.5,-107.4 V 9477.9 h -2877 v 3947.5 h 2935 c 451.2,0 816.9,-365.8 816.9,-816.9"
         style="fill:#0096f0;fill-opacity:1;fill-rule:nonzero;stroke:none"
         id="path1576" />
      <path
         d="m 27752,9666 h -23.9 c -153.7,383.3 -532.3,1034.8 -1330.4,1034.8 -265.9,0 -478.8,-72.3 -649,-183 -6.8,133 -13.9,265.8 -21.1,398.7 184.6,81.7 400,130.8 651.4,130.8 647,0 1084.6,-324.7 1373,-692 V 9666"
         style="fill:#0b77c8;fill-opacity:1;fill-rule:nonzero;stroke:none"
         id="path1578" />
      <path
         d="m 28560.4,12889.3 c -29.6,4.8 -60.7,8.6 -93.2,11.1 -132.7,93.9 -294.7,149.1 -469.7,149.1 h -2394.1 c -3.9,62.7 -7.8,125.4 -11.7,188 h 2405.8 c 246,0 459.5,-141.9 562.9,-348.2"
         style="fill:#b2dffa;fill-opacity:1;fill-rule:nonzero;stroke:none"
         id="path1580" />
      <path
         d="m 27940,12420.4 h -2877.2 c -103.8,0 -188,84.1 -188,187.9 0,103.9 84.2,188 188,188 H 27940 c 103.8,0 188,-84.1 188,-188 0,-103.8 -84.2,-187.9 -188,-187.9"
         style="fill:#262f6a;fill-opacity:1;fill-rule:nonzero;stroke:none"
         id="path1582" />
      <path
         d="M 25250.8,9666 H 27752 v 2942.3 c 0,71.2 40.2,136.3 103.9,168.2 270.2,135.1 517.2,143.1 704.5,112.8 -103.4,206.3 -316.9,348.2 -562.9,348.2 H 25250.8 V 9666 M 27940,9290 h -2877.2 c -103.8,0 -188,84.2 -188,188 v 3947.5 c 0,103.8 84.2,187.9 188,187.9 h 2934.7 c 554.2,0 1005.1,-450.8 1005.1,-1005.1 0,-68.1 -36.9,-130.9 -96.4,-164.1 -59.5,-33.2 -132.4,-31.6 -190.3,4.2 -10.2,6 -259.6,149.9 -587.9,35.8 V 9478 c 0,-103.8 -84.2,-188 -188,-188"
         style="fill:#262f6a;fill-opacity:1;fill-rule:nonzero;stroke:none"
         id="path1584" />
      <path
         d="m 17133.4,15683.2 -920.6,-792.7 -1475.8,-1271.2 c -342.7,-295.4 -847,-306.7 -1203.1,-27.4 L 10702,15815.3 c -153.1,120.3 -196.1,331.4 -106.4,503.8 374.4,719.1 946.9,1280.4 1275.6,1566.6 143.9,125.2 356.6,130.5 507.5,13.5 l 102,-79.5 1441.5,-1118.2 2752,2382.4 459.2,-3400.7"
         style="fill:#ffffff;fill-opacity:1;fill-rule:nonzero;stroke:none"
         id="path1586" />
      <path
         d="m 14118.9,13578.2 c -165.5,0 -331.2,53.7 -468.8,161.6 l -2832.2,2223.5 c -80.4,63.1 -103.7,176.3 -55.4,269.1 363.6,698.7 928,1246.8 1232.1,1511.3 39.3,34.2 88.7,51.5 138.3,51.5 45.9,0 92,-14.9 130.5,-44.7 l 52,-40.3 c -364.3,-260 -596.2,-559.8 -743.6,-833.6 -230.2,-427.5 -110.5,-959 281.1,-1246 l 1566.6,-1147.9 c 192,-140.7 417.6,-210.2 642.5,-210.2 260,0 518.9,92.9 724.3,276.1 l 811.4,724.3 c 161.7,144.3 283.3,328.1 352.9,533.3 l 446.7,1317.6 -56.8,-966.2 c -0.5,0.1 -1,0.1 -1.5,0.1 -11.1,0 -21.3,-7.6 -24.2,-18.9 -40.1,-157.6 -69.7,-315.8 -94.8,-474.1 -25.8,-158.3 -45.6,-317 -62.3,-475.7 -3.8,-35.8 -7.4,-71.6 -10.7,-107.4 l -1532.5,-1319.8 c -141.7,-122.1 -318.5,-183.6 -495.6,-183.6"
         style="fill:#bdc0d2;fill-opacity:1;fill-rule:nonzero;stroke:none"
         id="path1588" />
      <path
         d="m 13968,15522.5 c -19.9,0 -39.6,14.4 -39.4,39.1 3,397.1 -72,760.4 -139.5,1005.6 l 18.2,-14.2 c 33.9,-26.3 74.5,-39.4 115.1,-39.4 43.9,0 87.8,15.4 123.1,45.9 l 128.4,111.2 c 64.7,-508.8 -74.7,-916.3 -170.6,-1125.3 -7.2,-15.8 -21.3,-22.9 -35.3,-22.9"
         style="fill:#bdc0d2;fill-opacity:1;fill-rule:nonzero;stroke:none"
         id="path1590" />
      <path
         d="m 12132.9,17795.2 c -49.6,0 -99,-17.3 -138.3,-51.5 -304.1,-264.5 -868.5,-812.6 -1232.1,-1511.3 -48.3,-92.8 -25,-206 55.4,-269.1 l 2832.2,-2223.5 c 284.7,-223.4 690.3,-214.2 964.4,22 l 2318.9,1997.2 -399.1,2955.2 -2488.8,-2154.7 c -67.8,-58.7 -167.5,-61.3 -238.2,-6.5 l -1543.9,1197.5 c -38.5,29.8 -84.6,44.7 -130.5,44.7 m 1985.9,-4592.7 c -247.5,0 -495.2,80.2 -700.8,241.6 l -2832.3,2223.5 c -222.5,174.7 -288.4,485.2 -156.7,738.4 392.2,753.7 994.6,1339.3 1318.8,1621.3 211,183.5 524.6,192 746,20.3 l 1422.1,-1103 2635.1,2281.4 c 52.2,45.2 124.9,58.2 189.5,33.7 64.6,-24.4 110.6,-82.3 119.8,-150.7 l 459.4,-3400.7 c 8.5,-63.1 -15.5,-126.1 -63.7,-167.7 l -2396.1,-2063.7 c -211.9,-182.5 -476.4,-274.4 -741.1,-274.4"
         style="fill:#262f6a;fill-opacity:1;fill-rule:nonzero;stroke:none"
         id="path1592" />
      <path
         d="m 25285.3,16137.7 368.3,-7641.8 c 0,0 -1196.9,-506.3 -4074.1,-506.3 l -767.2,1081.8 -767.2,-1081.8 c -2877.2,0 -4074.1,506.3 -4074.1,506.3 l 368.3,7641.8 115.1,1956.4 h 8608.4 l 222.5,-1956.4"
         style="fill:#ffffff;fill-opacity:1;fill-rule:nonzero;stroke:none"
         id="path1594" />
      <path
         d="m 19948.7,8178.6 -414.8,4.5 -510.3,17.6 c -339.7,18.2 -679.3,39.1 -1016.5,76.4 -337.5,35.1 -673.6,80.7 -1004.8,143.5 -83,15 -165,33.3 -247.6,49.8 -81.7,18.5 -163.8,36.7 -244.7,57.3 l -121.1,31.4 -119.5,34.2 -101.6,32 c 38.1,590.1 68.7,1180.7 96.8,1771.4 30.8,636.8 56.5,1273.8 80.8,1910.9 l 33.9,955.8 28.9,956.1 c 7.8,318.7 23.6,637.1 20.6,956.4 -1.4,159.6 -5.8,319.4 -16.3,479.5 -9.7,160.1 -24,320.3 -48.8,481.1 -1.4,9.1 -7.8,17.1 -17.1,20 21.8,428.4 39.4,766.3 50.7,968 0,0 454.9,-2145.4 348.6,-5935.2 -36.2,-1292.9 1001.6,-2355.5 2288.7,-2355.5 16.1,0 32.1,0.2 48.3,0.5 23.7,0.5 47.6,1.1 71.7,1.8 327.1,9.3 643,121.2 906.6,315 l 783.7,576.3 v -470.9 c -10.8,1.9 -21.6,2.9 -32.4,2.9 -58.9,0 -116.9,-27.6 -153.5,-79.3 l -710.3,-1001.5"
         style="fill:#bdc0d2;fill-opacity:1;fill-rule:nonzero;stroke:none"
         id="path1596" />
      <path
         d="m 25340.5,16057.8 c -5.3,27.2 -10.7,54.5 -16.2,81.7 -3.4,16.4 -17,29.5 -34.5,31.4 -1.5,0.1 -2.9,0.2 -4.3,0.2 -1.3,0 -2.7,-0.1 -4,-0.2 l -61.4,540.2 c 42.6,272.7 72.4,413.4 72.4,413.4 4.2,-99.4 10.2,-231.8 17.6,-391.5 l 30.4,-675.2"
         style="fill:#bdc0d2;fill-opacity:1;fill-rule:nonzero;stroke:none"
         id="path1598" />
      <path
         d="m 25342.6,16046.4 c -0.7,3.8 -1.4,7.6 -2.1,11.4 l -30.4,675.2 c 8.9,-192.3 19.9,-424.2 32.5,-686.6"
         style="fill:#8f94b3;fill-opacity:1;fill-rule:nonzero;stroke:none"
         id="path1600" />
      <path
         d="m 21675.9,8178.6 -710.3,1001.5 c -11.8,16.6 -27,32.1 -44.6,44.6 -23.5,16.7 -49.5,27.2 -76.1,31.8 v 470.9 l 783.7,-576.3 c 263.6,-193.8 579.5,-305.7 906.6,-315 24.1,-0.7 48,-1.3 71.7,-1.8 16.2,-0.3 32.2,-0.5 48.3,-0.5 1287.1,0.1 2324.9,1062.6 2288.7,2355.5 -79.1,2819.7 152.4,4729 276.2,5521.8 l 61.4,-540.2 c -18.2,-1.9 -33.2,-16.2 -35.2,-35.1 -68,-641.6 -38.5,-1278.5 -18.8,-1915.8 18.7,-637.4 40.7,-1274.6 63.8,-1911.8 23.9,-637.1 48.8,-1274.2 77.7,-1911.1 3.5,-84.9 7.3,-169.7 11.3,-254.6 C 25146.4,9787 25094.4,9393 25094.4,9393 v 0 0 0 0 0 -0.1 0 0 -0.1 c 0,-0.1 0,-0.1 0,-0.1 0.1,-0.1 0.1,-0.2 0.1,-0.2 3.5,-13.4 78,-289.7 349.8,-526.8 4.3,-80.1 8.8,-160.1 13.4,-240.1 l -102.1,-32.2 -119.4,-34.2 -121.2,-31.4 c -80.9,-20.6 -162.9,-38.7 -244.7,-57.3 -82.6,-16.5 -164.6,-34.8 -247.6,-49.8 -331.3,-62.9 -667.4,-108.5 -1004.9,-143.5 -337.3,-37.4 -676.9,-58.3 -1016.7,-76.5 l -510.4,-17.6 -414.8,-4.5"
         style="fill:#bdc0d2;fill-opacity:1;fill-rule:nonzero;stroke:none"
         id="path1602" />
      <path
         d="m 20190.2,13736.4 c -749.7,917.4 -1699.5,1648.9 -2039.5,1897.9 -62.2,45.6 -60.7,138.6 2.8,182.5 l 464.5,320.9 -871.7,271.6 c -83.4,26 -106.3,133.2 -40.9,191 l 415.8,367.6 c -34,-30.7 -68.2,-62 -102.6,-93.7 -49.2,-45.4 -70.5,-113.6 -56,-178.9 14.6,-65.4 62.8,-118.1 126.6,-138.4 l 1058.2,-335.9 -512.6,-314.4 c -54.4,-33.4 -88.1,-92.3 -89.5,-156.2 -1.4,-63.9 29.9,-124.2 82.8,-160 10,-6.7 830.3,-572.1 1562.1,-1854 m 1244.2,0 c 731.7,1281.9 1552,1847.3 1561.8,1853.9 53.2,35.6 84.6,95.9 83.2,159.9 -1.3,64 -35.1,122.9 -89.6,156.4 l -512.7,314.4 1058.2,335.9 c 63.9,20.3 112.1,73 126.7,138.4 14.5,65.3 -6.8,133.5 -56.1,178.9 -34.4,31.8 -68.7,63.1 -102.8,93.9 l 416.1,-367.8 c 65.4,-57.8 42.5,-165 -40.9,-191 l -871.7,-271.6 464.5,-320.9 c 63.5,-43.9 65,-136.9 2.8,-182.5 -340,-249 -1289.8,-980.5 -2039.5,-1897.9 m -622.1,926.9 c -111.1,714 -284.9,1542 -554.2,2281.4 90,-3.2 170.6,-5.2 240.7,-6.6 178.7,-495.3 313.5,-1302.4 313.5,-1302.4 0,0 134.8,807.1 313.5,1302.4 70,1.3 150.6,3.4 240.7,6.6 -269.3,-739.4 -443.1,-1567.4 -554.2,-2281.4"
         style="fill:#bdc0d2;fill-opacity:1;fill-rule:nonzero;stroke:none"
         id="path1604" />
      <path
         d="m 20812.3,8883.4 c -103.8,0 -188,84.2 -188,188 v 3815.1 c 0,103.8 84.2,187.9 188,187.9 103.8,0 188,-84.1 188,-187.9 V 9071.4 c 0,-103.8 -84.2,-188 -188,-188"
         style="fill:#262f6a;fill-opacity:1;fill-rule:nonzero;stroke:none"
         id="path1606" />
      <path
         d="m 21695.1,12273.6 c 0,-131.1 -106.3,-237.3 -237.4,-237.3 -131.1,0 -237.3,106.2 -237.3,237.3 0,131.1 106.2,237.4 237.3,237.4 131.1,0 237.4,-106.3 237.4,-237.4"
         style="fill:#262f6a;fill-opacity:1;fill-rule:nonzero;stroke:none"
         id="path1608" />
      <path
         d="m 21695.1,10193.5 c 0,-131.1 -106.3,-237.4 -237.4,-237.4 -131.1,0 -237.3,106.3 -237.3,237.4 0,131.1 106.2,237.3 237.3,237.3 131.1,0 237.4,-106.2 237.4,-237.3"
         style="fill:#262f6a;fill-opacity:1;fill-rule:nonzero;stroke:none"
         id="path1610" />
      <path
         d="m 19596.2,17898.5 c 0,0 -702,-471.9 -1450.1,-1162.4 l 1450.1,-460.3 -863.1,-529.4 c 0,0 1252.5,-840.2 2079.2,-2859.9 0,0 -151.5,3343.2 -1216.1,5012"
         style="fill:#ffffff;fill-opacity:1;fill-rule:nonzero;stroke:none"
         id="path1612" />
      <path
         d="m 19063,15728.2 c 318.2,-268.1 920,-854.4 1471.4,-1834.1 -122.6,1049.2 -399.4,2678 -995.4,3734.5 -209.1,-150.2 -596.6,-439.7 -1022.8,-812.7 l 1136.9,-361 c 70.1,-22.2 120.8,-83.4 129.7,-156.4 8.9,-73 -25.6,-144.5 -88.3,-183 l -631.5,-387.3 m 1749.2,-3029.7 c -74.9,0 -144.5,45 -173.9,116.8 -792.4,1936 -1998.1,2767 -2010.2,2775.1 -52.9,35.8 -84.2,96.1 -82.8,160 1.4,63.9 35.1,122.8 89.5,156.2 l 512.6,314.4 -1058.2,335.9 c -63.8,20.3 -112,73 -126.6,138.4 -14.5,65.3 6.8,133.5 56,178.9 750.1,692.4 1443.6,1160.7 1472.8,1180.3 42,28.3 93.5,38.4 143.2,28 49.6,-10.3 92.9,-40.2 120.1,-82.9 1079.2,-1691.7 1239.1,-4966.1 1245.4,-5104.6 4.1,-91.4 -58.1,-172.4 -147.4,-192.1 -13.5,-3 -27.1,-4.4 -40.5,-4.4"
         style="fill:#262f6a;fill-opacity:1;fill-rule:nonzero;stroke:none"
         id="path1614" />
      <path
         d="m 22028.4,17898.5 c 0,0 702,-471.9 1450.1,-1162.4 l -1450.1,-460.3 863.1,-529.4 c 0,0 -1252.5,-840.2 -2079.2,-2859.9 0,0 151.5,3343.2 1216.1,5012"
         style="fill:#ffffff;fill-opacity:1;fill-rule:nonzero;stroke:none"
         id="path1616" />
      <path
         d="m 22085.6,17628.6 c -596,-1056.5 -872.8,-2685.3 -995.4,-3734.5 551.4,979.7 1153.2,1566 1471.4,1834.1 l -631.5,387.3 c -62.7,38.5 -97.2,110 -88.3,183 8.9,73 59.6,134.2 129.7,156.4 l 1136.9,361 c -426.2,373 -813.7,662.5 -1022.8,812.7 m -1273.2,-4930.1 c -13.4,0 -27,1.4 -40.5,4.4 -89.3,19.7 -151.6,100.7 -147.4,192.1 6.3,138.5 166.2,3412.9 1245.4,5104.6 27.2,42.7 70.5,72.6 120.1,82.9 49.7,10.4 101.3,0.3 143.2,-28 29.2,-19.6 722.7,-487.9 1472.7,-1180.3 49.3,-45.4 70.6,-113.6 56.1,-178.9 -14.6,-65.4 -62.8,-118.1 -126.7,-138.4 l -1058.2,-335.9 512.7,-314.4 c 54.5,-33.5 88.3,-92.4 89.6,-156.4 1.4,-64 -30,-124.3 -83.2,-159.9 -11.8,-8 -1217.5,-839 -2009.9,-2775 -29.4,-71.8 -99,-116.8 -173.9,-116.8"
         style="fill:#262f6a;fill-opacity:1;fill-rule:nonzero;stroke:none"
         id="path1618" />
      <path
         d="m 25324.3,16139.5 c 129.4,-632 161.2,-1268.8 202.9,-1905 42.7,-636.3 82,-1272.7 120.3,-1909.1 37.5,-636.5 74,-1273 106.5,-1909.7 17.5,-318.4 30.9,-636.8 46,-955.3 15.1,-318.4 29.8,-636.8 41.3,-955.4 l 0.2,-5.1 c 2.9,-79.3 -45.3,-148.8 -114.7,-177.1 -51.1,-20.7 -90.5,-33.8 -134.7,-49 l -128.6,-40.5 -128.2,-36.8 -128.3,-33.2 c -85.6,-21.8 -171.3,-40.8 -257,-60.2 -85.9,-17.2 -171.7,-36.2 -257.7,-51.9 -343.8,-65.2 -689.2,-112 -1035.1,-147.9 -345.8,-38.2 -692.2,-59.6 -1038.6,-78.1 l -519.6,-17.9 -519.5,-5.7 c -62.3,-0.7 -117.7,29.6 -151.5,76.6 l -1.8,2.6 -767.2,1081.8 h 306.6 l -767.2,-1081.8 -1.2,-1.6 c -36,-50.9 -94.3,-77.8 -152.2,-77.6 l -519.3,5.7 -519.6,17.9 c -346.3,18.5 -692.7,39.8 -1038.5,78 -345.8,36 -691.1,82.8 -1034.9,148 -86,15.6 -171.8,34.6 -257.6,51.8 -85.7,19.4 -171.4,38.4 -257,60.1 l -128.3,33.3 -128.2,36.7 -128.5,40.5 c -44.2,15.2 -83.8,28.4 -134.6,48.9 l -0.7,0.3 c -73.1,29.5 -116.9,100.7 -114.8,175.2 l 0.2,7 c 19,637.4 47.3,1274.3 78.4,1911.1 30.5,636.8 66.2,1273.4 103.3,1909.9 l 58.1,954.6 63.2,954.4 c 22.9,318 37.8,636.4 71.5,954 16.7,158.7 36.5,317.4 62.3,475.7 25.1,158.3 54.7,316.5 94.8,474.1 3.4,13.4 17,21.5 30.4,18.1 10,-2.6 17,-10.8 18.5,-20.4 24.8,-160.8 39.1,-321 48.8,-481.1 10.5,-160.1 14.9,-319.9 16.3,-479.5 3,-319.3 -12.8,-637.7 -20.6,-956.4 l -28.9,-956.1 -33.9,-955.8 c -24.3,-637.1 -50,-1274.1 -80.8,-1910.9 -30.3,-636.9 -63.5,-1273.6 -105.8,-1909.8 l -114.5,182.2 0.3,-0.2 c 28.8,-11.6 70.6,-26.1 107.7,-38.7 l 117.1,-36.9 119.5,-34.2 121.1,-31.4 c 80.9,-20.6 163,-38.8 244.7,-57.3 82.6,-16.5 164.6,-34.8 247.6,-49.8 331.2,-62.8 667.3,-108.4 1004.8,-143.5 337.2,-37.3 676.8,-58.2 1016.5,-76.4 l 510.3,-17.6 511.1,-5.6 -153.3,-79.2 767.3,1081.8 c 60,84.7 177.4,104.6 262,44.6 17.6,-12.5 32.8,-28 44.6,-44.6 l 767.2,-1081.8 -153.3,79.2 511.2,5.6 510.4,17.6 c 339.8,18.2 679.4,39.1 1016.7,76.5 337.5,35 673.6,80.6 1004.9,143.5 83,15 165,33.3 247.6,49.8 81.8,18.6 163.8,36.7 244.7,57.3 l 121.2,31.4 119.4,34.2 117.2,36.9 c 37,12.6 79,27.2 107.5,38.8 l -114.5,-182.2 c -19.1,318.2 -35.2,636.6 -50.7,955 -15.6,318.4 -32.9,636.7 -46.1,955.2 -28.9,636.9 -53.8,1274 -77.7,1911.1 -23.1,637.2 -45.1,1274.4 -63.8,1911.8 -19.7,637.3 -49.2,1274.2 18.8,1915.8 2.3,21.7 21.8,37.4 43.5,35.1 17.5,-1.9 31.1,-15 34.5,-31.4"
         style="fill:#262f6a;fill-opacity:1;fill-rule:nonzero;stroke:none"
         id="path1620" />
      <path
         d="m 29428.5,24122.1 c 1726.1,-7216.1 -8616.2,-6996.9 -8616.2,-6996.9 0,0 -1.1,0 -2.7,0 -191.2,-3.2 -10323.5,-151.5 -8613.5,6996.9 0,0 -1519.4,3502.2 23.1,7993.2 463,1347.5 2000.6,1990.4 3292.8,1389.4 1168.1,-543.5 2573.6,-1417.3 3704.7,-2776.7 0,0 872.7,144 1595.6,144 722.9,0 1595.6,-144 1595.6,-144 1131.1,1359.4 2536.6,2233.2 3704.7,2776.7 1292.2,601 2829.8,-41.9 3292.8,-1389.4 1542.5,-4491 23.1,-7993.2 23.1,-7993.2"
         style="fill:#ffffff;fill-opacity:1;fill-rule:nonzero;stroke:none"
         id="path1622" />
      <path
         d="m 29428.5,24122.1 c -6383.6,1139.7 -8616.2,6749.9 -8616.2,6749.9 722.9,0 1595.6,-144 1595.6,-144 1131.1,1359.4 2536.6,2233.2 3704.7,2776.7 1292.2,601 2829.8,-41.9 3292.8,-1389.4 1542.5,-4491 23.1,-7993.2 23.1,-7993.2"
         style="fill:#ff6f03;fill-opacity:1;fill-rule:nonzero;stroke:none"
         id="path1624" />
      <path
         d="m 12196.1,24122.1 c 6383.6,1139.7 8616.2,6749.9 8616.2,6749.9 -722.9,0 -1595.6,-144 -1595.6,-144 -1131.1,1359.4 -2536.6,2233.2 -3704.7,2776.7 -1292.2,601 -2829.8,-41.9 -3292.8,-1389.4 -1542.5,-4491 -23.1,-7993.2 -23.1,-7993.2"
         style="fill:#777781;fill-opacity:1;fill-rule:nonzero;stroke:none"
         id="path1626" />
      <path
         d="m 20734.8,17312.4 c -663,0 -5603.6,89.2 -7649.4,2627.5 -868,1077.1 -1105.7,2469.5 -706.4,4138.5 6.2,25.8 6.8,52.4 2,78.2 294.7,57.3 580.1,124.1 857,199.5 -155.8,-715.7 -198.2,-1455.8 -63.4,-2190.5 652.4,-3557.3 6895.6,-3654.6 7577.3,-3654.6 39.5,0 60.4,0.4 60.4,0.4 0,0 20.8,-0.4 60.4,-0.4 682.3,0.1 6924.9,97.6 7577.2,3654.6 134.9,734.7 92.5,1474.8 -63.3,2190.5 276.8,-75.4 562.3,-142.2 857,-199.5 -4.8,-25.8 -4.2,-52.4 2,-78.2 399.3,-1669 161.6,-3061.4 -706.5,-4138.5 -2046.6,-2539.4 -6989.9,-2627.5 -7649.9,-2627.5 -44.5,0 -69.5,0.4 -72.9,0.5 -1.4,0 -2.7,0 -4,0 -1.3,0 -2.6,0 -4,0 -3.4,-0.1 -28.6,-0.5 -73.5,-0.5"
         style="fill:#bdc0d2;fill-opacity:1;fill-rule:nonzero;stroke:none"
         id="path1628" />
      <path
         d="m 29243.6,24156.6 c -294.7,57.3 -580.2,124.1 -857,199.5 -465.8,2140.2 -1944.3,4060.3 -2721,4953.2 2020.4,-1481.2 2797.2,-3145.2 2821.1,-3197.5 2.1,-4.6 4.3,-9.2 6.8,-13.7 0,0 0.1,0 0.1,-0.1 0.1,-0.2 0.3,-0.5 0.4,-0.7 0.1,-0.2 0.2,-0.4 0.3,-0.6 0.1,-0.1 0.1,-0.2 0.2,-0.2 0.1,-0.3 0.2,-0.5 0.4,-0.7 v -0.1 c 4.2,-7.2 411,-717.8 752.3,-1923.5 -1.4,-5.2 -2.6,-10.4 -3.6,-15.6"
         style="fill:#bd5c22;fill-opacity:1;fill-rule:nonzero;stroke:none"
         id="path1630" />
      <path
         d="m 12381,24156.6 c -1,5.2 -2.2,10.4 -3.6,15.6 341.2,1205.7 748.1,1916.3 752.3,1923.5 0.4,0.8 0.9,1.5 1.3,2.3 v 0.1 c 0.1,0.2 0.2,0.3 0.3,0.5 0.1,0.2 0.2,0.4 0.3,0.5 0.1,0.1 0.1,0.2 0.1,0.3 0.2,0.3 0.3,0.5 0.5,0.8 0,0 0,0 0,0.1 1.5,2.7 2.8,5.4 4.2,8.2 v 0 c 0.1,0.3 0.2,0.6 0.4,0.9 v 0.1 c 0.1,0.2 0.2,0.5 0.4,0.8 0,0 0,0.1 0.1,0.2 0,0 0,0.1 0,0.2 8.3,18.3 780,1701.8 2821.8,3198.7 -776.8,-893 -2255.3,-2813.1 -2721.1,-4953.3 -276.9,-75.4 -562.3,-142.2 -857,-199.5"
         style="fill:#5f617a;fill-opacity:1;fill-rule:nonzero;stroke:none"
         id="path1632" />
      <path
         d="m 21865.2,20224.2 c -286.3,0 -718.6,54.5 -1055.6,333.2 -337,-278.7 -769.2,-333.2 -1055.6,-333.2 -183.7,0 -307.4,22.4 -307.4,22.4 -1306.1,215.6 -1186.8,1232.3 -1031.4,1756.8 14.9,50.2 57.9,75.6 101.2,75.6 41.3,0 83,-23.2 100.6,-70 109.3,-289.4 346,-677.7 829.6,-677.7 771.1,0 811.4,822.9 811.4,822.9 l 551.6,43.2 551.7,-43.2 c 0,0 40.2,-822.9 811.3,-822.9 483.6,0 720.3,388.3 829.6,677.7 17.6,46.8 59.3,70 100.7,70 43.3,0 86.3,-25.4 101.1,-75.6 155.4,-524.5 274.7,-1541.2 -1031.4,-1756.8 0,0 -123.7,-22.4 -307.4,-22.4"
         style="fill:#bdc0d2;fill-opacity:1;fill-rule:nonzero;stroke:none"
         id="path1634" />
      <path
         d="m 21041.9,30382.8 c -78.4,3.7 -155.3,5.8 -229.6,5.8 -74.2,0 -151.2,-2.1 -229.6,-5.8 61.7,120.6 110.4,221.9 146.8,300.6 27.8,0.4 55.4,0.6 82.8,0.6 27.4,0 55,-0.2 82.8,-0.6 36.4,-78.7 85,-180 146.8,-300.6"
         style="fill:#ffffff;fill-opacity:1;fill-rule:nonzero;stroke:none"
         id="path1636" />
      <path
         d="m 22422.9,30212.7 c -14,0 -28.2,1.2 -42.3,3.8 -254.4,46.3 -826,141.8 -1338.7,166.3 -61.8,120.6 -110.4,221.9 -146.8,300.6 682,-10.1 1474.2,-139.4 1482.5,-140.8 10.2,-1.7 20.5,-2.5 30.7,-2.5 55.4,0 108.3,24.5 144.3,67.8 930.4,1118.2 2154.9,2035.5 3639.6,2726.3 297.2,138.3 618.4,207.6 940,207.6 297,0 594.2,-59.2 873,-177.7 574.8,-244.6 1020.3,-722.1 1222.2,-1310 7.5,-21.9 15,-43.7 22.3,-65.5 -424.1,789.5 -1252.2,1258.8 -2119.5,1258.8 -340.5,0 -687.1,-72.4 -1017.6,-226.1 -1137.5,-529.2 -2398.2,-1422.6 -3507.9,-2724.2 -45.9,-53.9 -112.5,-84.4 -181.8,-84.4"
         style="fill:#ffd4b3;fill-opacity:1;fill-rule:nonzero;stroke:none"
         id="path1638" />
      <path
         d="m 19201.7,30212.7 c -69.3,0 -135.9,30.5 -181.8,84.4 -1109.7,1301.6 -2370.4,2195 -3507.9,2724.2 -330.6,153.8 -677,226.1 -1017.6,226.1 -867.2,0 -1695.4,-469.4 -2119.6,-1258.9 7.4,21.8 14.9,43.7 22.4,65.6 201.9,587.9 647.4,1065.4 1222.2,1310 278.7,118.6 575.9,177.7 872.9,177.7 321.6,0 642.9,-69.3 940.1,-207.6 1484.7,-690.8 2709.2,-1608.1 3639.6,-2726.3 36,-43.3 89,-67.7 144.5,-67.7 10.1,0 20.3,0.8 30.5,2.4 8.3,1.4 800.5,130.7 1482.5,140.8 -36.4,-78.7 -85.1,-180 -146.8,-300.6 -512.7,-24.5 -1084.3,-120 -1338.7,-166.3 -14.1,-2.6 -28.3,-3.8 -42.3,-3.8"
         style="fill:#d6d6d9;fill-opacity:1;fill-rule:nonzero;stroke:none"
         id="path1640" />
      <path
         d="m 16446.6,29838.1 c 0,0 -22.5,-14 -64.4,-41.4 -8.1,-5.4 -15.6,-10.2 -23.6,-15.6 -1892.7,-1232.5 -2857.8,-2682.6 -3209.6,-3300.8 l -0.5,-1.1 c -56.4,-90.7 -110.6,-183.1 -162.7,-277.1 -58,338.9 -101.5,660.6 -131.1,966.2 338.9,659.5 843.8,1360.4 1593,2031.2 947.4,848.6 730.9,2393.2 -411.4,2951.7 -12.9,6.5 -25.3,12.9 -38.2,18.8 l 5.4,5.9 113.9,108.5 3.7,3.2 c 0,0 2.7,-0.5 7.6,-2.7 7.5,-2.1 14.5,-4.8 22,-7.5 10.2,-3.2 22,-8 36.5,-13.4 190.7,-73 776.6,-328.7 1496.3,-950.6 3.7,-3.2 7.5,-7 11.8,-10.2 347.5,-307.8 638.6,-621.4 840.5,-853.9 0,0 1.1,-1.7 3.8,-4.9 29,-41.9 213.7,-333 -93,-606.3"
         style="fill:#ff5c64;fill-opacity:1;fill-rule:nonzero;stroke:none"
         id="path1642" />
      <path
         d="m 20812.3,21783 c 510.3,0 860.4,317.1 1087,648.3 215,314.4 -15.6,741.4 -396.5,741.4 h -690.5 -690.5 c -380.9,0 -611.6,-427 -396.5,-741.4 226.5,-331.2 576.7,-648.3 1087,-648.3"
         style="fill:#262f6a;fill-opacity:1;fill-rule:nonzero;stroke:none"
         id="path1644" />
      <path
         d="m 20999.6,22128.9 c 3.1,-29.9 4.2,-49 5.7,-73 1.2,-22.6 1.9,-45.1 2.3,-67.4 0.5,-44.6 0.4,-89.1 -3,-133.5 -5.8,-88.7 -16.2,-177.8 -35.5,-266.3 -38.1,-176.4 -103.8,-354.4 -213.4,-513.9 -54.9,-79.3 -119.5,-153.7 -193.1,-219 -74.4,-64.7 -158.1,-117.6 -244.6,-162 -175.2,-85.2 -363.3,-125.7 -543.8,-133.5 -44.9,-0.7 -90,-2 -134.6,-1.6 -44,2.3 -87.8,3.3 -132,6.9 -88.6,8.1 -177.7,19.5 -266.6,43 -176.8,43.1 -356.9,122 -503.8,251.5 -148.8,126.9 -249.1,306.7 -283.7,487.1 -18.3,90.3 -22.5,181.1 -13.9,269.1 9.6,88.4 26.9,172.9 65.2,255 8.6,18.4 30.5,26.4 49,17.8 10.6,-5 17.8,-14.4 20.3,-25.1 l 0.8,-3.6 c 35.4,-156.1 79.2,-303.2 142.3,-427.8 62.7,-125.2 142.3,-227 242.7,-303.8 100.4,-76.9 226.1,-124.4 362.4,-147.9 67.6,-12.7 138.7,-18.1 210.1,-22.4 35.9,-1.4 72.6,-0.6 108.7,-1.1 l 106.2,5.5 c 139.7,13.1 270,47.5 383.7,103.5 112.3,58.7 205.8,141.5 280,246.3 72.6,105.6 126.3,231.9 160.9,367.7 16.9,68 30.8,138.1 39.2,209.3 4.4,35.6 7.6,71.3 10.4,106.9 l 2.8,53.1 0.7,47.3 0.2,15.3 c 1.7,103.7 87,186.4 190.7,184.8 96,-1.5 174,-75 183.7,-168.2"
         style="fill:#262f6a;fill-opacity:1;fill-rule:nonzero;stroke:none"
         id="path1646" />
      <path
         d="m 20999.6,22097 0.7,-47.3 2.8,-53.1 c 2.8,-35.6 6,-71.3 10.4,-106.9 8.4,-71.2 22.3,-141.3 39.2,-209.3 34.6,-135.8 88.2,-262.1 160.9,-367.7 74.2,-104.8 167.7,-187.6 280,-246.3 113.6,-56 244,-90.4 383.7,-103.5 l 106.2,-5.5 c 36.1,0.5 72.7,-0.3 108.7,1.1 71.4,4.3 142.5,9.7 210.1,22.4 136.3,23.5 262,71 362.4,147.9 100.4,76.8 180,178.6 242.6,303.8 63.2,124.6 107,271.7 142.4,427.8 l 0.8,3.5 c 4.5,19.8 24.2,32.2 44,27.7 11.5,-2.6 20.6,-10.4 25.3,-20.3 38.3,-82.1 55.6,-166.6 65.2,-255 8.5,-88 4.4,-178.8 -13.9,-269.1 -34.6,-180.4 -134.9,-360.2 -283.7,-487.1 -146.9,-129.5 -327,-208.4 -503.8,-251.5 -88.9,-23.5 -178,-34.9 -266.6,-43 -44.2,-3.6 -88,-4.6 -132.1,-6.9 -44.5,-0.4 -89.6,0.9 -134.5,1.6 -180.6,7.8 -368.6,48.3 -543.8,133.5 -86.5,44.4 -170.2,97.3 -244.6,162 -73.6,65.3 -138.3,139.7 -193.1,219 -109.6,159.5 -175.3,337.5 -213.4,513.9 -19.3,88.5 -29.7,177.6 -35.5,266.3 -3.4,44.4 -3.5,88.9 -3,133.5 0.4,22.3 1.1,44.8 2.3,67.4 1.5,24 2.6,43.1 5.7,73 10.8,103.1 103.1,177.9 206.2,167.2 95.5,-10 166.8,-90 168.2,-183.7 l 0.2,-15.4"
         style="fill:#262f6a;fill-opacity:1;fill-rule:nonzero;stroke:none"
         id="path1648" />
      <path
         d="m 28770.2,27167.8 c -30.1,-305.1 -73.6,-626.8 -131.6,-965.2 -56.4,101.5 -114.9,200.9 -175,298.1 l -0.6,1.1 c -360.9,630 -1325.5,2060.7 -3196.6,3279.3 -8.1,5.4 -15.6,10.2 -23.6,15.6 -41.9,27.4 -64.5,41.4 -64.5,41.4 -307.2,273.3 -121.9,564.4 -92.9,606.3 2.7,3.2 3.7,4.9 3.7,4.9 202,232.5 493.1,546.1 840.6,853.9 4.3,3.2 8,7 11.8,10.2 719.6,621.9 1305.6,877.6 1496.3,950.6 14.5,5.4 26.3,10.2 36.5,13.4 7,2.7 14.5,5.4 22,7.5 4.8,2.2 7.5,2.7 7.5,2.7 l 3.8,-3.2 118.1,-113.3 1.1,-1.1 c -12.9,-5.9 -25.8,-12.3 -38.7,-18.8 -1142.3,-558.5 -1358.8,-2103.1 -411.4,-2951.7 749.2,-670.8 1254.6,-1372.2 1593.5,-2031.7"
         style="fill:#ff5c64;fill-opacity:1;fill-rule:nonzero;stroke:none"
         id="path1650" />
      <path
         d="m 12196.3,23961 c -14.1,0 -28.5,1.9 -42.7,5.8 -85.8,23.5 -136.3,112.2 -112.8,198 358.2,1305.6 791.8,2061 810.1,2092.5 44.6,77 143.1,103.1 220.1,58.5 77,-44.6 103.2,-143.1 58.7,-220.1 -4.3,-7.4 -432,-754.3 -778.1,-2016.2 -19.7,-71.5 -84.6,-118.5 -155.3,-118.5"
         style="fill:#262f6a;fill-opacity:1;fill-rule:nonzero;stroke:none"
         id="path1652" />
      <path
         d="m 14053.9,32141 c -28.7,13.2 -55.5,30.4 -82,48.6 -26.4,18.3 -52.3,38.1 -77.5,59.7 -25.6,20.7 -50.1,44.3 -74.3,69.2 -23.9,25.4 -46.8,53.7 -68.2,86.5 l -1.3,2.1 c -14.6,22.3 -8.3,52.1 14,66.7 5.5,3.6 11.6,5.9 17.7,7.1 37.6,6.8 73.6,9.2 108.7,8.7 34.9,-1 69.3,-3.3 102.7,-8.5 33.8,-4.2 66.9,-10.4 99.5,-17.9 32.4,-7.7 64.6,-16.4 94.9,-29.2 82,-34.5 120.5,-129 86,-211 -34.6,-82.1 -129.1,-120.6 -211.1,-86 -1.3,0.5 -2.6,1.1 -3.9,1.7 l -5.2,2.3"
         style="fill:#262f6a;fill-opacity:1;fill-rule:nonzero;stroke:none"
         id="path1654" />
      <path
         d="m 12985.8,26202.1 c 52.1,94 106.3,186.4 162.7,277.1 -108.5,-191.7 -158.4,-302.9 -158.4,-302.9 -1.6,8.6 -3.3,17.2 -4.3,25.8"
         style="fill:#ff8080;fill-opacity:1;fill-rule:nonzero;stroke:none"
         id="path1656" />
      <path
         d="m 14117.4,32284.4 -113.9,-108.5 c 60.7,63.4 101.5,98.3 113.9,108.5"
         style="fill:#ff8080;fill-opacity:1;fill-rule:nonzero;stroke:none"
         id="path1658" />
      <path
         d="m 14447.7,29199.5 c -749.2,-670.8 -1254.1,-1371.7 -1593,-2031.2 -313.6,3171.4 768,4607 1143.4,5001.7 12.9,-5.9 25.3,-12.3 38.2,-18.8 1142.3,-558.5 1358.8,-2103.1 411.4,-2951.7"
         style="fill:#ff8080;fill-opacity:1;fill-rule:nonzero;stroke:none"
         id="path1660" />
      <path
         d="m 14187.2,32264 c 541.9,-195 1061.8,-567.7 1496.3,-950.6 -719.7,621.9 -1305.6,877.6 -1496.3,950.6"
         style="fill:#ff8080;fill-opacity:1;fill-rule:nonzero;stroke:none"
         id="path1662" />
      <path
         d="m 16446.6,29838.1 c 306.7,273.3 122,564.4 93,606.3 158.9,-188 115.4,-473.2 -93,-606.3"
         style="fill:#ff8080;fill-opacity:1;fill-rule:nonzero;stroke:none"
         id="path1664" />
      <path
         d="m 14158.5,32103.5 c -138.3,-136.8 -480.1,-523.2 -761.3,-1237.3 -311.1,-790 -604.9,-2141.6 -321.9,-4189.4 411.8,696 1406.9,2099.2 3284.6,3297.2 61.7,39.4 101.5,100.8 112,172.9 10.4,71.9 -10.1,141.9 -57.9,197 -445.9,514.1 -1320.5,1411.3 -2255.5,1759.6 m -1168.1,-6088.1 c -6.7,0 -13.4,0.4 -20.2,1.2 -70.3,8.9 -126.6,62.5 -138.7,132.4 -416.6,2406.2 -79.5,3972.5 276.7,4862.7 393.4,983 891.7,1385.5 912.7,1402.1 42.7,33.8 99.4,43.8 151.1,26.6 1040.7,-346.9 2003.9,-1330.2 2485.4,-1885.4 108.5,-125.1 157.1,-290.7 133.4,-454.4 -23.8,-163.9 -117.7,-309 -257.6,-398.3 -2472.8,-1577.7 -3386.9,-3571.7 -3395.9,-3591.6 -26.1,-58.5 -84.1,-95.3 -146.9,-95.3"
         style="fill:#262f6a;fill-opacity:1;fill-rule:nonzero;stroke:none"
         id="path1666" />
      <path
         d="m 29428.3,23961 c -70.7,0 -135.6,47 -155.3,118.5 -346.2,1261.9 -773.8,2008.8 -778.1,2016.2 -44.5,77 -18.3,175.5 58.7,220.1 77.1,44.6 175.5,18.4 220.1,-58.5 18.3,-31.5 451.9,-786.9 810.1,-2092.5 23.5,-85.8 -27,-174.5 -112.8,-198 -14.2,-3.9 -28.6,-5.8 -42.7,-5.8"
         style="fill:#262f6a;fill-opacity:1;fill-rule:nonzero;stroke:none"
         id="path1668" />
      <path
         d="m 27436.5,32434 c 30.3,12.8 62.5,21.5 94.9,29.2 32.6,7.5 65.7,13.7 99.5,17.9 33.3,5.2 67.8,7.5 102.7,8.5 35,0.5 71.1,-1.9 108.7,-8.7 26.2,-4.8 43.6,-30 38.8,-56.2 -1.2,-6.4 -3.6,-12.3 -6.9,-17.5 l -1.5,-2.2 c -21.4,-32.8 -44.3,-61.1 -68.2,-86.5 -24.2,-24.9 -48.7,-48.5 -74.3,-69.2 -25.2,-21.6 -51.1,-41.4 -77.5,-59.7 -26.5,-18.2 -53.4,-35.4 -82,-48.6 l -4.5,-2 c -80.9,-37.1 -176.6,-1.5 -213.7,79.4 -37,80.9 -1.5,176.5 79.4,213.6 1.3,0.6 3.3,1.5 4.6,2"
         style="fill:#262f6a;fill-opacity:1;fill-rule:nonzero;stroke:none"
         id="path1670" />
      <path
         d="m 25178.3,29838.1 c -208.9,133.1 -252.4,418.3 -92.9,606.3 -29,-41.9 -214.3,-333 92.9,-606.3"
         style="fill:#ff8080;fill-opacity:1;fill-rule:nonzero;stroke:none"
         id="path1672" />
      <path
         d="m 27437.8,32264 c -190.7,-73 -776.6,-328.7 -1496.3,-950.6 433.9,382.9 954.4,755.6 1496.3,950.6"
         style="fill:#ff8080;fill-opacity:1;fill-rule:nonzero;stroke:none"
         id="path1674" />
      <path
         d="m 27625.7,32171.1 -118.1,113.3 c 12.3,-10.2 55.3,-46.7 118.1,-113.3"
         style="fill:#ff8080;fill-opacity:1;fill-rule:nonzero;stroke:none"
         id="path1676" />
      <path
         d="m 28463.6,26500.7 c 60.1,-97.2 118.6,-196.6 175,-298.1 -1,-8.5 -2.7,-17.7 -4.3,-26.3 0,0 -53.7,119.8 -170.7,324.4"
         style="fill:#ff8080;fill-opacity:1;fill-rule:nonzero;stroke:none"
         id="path1678" />
      <path
         d="m 28770.2,27167.8 c -338.9,659.5 -844.3,1360.9 -1593.5,2031.7 -947.4,848.6 -730.9,2393.2 411.4,2951.7 12.9,6.5 25.8,12.9 38.7,18.8 375.4,-394.7 1457.1,-1830.3 1143.4,-5002.2"
         style="fill:#ff8080;fill-opacity:1;fill-rule:nonzero;stroke:none"
         id="path1680" />
      <path
         d="m 27466.3,32103.5 c -935.1,-348.2 -1809.8,-1245.4 -2255.7,-1759.6 -47.8,-55.1 -68.3,-125.1 -57.9,-197 10.5,-72.1 50.3,-133.5 112,-172.9 1877.9,-1198.1 2872.9,-2601.4 3284.7,-3297.3 502,3621.5 -779.4,5126.9 -1083.1,5426.8 m 1168,-6088.2 c -63,0 -121,36.9 -147.1,95.5 -11.8,26.2 -926.9,2016.3 -3395.8,3591.5 -139.9,89.3 -233.8,234.4 -257.6,398.3 -23.8,163.7 24.9,329.3 133.4,454.4 481.5,555.2 1444.7,1538.5 2485.4,1885.4 51.8,17.1 108.5,7.2 151,-26.6 21.1,-16.6 519.4,-419.1 912.7,-1402.1 356.2,-890.2 693.4,-2456.5 276.8,-4862.7 -12.1,-69.9 -68.5,-123.6 -138.9,-132.4 -6.7,-0.9 -13.3,-1.3 -19.9,-1.3"
         style="fill:#262f6a;fill-opacity:1;fill-rule:nonzero;stroke:none"
         id="path1682" />
      <path
         d="m 12196.2,24686 c -4.2,13.5 -8.4,27.2 -12.7,41.2 24.8,508.1 139.2,1290.7 539,2168.2 26.2,-221.9 59.1,-451.8 99.4,-690.2 -88,-162.1 -358.4,-690.4 -625.7,-1519.2"
         style="fill:#5f617a;fill-opacity:1;fill-rule:nonzero;stroke:none"
         id="path1684" />
      <path
         d="m 12272.5,24453.2 c -22.7,65.7 -48.6,143.6 -76.3,232.8 267.3,828.8 537.7,1357.1 625.7,1519.2 3.2,-18.7 6.4,-37.4 9.6,-56.2 7.6,-43.8 32.6,-81.3 67.6,-105.3 -261.5,-490.5 -479.9,-1021.9 -626.6,-1590.5"
         style="fill:#262f6a;fill-opacity:1;fill-rule:nonzero;stroke:none"
         id="path1686" />
      <path
         d="m 12899.1,26043.7 c -35,24 -60,61.5 -67.6,105.3 -3.2,18.8 -6.4,37.5 -9.6,56.2 -40.3,238.4 -73.2,468.3 -99.4,690.2 41,90 85,181 132.2,272.9 29.6,-305.6 73.1,-627.3 131.1,-966.2 -29.4,-52.3 -58.3,-105.1 -86.7,-158.4"
         style="fill:#262f6a;fill-opacity:1;fill-rule:nonzero;stroke:none"
         id="path1688" />
      <path
         d="m 14150.7,32277.4 c -3.9,1.4 -7.6,2.8 -11.3,4.1 3.3,-1.1 7.1,-2.4 11.3,-4.1 m -11.3,4.1 c -4.4,1.4 -8,2.5 -10.7,3.4 3.6,-1 7.1,-2.2 10.7,-3.4"
         style="fill:#262f6a;fill-opacity:1;fill-rule:nonzero;stroke:none"
         id="path1690" />
      <path
         d="m 13149,26480.3 c 351.8,618.2 1316.9,2068.3 3209.6,3300.8 -400.2,-266.4 -2075.8,-1449 -3209.6,-3300.8"
         style="fill:#262f6a;fill-opacity:1;fill-rule:nonzero;stroke:none"
         id="path1692" />
      <path
         d="m 16535.8,30449.3 c -201.9,232.5 -493,546.1 -840.5,853.9 266.4,-231.5 551,-512.9 840.5,-853.9"
         style="fill:#262f6a;fill-opacity:1;fill-rule:nonzero;stroke:none"
         id="path1694" />
      <path
         d="m 25089.1,30449.3 c 289.5,341 574.2,622.4 840.6,853.9 -347.5,-307.8 -638.6,-621.4 -840.6,-853.9"
         style="fill:#262f6a;fill-opacity:1;fill-rule:nonzero;stroke:none"
         id="path1696" />
      <path
         d="m 27474.3,32277.4 c 1.3,0.5 2.5,1 3.7,1.4 -1.3,-0.4 -2.5,-0.9 -3.7,-1.4 m 3.7,1.4 c 5.9,2.2 12.1,4.4 18.3,6.1 -4.2,-1.3 -10.4,-3.2 -18.3,-6.1"
         style="fill:#262f6a;fill-opacity:1;fill-rule:nonzero;stroke:none"
         id="path1698" />
      <path
         d="m 28463,26501.8 c -1134.3,1839.5 -2798.1,3014 -3196.6,3279.3 1871.1,-1218.6 2835.7,-2649.3 3196.6,-3279.3"
         style="fill:#262f6a;fill-opacity:1;fill-rule:nonzero;stroke:none"
         id="path1700" />
      <path
         d="m 29428.4,24686 c -267.3,828.8 -537.7,1357.1 -625.7,1519.2 40.3,238.4 73.2,468.6 99.5,690.5 399.7,-877 514.3,-1659.2 539.2,-2167.5 -4.4,-14.4 -8.7,-28.4 -13,-42.2"
         style="fill:#bd5c22;fill-opacity:1;fill-rule:nonzero;stroke:none"
         id="path1702" />
      <path
         d="m 29352.3,24453.8 c -146.7,568.3 -364.9,1099.7 -626.6,1590 34.9,24 59.8,61.4 67.4,105.2 3.2,18.8 6.4,37.5 9.6,56.2 88,-162.1 358.4,-690.4 625.7,-1519.2 -27.7,-89 -53.4,-166.6 -76.1,-232.2"
         style="fill:#262f6a;fill-opacity:1;fill-rule:nonzero;stroke:none"
         id="path1704" />
      <path
         d="m 28725.7,26043.8 c -28.5,53.4 -57.5,106.4 -87.1,158.8 58,338.4 101.5,660.1 131.6,965.2 47.1,-91.6 91,-182.4 132,-272.1 -26.3,-221.9 -59.2,-452.1 -99.5,-690.5 -3.2,-18.7 -6.4,-37.4 -9.6,-56.2 -7.6,-43.8 -32.5,-81.2 -67.4,-105.2"
         style="fill:#262f6a;fill-opacity:1;fill-rule:nonzero;stroke:none"
         id="path1706" />
      <path
         d="m 20812.3,17312.9 c 1.3,0 2.6,0 4,0 54.5,-1.3 5538.4,-83.2 7722.8,2627 868.1,1077.1 1105.8,2469.5 706.5,4138.5 -9.5,39.6 -5.9,81.2 10.3,118.6 3.7,8.5 374.7,878.2 554.8,2276.5 166,1287.8 199.5,3301.4 -583.3,5580.6 -201.9,587.9 -647.4,1065.4 -1222.2,1310 -580.5,246.9 -1241.3,236.1 -1813,-29.9 -1484.7,-690.8 -2709.2,-1608.1 -3639.6,-2726.3 -42.6,-51.3 -109,-76.2 -175,-65.3 -8.6,1.5 -866.5,141.4 -1565.3,141.4 -698.8,0 -1556.7,-139.9 -1565.3,-141.4 -66,-10.7 -132.4,14.1 -175,65.3 -930.4,1118.2 -2154.9,2035.5 -3639.6,2726.3 -571.7,266 -1232.5,276.9 -1813,29.9 -574.8,-244.6 -1020.3,-722.1 -1222.2,-1310 -782.8,-2279.2 -749.3,-4292.8 -583.3,-5580.6 180.1,-1398.3 551.1,-2268 554.8,-2276.7 16.1,-37.2 19.8,-78.9 10.3,-118.4 -399.3,-1669 -161.6,-3061.4 706.4,-4138.5 2184.4,-2710.1 7668.6,-2628.4 7722.9,-2627 1.4,0 2.7,0 4,0 m 108.8,-376.8 c -58.1,0 -95.2,0.6 -108.8,0.8 -100,-1.8 -1463.9,-20.9 -3120.6,296.1 -1567.8,299.9 -3690.3,971.9 -4898.4,2470.4 -934.9,1159.5 -1201.9,2640.7 -793.9,4403.1 -88.8,222.5 -393.3,1050.3 -556.4,2303.7 -173.2,1331 -210,3411.6 598.6,5766 236.5,688.5 757.9,1247.6 1430.7,1533.8 678.4,288.6 1450.7,275.9 2118.7,-34.9 1499.3,-697.7 2743.9,-1620.8 3701.1,-2745 257.3,38.4 931,129.8 1520.2,129.8 589.2,0 1262.9,-91.4 1520.2,-129.8 957.2,1124.2 2201.8,2047.3 3701.1,2745 668,310.8 1440.4,323.5 2118.7,34.9 672.7,-286.2 1194.2,-845.3 1430.7,-1533.8 808.6,-2354.4 771.8,-4435 598.6,-5766 -163.1,-1253.4 -467.6,-2081.2 -556.4,-2303.7 408,-1762.4 141,-3243.6 -793.9,-4403.1 -1208.1,-1498.5 -3330.6,-2170.5 -4898.4,-2470.4 -1431,-273.8 -2643.6,-296.9 -3011.8,-296.9"
         style="fill:#262f6a;fill-opacity:1;fill-rule:nonzero;stroke:none"
         id="path1708" />
      <path
         d="m 26080.1,23480.6 c -303.8,-451.1 -840.4,-725.7 -1594.8,-816.2 -702.8,-84.5 -1246.8,49.7 -1617.9,398.3 -627.2,589.3 -646.2,1650.9 -622.7,2100.6 4.5,85.5 47.1,164.5 118.3,218 456.3,343.2 1801.8,1122.2 3738.6,223.4 102.3,-47.5 177.8,-135 201.5,-239.9 92.7,-411 204.2,-1250.1 -223,-1884.2 m -7284.7,-246.2 c -364.1,-355 -905.4,-498.6 -1609.8,-426.4 -756,77.4 -1297.9,342.7 -1610.6,788.4 -439.5,626.5 -344.6,1467.5 -259.9,1880 21.6,105.3 95.3,194.1 196.7,243.4 1918.8,932.2 3279.4,176.8 3742.4,-158.4 72.2,-52.3 116.4,-130.5 122.5,-216 32.3,-449.2 34.2,-1510.9 -581.3,-2111 m 8734.8,2291.3 c -4.3,48.4 -33.6,92.4 -78.9,115.7 -273.9,141 -561.5,236.8 -829.1,302.1 -172,41.9 -337.9,102.2 -500.3,169.9 -1819.2,758.9 -3191.7,187.9 -3852.1,-223.7 -114.4,-71.3 -261.9,-79.3 -384.5,-21.1 -764.7,363.2 -1599.5,209.8 -2069.6,67.7 -115.2,-34.9 -240.8,-17.6 -339.8,47.8 -588.7,389.2 -1996.3,1066.2 -3878.4,293.2 -231.1,-95 -465.4,-184.6 -706.8,-253.6 -238.7,-68.3 -489.7,-162 -729.2,-290.7 -44.8,-24.1 -73.2,-68.6 -76.5,-117 l -31.8,-467.6 c -4.5,-65.9 38.4,-126.2 105.1,-146.9 121.2,-37.6 331.1,-125.1 587.3,-324.3 14.8,-431.8 116.4,-917.1 412.4,-1339 398.5,-568.1 1062.5,-903.4 1973.4,-996.7 59.4,-6 117.8,-10.8 175.3,-14.3 783.7,-47 1383,172.8 1849.8,582.9 789.2,693.4 810.3,1823.4 724.9,2385.2 337.3,120.3 1193.1,353.7 1865.5,-74.3 -31.5,-498.2 -21.8,-1747.2 766,-2488.8 452.8,-426.4 1078.3,-611.2 1860.9,-550.6 57.3,4.4 115.7,10.2 174.9,17.3 909,109.1 1566.2,455.9 1953.5,1030.8 287.7,427 379.6,914 386,1346 252.2,203.6 460.3,294.7 580.8,334.4 66.3,21.8 107.9,82.9 102.2,148.7 l -41,466.9"
         style="fill:#262f6a;fill-opacity:1;fill-rule:nonzero;stroke:none"
         id="path1710" />
      <path
         d="m 27817.2,9393 c 0,0 -288.8,1307.8 -1419.5,1307.8 -1130.7,0 -1303.3,-1307.8 -1303.3,-1307.8 0,0 217.6,-867.3 1377.6,-867.3 1160,0 1345.2,867.3 1345.2,867.3"
         style="fill:#ffffff;fill-opacity:1;fill-rule:nonzero;stroke:none"
         id="path1712" />
      <path
         d="m 27817.2,9392.9 c 0,0.1 0,0.1 0,0.1 v 0 c 0,0 0,0 0,-0.1"
         style="fill:#262f6a;fill-opacity:1;fill-rule:nonzero;stroke:none"
         id="path1714" />
      <path
         d="m 27718,9153.5 c -159.8,385.9 -539,1010.2 -1320.3,1010.2 -755.9,0 -1083.3,-584.2 -1217.5,-971.7 -61.7,111.1 -83.8,193.3 -85.7,200.5 0,0 0,0.1 -0.1,0.2 0,0 0,0 0,0.1 v 0.1 0 0 0.1 0 0 0 c 0,0 172.6,1307.8 1303.3,1307.8 1130.7,0 1419.5,-1307.8 1419.5,-1307.8 0,0 0,0 0,-0.1 v 0 0 c -0.7,-3.2 -23.4,-105.8 -99.2,-239.4"
         style="fill:#bdc0d2;fill-opacity:1;fill-rule:nonzero;stroke:none"
         id="path1716" />
      <path
         d="m 25287,9406.6 c 50.6,-141.8 304.2,-693 1185,-693 864.3,0 1101.1,532 1150.7,682 -58.5,214.1 -357.1,1117.2 -1225,1117.2 -861.3,0 -1073.8,-903.1 -1110.7,-1106.2 z m 1185,-1068.9 c -1033.5,0 -1472.4,660.3 -1559.9,1009.5 -5.8,23 -7.2,46.9 -4.1,70.4 67.2,508.8 464.9,1471.2 1489.7,1471.2 1013.9,0 1491.9,-952 1603.1,-1455.3 5.8,-26.3 5.9,-53.5 0.3,-79.8 -75.1,-351.4 -491.2,-1016 -1529.1,-1016"
         style="fill:#262f6a;fill-opacity:1;fill-rule:nonzero;stroke:none"
         id="path1718" />
      <path
         d="m 21358.8,22880.6 c 0,-61.6 -228.1,-111.6 -509.6,-111.6 -281.5,0 -509.6,50 -509.6,111.6 0,61.7 228.1,111.7 509.6,111.7 281.5,0 509.6,-50 509.6,-111.7"
         style="fill:#ffffff;fill-opacity:1;fill-rule:nonzero;stroke:none"
         id="path1720" />
      <path
         d="m 18652.2,24372.1 c 0.5,-776.9 -544.5,-1407 -1217.2,-1407.3 -672.8,-0.4 -1218.5,629 -1218.9,1405.9 -0.5,776.9 544.5,1407 1217.2,1407.4 672.8,0.3 1218.5,-629.1 1218.9,-1406"
         style="fill:#262f6a;fill-opacity:1;fill-rule:nonzero;stroke:none"
         id="path1722" />
      <path
         d="m 18162.2,24778.5 c 0.2,-277.7 -177.5,-502.9 -396.9,-503 -219.3,-0.1 -397.2,224.8 -397.4,502.5 -0.2,277.7 177.5,502.9 396.9,503 219.3,0.1 397.2,-224.9 397.4,-502.5"
         style="fill:#ffffff;fill-opacity:1;fill-rule:nonzero;stroke:none"
         id="path1724" />
      <path
         d="m 16980.1,23557.2 c -121.5,-0.1 -220,152.2 -220.1,340.1 -0.1,187.9 98.2,340.3 219.7,340.4 121.5,0 220.1,-152.2 220.2,-340.1 0.1,-188 -98.3,-340.4 -219.8,-340.4"
         style="fill:#515988;fill-opacity:1;fill-rule:nonzero;stroke:none"
         id="path1726" />
      <path
         d="m 22962.1,24372.1 c -0.4,-776.9 544.6,-1407 1217.3,-1407.3 672.7,-0.4 1218.4,629 1218.9,1405.9 0.4,776.9 -544.6,1407 -1217.3,1407.4 -672.7,0.3 -1218.4,-629.1 -1218.9,-1406"
         style="fill:#262f6a;fill-opacity:1;fill-rule:nonzero;stroke:none"
         id="path1728" />
      <path
         d="m 23452.2,24778.5 c -0.2,-277.7 177.5,-502.9 396.8,-503 219.3,-0.1 397.3,224.8 397.4,502.5 0.2,277.7 -177.5,502.9 -396.8,503 -219.4,0.1 -397.3,-224.9 -397.4,-502.5"
         style="fill:#ffffff;fill-opacity:1;fill-rule:nonzero;stroke:none"
         id="path1730" />
      <path
         d="m 24634.3,23557.2 h -0.1 c -121.5,0 -219.8,152.4 -219.7,340.4 0.1,187.8 98.6,340.1 220,340.1 0.1,0 0.1,0 0.1,0 121.5,-0.1 219.9,-152.5 219.8,-340.4 -0.1,-187.9 -98.6,-340.1 -220.1,-340.1"
         style="fill:#515988;fill-opacity:1;fill-rule:nonzero;stroke:none"
         id="path1732" />
    </g>
  </g>
</svg>
