<?xml version="1.0" encoding="UTF-8" standalone="no"?>
<!-- Created with Inkscape (http://www.inkscape.org/) -->

<svg
   version="1.1"
   id="svg132"
   width="5333.3335"
   height="5333.3335"
   viewBox="0 0 5333.3335 5333.3335"
   sodipodi:docname="209057861_228716d0-d0d2-468a-a9cf-0ccb7ba02101.eps"
   xmlns:inkscape="http://www.inkscape.org/namespaces/inkscape"
   xmlns:sodipodi="http://sodipodi.sourceforge.net/DTD/sodipodi-0.dtd"
   xmlns="http://www.w3.org/2000/svg"
   xmlns:svg="http://www.w3.org/2000/svg">
  <defs
     id="defs136" />
  <sodipodi:namedview
     id="namedview134"
     pagecolor="#ffffff"
     bordercolor="#666666"
     borderopacity="1.0"
     inkscape:showpageshadow="2"
     inkscape:pageopacity="0.0"
     inkscape:pagecheckerboard="0"
     inkscape:deskcolor="#d1d1d1"
     showgrid="false" />
  <g
     id="g140"
     inkscape:groupmode="layer"
     inkscape:label="Page 1"
     transform="matrix(1.3333333,0,0,-1.3333333,0,5333.3333)">
    <g
       id="g142"
       transform="scale(0.1)">
      <path
         d="m 20000,11390.5 c -8696.6,0 -15746.57,299.5 -15746.57,669 0,73.9 281.92,145 802.76,211.4 239.02,-181.4 534.52,-284 847.56,-284 H 18568.8 c 2.6,-0.1 5.3,-0.2 7.9,-0.2 l 5103.7,0.1 c 88.2,-2.5 175.6,-3.8 262.1,-3.8 88.3,0 175.6,1.3 262.1,3.8 l 2951.5,0.1 v 0 h 861.9 c 243.7,0 465.5,113 608.8,310 70.4,96.9 115.6,205.6 134.5,318.5 893.4,-25.4 1721.9,-54.7 2473,-87.2 491,-116.8 924.1,-171.4 1283.7,-192.3 123.4,-7.2 244.8,-10.7 364,-10.7 295,0 575.8,21.6 835.7,63 1291.6,-97.1 2028.9,-209.2 2028.9,-328.7 0,-369.5 -7050,-669 -15746.6,-669"
         style="fill:#a0c49d;fill-opacity:1;fill-rule:nonzero;stroke:none"
         id="path146" />
      <path
         d="m 28237.5,12192 c -67.5,-27 -141,-42 -219.5,-42 H 5903.5 c -463.5,0 -888.5,259 -1101,671.5 l -271,525.5 -104.51,203 c -81.5,159 -134.49,328.5 -158.49,501.5 -35,251 -8.5,510 81,753 l 4207.5,11454 c 252,686 905,1141.5 1635.5,1141.5 h 12615 c 469.5,0 899.5,-221.5 1174,-579.5 l 0.5,-0.5 c 100,-130.5 179.5,-279.5 232.5,-442.5 l 4364,-13456 c 99.5,-306.5 -64.5,-619 -341,-729.5"
         style="fill:#ffffff;fill-opacity:1;fill-rule:nonzero;stroke:none"
         id="path148" />
      <path
         d="m 28018,12313.3 h -741.6 l -85.3,275.5 c 179.2,69 355.9,143.8 530.4,224.2 13.1,-36.6 26.2,-73.2 39.4,-109.8 12.1,-33.1 43.8,-54.6 78.1,-54.6 7.3,0 14.7,0.9 22,3 44.2,12.2 70.1,57.9 57.9,102.1 -12.7,44.7 -25.7,89.8 -38.5,134.5 38.7,18.7 77,37.6 115.4,56.9 l 191.7,-597.3 c -52.4,-22.6 -109.8,-34.5 -169.5,-34.5 m -9555,0 H 5903.75 c -404.6,0 -771.08,223.4 -956.43,583 L 4715.06,13347 H 17994.2 l -53.1,-136.8 -12396.79,-97.9 c -35.07,-0.3 -63.6,-28.7 -63.88,-63.9 -0.28,-35.6 28.32,-64.6 63.88,-64.9 l 12508.79,-98.8 c 0.3,0 0.5,0 0.8,0 65.5,0 127.6,40.2 151.7,105.2 l 1312.8,3528.2 c 137.9,-69.9 280.1,-132 426.2,-185.6 L 18463,12313.3 m 4239.4,11500.5 c -63.5,210.2 -155.8,387.2 -272,530.7 l 499.1,1341.2 v 0 0 c 0,0.2 0.1,0.4 0.2,0.6 0,0.1 0,0.1 0,0.1 4,10.8 5.4,14.6 5.5,14.6 v 0 0 c -0.1,-0.1 -4.4,-11.7 -5.5,-14.6 0,0 0,0 0,-0.1 -0.1,-0.3 -0.2,-0.5 -0.2,-0.6 12.8,34.5 -4.4,73.1 -38.9,86.4 -8,3.2 -16.2,4.6 -24.4,4.6 -27,0 -52.5,-16.3 -62.9,-43 l -490.4,-1263.1 c -33.7,31.5 -68.8,60.7 -105.4,87.6 l 518.6,1404.1 c 84.4,228.5 302.1,380.2 545.7,380.2 v 0 c 252.7,0 476.6,-163.3 553.8,-403.9 l 422.5,-1316.4 c -28.4,-26.5 -56.8,-53.7 -84.8,-80.9 -135.6,396 -271.7,792 -408.2,1187.2 -8.9,25.3 -32.8,41.6 -58.6,41.6 -5.7,0 -11.4,-0.8 -17.1,-2.5 -33,-9.5 -52,-43.9 -42.5,-76.8 124.9,-432.7 251.2,-864.8 378.9,-1296.6 -124.5,-125.1 -246.5,-249.1 -364.5,-370 L 23396,24849 c -20.7,66.8 -81.7,113 -151.5,114.8 -1.7,0.1 -3.3,0.1 -5,0.1 -68.2,0 -128.8,-42.6 -152.5,-106.7 l -384.6,-1043.4"
         style="fill:#ccccde;fill-opacity:1;fill-rule:nonzero;stroke:none"
         id="path150" />
      <path
         d="m 23981.5,26820.5 c -15,8 -29.5,16.5 -44,23.5 -787.5,421.5 -1292,252 -1590.5,4 -85.5,-71 -154,-148 -207.5,-219.5 -38.5,-52 -69.5,-101 -93.5,-142.5 -42.5,-74.5 -61.5,-124.5 -61.5,-124.5 l -26.5,-73.5 -18.5,-52 -1363,-3789.5 -3019.5,-8395 H 4268.5 c -35,251 -8.5,510 81,753 l 220.5,599.5 3917,10664 70,190.5 c 3.5,10 7.5,20 11.5,29.5 58,150 136.01,289 229.5,414 59,79 124.5,152.5 196,220 316.5,300.5 742.5,478 1198.5,478 h 12615 c 459,0 880.5,-212 1155.5,-556 6,-7.5 12.5,-15.5 18.5,-23.5"
         style="fill:#f7b56f;fill-opacity:1;fill-rule:nonzero;stroke:none"
         id="path152" />
      <path
         d="m 8735.96,26267.5 c 1.04,2.5 2.05,4.9 3.09,7.3 h 1.76 c -1.62,-2.4 -3.24,-4.8 -4.85,-7.3 m 500.57,644.6 c 269.11,204.7 602.38,323.9 951.97,324.8 1.3,0 2.6,0 3.8,0 v 0 h 12592.1 c -57.9,-12.2 -114.6,-28.3 -170,-48.5 -98.7,-35.9 -186.5,-82.3 -264.4,-134.4 H 10192.5 c -240.97,0 -473.56,-49.6 -686.04,-140.7 l -269.93,-1.2"
         style="fill:#fce3c8;fill-opacity:1;fill-rule:nonzero;stroke:none"
         id="path154" />
      <path
         d="m 8740.81,26274.8 c 18.34,27.7 37.42,54.8 57.19,81.2 59,79 124.5,152.5 196,220 149.25,141.7 322.85,256 512.46,337.3 l 12714.44,57.7 h 18.4 c -284.3,-237.4 -401.2,-535 -408.5,-554.1 l -20.8,-57.9 c -321.4,23.2 -684.5,35.3 -1091.7,35.3 -70.8,0 -142.9,-0.4 -216.4,-1.1 L 8740.81,26274.8"
         style="fill:#c6916b;fill-opacity:1;fill-rule:nonzero;stroke:none"
         id="path156" />
      <path
         d="m 8739.05,26274.8 c 108.68,255.9 282.62,473.9 497.48,637.3 l 269.93,1.2 C 9316.85,26832 9143.25,26717.7 8994,26576 c -71.5,-67.5 -137,-141 -196,-220 -19.77,-26.4 -38.85,-53.5 -57.19,-81.2 h -1.76"
         style="fill:#cab6b2;fill-opacity:1;fill-rule:nonzero;stroke:none"
         id="path158" />
      <path
         d="M 17442.1,14214.7 H 4417.63 c 0,0.2 -0.01,0.3 -0.01,0.4 -0.01,0.2 -0.02,0.5 -0.03,0.7 -0.02,0.7 -0.05,1.4 -0.07,2.1 0,0.1 -0.01,0.2 -0.01,0.2 -5.72,167.5 18.81,335.7 72.52,494.8 0.01,0 0.02,0 0.03,0.1 0.26,0.7 0.52,1.5 0.78,2.3 0.03,0.1 0.07,0.2 0.1,0.3 0.83,2.4 1.67,4.9 2.52,7.3 0.04,0.1 0.08,0.2 0.12,0.4 0.24,0.7 0.48,1.4 0.73,2.1 0.04,0.1 0.08,0.2 0.12,0.3 0.57,1.6 1.14,3.3 1.71,4.9 0.03,0.1 0.06,0.1 0.08,0.2 0.25,0.7 0.5,1.4 0.75,2.1 0.06,0.2 0.13,0.4 0.18,0.5 0.23,0.7 0.47,1.3 0.7,2 0.05,0.1 0.11,0.3 0.16,0.5 0.57,1.5 1.13,3.1 1.7,4.7 0.07,0.2 0.14,0.4 0.21,0.6 0.21,0.5 0.43,1.1 0.64,1.7 0.09,0.3 0.17,0.5 0.26,0.7 0.21,0.6 0.41,1.2 0.62,1.7 0.08,0.2 0.16,0.5 0.23,0.7 0.29,0.7 0.57,1.5 0.86,2.3 v 0 l 228.5,622 c 338.59,-20.1 682.33,-30.1 1029.72,-30.1 3915.72,-0.2 8316.45,1272.1 11551.05,3651.6 273.5,-670.3 687.8,-1284.4 1210.8,-1772.9 l -1080.5,-3004.2"
         style="fill:#c6916b;fill-opacity:1;fill-rule:nonzero;stroke:none"
         id="path160" />
      <path
         d="m 10192.3,27236.9 c -659.26,0 -1254.96,-415.8 -1482.29,-1034.6 l -4207.48,-11454 c -79.08,-214.7 -104.15,-447.8 -72.56,-674.2 21.75,-156.9 69.55,-308.1 142.08,-449.6 l 375.27,-728.2 c 185.35,-359.6 551.83,-583 956.43,-583 H 28018 c 138,0 263.7,63.9 344.8,175.5 81.1,111.6 103.2,250.9 60.7,382.2 l -4364.4,13456.2 c -45.9,141.3 -114.7,272.7 -204.5,390.6 -0.9,1.1 -1.8,2.3 -2.8,3.5 v 0 c -247.5,322.8 -638,515.6 -1044.4,515.6 H 10192.3 M 28018,11986.9 H 5903.75 c -527.33,0 -1004.97,291.2 -1246.51,759.9 l -375.44,728.5 c -89.45,174.5 -148.29,360.7 -175.08,553.9 -38.96,279.3 -8.03,567 89.5,831.8 l 4207.45,11453.8 c 274.32,746.7 993.11,1248.4 1788.63,1248.4 h 12615.1 c 505.6,0 991.3,-238.9 1300.4,-639.4 1.2,-1.5 2.4,-3 3.6,-4.5 113.4,-148.1 200.3,-313.4 258.1,-491.3 l 4364.4,-13456.3 c 75.2,-231.8 36.1,-477.7 -107.1,-674.8 -143.3,-197 -365.1,-310 -608.8,-310"
         style="fill:#02025c;fill-opacity:1;fill-rule:nonzero;stroke:none"
         id="path162" />
      <path
         d="M 4417.63,14214.7 H 17442.1 l 4388.7,12202.2 c 10,25.9 222.7,567.3 783.6,771.5 55.4,20.2 112.1,36.3 170,48.5 H 10192.3 c -646.68,0 -1238.17,-405 -1471.81,-1007.8 -4.49,-10.9 -7.25,-17.6 -9.62,-24.4 L 4502.53,14748.3 c -62.78,-170.4 -91.54,-352.5 -84.9,-533.6 M 17556.8,13888.4 H 4268.34 c -81.39,0 -150.36,60 -161.62,140.6 -38.96,279.5 -8.03,567.2 89.5,832 l 4207.45,11453.8 c 3.76,10.8 9.01,24.1 14.31,36.6 280.17,723.1 993.95,1211.8 1774.32,1211.8 h 12615.1 c 507.2,0 994.5,-240.5 1303.4,-643.4 47.1,-61.3 44.6,-147.3 -5.9,-205.8 -50.5,-58.5 -135.2,-73.7 -202.8,-36.1 -454.6,252.4 -849.2,321.4 -1172.8,205 -420.5,-151.2 -591.1,-576 -592.8,-580.2 l -25.1,-70 -4401,-12236.4 c -23.3,-64.7 -84.7,-107.9 -153.6,-107.9"
         style="fill:#02025c;fill-opacity:1;fill-rule:nonzero;stroke:none"
         id="path164" />
      <path
         d="m 18576.7,12149.9 4663.4,12650.8 3916,-12650.6 -8579.4,-0.2"
         style="fill:#919191;fill-opacity:1;fill-rule:nonzero;stroke:none"
         id="path166" />
      <path
         d="m 23226.6,24292.4 -4415.8,-11979.3 8124,0.1 -3708.2,11979.2 M 18576.7,11986.7 c -53.4,0 -103.3,26.1 -133.8,69.9 -30.6,43.7 -37.8,99.7 -19.3,149.7 L 23087,24857.2 c 24.3,65.6 87.2,108.8 157.5,106.6 69.8,-1.8 130.8,-48 151.5,-114.8 l 3915.9,-12650.7 c 15.4,-49.5 6.3,-103.3 -24.5,-145.1 -30.7,-41.7 -79.5,-66.3 -131.3,-66.3 l -8579.4,-0.2"
         style="fill:#02025c;fill-opacity:1;fill-rule:nonzero;stroke:none"
         id="path168" />
      <path
         d="M 22929.5,25685.7 18205.6,12989.9 c -24.2,-65.3 -86.7,-105.5 -152.5,-105.2 l -12508.79,98.8 c -35.56,0.3 -64.16,29.3 -63.88,64.9 0.28,35.2 28.81,63.6 63.88,63.9 l 12508.79,98.8 -152.5,-105.2 4902.7,12627.8 c 13.5,34.7 52.6,51.9 87.3,38.4 34.5,-13.3 51.7,-51.9 38.9,-86.4 0,0 12.8,34.5 0,0"
         style="fill:#02025c;fill-opacity:1;fill-rule:nonzero;stroke:none"
         id="path170" />
      <path
         d="m 18576.8,11986.7 c -58.2,0 -114.5,31.2 -143.9,86.1 L 17413,13974.4 c -42.6,79.5 -12.7,178.4 66.7,221 79.4,42.5 178.3,12.7 220.9,-66.7 L 18720.5,12227 c 42.6,-79.4 12.7,-178.3 -66.7,-220.9 -24.5,-13.2 -50.9,-19.4 -77,-19.4"
         style="fill:#02025c;fill-opacity:1;fill-rule:nonzero;stroke:none"
         id="path172" />
      <path
         d="m 23755.1,25728.5 c 1479.3,-4285.7 2917,-8616 4163.8,-12974.8 12.2,-44.2 -13.7,-89.9 -57.9,-102.1 -41.9,-11.6 -85.4,11.5 -100.1,51.6 -192.3,534.6 -378.3,1071.2 -562.4,1608.5 -908.7,2667.2 -1763.4,5415.2 -2591.2,8112.9 -330.9,1086.3 -655.4,2174.8 -970.4,3266.2 -9.5,32.9 9.5,67.3 42.5,76.8 31.7,9.2 64.9,-8.3 75.7,-39.1"
         style="fill:#02025c;fill-opacity:1;fill-rule:nonzero;stroke:none"
         id="path174" />
      <path
         d="M 8827.64,26451.2 H 21845.3 c 56.6,126.5 281.1,559.5 769.1,737.2 55.4,20.2 112.1,36.3 170,48.5 H 10192.3 c -563.58,0 -1085.24,-307.6 -1364.66,-785.7 z M 21957.8,26124.9 H 8568.34 c -53.83,0 -104.2,26.5 -134.62,70.9 -30.42,44.5 -36.98,101 -17.53,151.2 281.96,727.5 995.73,1216.2 1776.11,1216.2 h 12615.1 c 507.2,0 994.5,-240.5 1303.4,-643.4 47.1,-61.3 44.6,-147.3 -5.9,-205.8 -50.5,-58.5 -135.2,-73.7 -202.8,-36.1 -454.6,252.4 -849.2,321.4 -1172.8,205 -420.5,-151.2 -591.1,-576 -592.8,-580.2 l -25.1,-70 c -23.4,-64.7 -84.8,-107.8 -153.6,-107.8"
         style="fill:#02025c;fill-opacity:1;fill-rule:nonzero;stroke:none"
         id="path176" />
      <path
         d="m 35318.5,14528.5 c 0,0 260.5,-792.5 -304,-1406 -743.5,-808.5 -3634,-1159 -6764,912 l 3448.5,4218 c 0,0 378.5,-305 891,-648 409.5,-274 904.5,-572.5 1360.5,-758 466.5,-190 1035,-529.5 1405.5,-914 445,-462 605,-989.5 -37.5,-1404"
         style="fill:#ffffff;fill-opacity:1;fill-rule:nonzero;stroke:none"
         id="path178" />
      <path
         d="m 28492.2,14072.1 c 1668.4,-1065.5 3114.6,-1356.3 4044.7,-1410.4 1283.8,-74.6 2072.4,261.1 2357.7,571.3 490.1,532.8 278.2,1216.3 269,1245.2 -22.6,70.2 4.6,147.4 66.7,187.4 255.4,164.9 370.2,345.2 351,551.4 -47.9,513.5 -898,1154.9 -1692.2,1478.4 -853.4,347.7 -1821.4,1064.9 -2164.9,1330 l -3232,-3953.3 M 32882,12325.2 c -119.2,0 -240.6,3.5 -364,10.7 -998.3,58 -2564.6,376.3 -4357.3,1562.6 -38.5,25.4 -64.4,66 -71.3,111.6 -7,45.6 5.8,92 35,127.7 l 3448.5,4218 c 56.7,69.4 158.9,80.1 228.7,23.8 12.1,-9.7 1219.2,-978 2210.7,-1381.9 723.1,-294.6 1824.3,-1003.9 1893.9,-1750.3 19.8,-212.2 -37.6,-514 -401.7,-788.2 55.3,-264.5 122.5,-911.9 -369.7,-1447.1 -398.9,-433.8 -1243.3,-686.9 -2252.8,-686.9"
         style="fill:#02025c;fill-opacity:1;fill-rule:nonzero;stroke:none"
         id="path180" />
      <path
         d="m 32892.1,12651.2 c -113.8,0 -232.3,3.3 -355.2,10.5 -797.4,46.4 -1974,266.7 -3344.8,1000 1416.5,997 2553.3,2371.8 3176.9,3894.7 67.9,-46.5 138.8,-94.3 212.1,-142.5 -45.2,-659.3 -243.4,-1349.1 -686,-2063 -383.9,-619.2 -8.2,-1426.9 714.6,-1518.8 313.7,-39.9 637.4,-66.9 938.2,-66.9 272.6,0 526.5,22.2 737.1,77.3 1093,286.5 443.5,1070 443.5,1070 0,0 515.3,133.1 612,794.3 138,-166.7 226.3,-334.1 240.8,-489.8 19.2,-206.2 -95.6,-386.5 -351,-551.4 -62.1,-40 -89.3,-117.2 -66.7,-187.4 9.2,-28.9 221.1,-712.4 -269,-1245.2 -258,-280.5 -927.4,-581.9 -2002.5,-581.8"
         style="fill:#ccccde;fill-opacity:1;fill-rule:nonzero;stroke:none"
         id="path182" />
      <path
         d="m 32883.7,12488.2 c -1065.4,0 -2410.1,290.5 -3842,1069.8 50.5,34.1 100.6,68.6 150.4,103.7 1370.8,-733.3 2547.4,-953.6 3344.8,-1000 122.9,-7.2 241.4,-10.5 355.2,-10.5 1075.1,-0.1 1744.5,301.3 2002.5,581.8 490.1,532.8 278.2,1216.3 269,1245.2 -22.6,70.2 4.6,147.4 66.7,187.4 255.4,164.9 370.2,345.2 351,551.4 -14.5,155.7 -102.8,323.1 -240.8,489.8 10.1,69.3 15.6,144.4 15.5,225.7 445,-462 605,-989.5 -37.5,-1404 0,0 260.5,-792.5 -304,-1406 -334.2,-363.4 -1102.4,-634.3 -2130.8,-634.3 m -302.6,4925.7 c -73.3,48.2 -144.2,96 -212.1,142.5 21.3,51.9 41.9,104 62,156.2 51.3,-35.4 104.4,-71.5 159,-108.1 -1.6,-63.2 -4.5,-126.8 -8.9,-190.6"
         style="fill:#02025c;fill-opacity:1;fill-rule:nonzero;stroke:none"
         id="path184" />
      <path
         d="m 26696.9,27048.7 c -768.4,-844.8 206.3,-2020.3 879.9,-2354.1 1986.4,-984 3170,-419.9 3170,-419.9 0,0 282.7,400.1 357.3,1180 31.3,327.8 26.5,723.3 -52.4,1184.4 -211.6,1237.2 -1097.3,1966.8 -1831.7,1970.3 -189.8,0.9 -370.3,-46.5 -525.6,-147 -739.9,-476.9 -309.3,-1580.6 -290.8,-1627 -32,41.3 -877.3,1124.2 -1706.7,213.3"
         style="fill:#f74c6e;fill-opacity:1;fill-rule:nonzero;stroke:none"
         id="path186" />
      <path
         d="m 28033.7,26591.2 c -105.9,0 -247.6,53.3 -379.9,151.4 -208.9,155 -315.2,363.1 -237.5,465 28.5,37.3 77.8,55.2 139.2,55.2 105.9,0 247.6,-53.3 379.9,-151.4 208.9,-155 315.2,-363.2 237.5,-465 -28.6,-37.4 -77.8,-55.2 -139.2,-55.2"
         style="fill:#fcbbc8;fill-opacity:1;fill-rule:nonzero;stroke:none"
         id="path188" />
      <path
         d="m 28324.6,28065.3 c 11,20.1 22.8,39.9 35.4,59.3 -7.1,-15.9 -14,-32.3 -20.5,-49 -5,-3.4 -10,-6.8 -14.9,-10.3"
         style="fill:#d5ffea;fill-opacity:1;fill-rule:nonzero;stroke:none"
         id="path190" />
      <path
         d="m 31044.6,25460.4 c -77.7,10.7 -166.4,34.6 -262.9,70.3 -3.5,221.8 -24.3,465.8 -69.8,731.6 -13.9,80.7 -30.6,159.3 -49.9,235.5 -39.1,154.6 -147.5,275.2 -290.8,340.4 -152.3,69.3 -335.5,212.6 -503.8,405.9 -178,204.2 -299.1,418.8 -341.9,584.8 -48.1,186.5 -193,329.8 -380.5,372.2 -89.5,20.2 -178.3,30.8 -264.8,31.4 -1.9,0 -3.7,0 -5.5,0 -67.7,0 -134.2,-6.1 -198.8,-18.7 1.2,96 8.2,169.8 13.3,211.2 139.2,74.9 295.6,110.9 459,110.9 1.8,0 3.7,0 5.5,0 734.4,-3.5 1620.2,-733.1 1831.8,-1970.3 72.6,-424.6 82.4,-793.5 59.1,-1105.2"
         style="fill:#fcbbc8;fill-opacity:1;fill-rule:nonzero;stroke:none"
         id="path192" />
      <path
         d="m 28403.6,26835.4 v 0 c -204.7,441.3 -190.7,916.6 -64.1,1240.2 5,3.4 10,6.7 15.1,9.9 4.5,2.9 9.1,5.8 13.6,8.7 -250.9,-526 20.8,-1222.1 35.4,-1258.8 m 0,0 c -11.1,14.4 -121.1,155.3 -294.7,294.2 173.7,-138.7 283.6,-279.7 294.7,-294.2 m -43.6,1289.2 c 81.4,181.4 200.1,306.6 334.4,337.8 -88,-56.7 -159.5,-122.3 -217,-193.9 -45.5,-45.1 -84.4,-93.3 -117.4,-143.9"
         style="fill:#74ccb2;fill-opacity:1;fill-rule:nonzero;stroke:none"
         id="path194" />
      <path
         d="m 31037.9,25030.6 c -14.6,12 -29.4,24 -44.1,35.8 18.1,96.9 33.2,201.9 44,314.8 2.5,26 4.7,52.3 6.8,79.2 20.6,-2.9 40.4,-4.8 59.5,-5.7 -15,-156.8 -38.4,-298.2 -66.2,-424.1 m -262.1,200.3 c -285.1,201.9 -579.4,359.6 -871.2,470.3 -610.9,231.7 -1229.2,356.2 -1837.2,377.2 66.3,26.3 125.4,66 173.7,119.6 217.7,241.4 132.7,671.2 -189.6,960.4 -50.4,45.2 -103.6,84.3 -158.6,117.2 79.5,-44.1 152.1,-94.9 216,-146 173.6,-138.9 283.6,-279.8 294.7,-294.2 v 0 0 0 c -14.6,36.7 -286.3,732.8 -35.4,1258.8 94.8,58.8 198.5,98.3 307.7,119.6 -2.8,-231.8 28.2,-593.5 202.7,-944.4 420,-844.4 1308.7,-1518.1 1903.1,-1738.7 1.7,-104.9 -0.5,-204.9 -5.9,-299.8 m -2298.4,3037.6 c 57.5,71.6 129,137.2 217,193.9 v 0 c 0,0 -2.3,-13.2 -5.2,-37.4 -20.8,-11.2 -41.2,-23.2 -61.1,-36.1 -56.9,-36.7 -106.9,-77.1 -150.7,-120.4"
         style="fill:#c63d6a;fill-opacity:1;fill-rule:nonzero;stroke:none"
         id="path196" />
      <path
         d="m 28339.5,28075.6 c 6.5,16.7 13.4,33.1 20.5,49 33,50.6 71.9,98.8 117.4,143.9 -44.2,-55 -80.2,-113.5 -109.2,-174.3 -4.5,-2.9 -9.1,-5.8 -13.6,-8.7 -5.1,-3.2 -10.1,-6.5 -15.1,-9.9"
         style="fill:#abccce;fill-opacity:1;fill-rule:nonzero;stroke:none"
         id="path198" />
      <path
         d="m 30993.8,25066.4 c -71.9,57.7 -144.6,112.5 -218,164.5 5.4,94.9 7.6,194.9 5.9,299.8 96.5,-35.7 185.2,-59.6 262.9,-70.3 -2.1,-26.9 -4.3,-53.2 -6.8,-79.2 -10.8,-112.9 -25.9,-217.9 -44,-314.8 m -2625.6,3027.8 c 29,60.8 65,119.3 109.2,174.3 43.8,43.3 93.8,83.7 150.7,120.4 19.9,12.9 40.3,24.9 61.1,36.1 -5.1,-41.4 -12.1,-115.2 -13.3,-211.2 -109.2,-21.3 -212.9,-60.8 -307.7,-119.6"
         style="fill:#ca96b2;fill-opacity:1;fill-rule:nonzero;stroke:none"
         id="path200" />
      <path
         d="m 26696.9,27048.7 c 109.5,120.4 219.3,205.9 327.5,263.6 -108.2,-57.8 -217.9,-143.3 -327.5,-263.6"
         style="fill:#74ccb2;fill-opacity:1;fill-rule:nonzero;stroke:none"
         id="path202" />
      <path
         d="m 26499.6,25896.4 c -53.6,146.6 -84.6,297.4 -84.5,447.6 0.2,243.5 82.2,485.3 281.8,704.7 v 0 c 109.6,120.3 219.3,205.8 327.5,263.6 132.9,70.9 263.4,99.8 387.8,99.8 70,0 138,-9.2 203.6,-25.1 -52.4,11.2 -104.2,16.8 -154.6,16.8 -152.7,0 -291.4,-51.9 -387.5,-158.4 -217.7,-241.4 -132.7,-671.2 190,-960.7 111.7,-100.3 237.3,-170.4 362.7,-209.3 -383.1,-18.4 -760.1,-78.4 -1126.8,-179"
         style="fill:#c63d6a;fill-opacity:1;fill-rule:nonzero;stroke:none"
         id="path204" />
      <path
         d="m 27413.3,27249 c -207.9,0 -408.1,-104.2 -595.5,-310.3 -202.8,-222.9 -277.2,-486.6 -221.1,-784 101.6,-539.6 625.5,-1102 1052.5,-1313.7 1681,-833.1 2767.8,-515.6 2987.1,-435.3 99.3,171.5 473.3,924 254.4,2205.9 -163.2,955.5 -727.5,1518.7 -1201.3,1727.3 -334.4,147.1 -664.9,142.2 -906.7,-13.7 -632.2,-407.4 -231.3,-1419.8 -227.2,-1430 30.8,-75.9 0.5,-163 -70.8,-203.4 -71.2,-40.3 -161.4,-21.7 -210.6,43.7 -3.6,4.7 -379.4,492.8 -833.2,512.9 -9.2,0.4 -18.4,0.6 -27.6,0.6 z m 3333.5,-2974.7 h 0.4 z m 0,0 h 0.4 z m -954.3,-325.4 c -560.8,0 -1336.1,127.8 -2288.2,599.7 -501.1,248.3 -1101.9,874.4 -1228.3,1545.6 -75,397.8 28.9,765.7 300.4,1064.1 264.5,290.8 561.3,430.7 880.8,416.1 252.4,-11.7 477.7,-120.1 656.3,-244.8 -51.7,410.8 -2.7,950.9 492.4,1269.9 335.7,216.3 778.5,230.1 1214.9,38.1 551.5,-242.8 1206.6,-888 1391.6,-1971.1 274.2,-1605.8 -307.5,-2451.2 -332.4,-2486.4 -16.1,-22.8 -37.8,-41.1 -63.1,-53.1 -27.2,-13 -387.4,-178.1 -1024.4,-178.1"
         style="fill:#02025c;fill-opacity:1;fill-rule:nonzero;stroke:none"
         id="path206" />
      <path
         d="m 32316.5,17872.5 c -1520,-4142 -7106,-7752 -13224,-4408 l 3382,9082 c 0,0 292.5,320 727.5,776.5 291.5,306 647,673.5 1020.5,1047.5 1368,1368 3420,2014 5624,1178 1189,-450.5 2489,-1770.5 2874.5,-3746.5 v -0.5 c 217,-1113.5 143.5,-2436 -404.5,-3929"
         style="fill:#ffffff;fill-opacity:1;fill-rule:nonzero;stroke:none"
         id="path208" />
      <path
         d="m 19295.2,13540.7 c 3246.9,-1727.2 5982.1,-1322.6 7713.3,-672.2 2359.7,886.7 4335,2825.7 5155.1,5060.3 1459,3975.8 -510.3,6760.1 -2374.7,7467.2 -1956.6,742.2 -3994.3,315.7 -5450.8,-1140.8 -835.4,-835.3 -1586.8,-1648.9 -1721.6,-1795.5 l -3321.3,-8919 M 23942.5,11983 c -1437.8,0 -3107.7,343.3 -4928.1,1338.4 -71.2,38.9 -102.9,124.1 -74.7,200.1 l 3382.1,9082 c 7.3,19.7 18.3,37.7 32.5,53.2 8.2,9 829.5,905.8 1753,1829.3 1550,1549.9 3717.1,2004.3 5797.3,1215.2 1989.7,-754.7 4101,-3700 2565.3,-7884.9 -851.8,-2321.2 -2900.5,-4334.1 -5346.6,-5253.3 -847,-318.2 -1925.5,-580 -3180.8,-580"
         style="fill:#02025c;fill-opacity:1;fill-rule:nonzero;stroke:none"
         id="path210" />
      <path
         d="m 27197.1,19765.4 c 0,0 -270.5,-1905.9 577.4,-2331.9 847.8,-426 1623.8,1894 1623.8,1894 l -2201.2,437.9"
         style="fill:#f99639;fill-opacity:1;fill-rule:nonzero;stroke:none"
         id="path212" />
      <path
         d="m 27605.6,19502.1 c 0,0 -2.9,-172.9 8.2,-404.2 21,-443.6 92.7,-1102.2 331.9,-1161.6 20.6,-5.2 41.4,-5.5 62.5,-2.3 357.9,56.9 820.6,1242 820.6,1242 l -1223.2,326.1"
         style="fill:#02025c;fill-opacity:1;fill-rule:nonzero;stroke:none"
         id="path214" />
      <path
         d="m 27613.8,19097.9 c 21,-443.7 92.7,-1102.2 331.9,-1161.6 20.6,-5.2 41.4,-5.5 62.5,-2.3 33.4,36.5 63.2,77.1 88.9,121.4 194.3,335.1 80.5,764.2 -254.6,958.5 -72.9,42.3 -150.4,70 -228.7,84"
         style="fill:#f74c6e;fill-opacity:1;fill-rule:nonzero;stroke:none"
         id="path216" />
      <path
         d="m 27769,19289.7 c 11,-592.5 104.9,-1132.1 215.6,-1194.3 119.8,13.4 403.4,461.8 622.7,970.8 l -838.3,223.5 m 215.3,-1521.4 c -26.1,0 -52.1,3.3 -78,9.7 -234,58.2 -366.4,353.8 -429.3,958.3 -40.2,385.5 -34.8,753 -34.6,768.5 0.8,50.2 24.7,97.3 64.8,127.6 40.1,30.3 91.9,40.3 140.4,27.5 l 1223.3,-326.3 c 44.9,-11.9 82.5,-42.5 103.5,-83.9 21,-41.4 23.3,-89.8 6.4,-133.1 -5.4,-14 -135.7,-345.9 -314,-672.5 -249.9,-457.9 -469.1,-675.8 -682.5,-675.8"
         style="fill:#02025c;fill-opacity:1;fill-rule:nonzero;stroke:none"
         id="path218" />
      <path
         d="m 27339,19570.8 c -53.9,-585.6 -39.4,-1716.1 508.7,-1991.5 87.9,-44.1 173.4,-46.3 268.9,-6.9 439.8,181.3 870.7,1118.9 1064.3,1631.9 l -1841.9,366.5 m 647.6,-2352.3 c -97.5,0 -193.6,23.1 -285.4,69.2 -941.7,473.2 -677.4,2418.1 -665.7,2500.6 6.3,44.4 30.6,84.3 67.2,110.2 36.6,26 82.3,35.7 126.2,26.9 l 2201.3,-437.9 c 45.9,-9.1 85.8,-37.6 109.2,-78.1 23.6,-40.6 28.6,-89.3 13.7,-133.7 -58.2,-173.8 -589,-1706.8 -1312,-2005 -84.4,-34.8 -170,-52.2 -254.5,-52.2"
         style="fill:#02025c;fill-opacity:1;fill-rule:nonzero;stroke:none"
         id="path220" />
      <path
         d="m 29200.2,18861.2 -1666.7,356.6 c -325.3,69.6 -459,446.1 -254.1,714.3 370,484.5 936.4,749 1480.8,632.5 544.4,-116.5 922.1,-583 1016.6,-1166.9 52.3,-323.2 -251.3,-606.1 -576.6,-536.5"
         style="fill:#f99639;fill-opacity:1;fill-rule:nonzero;stroke:none"
         id="path222" />
      <path
         d="m 29396.5,18860.5 c 0.1,0 0.1,0 0.1,0.1 87.2,18.2 166.8,60.4 230.8,119 -64,-58.7 -143.6,-100.9 -230.9,-119.1"
         style="fill:#ccccde;fill-opacity:1;fill-rule:nonzero;stroke:none"
         id="path224" />
      <path
         d="m 29054.4,18892.4 -153.6,32.8 c 0,0.1 0,0.1 0,0.1 l 153.6,-32.9 v 0 m -1609.5,353.7 c -31.7,13.8 -60.9,30.9 -87.4,50.7 26.5,-19.8 55.7,-36.9 87.4,-50.7 v 0"
         style="fill:#c87840;fill-opacity:1;fill-rule:nonzero;stroke:none"
         id="path226" />
      <path
         d="m 28575.9,18994.7 -803.4,171.9 c 0,0.1 0,0.1 0,0.1 l 803.5,-171.9 -0.1,-0.1"
         style="fill:#02025c;fill-opacity:1;fill-rule:nonzero;stroke:none"
         id="path228" />
      <path
         d="m 28900.8,18925.2 -324.9,69.5 0.1,0.1 324.8,-69.5 c 0,0 0,0 0,-0.1 m -1128.3,241.4 -238.8,51.1 c -31.4,6.7 -61.1,16.3 -88.8,28.4 v 0 c 27.7,-12 57.3,-21.6 88.6,-28.3 l 239,-51.1 c 0,0 0,0 0,-0.1"
         style="fill:#02025c;fill-opacity:1;fill-rule:nonzero;stroke:none"
         id="path230" />
      <path
         d="m 29300.2,18850.5 c -32.9,0 -66.3,3.5 -99.9,10.7 l -145.9,31.2 v 0 l 145.8,-31.2 c 33.6,-7.2 67.1,-10.6 99.9,-10.6 32.9,0 65.2,3.5 96.5,10 0,-0.1 0,-0.1 -0.1,-0.1 -31.2,-6.5 -63.5,-10 -96.3,-10"
         style="fill:#02025c;fill-opacity:1;fill-rule:nonzero;stroke:none"
         id="path232" />
      <path
         d="m 27357.3,19296.9 c -0.3,0.2 -0.7,0.5 -1,0.7 0.3,-0.2 0.7,-0.5 1,-0.7 m -1.6,1.2 c -0.2,0.1 -0.4,0.3 -0.5,0.4 0.1,-0.1 0.3,-0.3 0.5,-0.4 m -1.6,1.2 v 0 0"
         style="fill:#c87840;fill-opacity:1;fill-rule:nonzero;stroke:none"
         id="path234" />
      <path
         d="m 29777.1,19395.7 c -0.1,0.2 -0.1,0.4 -0.1,0.6 -0.1,0.5 -0.2,1.1 -0.3,1.6 -2,12.4 -4.1,24.8 -6.4,37.2 2.3,-12.4 4.5,-24.8 6.4,-37.2 0.2,-0.7 0.3,-1.4 0.4,-2.2"
         style="fill:#ccccde;fill-opacity:1;fill-rule:nonzero;stroke:none"
         id="path236" />
      <path
         d="m 29300.1,18850.6 c -32.8,0 -66.3,3.4 -99.9,10.6 l -145.8,31.2 -153.6,32.9 -324.8,69.5 -803.5,171.9 -239,51.1 c -31.3,6.7 -60.9,16.3 -88.6,28.3 -31.7,13.8 -60.9,30.9 -87.4,50.7 -0.1,0 -0.1,0 -0.2,0.1 -0.3,0.2 -0.7,0.5 -1,0.7 -0.2,0.2 -0.4,0.4 -0.6,0.5 -0.2,0.1 -0.4,0.3 -0.5,0.4 -0.4,0.3 -0.7,0.5 -1.1,0.8 v 0 c -114.3,87 -176.9,224.7 -171.8,366.8 -1.5,-42.7 3.1,-84.9 13.4,-125.5 51.4,64.4 106.3,124.8 164.3,180.6 55.4,-50.5 125.7,-88 208.3,-105.7 l 1666.6,-356.5 c 33.6,-7.2 67,-10.7 99.8,-10.7 86.7,0 169.4,24 240.9,65.5 37.1,-95.2 65.7,-195.9 85.1,-300.5 -10.6,-11.7 -21.7,-23 -33.3,-33.7 -64,-58.6 -143.6,-100.8 -230.8,-119 -31.3,-6.5 -63.6,-10 -96.5,-10 m 385.3,192.5 c 74.2,97.1 112.2,221.8 91.6,353.2 0,-0.2 0,-0.4 0.1,-0.6 20.5,-131.3 -17.5,-255.8 -91.7,-352.6 m -2503,624.2 c 0,0.1 0,0.1 0,0.2 0,-0.1 0,-0.1 0,-0.2"
         style="fill:#c87840;fill-opacity:1;fill-rule:nonzero;stroke:none"
         id="path238" />
      <path
         d="m 29660.7,19013.2 c 0,0 0,0 0,0.1 3.7,4 7.3,8.2 10.8,12.4 -3.5,-4.2 -7.1,-8.4 -10.8,-12.5 m 109.6,421.9 c -0.1,0.8 -0.3,1.6 -0.4,2.4 -49.5,266.5 -158.5,507 -315.7,698.6 157.7,-192.2 266.9,-433.5 316.1,-701 m -2501.6,482.4 -0.1,0.1 c 3.5,4.9 7,9.7 10.7,14.6 255.5,334.6 604.7,564.2 975.6,635.8 -370.8,-71.7 -720,-301.4 -975.5,-635.9 -3.7,-4.9 -7.2,-9.7 -10.7,-14.6"
         style="fill:#ffffff;fill-opacity:1;fill-rule:nonzero;stroke:none"
         id="path240" />
      <path
         d="m 27237.7,19867.8 c 9.1,16.9 19.4,33.5 30.9,49.8 l 0.1,-0.1 c -11.5,-16.2 -21.8,-32.8 -31,-49.7"
         style="fill:#9f9fc1;fill-opacity:1;fill-rule:nonzero;stroke:none"
         id="path242" />
      <path
         d="m 29660.7,19013.3 v 0 c 8.6,9.6 16.9,19.6 24.7,29.8 -4.5,-5.9 -9.1,-11.7 -13.9,-17.4 -3.5,-4.2 -7.1,-8.4 -10.8,-12.4 m -85.1,300.5 c -65.3,167.8 -156.9,318.9 -271.5,445.6 -1.5,-12.5 -5.7,-24 -12.7,-34.1 -21.1,-31 -62.7,-45.9 -116.7,-45.9 -90.5,0 -215.9,41.8 -337.6,119.1 -181.1,115.4 -290.5,268.6 -259,355.7 -62.1,9.4 -124.5,14.1 -186.7,14.1 -373,0 -740,-166.3 -1031.4,-447.1 -50.2,45.6 -88.2,101.9 -112.3,163.8 -41.4,-69.4 -62.4,-144 -65.3,-217.5 2.6,67.4 20.5,135.9 55.3,200.3 9.2,16.9 19.5,33.5 31,49.7 3.5,4.9 7,9.7 10.7,14.6 255.5,334.5 604.7,564.2 975.5,635.9 81.2,15.7 163.5,23.9 246,23.9 86.4,0 173.1,-8.9 259.2,-27.4 281.2,-60.1 517.9,-213.6 694.1,-428.4 157.2,-191.6 266.2,-432.1 315.7,-698.6 -3.8,19.9 -7.9,39.8 -12.2,59.5 -42.8,-75.7 -106.3,-139.3 -182.1,-183.2 m -2393.3,352.3 c 0,0.4 0,0.8 0.1,1.2 -0.1,-0.4 -0.1,-0.8 -0.1,-1.2"
         style="fill:#fdd7b4;fill-opacity:1;fill-rule:nonzero;stroke:none"
         id="path244" />
      <path
         d="m 29777,19396.3 c -0.1,0.5 -0.2,0.9 -0.2,1.4 -2.2,13.3 -4.5,26.6 -6.9,39.8 0.1,-0.8 0.3,-1.6 0.4,-2.4 2.3,-12.4 4.4,-24.8 6.4,-37.2 0.1,-0.5 0.2,-1.1 0.3,-1.6"
         style="fill:#ececf2;fill-opacity:1;fill-rule:nonzero;stroke:none"
         id="path246" />
      <path
         d="m 29660.7,19013.3 c -19.4,104.6 -48,205.3 -85.1,300.5 75.8,43.9 139.3,107.5 182.1,183.2 4.3,-19.7 8.4,-39.6 12.2,-59.5 2.4,-13.2 4.7,-26.5 6.9,-39.8 0,-0.5 0.1,-0.9 0.2,-1.4 20.6,-131.4 -17.4,-256.1 -91.6,-353.2 -7.8,-10.2 -16.1,-20.2 -24.7,-29.8 m -2465,527.3 c -10.3,40.6 -14.9,82.8 -13.4,125.5 0,0.4 0,0.8 0.1,1.2 0,0.1 0,0.1 0,0.2 2.9,73.5 23.9,148.1 65.3,217.5 24.1,-61.9 62.1,-118.2 112.3,-163.8 -58,-55.8 -112.9,-116.2 -164.3,-180.6"
         style="fill:#eaccb6;fill-opacity:1;fill-rule:nonzero;stroke:none"
         id="path248" />
      <path
         d="m 28500.1,20428.8 c -398,0 -800.6,-215.5 -1091,-595.8 -64.4,-84.3 -81.4,-186.8 -46.6,-281.1 33.3,-90.2 108.1,-153.8 205.2,-174.5 l 1666.6,-356.6 c 102,-21.8 209.4,9.3 287.2,83.3 75.7,71.9 110.1,169.5 94.2,267.5 -87.2,538.7 -428.1,934.7 -889.6,1033.4 -74.7,16 -150.2,23.8 -226,23.8 z m 799.1,-1741.2 c -44.4,0 -89,4.6 -133.2,14.1 l -1666.6,356.6 c -205.6,43.9 -371.2,186.2 -443,380.5 -73.3,198.4 -38.4,419.8 93.3,592.3 423.1,554 1053.4,819.5 1644.6,693.1 596.3,-127.6 1034.4,-625.9 1143.6,-1300.5 32.8,-203 -38.7,-410.9 -191.5,-556.1 -122.7,-116.7 -283.2,-180 -447.2,-180"
         style="fill:#02025c;fill-opacity:1;fill-rule:nonzero;stroke:none"
         id="path250" />
      <path
         d="m 26963.8,20599.2 c -118.9,-581.1 -602.4,-972.9 -1079.8,-875.2 -477.5,97.8 -768.1,648.1 -649.1,1229.1 119,581.1 602.5,972.9 1079.9,875.2 477.4,-97.8 768,-648.1 649,-1229.1"
         style="fill:#02025c;fill-opacity:1;fill-rule:nonzero;stroke:none"
         id="path252" />
      <path
         d="m 26773.1,20793.8 c -49.2,-240.7 -249.5,-402.9 -447.2,-362.5 -197.7,40.5 -318,268.4 -268.8,509.1 49.3,240.6 249.5,402.9 447.2,362.4 197.7,-40.5 318.1,-268.4 268.8,-509"
         style="fill:#ffffff;fill-opacity:1;fill-rule:nonzero;stroke:none"
         id="path254" />
      <path
         d="m 25629.5,20378 c -12.3,0 -24.7,1.2 -37,3.7 -119.8,24.6 -192.8,162.7 -162.9,308.5 26.8,130.8 127.2,223.4 234,223.4 12.3,0 24.6,-1.2 37,-3.8 119.8,-24.5 192.8,-162.6 162.9,-308.4 -26.8,-130.8 -127.2,-223.4 -234,-223.4"
         style="fill:#4b4b8b;fill-opacity:1;fill-rule:nonzero;stroke:none"
         id="path256" />
      <path
         d="m 29923.8,20225 c -88.6,-474.8 155.7,-918.8 545.8,-991.7 390.2,-72.8 778.3,253 867,727.8 88.7,474.9 -155.7,918.8 -545.8,991.7 -390.1,72.9 -778.3,-253 -867,-727.8"
         style="fill:#02025c;fill-opacity:1;fill-rule:nonzero;stroke:none"
         id="path258" />
      <path
         d="m 30127.4,20313.2 c -36.7,-196.6 64.5,-380.5 226.1,-410.7 161.5,-30.1 322.3,104.8 359,301.4 36.7,196.7 -64.5,380.5 -226,410.7 -161.6,30.2 -322.3,-104.8 -359.1,-301.4"
         style="fill:#ffffff;fill-opacity:1;fill-rule:nonzero;stroke:none"
         id="path260" />
      <path
         d="m 30919,19637.4 c -9.1,0 -18.3,0.8 -27.6,2.5 -97.9,18.3 -159.2,129.7 -136.9,248.9 20.1,107.9 101.9,185.2 190,185.2 9.1,0 18.3,-0.8 27.5,-2.5 97.9,-18.3 159.3,-129.8 137,-248.9 -20.1,-108 -102,-185.2 -190,-185.2"
         style="fill:#4b4b8b;fill-opacity:1;fill-rule:nonzero;stroke:none"
         id="path262" />
      <path
         d="m 23059.9,19502.2 c 0,0 -563.3,1385.5 -316.9,2899.6 246.5,1514 -316.9,2323.9 -1197.1,2394.3 -880.3,70.4 -1549.3,-682.5 -1549.3,-682.5 0,0 -1690.1,858.5 -2746.4,-1676.6 -1056.3,-2535.2 704.2,-5915.4 3485.8,-6302.7 l 2323.9,3367.9"
         style="fill:#ffffff;fill-opacity:1;fill-rule:nonzero;stroke:none"
         id="path264" />
      <path
         d="m 23944,12310.1 c -1357.9,0.1 -2932,317.4 -4648.8,1230.6 l 998.7,2682.1 c 144.2,-37.8 291.7,-67.6 442.1,-88.5 l 2143.9,3107 c 230.5,-627.8 435.3,-1339.7 281.6,-1981.3 682.5,-1369 2005.5,-2113.5 3793,-2191 79.1,-3.4 157.4,-5.1 234.6,-5.1 3257.1,0 4882.2,3020.5 5447.1,6203.4 103.4,-979.7 -18.7,-2101.4 -472.6,-3338.5 -820.1,-2234.6 -2795.4,-4173.6 -5155.1,-5060.3 -815.8,-306.5 -1854.2,-558.4 -3064.5,-558.4"
         style="fill:#ccccde;fill-opacity:1;fill-rule:nonzero;stroke:none"
         id="path266" />
      <path
         d="m 23953.6,12149.8 c -1530.9,0 -3175.5,393.4 -4861.1,1314.7 L 20136,16266 c -7.7,3 -15.3,6 -23,9.1 59.7,-18.9 120.1,-36.3 180.9,-52.3 l -998.7,-2682.1 c 1716.8,-913.2 3290.9,-1230.5 4648.8,-1230.6 1210.3,0 2248.7,251.9 3064.5,558.4 2359.7,886.7 4335,2825.7 5155.1,5060.3 453.9,1237.1 576,2358.8 472.6,3338.5 31.5,177.6 59.8,356 84.8,534.2 217,-1113.5 143.5,-2436 -404.5,-3929 -1101.2,-3000.8 -4337.2,-5722.7 -8362.9,-5722.7"
         style="fill:#02025c;fill-opacity:1;fill-rule:nonzero;stroke:none"
         id="path268" />
      <path
         d="m 20736,16134.3 c -150.4,20.9 -297.9,50.7 -442.1,88.5 -60.8,16 -121.2,33.4 -180.9,52.3 -463.9,184.9 -870.7,441.7 -1127,700.9 -2344.5,2374.3 -1418.4,5548.9 209.1,5548.9 254.4,0 526,-77.6 804.9,-247.9 0,0 310,1030.6 1391.4,1030.6 88.2,0 181.4,-6.8 280.1,-21.6 503.5,-75.5 712.5,-382.5 787.5,-781 121,-637.5 -101,-1508.5 -4.5,-2037.5 30.5,-167.5 100,-369 184.5,-594.5 73.5,-195.2 158.9,-408.2 240.9,-631.7 l -2143.9,-3107"
         style="fill:#ccccde;fill-opacity:1;fill-rule:nonzero;stroke:none"
         id="path270" />
      <path
         d="m 23007.2,19480.7 c -436.5,892.8 -575.2,1919.6 -441.4,2902.8 62.8,447.6 91.9,924 -35.6,1361.5 -218.2,781.9 -952.5,1049.7 -1677,755.5 -270.8,-111.1 -526.4,-288.9 -734.6,-495.3 -50.8,-55.8 -131.4,-68.8 -195.9,-37.1 -39.8,17.3 -100.1,42 -146.4,54.8 -909,273.9 -1658,-307.4 -2090.5,-1071.8 -360.9,-611.8 -569.4,-1315.9 -577.1,-2027.8 -19.2,-1781 1016.5,-3560.8 2626.2,-4348.8 321.4,-161.5 661.1,-271.7 1013.4,-352.3 50.1,-8.5 83.5,-58.2 71.6,-107.8 -10.3,-44.2 -52,-72.9 -96.1,-68 -188.8,16.8 -378.1,43.9 -563,88.1 -588.6,143.4 -1137.8,440.5 -1599.9,829.9 -1477.4,1256.5 -2186.3,3424.3 -1557,5284.4 355.8,1005.6 1084.7,2137.7 2268.9,2166.6 274.8,5.6 546.3,-40.7 797.7,-156.4 l -195.9,-37.1 c 428.5,465.1 1045.4,802.8 1692.8,756.3 1075.6,-100.4 1453.4,-1061.8 1410.1,-2025.5 -3.8,-194.7 -41,-427.6 -68.9,-621.6 -53.3,-305.9 -66.9,-619.3 -60.6,-932.3 14.4,-626 111.1,-1257.3 264.7,-1875.2 17.3,-64.8 -71.9,-104.1 -105.5,-42.9"
         style="fill:#02025c;fill-opacity:1;fill-rule:nonzero;stroke:none"
         id="path272" />
      <path
         d="m 23981.5,26820.5 c -15,8 -29.5,16.5 -44,23.5 h 25.5 c 6,-7.5 12.5,-15.5 18.5,-23.5"
         style="fill:#02025c;fill-opacity:1;fill-rule:nonzero;stroke:none"
         id="path274" />
    </g>
  </g>
</svg>
