<?xml version="1.0" encoding="UTF-8" standalone="no"?>
<!-- Created with Inkscape (http://www.inkscape.org/) -->

<svg
   version="1.1"
   id="svg9"
   width="5333.3335"
   height="5333.3335"
   viewBox="0 0 5333.3335 5333.3335"
   xmlns="http://www.w3.org/2000/svg"
   xmlns:svg="http://www.w3.org/2000/svg">
  <defs
     id="defs13" />
  <g
     id="g17"
     transform="matrix(1.3333333,0,0,-1.3333333,0,5333.3333)">
    <g
       id="g19"
       transform="scale(0.1)">
      <path
         d="m 8036.41,19808.9 c 0,-6824.1 5532.09,-12356.2 12356.29,-12356.2 6824.2,0 12356.3,5532.1 12356.3,12356.2 0,6824.2 -5532.1,12356.3 -12356.3,12356.3 -6824.2,0 -12356.29,-5532.1 -12356.29,-12356.3"
         style="fill:#a0c49d;fill-opacity:1;fill-rule:nonzero;stroke:none"
         id="path23" />
      <path
         d="M 27587.6,20296.2 V 22550 l -7284.7,-8260.8 c 0,0 -321.8,-415.6 -1239.7,-168 l -8353.8,3366 c -1208.31,422.5 -1362.6,-1084.4 -144.5,-1643 l 8665.4,-3593.3 c 0,0 617.7,-288.5 1312.2,459.4 694.5,747.8 7045.1,7585.9 7045.1,7585.9"
         style="fill:#ffffff;fill-opacity:1;fill-rule:nonzero;stroke:none"
         id="path25" />
      <path
         d="m 28159.8,19852.6 v -270.1 c 0,-96.1 -36.2,-188.5 -101.1,-259.6 l -7387.5,-8030.8 c -433,-470.4 -1103.1,-633.3 -1700.9,-421.1 h -0.6 c -23.1,8.1 -46.2,16.8 -68.6,26.2 l -9042.19,3693.1 c -543.44,222.1 -982.07,651.4 -1192.97,1199.8 -63.64,164.8 -111.06,337 -142.27,512.3 -157.22,874.1 129.81,1769.5 736.88,2417.8 l 7494.75,8008.9 c 433.7,464.2 1100.7,628.3 1700.9,418 l 9122,-3188.9 c 456.8,-159.8 606.5,-730.7 286.4,-1093.8 l -7491,-8502.5 c -299.5,-340 -781.2,-454.2 -1201.7,-284.5 l -8568,3452.3 c -101.1,40.5 -205.9,59.9 -309.5,59.9 -361.86,-0.6 -628.27,-335.7 -570.88,-693.2 56.75,-352.5 265.82,-823.6 934.68,-1092.5 l 8478.7,-3519.1 c 249,-103.6 519.2,-112.3 765.6,-37.4 38.7,11.8 76.8,25.6 114.2,41.8 106.1,44.9 206.5,106.7 295.7,184.1 31.9,26.8 62.4,56.1 91.1,87.3 l 7137.9,7685.7 46.2,49.9 60.5,-15.6 222.8,-56.7 c 169.7,-43.1 288.9,-195.9 288.9,-371.3"
         style="fill:#00a1cc;fill-opacity:1;fill-rule:nonzero;stroke:none"
         id="path27" />
      <path
         d="m 8701.48,16860.7 c 21.18,622.2 273.87,1235.5 718.56,1710.3 l 656.96,702 213.8,-87.3 -863.65,-922.9 c -370.55,-395.7 -621.84,-883.3 -725.67,-1402.1 m 18961.52,6668.7 -33.7,11.8 73.1,79.5 c 7.3,-8.4 14.3,-17 21,-25.9 -20,-21.8 -40.3,-43.7 -60.4,-65.4"
         style="fill:#99d9eb;fill-opacity:1;fill-rule:nonzero;stroke:none"
         id="path29" />
      <path
         d="m 17926.4,27018.9 c -376.9,0 -745.3,-153.9 -1011.5,-438.9 L 9420.04,18571 c -568.67,-607.2 -823.36,-1440.8 -681.41,-2229.9 29.14,-163.9 73.17,-322.6 131.02,-472.2 185.12,-481.5 575.74,-873.7 1071.87,-1076.5 l 9042.18,-3693 c 527.3,-215.3 1141,-78.4 1526.9,340.7 l 7387.4,8030.7 c 27.8,30.4 43.4,70.3 43.4,111.7 v 270.1 c 0,75.4 -51.1,141.1 -124.2,159.6 l -157.9,40.3 -7095.8,-7640.5 c -383.1,-412.8 -990.1,-544.9 -1510.3,-328.8 l -8478.7,3519 c -763.21,306.5 -1001.61,854.3 -1066.8,1259.7 -38.48,239.4 29.14,482.1 185.5,665.9 150.9,177.5 369.8,279.6 600.6,280 h 2 c 134.2,0 265.3,-25.4 389.7,-75.6 l 8568,-3452.2 c 334,-134.8 718.3,-43.9 956.2,226.3 l 7491.1,8502.4 c 103.7,117.7 140.4,272 100.7,423.4 -39.6,151.6 -147.3,268.2 -295.4,319.9 l -9121.9,3189 c -149.8,52.5 -304.5,77.9 -457.8,77.9 m 1571.3,-16456.8 c -229.1,0 -459.7,43.3 -679.1,132.9 l -9042.27,3693.1 c -607.19,248.2 -1086.17,730.7 -1314.22,1323.7 -67.77,175.4 -119.41,361.3 -153.44,552.3 -166.17,923.9 130.08,1898 792.5,2605.3 l 7494.73,8008.9 c 492.4,527.2 1251.1,713.7 1932.5,474.9 l 9121.9,-3188.9 c 283.3,-99.1 497.8,-331.5 573.7,-621.6 76,-290.1 2.9,-597.6 -195.5,-822.7 l -7491.1,-8502.4 c -360.1,-409 -941.7,-546.6 -1447.3,-342.7 l -8567.8,3452.2 c -72.7,29.4 -149,44.4 -227.6,44 -104.3,-0.2 -199.8,-45 -268.8,-126.2 -73.44,-86.4 -105.12,-200.7 -86.99,-313.6 68.79,-427.9 338.19,-739.1 800.69,-924.8 l 8481,-3519.9 c 352.4,-146.4 763.5,-57 1022.9,222.6 l 7184.1,7735.7 c 54.5,58.6 136.7,82.8 214.1,62.9 l 283.2,-72.3 c 266.7,-67.7 453.2,-307.4 453.2,-582.9 v -270.1 c 0,-150.6 -56.1,-295 -158.1,-406.8 l -7388.1,-8031.4 c -348.2,-378.2 -837.3,-582.2 -1334.2,-582.2"
         style="fill:#380076;fill-opacity:1;fill-rule:nonzero;stroke:none"
         id="path31" />
      <path
         d="m 19409.7,11479.3 c -248.5,0 -498.8,48.3 -736.3,148 l -8364.7,3513.1 c -399.75,123.1 -698.15,379.8 -863.15,742.8 -180.24,396.3 -175.55,882.6 12.54,1300.8 42.85,94.2 100.31,178.5 171.01,251.1 22.89,26.2 56.41,42.8 93.79,42.8 68.95,0 124.81,-55.2 124.81,-124.2 0,-32.8 -12.97,-65.6 -36.1,-89 -52.3,-52.8 -94.72,-114.6 -126.13,-183.5 -158.87,-353.3 -163.71,-762.7 -12.74,-1094.7 135.32,-297.7 382.47,-508.3 714.77,-609.2 4,-1.2 8.1,-2.7 12,-4.3 L 18770,11857.5 c 639.7,-268.7 1387,-107.9 1859.5,400.1 l 7359.8,7912.8 c 46.9,50.5 125.9,53.3 176.4,6.4 50.4,-46.9 53.3,-125.9 6.4,-176.4 l -7359.9,-7912.7 c -368,-395.8 -881.1,-608.4 -1402.5,-608.4"
         style="fill:#380076;fill-opacity:1;fill-rule:nonzero;stroke:none"
         id="path33" />
      <path
         d="m 27587.6,20077.9 c -120.6,0 -218.4,97.7 -218.4,218.3 V 22550 c 0,120.6 97.8,218.3 218.4,218.3 120.6,0 218.4,-97.7 218.4,-218.3 v -2253.8 c 0,-120.6 -97.8,-218.3 -218.4,-218.3"
         style="fill:#380076;fill-opacity:1;fill-rule:nonzero;stroke:none"
         id="path35" />
      <path
         d="m 19610.4,12070.6 c -120.6,0 -218.4,97.8 -218.4,218.4 v 1712.2 c 0,120.6 97.8,218.3 218.4,218.3 120.6,0 218.4,-97.7 218.4,-218.3 V 12289 c 0,-120.6 -97.8,-218.4 -218.4,-218.4"
         style="fill:#380076;fill-opacity:1;fill-rule:nonzero;stroke:none"
         id="path37" />
      <path
         d="m 19571.1,14218.3 c -106.8,0 -214.6,20.1 -317.6,61.7 l -6338.1,2553.8 c 699.2,-130.5 1401.3,-196.2 2105.7,-196.2 439,0 879.5,25.5 1320.6,76.7 l 2476.9,-1011.7 c 219.4,-89.5 450.1,-132.8 679.1,-132.8 496.9,0 985.9,203.9 1334.2,582.1 l 5850.9,6360.4 c 326.4,325.5 652.7,664 980.2,1017.1 l 81.8,-28.6 c 13.4,-4.7 26.5,-9.8 39.4,-15.2 6.7,-17.3 12.5,-35.1 17.3,-53.5 39.7,-151.4 3,-305.7 -100.7,-423.4 l -276.1,-313.3 c -0.7,-0.8 -1.3,-1.5 -2,-2.3 l -4275,-4852.1 c -28.7,2.3 -57.4,3.4 -86.1,3.4 -219.9,0 -438.5,-65.9 -623.9,-193.9 -0.2,-0.2 -0.5,-0.4 -0.8,-0.6 -0.2,-0.2 -0.4,-0.3 -0.7,-0.5 -41.4,-28.7 -81,-60.4 -118.7,-95.3 -0.1,0 -0.1,0 -0.2,-0.1 -0.2,-0.2 -0.3,-0.4 -0.6,-0.5 -40.3,-37.4 -78.4,-78.4 -113.8,-122.8 -122.7,-154.1 -197.2,-331.2 -225.6,-512.9 -20.5,-131.2 -16.9,-264.8 9.9,-394 l -1777.5,-2017.5 c -154.3,-175.3 -370.2,-275.1 -594,-286.8 -1.7,0 -3.5,0 -5.3,0 -7.3,0 -14.5,-0.3 -21.6,-1 -5.9,-0.1 -11.8,-0.2 -17.7,-0.2"
         style="fill:#1170b2;fill-opacity:1;fill-rule:nonzero;stroke:none"
         id="path39" />
      <path
         d="m 27784.2,23485.6 c -12.9,5.4 -26,10.5 -39.4,15.2 l -81.8,28.6 c 20.1,21.7 40.4,43.6 60.4,65.4 24.9,-33 45.3,-69.6 60.8,-109.2"
         style="fill:#7c97c8;fill-opacity:1;fill-rule:nonzero;stroke:none"
         id="path41" />
      <path
         d="m 19392,14001.3 c -23.9,1 -46.8,3 -68.6,5.8 l -127.8,70.5 c -9.6,-10.6 -19.4,-21 -29.5,-31.2 -113.7,43.4 -171,102.2 -171,102.2 l -8334.9,3333.7 c 749,-291.3 1500.2,-507.6 2255.2,-648.5 L 19253.5,14280 c 103,-41.6 210.8,-61.7 317.6,-61.7 5.9,0 11.8,0.1 17.7,0.2 -110.4,-10.8 -196.7,-103.9 -196.8,-217.2 m 421.3,80.8 c -31.6,79 -107.9,135.2 -197.6,137.4 223.8,11.7 439.7,111.5 594,286.8 l 1777.5,2017.5 c 17.1,-82.4 43.7,-163 79.6,-240 -534.8,-607 -970.3,-1101.4 -1220.8,-1385.7 -412.7,-468.4 -757.2,-706.4 -1032.7,-816 m -9153.1,3400.2 c -82.1,31.9 -164.6,64.9 -246.7,98.7 l 246.7,-98.7 m 12735.6,309.9 c -81.1,26 -164.4,42.2 -248.1,48.8 l 4275,4852.1 c -33.3,-38.3 -53.5,-88.4 -53.5,-143.1 v -247.9 c -736.4,-835.9 -2454.3,-2785.7 -3973.4,-4509.9 m 4028.9,4903.2 276.1,313.3 c 103.7,117.7 140.4,272 100.7,423.4 -4.8,18.4 -10.6,36.2 -17.3,53.5 -15.5,39.6 -35.9,76.2 -60.8,109.2 34.4,37.1 69,74.8 103.4,112.3 l 208.3,-478.3 -298.9,-510.1 c 0,0 -1.4,-1.7 -4.2,-4.9 -38.5,34 -89,54.5 -144.4,54.5 -64.7,0 -122.9,-28.1 -162.9,-72.9"
         style="fill:#380076;fill-opacity:1;fill-rule:nonzero;stroke:none"
         id="path43" />
      <path
         d="m 27369.2,22302.1 v 247.9 c 0,54.7 20.2,104.8 53.5,143.1 0.7,0.8 1.3,1.5 2,2.3 40,44.8 98.2,72.9 162.9,72.9 55.4,0 105.9,-20.5 144.4,-54.5 -24.5,-27.8 -154.4,-175.2 -362.8,-411.7"
         style="fill:#380076;fill-opacity:1;fill-rule:nonzero;stroke:none"
         id="path45" />
      <path
         d="m 19424.3,14000.7 c -11,0 -21.7,0.2 -32.3,0.6 0.1,113.3 86.4,206.4 196.8,217.2 7.1,0.7 14.3,1 21.6,1 1.8,0 3.6,0 5.3,0 89.7,-2.2 166,-58.4 197.6,-137.4 -150.3,-59.8 -279.9,-81.4 -389,-81.4"
         style="fill:#380076;fill-opacity:1;fill-rule:nonzero;stroke:none"
         id="path47" />
      <path
         d="m 19828.8,12453.9 v 1353.8 c 268.6,54.8 519.2,194.8 708.6,409.9 l 1647.5,1869.8 c 34.8,-46 73.5,-89.7 116.3,-130.7 24.3,-23.3 49.8,-45.6 76.6,-66.9 l 471.2,-375.1 -2605.5,-2805.5 c -114.7,-123.6 -259,-210 -414.7,-255.3 m 4517,4672.5 -601.9,479.2 c -44.4,35.4 -90.7,66.8 -138.5,94.2 l 3763.8,4271.9 V 20382 l -3023.4,-3255.6"
         style="fill:#c3b2d6;fill-opacity:1;fill-rule:nonzero;stroke:none"
         id="path49" />
      <path
         d="m 19828.8,12380.4 v 73.5 c 155.7,45.3 300,131.7 414.7,255.3 l 2605.5,2805.5 100.4,-80 -2734.7,-2948.1 -385.9,-106.2 m 0,1427.3 v 109.7 l 417.1,181 1871.8,2089.1 c 20.4,-34.3 42.8,-67.8 67.2,-100.1 l -1647.5,-1869.8 c -189.4,-215.1 -440,-355.1 -708.6,-409.9 m 4616.4,3239.6 -99.4,79.1 3023.4,3255.6 v -85.8 c 0,-28.3 5.4,-55.4 15.3,-80.3 l -2939.3,-3168.6 m -839.8,652.5 c -29.8,17 -60.2,32.6 -91,46.6 l 3854.8,4302.5 v -77.2 l -3763.8,-4271.9"
         style="fill:#380076;fill-opacity:1;fill-rule:nonzero;stroke:none"
         id="path51" />
      <path
         d="m 27384.5,20215.9 c -9.9,24.9 -15.3,52 -15.3,80.3 v 1752.7 l 41.6,46.4 v -1851 l -26.3,-28.4"
         style="fill:#380076;fill-opacity:1;fill-rule:nonzero;stroke:none"
         id="path53" />
      <path
         d="m 19798.7,12372.2 -104,114.4 v 1372.6 l 134.1,58.2 v -1537 l -30.1,-8.2"
         style="fill:#380076;fill-opacity:1;fill-rule:nonzero;stroke:none"
         id="path55" />
      <path
         d="m 19539.4,10999.2 c 263,131.5 377.9,345.3 419.3,560.1 320.2,95.1 616.9,273.9 853.5,528.4 l 2698,2900.6 152.6,-121.5 -3152.2,-3426.7 c -254.6,-276.5 -608.5,-430.2 -971.2,-440.9 m 437.8,828.5 c -3,75.8 -11.9,146.6 -22.7,208.3 228.7,67.2 440.5,194.4 609,376 l 2628.2,2829.9 122.6,-97.7 -2684.8,-2886.6 c -183.5,-197.2 -408.4,-342.1 -652.3,-429.9 m 5174.2,4657.4 -143.1,113.9 2933.1,3153.4 v -169.9 c 0,-41.4 -15.6,-81.3 -43.4,-111.7 l -2746.6,-2985.7 m -338.9,269.8 -124,98.7 2970.8,3198.9 157.9,-40.3 c 6.6,-1.7 13,-3.7 19.2,-6.1 l -3023.9,-3251.2"
         style="fill:#1170b2;fill-opacity:1;fill-rule:nonzero;stroke:none"
         id="path57" />
      <path
         d="m 19501.9,10779.4 c -178.3,0 -357.9,30 -531.6,91.6 241,10 426.7,57 569.1,128.2 362.7,10.7 716.6,164.4 971.2,440.9 l 3152.2,3426.7 171.3,-136.4 -3162.9,-3438.3 c -307.2,-333.8 -733.9,-512.7 -1169.3,-512.7 m 452.6,1256.6 c -18.1,102.6 -41.6,179.9 -52,211.4 -3.1,10 -5,15.6 -5,15.6 l 119.2,26.2 295.7,184.1 313.3,195.2 2440,2673.7 126,-100.3 -2628.2,-2829.9 c -168.5,-181.6 -380.3,-308.8 -609,-376 m 5368.2,4312.7 -171.3,136.4 2746.6,2985.7 c 27.8,30.4 43.4,70.3 43.4,111.7 v 169.9 l 200.6,215.7 c 11.6,-36.7 17.8,-75.5 17.8,-115.5 v -270.1 c 0,-96.1 -36.2,-188.5 -101.1,-259.6 l -2736,-2974.2 m -634.2,504.9 -141,112.2 2892.6,3169.5 c 38.8,-35.7 90.6,-57.4 147.5,-57.4 101.9,0 187.6,69.8 211.6,164.2 l 71.7,-18.2 c 43.3,-11 83.3,-29.1 118.9,-53 -0.2,-0.1 -0.3,-0.3 -0.5,-0.5 l -152.9,-164.3 c -6.2,2.4 -12.6,4.4 -19.2,6.1 l -157.9,40.3 -2970.8,-3198.9"
         style="fill:#380076;fill-opacity:1;fill-rule:nonzero;stroke:none"
         id="path59" />
      <path
         d="m 19958.7,11559.3 c 17.6,91.4 21.8,183 18.5,268.4 243.9,87.8 468.8,232.7 652.3,429.9 l 2684.8,2886.6 195.9,-155.9 -2698,-2900.6 c -236.6,-254.5 -533.3,-433.3 -853.5,-528.4 m 5049.6,5039.7 -195.8,155.9 3023.9,3251.2 152.9,164.3 c 0.2,0.2 0.3,0.4 0.5,0.5 72,-48.2 125.9,-119.9 152.2,-202.8 l -200.6,-215.7 -2933.1,-3153.4"
         style="fill:#380076;fill-opacity:1;fill-rule:nonzero;stroke:none"
         id="path61" />
      <path
         d="m 27587.6,20077.9 c -56.9,0 -108.7,21.7 -147.5,57.4 l 101.3,111 106.7,34.3 151.1,-38.5 c -24,-94.4 -109.7,-164.2 -211.6,-164.2"
         style="fill:#380076;fill-opacity:1;fill-rule:nonzero;stroke:none"
         id="path63" />
      <path
         d="m 19392,12434.5 c -58,11.5 -115.4,28.8 -171.4,52.1 l -4361.7,1810.2 c 1178.1,-369.6 2258.4,-638.3 3079.2,-638.2 435.6,0 798.1,75.7 1063.2,252.1 l 88.8,-35.8 c 98.5,-39.7 199.9,-66.5 301.9,-80.8 v -1359.6"
         style="fill:#c3b2d6;fill-opacity:1;fill-rule:nonzero;stroke:none"
         id="path65" />
      <path
         d="m 19392,12317.1 -508.4,169.5 -2215,967.1 -4945.3,1908.1 c 1048.9,-358.8 2127.9,-748.8 3135.6,-1065 l 4361.7,-1810.2 c 56,-23.3 113.4,-40.6 171.4,-52.1 v -117.4 m 0,1477 c -102,14.3 -203.4,41.1 -301.9,80.8 l -88.8,35.8 c 60,40 115.1,85.1 164.8,135.7 44,-16.9 96.5,-31.4 157.3,-39.3 l 68.6,-37.8 v -175.2"
         style="fill:#380076;fill-opacity:1;fill-rule:nonzero;stroke:none"
         id="path67" />
      <path
         d="m 19476.4,12289 -84.4,28.1 v 1652.2 l 105.2,-58.1 113.2,-1424.6 -134,-197.6"
         style="fill:#380076;fill-opacity:1;fill-rule:nonzero;stroke:none"
         id="path69" />
      <path
         d="m 19323.4,14007.1 c -60.8,7.9 -113.3,22.4 -157.3,39.3 10.1,10.2 19.9,20.6 29.5,31.2 l 127.8,-70.5"
         style="fill:#380076;fill-opacity:1;fill-rule:nonzero;stroke:none"
         id="path71" />
      <path
         d="m 27587.6,25303.9 v 2253.7 l -7284.7,-8260.7 c 0,0 -321.8,-415.6 -1239.7,-168 l -8353.8,3365.9 c -1208.31,422.5 -1362.6,-1084.4 -144.5,-1642.9 l 8665.4,-3593.3 c 0,0 617.7,-288.5 1312.2,459.3 694.5,747.9 7045.1,7586 7045.1,7586"
         style="fill:#ffffff;fill-opacity:1;fill-rule:nonzero;stroke:none"
         id="path73" />
      <path
         d="m 28159.8,24860.3 v -270.2 c 0,-96.1 -36.2,-188.4 -101.1,-259.6 l -7387.5,-8030.7 c -433,-470.5 -1103.1,-633.3 -1700.9,-421.2 h -0.6 c -23.1,8.1 -46.2,16.9 -68.6,26.2 l -9042.19,3693.1 c -543.44,222.2 -982.07,651.4 -1192.97,1199.9 -63.64,164.7 -111.06,336.9 -142.27,512.2 -157.22,874.2 129.81,1769.6 736.88,2417.8 l 7494.75,8008.9 c 433.7,464.2 1100.7,628.4 1700.9,418.1 l 9122,-3189 c 456.8,-159.7 606.5,-730.6 286.4,-1093.7 l -7491,-8502.5 c -299.5,-340.1 -781.2,-454.2 -1201.7,-284.5 l -8568,3452.2 c -101.1,40.6 -205.9,59.9 -309.5,59.9 -361.86,-0.6 -628.27,-335.6 -570.88,-693.2 56.75,-352.5 265.82,-823.6 934.68,-1092.5 l 8478.7,-3519 c 249,-103.6 519.2,-112.3 765.6,-37.4 38.7,11.8 76.8,25.5 114.2,41.8 106.1,44.9 206.5,106.6 295.7,184 31.9,26.8 62.4,56.2 91.1,87.4 l 7137.9,7685.7 46.2,49.9 60.5,-15.6 222.8,-56.8 c 169.7,-43 288.9,-195.9 288.9,-371.2"
         style="fill:#00ce83;fill-opacity:1;fill-rule:nonzero;stroke:none"
         id="path75" />
      <path
         d="m 8701.48,21868.4 c 21.18,622.1 273.87,1235.4 718.56,1710.2 l 7494.86,8009.1 c 266.2,284.9 634.6,438.9 1011.5,438.9 153.3,0 308,-25.5 457.8,-78 l 9121.9,-3188.9 c 89.1,-31.2 163.5,-85.7 217.3,-157.3 -20,-21.7 -40.3,-43.7 -60.4,-65.3 l -9040.2,3160.3 c -173.5,60.8 -352.7,90.3 -530.1,90.3 -436.3,0 -862.5,-178.3 -1170.8,-508.3 L 9427.15,23270.5 c -370.55,-395.7 -621.84,-883.4 -725.67,-1402.1"
         style="fill:#99ebcd;fill-opacity:1;fill-rule:nonzero;stroke:none"
         id="path77" />
      <path
         d="m 17926.4,32026.6 c -376.9,0 -745.3,-154 -1011.5,-438.9 L 9420.04,23578.6 c -568.67,-607.2 -823.36,-1440.8 -681.41,-2229.9 29.14,-163.8 73.21,-322.6 131.02,-472.2 185.12,-481.4 575.74,-873.6 1071.87,-1076.4 L 18983.7,16107 c 527.3,-215.2 1141,-78.3 1526.9,340.7 l 7387.4,8030.7 c 27.8,30.5 43.4,70.4 43.4,111.7 v 270.2 c 0,75.4 -51.1,141 -124.2,159.6 l -157.9,40.3 -7095.8,-7640.5 c -383.1,-412.9 -990.1,-545 -1510.3,-328.9 l -8478.7,3519 c -763.21,306.5 -1001.61,854.3 -1066.8,1259.8 -38.48,239.3 29.14,482 185.5,665.9 150.9,177.4 369.8,279.5 600.6,280 h 2.2 c 134.1,0 265.2,-25.5 389.6,-75.7 l 8567.9,-3452.2 c 334,-134.8 718.3,-43.9 956.2,226.3 l 7491.1,8502.5 c 103.7,117.6 140.4,271.9 100.7,423.4 -39.6,151.5 -147.3,268.1 -295.4,319.9 l -9121.9,3188.9 c -149.8,52.5 -304.5,78 -457.8,78 m 1571.3,-16456.8 c -229,0 -459.7,43.3 -679.1,132.8 l -9042.27,3693.2 c -607.19,248.2 -1086.17,730.6 -1314.22,1323.6 -67.77,175.4 -119.41,361.4 -153.44,552.4 -166.17,923.8 130.08,1897.9 792.5,2605.3 L 16595.9,31886 c 492.5,527.1 1251,713.5 1932.5,474.9 L 27650.3,29172 c 283.3,-99.1 497.8,-331.5 573.7,-621.7 76,-290 2.9,-597.6 -195.5,-822.7 l -7491.1,-8502.4 c -360.1,-408.9 -941.7,-546.7 -1447.2,-342.7 l -8567.9,3452.3 c -72.3,29.2 -148.4,43.9 -226.3,43.9 h -1.3 c -104.3,-0.2 -199.8,-45 -268.8,-126.2 -73.44,-86.3 -105.12,-200.6 -86.99,-313.6 68.79,-427.9 338.19,-739 800.69,-924.8 l 8481,-3519.9 c 352.4,-146.4 763.5,-56.9 1022.9,222.6 l 7184.1,7735.7 c 54.5,58.6 136.7,82.8 214.1,63 l 283.2,-72.4 c 266.7,-67.7 453.2,-307.4 453.2,-582.8 v -270.2 c 0,-150.5 -56.1,-295 -158.1,-406.7 l -7388.1,-8031.5 c -348.3,-378.2 -837.3,-582.1 -1334.2,-582.1"
         style="fill:#380076;fill-opacity:1;fill-rule:nonzero;stroke:none"
         id="path79" />
      <path
         d="m 19409.7,16487 c -248.5,0 -498.8,48.2 -736.3,148 l -8364.7,3513.1 c -399.75,123.1 -698.15,379.8 -863.19,742.7 -180.2,396.3 -175.51,882.6 12.58,1300.9 42.85,94.1 100.27,178.3 171.01,251 22.85,26.2 56.41,42.9 93.79,42.9 68.95,0 124.81,-55.3 124.81,-124.2 0,-32.9 -12.97,-65.7 -36.1,-89.1 -52.3,-52.8 -94.72,-114.5 -126.13,-183.5 -158.87,-353.2 -163.71,-762.7 -12.77,-1094.7 135.35,-297.6 382.5,-508.3 714.8,-609.1 4.1,-1.3 8.1,-2.7 12,-4.4 L 18770,16865.1 c 639.7,-268.6 1387,-107.8 1859.5,400.2 l 7359.8,7912.8 c 46.9,50.5 125.9,53.3 176.4,6.4 50.4,-47 53.3,-125.9 6.4,-176.4 l -7359.9,-7912.8 c -368,-395.7 -881.1,-608.3 -1402.5,-608.3"
         style="fill:#380076;fill-opacity:1;fill-rule:nonzero;stroke:none"
         id="path81" />
      <path
         d="m 27587.6,25085.5 c -120.6,0 -218.4,97.8 -218.4,218.4 v 2253.7 c 0,120.6 97.8,218.4 218.4,218.4 120.6,0 218.4,-97.8 218.4,-218.4 v -2253.7 c 0,-120.6 -97.8,-218.4 -218.4,-218.4"
         style="fill:#380076;fill-opacity:1;fill-rule:nonzero;stroke:none"
         id="path83" />
      <path
         d="m 19610.4,17078.3 c -120.6,0 -218.4,97.7 -218.4,218.3 v 1712.2 c 0,120.6 97.8,218.4 218.4,218.4 120.6,0 218.4,-97.8 218.4,-218.4 v -1712.2 c 0,-120.6 -97.8,-218.3 -218.4,-218.3"
         style="fill:#380076;fill-opacity:1;fill-rule:nonzero;stroke:none"
         id="path85" />
      <path
         d="m 19571.1,19225.9 c -106.8,0 -214.6,20.1 -317.6,61.7 l -6338.2,2553.8 c 699.2,-130.5 1401.4,-196.2 2105.8,-196.2 4121.6,0.1 8333.2,2246.2 12641.9,6891.9 l 81.8,-28.6 c 13.4,-4.8 26.5,-9.8 39.4,-15.2 6.7,-17.3 12.5,-35.2 17.3,-53.5 39.7,-151.5 3,-305.8 -100.7,-423.4 l -7491.1,-8502.5 c -154.2,-175.1 -369.8,-274.9 -593.4,-286.8 -2,0.1 -3.9,0.1 -5.9,0.1 -7.5,0 -14.9,-0.4 -22.2,-1.1 -5.7,-0.1 -11.4,-0.2 -17.1,-0.2"
         style="fill:#11907f;fill-opacity:1;fill-rule:nonzero;stroke:none"
         id="path87" />
      <path
         d="m 27784.2,28493.3 c -12.9,5.4 -26,10.4 -39.4,15.2 l -81.8,28.6 c 20.1,21.6 40.4,43.6 60.4,65.3 24.9,-33 45.3,-69.6 60.8,-109.1"
         style="fill:#7ca4b3;fill-opacity:1;fill-rule:nonzero;stroke:none"
         id="path89" />
      <path
         d="m 19392,19009 c -23.9,0.9 -46.8,2.9 -68.6,5.8 l -127.8,70.5 c -9.6,-10.7 -19.4,-21.1 -29.5,-31.3 -113.7,43.5 -171,102.3 -171,102.3 l -8334.9,3333.6 c 748.9,-291.2 1500.1,-507.5 2255.1,-648.5 l 6338.2,-2553.8 c 103,-41.6 210.8,-61.7 317.6,-61.7 5.7,0 11.4,0.1 17.1,0.2 -110.1,-11.1 -196.1,-104.1 -196.2,-217.1 m 421.3,80.7 c -31.5,78.8 -107.5,135 -197,137.4 223.6,11.9 439.2,111.7 593.4,286.8 l 7491.1,8502.5 c 103.7,117.6 140.4,271.9 100.7,423.4 -4.8,18.3 -10.6,36.2 -17.3,53.5 -15.5,39.5 -35.9,76.1 -60.8,109.1 34.4,37.2 69,74.9 103.4,112.4 l 208.3,-478.4 -298.9,-510.1 c 0,0 -1.4,-1.6 -4.2,-4.8 -38.5,33.9 -89,54.5 -144.4,54.5 -120.6,0 -218.4,-97.8 -218.4,-218.4 v -247.8 c -1274.1,-1446.2 -5486.1,-6226.8 -6523.2,-7404 -412.7,-468.4 -757.2,-706.4 -1032.7,-816.1 m -9153.1,3400.2 c -82.2,32 -164.6,65 -246.7,98.7 l 246.7,-98.7"
         style="fill:#380076;fill-opacity:1;fill-rule:nonzero;stroke:none"
         id="path91" />
      <path
         d="m 27369.2,27309.8 v 247.8 c 0,120.6 97.8,218.4 218.4,218.4 55.4,0 105.9,-20.6 144.4,-54.5 -24.5,-27.8 -154.4,-175.3 -362.8,-411.7"
         style="fill:#380076;fill-opacity:1;fill-rule:nonzero;stroke:none"
         id="path93" />
      <path
         d="m 19424.3,19008.3 c -11,0 -21.7,0.2 -32.3,0.7 0.1,113 86.1,206 196.2,217.1 7.3,0.7 14.7,1.1 22.2,1.1 2,0 3.9,0 5.9,-0.1 89.5,-2.4 165.5,-58.6 197,-137.4 -150.3,-59.8 -280,-81.4 -389,-81.4"
         style="fill:#380076;fill-opacity:1;fill-rule:nonzero;stroke:none"
         id="path95" />
      <path
         d="m 19828.8,17461.5 v 1353.8 c 268.6,54.8 519.2,194.8 708.6,409.9 l 6831.8,7754.2 v -1589.8 l -7125.7,-7672.8 c -114.7,-123.6 -259,-210 -414.7,-255.3"
         style="fill:#c3b2d6;fill-opacity:1;fill-rule:nonzero;stroke:none"
         id="path97" />
      <path
         d="m 19828.8,17388.1 v 73.4 c 155.7,45.3 300,131.7 414.7,255.3 l 7125.7,7672.8 v -85.7 c 0,-28.4 5.4,-55.5 15.3,-80.4 l -7169.8,-7729.3 -385.9,-106.1 m 0,1427.2 v 109.8 l 417.1,181 7123.3,7950.4 v -77.1 l -6831.8,-7754.2 c -189.4,-215.1 -440,-355.1 -708.6,-409.9"
         style="fill:#380076;fill-opacity:1;fill-rule:nonzero;stroke:none"
         id="path99" />
      <path
         d="m 27384.5,25223.5 c -9.9,24.9 -15.3,52 -15.3,80.4 v 1752.6 l 41.6,46.4 v -1851 l -26.3,-28.4"
         style="fill:#380076;fill-opacity:1;fill-rule:nonzero;stroke:none"
         id="path101" />
      <path
         d="m 19798.7,17379.8 -104,114.4 v 1372.7 l 134.1,58.2 v -1537 l -30.1,-8.3"
         style="fill:#380076;fill-opacity:1;fill-rule:nonzero;stroke:none"
         id="path103" />
      <path
         d="m 19539.5,16006.9 c 263,131.5 377.8,345.3 419.2,560 320.2,95.2 616.9,274 853.5,528.4 l 7129.2,7664.8 v -170 c 0,-41.3 -15.6,-81.2 -43.4,-111.7 l -7387.4,-8030.7 c -254.7,-276.5 -608.4,-430.1 -971.1,-440.8 m 437.7,828.5 c -3,75.6 -11.9,146.5 -22.7,208.2 228.7,67.2 440.5,194.5 609,376.1 l 7095.8,7640.5 157.9,-40.3 c 6.6,-1.7 13,-3.8 19.2,-6.2 l -7206.9,-7748.4 c -183.5,-197.3 -408.4,-342.2 -652.3,-429.9"
         style="fill:#11907f;fill-opacity:1;fill-rule:nonzero;stroke:none"
         id="path105" />
      <path
         d="m 19501.9,15787 c -178.3,0 -357.9,30 -531.6,91.6 241,10 426.8,57.1 569.2,128.3 362.7,10.7 716.4,164.3 971.1,440.8 l 7387.4,8030.7 c 27.8,30.5 43.4,70.4 43.4,111.7 v 170 l 200.6,215.6 c 11.5,-36.6 17.8,-75.4 17.8,-115.4 v -270.2 c 0,-96.1 -36.2,-188.4 -101.1,-259.6 L 20671.2,16299.8 C 20364,15966 19937.3,15787 19501.9,15787 m 452.6,1256.6 c -18.1,102.7 -41.6,179.9 -52,211.5 -3.1,9.9 -5,15.5 -5,15.5 l 119.2,26.3 295.7,184 313.3,195.3 6814.4,7466.7 c 38.8,-35.6 90.6,-57.4 147.5,-57.4 101.9,0 187.6,69.9 211.6,164.3 l 71.7,-18.3 c 43.3,-11 83.3,-29.1 118.9,-52.9 -0.2,-0.2 -0.3,-0.3 -0.5,-0.5 l -152.9,-164.4 c -6.2,2.4 -12.6,4.5 -19.2,6.2 l -157.9,40.3 -7095.8,-7640.5 c -168.5,-181.6 -380.3,-308.9 -609,-376.1"
         style="fill:#380076;fill-opacity:1;fill-rule:nonzero;stroke:none"
         id="path107" />
      <path
         d="m 19958.7,16566.9 c 17.6,91.4 21.8,183 18.5,268.5 243.9,87.7 468.8,232.6 652.3,429.9 l 7206.9,7748.4 152.9,164.4 c 0.2,0.2 0.3,0.3 0.5,0.5 72,-48.3 125.9,-119.9 152.2,-202.9 l -200.6,-215.6 -7129.2,-7664.8 c -236.6,-254.4 -533.3,-433.2 -853.5,-528.4"
         style="fill:#380076;fill-opacity:1;fill-rule:nonzero;stroke:none"
         id="path109" />
      <path
         d="m 27587.6,25085.5 c -56.9,0 -108.7,21.8 -147.5,57.4 l 101.3,111.1 106.7,34.3 151.1,-38.5 c -24,-94.4 -109.7,-164.3 -211.6,-164.3"
         style="fill:#380076;fill-opacity:1;fill-rule:nonzero;stroke:none"
         id="path111" />
      <path
         d="m 19392,17442.1 c -58,11.6 -115.4,28.9 -171.4,52.1 l -4361.8,1810.3 c 1178.1,-369.6 2258.5,-638.3 3079.3,-638.3 435.6,0 798.1,75.7 1063.2,252.2 l 88.9,-35.9 c 98.4,-39.7 199.8,-66.5 301.8,-80.8 v -1359.6"
         style="fill:#c3b2d6;fill-opacity:1;fill-rule:nonzero;stroke:none"
         id="path113" />
      <path
         d="m 19392,17324.8 -508.4,169.4 -2215,967.1 -4945.3,1908.1 c 1048.9,-358.8 2127.9,-748.7 3135.5,-1064.9 l 4361.8,-1810.3 c 56,-23.2 113.4,-40.5 171.4,-52.1 v -117.3 m 0,1476.9 c -102,14.3 -203.4,41.1 -301.8,80.8 l -88.9,35.9 c 60,39.9 115.1,85 164.8,135.6 44,-16.8 96.5,-31.3 157.3,-39.2 l 68.6,-37.9 v -175.2"
         style="fill:#380076;fill-opacity:1;fill-rule:nonzero;stroke:none"
         id="path115" />
      <path
         d="m 19476.4,17296.6 -84.4,28.2 v 1652.1 l 105.2,-58 113.2,-1424.7 -134,-197.6"
         style="fill:#380076;fill-opacity:1;fill-rule:nonzero;stroke:none"
         id="path117" />
      <path
         d="m 19323.4,19014.8 c -60.8,7.9 -113.3,22.4 -157.3,39.2 10.1,10.2 19.9,20.6 29.5,31.3 l 127.8,-70.5"
         style="fill:#380076;fill-opacity:1;fill-rule:nonzero;stroke:none"
         id="path119" />
      <path
         d="m 26315.7,13059.4 c -239.8,0 -480.9,78.1 -682.4,238.7 l -3255.5,2591.7 c -473.8,377.2 -552.1,1067.1 -174.9,1540.9 377.2,473.9 1067.1,552.2 1541,174.9 l 2425.9,-1931.3 5535.2,6490.6 c 392.9,460.8 1085.2,515.8 1546,122.9 460.8,-393.1 515.8,-1085.2 122.8,-1546 l -6223.1,-7297.4 c -216.5,-253.8 -524.6,-385 -835,-385"
         style="fill:#00ce83;fill-opacity:1;fill-rule:nonzero;stroke:none"
         id="path121" />
      <path
         d="m 26315.9,13059.4 h -0.1 c 270.3,0 538.9,99.6 746.7,292.9 -207.7,-193.5 -476.5,-292.9 -746.6,-292.9 m -79.8,2.8 c -163.8,11.9 -325.9,60.3 -473.3,147 147.6,-86.6 309.7,-135.1 473.3,-147"
         style="fill:#c275cd;fill-opacity:1;fill-rule:nonzero;stroke:none"
         id="path123" />
      <path
         d="m 33277,20628.2 96.8,113.6 c 288.8,338.6 335.7,802.2 157.3,1180.2 178.6,-378 131.7,-841.6 -157.2,-1180.1 l -96.9,-113.7"
         style="fill:#c3b2d6;fill-opacity:1;fill-rule:nonzero;stroke:none"
         id="path125" />
      <path
         d="m 26315.8,13059.4 c -26.6,0 -53.2,0.9 -79.7,2.8 -163.6,11.9 -325.7,60.4 -473.3,147 -41.8,24.5 -82.4,52.1 -121.5,82.8 37.2,-29.2 75.4,-55.2 114.7,-78.5 l -294.3,234.3 c 61.1,-10.7 122.3,-15.6 184,-15.6 310.1,0 618.4,131 834.7,385 l 6223.4,7297.5 c 289,338.8 336,803 156.6,1181.1 5,0.1 10,0.2 15,0.2 164,0 328.5,-36.6 480.3,-110.8 -13.4,15.1 -27.3,29.9 -41.8,44.4 91.9,-91.4 164.4,-195.7 217.2,-307.6 178.4,-378 131.5,-841.6 -157.3,-1180.2 l -96.8,-113.6 -6126.5,-7183.8 c -27.8,-32.7 -57.2,-63.4 -88,-92.1 -207.8,-193.3 -476.4,-292.9 -746.7,-292.9 m -674.9,232.9 c -0.3,0.3 -0.6,0.5 -0.9,0.7 0.3,-0.2 0.6,-0.4 0.9,-0.7 m -2.4,1.9 c -0.1,0.1 -0.3,0.3 -0.5,0.4 0.2,-0.1 0.3,-0.2 0.5,-0.4 m -2.4,1.9 c -0.1,0.1 -0.2,0.2 -0.3,0.3 0.1,-0.1 0.2,-0.2 0.3,-0.3 m -2.6,2.1 -193.1,153.5 c 0.1,0 0.2,0 0.4,-0.1 l 192.7,-153.4 m 7663,8948.3 c -14.7,14 -30,27.7 -45.6,41 -0.7,0.6 -1.4,1.2 -2,1.7 0.7,-0.5 1.3,-1.1 2,-1.7 15.7,-13.3 30.8,-27 45.6,-41 m -49.3,44.2 c -0.1,0 -0.1,0.1 -0.1,0.1 0,0 0,-0.1 0.1,-0.1"
         style="fill:#11907f;fill-opacity:1;fill-rule:nonzero;stroke:none"
         id="path127" />
      <path
         d="m 22117.7,16187.5 c -18.7,31.4 -35.6,63.5 -50.9,96.3 l 0.1,0.1 c 15.2,-32.8 32.2,-65 50.8,-96.3 v -0.1"
         style="fill:#af99c8;fill-opacity:1;fill-rule:nonzero;stroke:none"
         id="path129" />
      <path
         d="m 21987.2,16523.8 c -26.8,129.2 -30.4,262.8 -9.9,394 -20.5,-131.2 -16.9,-264.8 10,-393.9 l -0.1,-0.1"
         style="fill:#a0c6e0;fill-opacity:1;fill-rule:nonzero;stroke:none"
         id="path131" />
      <path
         d="m 22066.8,16283.8 c -35.9,77 -62.5,157.6 -79.6,240 l 0.1,0.1 c 17.1,-82.4 43.7,-163 79.6,-240 l -0.1,-0.1"
         style="fill:#af99c8;fill-opacity:1;fill-rule:nonzero;stroke:none"
         id="path133" />
      <path
         d="m 22301.2,15956.7 c -42.8,41 -81.5,84.7 -116.3,130.7 v 0.1 c 34.8,-46.1 73.6,-89.9 116.3,-130.8"
         style="fill:#e7e0ef;fill-opacity:1;fill-rule:nonzero;stroke:none"
         id="path135" />
      <path
         d="m 22184.9,16087.4 c -24.4,32.3 -46.8,65.8 -67.2,100.1 v 0.1 c 20.4,-34.4 42.8,-67.8 67.2,-100.1 v -0.1"
         style="fill:#af99c8;fill-opacity:1;fill-rule:nonzero;stroke:none"
         id="path137" />
      <path
         d="m 22316.7,17553.5 c 0.3,0.1 0.4,0.3 0.6,0.5 -0.2,-0.2 -0.3,-0.4 -0.6,-0.5 m 0.8,0.6 c 37.7,34.9 77.3,66.6 118.7,95.3 -41.3,-28.7 -81.1,-60.5 -118.7,-95.3 m 119.4,95.8 c 0.3,0.2 0.6,0.4 0.8,0.6 -0.2,-0.2 -0.5,-0.4 -0.8,-0.6"
         style="fill:#a0c6e0;fill-opacity:1;fill-rule:nonzero;stroke:none"
         id="path139" />
      <path
         d="m 25641.3,13292 c -0.1,0.1 -0.3,0.2 -0.4,0.3 0.1,-0.1 0.3,-0.2 0.4,-0.3 m -1.3,1 c -0.5,0.4 -1,0.8 -1.5,1.2 0.5,-0.4 1,-0.8 1.5,-1.2 m -2,1.6 c -0.6,0.5 -1.3,1 -1.9,1.5 0.6,-0.5 1.3,-1 1.9,-1.5 m -2.2,1.8 c -0.8,0.6 -1.5,1.2 -2.3,1.8 0.8,-0.6 1.5,-1.2 2.3,-1.8 m -174.1,151.4 c -7,1.2 -14,2.5 -20.9,3.8 l -3063.1,2438.3 c -26.7,21.3 -52.2,43.6 -76.5,66.8 -42.7,40.9 -81.5,84.7 -116.3,130.8 -24.4,32.3 -46.8,65.7 -67.2,100.1 -18.6,31.3 -35.6,63.5 -50.8,96.3 -35.9,77 -62.5,157.6 -79.6,240 -26.9,129.1 -30.5,262.7 -10,393.9 28.4,181.6 102.9,358.7 225.6,512.9 35.3,44.4 73.5,85.3 113.8,122.8 0.3,0.1 0.4,0.3 0.6,0.5 0.1,0.1 0.1,0.1 0.2,0.1 37.6,34.8 77.4,66.6 118.7,95.3 0.2,0.1 0.5,0.3 0.7,0.5 0.3,0.2 0.6,0.4 0.8,0.6 185.4,128 403.9,193.8 623.7,193.8 239.5,0 480.5,-78.1 682.3,-238.8 l 210.8,-168.1 c -172.7,102.9 -365.6,153.1 -557.5,153.1 -322.6,0 -642.4,-141.9 -859,-413.9 -377.1,-473.4 -299.2,-1163.6 174.8,-1540.8 l 2748.9,-2188"
         style="fill:#99ebcd;fill-opacity:1;fill-rule:nonzero;stroke:none"
         id="path141" />
      <path
         d="m 25756,13213.5 c -39.3,23.3 -77.5,49.3 -114.7,78.5 -0.1,0.1 -0.3,0.2 -0.4,0.3 -0.3,0.3 -0.6,0.5 -0.9,0.7 -0.5,0.4 -1,0.8 -1.5,1.2 -0.2,0.2 -0.3,0.3 -0.5,0.4 -0.6,0.5 -1.3,1 -1.9,1.5 -0.1,0.1 -0.2,0.2 -0.3,0.3 -0.8,0.6 -1.5,1.2 -2.3,1.8 l -192.7,153.4 c 6.9,-1.3 13.9,-2.6 20.9,-3.8 l 294.3,-234.3"
         style="fill:#a0d3cc;fill-opacity:1;fill-rule:nonzero;stroke:none"
         id="path143" />
      <path
         d="m 26504.7,15420.2 -328.3,261.3 5528.8,6483.6 c 216.9,254.1 524.8,384.7 834.6,384.7 250.2,0 501.5,-85.1 707.3,-259 -160.7,135.7 -349.3,217.5 -543.3,246.5 63.7,-74.4 116,-155.7 156.6,-241.5 -305,-4.1 -606.8,-134.6 -820.1,-384.8 l -5535.6,-6490.8 m 6809.2,6809.4 c -5.7,5.6 -11.6,11.3 -17.4,16.9 5.9,-5.6 11.6,-11.3 17.4,-16.9 m -65,59.6 c -0.6,0.5 -1.2,1 -1.7,1.5 0.5,-0.5 1.1,-1 1.7,-1.5"
         style="fill:#99ebcd;fill-opacity:1;fill-rule:nonzero;stroke:none"
         id="path145" />
      <path
         d="m 33355.7,22185.2 c -151.8,74.2 -316.3,110.8 -480.3,110.8 -5,0 -10,-0.1 -15,-0.2 -40.6,85.8 -92.9,167.1 -156.6,241.5 194,-29 382.6,-110.8 543.3,-246.5 0,0 0,-0.1 0.1,-0.1 0.5,-0.5 1.1,-1 1.7,-1.5 0.6,-0.5 1.3,-1.1 2,-1.7 15.6,-13.3 30.9,-27 45.6,-41 5.8,-5.6 11.7,-11.3 17.4,-16.9 14.5,-14.5 28.4,-29.3 41.8,-44.4"
         style="fill:#a0d3cc;fill-opacity:1;fill-rule:nonzero;stroke:none"
         id="path147" />
      <path
         d="m 23062.6,17626.1 c -33.5,0 -67.1,-1.9 -100.8,-5.7 -233.1,-26.5 -441.9,-142.1 -588,-325.7 -146.1,-183.5 -212.1,-413 -185.6,-646.1 26.5,-233 142.1,-441.9 325.6,-588 l 3255.5,-2591.7 c 157,-125.1 346,-191.2 546.4,-191.2 257.9,0 501.7,112.4 668.8,308.4 l 6223.2,7297.4 c 152.2,178.4 225.8,405.5 207.2,639.4 -18.6,233.8 -127.1,446.5 -305.6,598.7 -178.5,152.2 -405.7,225.8 -639.5,207.2 -233.8,-18.6 -446.4,-127.1 -598.6,-305.6 L 26336,15532.6 c -76.4,-89.6 -210.1,-102.5 -302.2,-29.2 l -2425.9,1931.4 c -157,125 -347.6,191.3 -545.3,191.3 z M 26315.7,12841 c -296,0 -586.7,101.6 -818.5,286.2 l -3255.4,2591.7 c -274.8,218.8 -448,531.5 -487.6,880.5 -39.6,349 59.1,692.6 277.9,967.3 218.7,274.8 531.4,448 880.4,487.6 349.3,39.7 692.6,-59 967.4,-277.8 l 2260.8,-1799.9 5398.1,6330 c 227.9,267.2 546.3,429.8 896.4,457.6 350,28.1 690.2,-82.4 957.5,-310.3 267.3,-227.9 429.8,-546.3 457.6,-896.4 27.8,-350.2 -82.4,-690.2 -310.3,-957.4 l -6223.2,-7297.4 c -250.2,-293.4 -615.1,-461.7 -1001.1,-461.7"
         style="fill:#380076;fill-opacity:1;fill-rule:nonzero;stroke:none"
         id="path149" />
    </g>
  </g>
</svg>
