<?xml version="1.0" encoding="UTF-8" standalone="no"?>
<!-- Created with Inkscape (http://www.inkscape.org/) -->

<svg
   version="1.1"
   id="svg132"
   width="5333.3335"
   height="5333.3335"
   viewBox="0 0 5333.3335 5333.3335"
   xmlns="http://www.w3.org/2000/svg"
   xmlns:svg="http://www.w3.org/2000/svg">
  <defs
     id="defs136" />
  <g
     id="g140"
     transform="matrix(1.3333333,0,0,-1.3333333,0,5333.3333)">
    <g
       id="g142"
       transform="scale(0.1)">
      <path
         d="m 20976.9,4749.2 c -6480.8,0 -11734.64,365.1 -11734.64,815.5 0,227 1334.94,432.4 3488.74,580.2 389.9,-52.5 799,-78.9 1224.8,-78.9 419.5,0 855.2,25.7 1304.5,77.3 76.6,-232.9 342.9,-638.2 1268.5,-708 249.4,-18.8 532.6,-48.8 832.5,-80.5 668.2,-70.6 1249.4,-125.2 1712.6,-125.2 508.5,0 874.8,65.8 1057.8,248.7 153.7,153.7 184.1,374.8 85.7,622.5 -35.9,90.5 -89.5,184.3 -157,277 302.5,1.6 608,2.4 916.5,2.4 752.8,0 1488.9,-4.9 2202.2,-14.3 18,-295.6 129.4,-626.9 633.3,-730.6 316.8,-65.3 1398.4,-205.7 2393.2,-205.7 713.9,0.1 1383.1,72.4 1692.8,296.6 175.1,126.7 254.8,297.5 228.4,485.2 2788,-149.1 4584.8,-383.3 4584.8,-646.7 0,-450.4 -5253.8,-815.5 -11734.7,-815.5"
         style="opacity:0.6;fill:#cccccc;fill-opacity:1;fill-rule:nonzero;stroke:none"
         id="path146" />
      <path
         d="m 17382.9,19857.3 c 0,0 -2092.8,-985.2 -2560.6,-3675.1 -467.9,-2689.9 1520.4,-4302.9 1520.4,-4302.9 l 2368.3,7869.1 -1328.1,108.9"
         style="fill:#fae043;fill-opacity:1;fill-rule:nonzero;stroke:none"
         id="path148" />
      <path
         d="m 15493.7,13478.9 c -224.8,637 -341.3,1413.2 -185.5,2308.8 388.9,2236.3 1901,3294.4 2399.9,3587.7 83.1,-25.7 167.3,-50.9 251.9,-75.5 -372.8,-635.5 -1684.7,-2983.5 -2466.3,-5821"
         style="fill:#cfbf3a;fill-opacity:1;fill-rule:nonzero;stroke:none"
         id="path150" />
      <path
         d="m 17412.7,19706 c -266.1,-140.8 -2028,-1156.3 -2444.2,-3549.2 -366.5,-2107.7 844,-3548.6 1300.7,-4006.4 l 2246.7,7465 -1103.2,90.6 m -1070.1,-7975.1 c -33.5,0 -66.7,11.4 -93.5,33.2 -21.1,17.1 -522.8,428.6 -969.7,1182.2 -412.9,696.2 -852.8,1827.1 -603.4,3261.3 475.6,2734.6 2555.4,3742.5 2643.6,3784 23.5,11.1 49.6,15.7 75.4,13.7 l 1328.1,-109 c 44.6,-3.7 85.3,-27.3 110.5,-64.4 25.2,-37 32.4,-83.4 19.5,-126.3 l -2368.3,-7869 c -14.3,-47.4 -51.2,-84.6 -98.5,-99.1 -14.3,-4.4 -29.1,-6.6 -43.7,-6.6"
         style="fill:#213d17;fill-opacity:1;fill-rule:nonzero;stroke:none"
         id="path152" />
      <path
         d="m 18187.4,19390.8 c 0,0 -2239.5,-3588.7 -2941.2,-7689.4 0,0 -964.8,-1096.4 -2477.9,-1447.3 0,0 1140.3,1491.2 153.5,3420.9 -986.8,1929.8 -5569.93,1381.5 -4890.14,-2763 679.8,-4144.5 4034.94,-5021.7 7346.14,-4605 0,0 0,-636 1162.2,-723.7 1162.2,-87.7 3070,-416.6 3486.7,0 416.6,416.7 -570.2,1425.4 -1315.7,1447.3 0,0 482.4,526.3 855.2,1622.7 0,0 1469.2,-504.3 3201.6,-416.6 0,0 460.5,-1052.6 548.2,-1315.7 87.7,-263.2 -219.3,-986.8 526.3,-1140.3 745.6,-153.5 3333.2,-394.7 3969.1,65.8 635.9,460.5 -635.9,1315.7 -1469.2,1447.3 0,0 1096.4,1491.1 504.3,3903.3 0,0 856.4,4339.8 -818.1,7776.3 -1674.4,3436.6 -7195,1959.4 -7841,417.4"
         style="fill:#57d83d;fill-opacity:1;fill-rule:nonzero;stroke:none"
         id="path154" />
      <path
         d="m 24009.8,19651.1 c 929.5,-175.5 1670.2,-880.6 1894.7,-1799.5 305.3,-1249.8 707.6,-3436.4 437.7,-5499.6 -409.4,-3128.5 -3947.2,-3450.1 -5818.5,-1988.2 -1871.2,1461.9 -1127.8,7076.5 137.9,8538 748.2,864 2201.4,965.8 3348.2,749.3"
         style="fill:#fae043;fill-opacity:1;fill-rule:nonzero;stroke:none"
         id="path156" />
      <path
         d="m 26181.1,5726.8 c -855.9,0 -1821.5,98.9 -2308.9,199.3 -393,80.9 -411.4,329.1 -394.5,698.6 6,132.4 11.2,246.8 -20.9,343.2 -88.8,266.4 -534.1,1285 -553,1328.2 -23.6,54.1 -75.4,89.1 -135.1,89.1 -2.8,0 -5.6,-0.1 -8.4,-0.3 -134,-6.7 -266.5,-9.8 -396.9,-9.8 -1359.8,0 -2494.8,337.7 -2711.8,406.5 3,153.6 98.1,386 121,703.8 2.6,36.8 4.1,75.1 4.6,114.6 31.5,599.2 -108.1,1099 -162.3,1267.5 37.1,-41.9 283.3,-299 933.9,-523.1 690.3,-529.3 1601,-819 2497,-819 1084.3,0 2147,424.2 2771.5,1361.8 513.8,430.8 831.9,930.6 1012.3,1286.8 -58.4,-580.1 -126.3,-936 -128.7,-948.2 -4.2,-21.2 -3.7,-43.1 1.5,-64.1 121.9,-496.7 169.7,-953.8 169.5,-1365.7 -17,-133.6 -40.7,-289.8 -73.5,-455.6 -29.2,2.9 -61,4.4 -95.4,4.4 -349.5,0 -966.4,-158.8 -1775.2,-713.4 C 23776.5,7842 23930,6603 24302.8,6296 c 250.7,-206.5 1295.1,-284 2092.7,-284 388.2,0 718,18.4 869.3,49.2 291.6,59.3 424.1,185.2 482.2,270.1 11,-7.9 21.6,-15.5 31.7,-22.8 23.9,-39.8 40.9,-78.4 49.7,-115.3 14.3,-60 15.5,-139.9 -104.1,-226.5 -243.8,-176.6 -858.4,-239.9 -1543.2,-239.9"
         style="fill:#4cb935;fill-opacity:1;fill-rule:nonzero;stroke:none"
         id="path158" />
      <path
         d="m 23045.8,9525.4 c -896,0 -1806.7,289.7 -2497,819 537.5,-185.1 1350.6,-347.7 2549.7,-347.6 66.3,0 134.2,0.5 202.9,1.5 1133,16.8 1945.2,410.3 2515.9,888.9 -624.5,-937.6 -1687.2,-1361.8 -2771.5,-1361.8"
         style="fill:#cfbf3a;fill-opacity:1;fill-rule:nonzero;stroke:none"
         id="path160" />
      <path
         d="m 19082.5,5525.5 c -511.6,0 -1156.2,68.2 -1690,124.6 -302.1,31.9 -587.5,62.1 -841.3,81.2 -994.6,75.1 -1024.2,557.8 -1025,575.6 0,42.6 -18.3,83.2 -50.2,111.4 -27.3,24 -62.3,37.1 -98.2,37.1 -6.2,0 -12.4,-0.4 -18.6,-1.2 -420,-52.8 -893.8,-90.3 -1394,-90.3 -2308.3,0.2 -5168.15,798.8 -5787.06,4572.2 -54.06,329.6 -74.11,643.9 -61.61,939.9 69.38,-772.5 307.76,-1730.4 917.84,-2506.9 7.64,-15.8 17.95,-29 31.21,-39.2 390.36,-482.9 928.07,-892 1663.32,-1137.1 372,-124 742.3,-203.6 1103.1,-249.6 64.8,-97.4 140,-171.4 227.2,-210.9 27.2,-12.2 53.5,-18.1 79.3,-18.1 88,0 168.2,68.5 240.7,183.3 92.3,-3.7 183.8,-5.5 273.9,-5.5 1622.5,0 2878.2,576.1 2878.2,576.1 l -103.7,429.5 -67.7,627.8 c 0,0 0,827.5 122.4,827.5 17.4,0 37.3,-16.7 60,-54.9 153.5,-1118.4 877.1,-2313.5 953.9,-2620.5 76.7,-307 -383.8,-756.5 -383.8,-1140.3 0,-383.7 701.7,-570.1 2225.8,-615.1 138.7,-4 266.3,-5.9 383.8,-5.9 701,0 1040.2,66.1 1199.7,119.4 0.2,-0.2 0.5,-0.4 0.8,-0.6 6.9,-14.7 13.3,-29.3 19,-43.8 53.4,-134.4 46.7,-236.4 -19.8,-302.9 -121.2,-121.2 -439.6,-162.8 -839.2,-162.8"
         style="fill:#4cb935;fill-opacity:1;fill-rule:nonzero;stroke:none"
         id="path162" />
      <path
         d="m 11432.3,10022.4 c -64.2,0 -128.3,3.1 -192.1,9.5 -65.4,136.3 -110,305.6 -140.2,474.5 126,-22.1 245.8,-32.4 359.3,-32.4 611.3,0 1043.8,299.1 1334,679.1 56.3,-3.3 108.5,-4.6 155.3,-4.6 32.9,0 63.2,0.7 90.4,1.6 -149.6,-483.7 -368.8,-779.7 -388.6,-805.8 -3.1,-4 -6,-8.2 -8.6,-12.5 -153.4,-78.3 -324.1,-143.6 -488,-194.3 -234.4,-70.9 -478.3,-115.1 -721.5,-115.1 M 9974.63,10840 c -72.72,116.9 -131.71,241.8 -174.35,371.1 -25.32,77.2 -44.87,156.4 -58.6,236.7 72.14,-146.4 176.62,-304.6 327.72,-450.5 -37.1,-54.9 -68.7,-108.9 -94.77,-157.3"
         style="fill:#4cb935;fill-opacity:1;fill-rule:nonzero;stroke:none"
         id="path164" />
      <path
         d="m 8170.2,12368.6 c 2.31,12.8 4.68,25.5 7.13,38.2 2.65,-2 5.33,-4.1 8.03,-6.1 -5.16,-10.8 -10.21,-21.5 -15.16,-32.1 m 4967.6,155.5 c -209,645.5 -637.1,1280.2 -1297.1,1594.4 41.6,102.9 74.9,192.3 99.2,260.3 373.9,-169.3 676.2,-432.1 849.7,-771.4 195.3,-381.8 304.4,-744.6 354.4,-1080 -2,-1.1 -4.1,-2.2 -6.2,-3.3 m -4419.94,718.7 c -69.62,40.7 -132.35,77 -185.16,107.4 311.65,512.8 791.05,891.9 1418.54,1098.2 307.86,101.2 621.96,149.2 925.56,149.2 63.6,0 126.8,-2.1 189.2,-6.2 -59.5,-86.9 -110.9,-177.5 -155.2,-269.3 -168.2,-0.1 -346,-17.6 -532.8,-55 -749.23,-149.9 -1286.06,-572.5 -1660.14,-1024.3"
         style="fill:#abec9e;fill-opacity:1;fill-rule:nonzero;stroke:none"
         id="path166" />
      <path
         d="m 12889.8,10003.2 c 6,49.3 11.1,93.5 15.4,131.7 357.2,91.7 682.2,221.9 970.5,367.3 15.6,-43.7 34.4,-96.1 56.1,-155.1 -368.5,-165.3 -733.5,-273.5 -1042,-343.9 m 2094.1,931.3 c -9.5,112.7 -18.4,210.7 -25.7,287.6 245.6,208.6 384.6,364.4 399.4,381.3 18.2,20.6 30.3,45.9 34.9,73 34.6,201.8 72.9,402.5 114.7,601.7 62.7,-53.9 151,-127.6 254.2,-206.9 -84.8,-345.9 -130.7,-556.4 -140.4,-586.3 -21.1,-65.3 -243.5,-283.7 -637.1,-550.4 m 1160.5,2567.8 c -91.2,158.4 -170.9,291.9 -225.1,381.3 103.8,343.7 214.5,678.7 329.2,1002.8 66,-61.9 154.7,-142.4 253.7,-225.3 -135.6,-413.3 -254.7,-803.3 -357.8,-1158.8 m 826.9,2490.8 c -54.4,146.4 -104.7,275.8 -143.8,374.2 179.1,419.3 356.9,805.5 523.9,1150.6 48.5,-43.7 107.2,-94.3 171.1,-144.7 -88.4,-217.5 -184.3,-453.3 -288.1,-708.6 -91.9,-226 -179.6,-450.3 -263.1,-671.5 m 924.2,2298.1 c -26.3,57 -51.1,109 -72.8,153.7 199.9,374.2 354.6,640.3 433.4,772.5 4.6,-1.3 9.2,-2.5 13.9,-3.7 -92.1,-227.1 -214.2,-527.7 -374.5,-922.5"
         style="fill:#abec9e;fill-opacity:1;fill-rule:nonzero;stroke:none"
         id="path168" />
      <path
         d="m 19921.7,6035.6 c -269.3,216.4 -761,586.8 -1071.9,673.4 -445.8,124.2 -1125.7,133.4 -1315.7,399.3 h 504.4 358.2 c 0,0 570.1,923.7 935.6,1852 365.5,928.4 261.8,1968.1 261.8,1968.1 0,0 8.1,-21.3 20.8,-60.9 -3.4,3.9 -5,5.9 -5,5.9 0,0 174.1,-741.4 167.3,-1273.4 -2.9,-56.5 -7.4,-113.8 -13.7,-171.8 -20.2,-188.9 -78.1,-407.6 -155.3,-632.5 -13.8,4 -27.9,6 -42,6 -22.5,0 -44.9,-5 -65.5,-15.1 -35.3,-17.4 -62.4,-48.2 -75.1,-85.5 -356.5,-1048.7 -819.6,-1565.3 -824.1,-1570.2 -39.2,-42.8 -49.9,-104.5 -27.3,-158 22.6,-53.6 74.4,-89 132.4,-90.7 462,-13.5 1035.2,-465.5 1215.5,-846.4 -0.1,-0.1 -0.3,-0.1 -0.4,-0.2"
         style="fill:#abec9e;fill-opacity:1;fill-rule:nonzero;stroke:none"
         id="path170" />
      <path
         d="m 19777.2,9600 c 6.8,532 -167.3,1273.4 -167.3,1273.4 0,0 1.6,-2 5,-5.9 54.2,-168.5 193.8,-668.3 162.3,-1267.5"
         style="fill:#a6dc9a;fill-opacity:1;fill-rule:nonzero;stroke:none"
         id="path172" />
      <path
         d="m 19922.5,6035 c -0.3,0.2 -0.6,0.4 -0.8,0.6 0.1,0.1 0.3,0.1 0.4,0.2 0.1,-0.3 0.3,-0.6 0.4,-0.8"
         style="fill:#a6dc9a;fill-opacity:1;fill-rule:nonzero;stroke:none"
         id="path174" />
      <path
         d="m 27747,6331.3 c -240.7,171.9 -714.4,486 -1202,622.6 -685.3,191.8 -1167.7,71.8 -1184.1,359.3 h 438.5 274.1 c 0,0 323.5,709.7 562,1405.9 70.3,205.4 123.3,420.4 162.9,621.3 18.7,-1.8 36.3,-4.2 52.7,-7 -110.1,-1223.8 -621.3,-1941.7 -628.5,-1951.7 -30.7,-41.7 -37.4,-96.5 -17.7,-144.4 19.7,-47.9 62.9,-82.1 114.1,-90.2 536.5,-84.7 1208.4,-474.3 1436.5,-802.8 -2.7,-4.2 -5.5,-8.6 -8.5,-13"
         style="fill:#abec9e;fill-opacity:1;fill-rule:nonzero;stroke:none"
         id="path176" />
      <path
         d="m 27778.7,6308.5 c -10.1,7.3 -20.7,14.9 -31.7,22.8 3,4.4 5.8,8.8 8.5,13 8.3,-12 16,-23.9 23.2,-35.8 m -927.6,3024.9 c -16.4,2.8 -34,5.2 -52.7,7 32.8,165.8 56.5,322 73.5,455.6 -0.1,-161.2 -7.6,-315.6 -20.8,-462.6"
         style="fill:#a6dc9a;fill-opacity:1;fill-rule:nonzero;stroke:none"
         id="path178" />
      <path
         d="m 18187.4,19390.8 h 0.5 -0.5 M 15377.8,6455.4 c 35.9,0 70.9,-13.1 98.2,-37.1 31.9,-28.2 50.2,-68.8 50.2,-111.4 0.8,-17.8 30.4,-500.5 1025,-575.6 253.8,-19.1 539.2,-49.3 841.3,-81.2 950.8,-100.5 2252.9,-238.2 2529.2,38.2 66.5,66.5 73.2,168.5 19.8,302.9 -154.5,389.3 -754.8,876.9 -1234.9,891 -58,1.7 -109.8,37.1 -132.4,90.7 -22.6,53.5 -11.9,115.2 27.3,158 4.5,4.9 467.6,521.5 824.1,1570.2 12.7,37.3 39.8,68.1 75.1,85.5 35.4,17.3 76.3,19.9 113.6,7.2 14.5,-5 1465.6,-493.5 3146,-408.9 63.2,3.5 118.8,-32.2 143.5,-88.8 18.9,-43.2 464.2,-1061.8 553,-1328.2 32.1,-96.4 26.9,-210.8 20.9,-343.2 -16.9,-369.5 1.5,-617.7 394.5,-698.6 877.4,-180.6 3303.6,-356.7 3852.1,40.6 119.6,86.6 118.4,166.5 104.1,226.5 -83.2,347.5 -887.3,855.7 -1509.4,953.9 -51.2,8.1 -94.4,42.3 -114.1,90.2 -19.7,47.9 -13,102.7 17.7,144.4 10.3,14.2 1046.7,1470.1 479.8,3780 -5.2,21 -5.7,42.9 -1.5,64.1 8.4,42.9 826.6,4332.1 -806,7682.6 -886,1818.6 -2783.1,2040 -3836.4,2010.2 -1831,-51.9 -3437.5,-877.1 -3734.2,-1585.2 -3.1,-7.3 -6.7,-14.4 -11,-21.2 -22.2,-35.7 -2232.3,-3612.7 -2920.8,-7635.8 -4.6,-27.1 -16.7,-52.4 -34.9,-73 -40.6,-46.3 -1014,-1136.3 -2555.8,-1493.8 -61.1,-14.4 -124.3,11.5 -158.3,64.1 -33.9,52.6 -31.2,120.9 6.9,170.6 43.9,58 1069.4,1444.1 139.2,3263.1 -435.5,851.6 -1682.2,1221.1 -2838.36,841 C 8555.53,13989.5 7892.68,12676.5 8178.14,10936.1 8931.16,6345 13000.8,6157.6 15359.2,6454.2 c 6.2,0.8 12.4,1.2 18.6,1.2 m 3696.1,-1225.8 c -463.2,0 -1044.4,54.6 -1712.6,125.2 -299.9,31.7 -583.1,61.7 -832.5,80.5 -925.6,69.8 -1191.9,475.1 -1268.5,708 -1813.9,-208.4 -3405.3,6.4 -4610,623.6 -1513.47,775.3 -2443.79,2161.9 -2765.14,4121.1 -166.3,1014 -40.76,1881.4 373.15,2578.3 356.4,600 909.72,1037.1 1600.2,1264.1 1291.49,424.8 2694.99,-9.3 3195.49,-987.8 742.2,-1451.5 318.8,-2681.1 30.7,-3246.3 1117.9,364 1872.6,1115.4 2022.7,1273.7 688.4,3957.7 2815.8,7473.9 2947.8,7689.2 390.3,902.7 2214.3,1705.7 3994.9,1756.2 1124,31.9 3152.7,-208.6 4111.7,-2176.9 1600,-3283.7 910.7,-7425.8 836.5,-7837.2 473.5,-1970 -141.3,-3328.2 -416.9,-3807.1 656.6,-173.8 1424,-665.3 1535.7,-1131.8 49.7,-207.6 -27.9,-398.1 -218.7,-536.2 -741.4,-536.8 -3541.8,-203 -4086,-90.9 -670.8,138.1 -646.1,679.5 -631.3,1002.9 4.3,94.3 8.8,191.7 -5.9,235.8 -69.6,208.6 -388.7,947.3 -502.8,1209.9 -1408.8,-53.4 -2612.2,263.8 -3013.9,384.5 -237.7,-654.8 -507.4,-1093.8 -675.3,-1330 534.6,-141.4 1069.8,-623.4 1234.2,-1037.6 98.4,-247.7 68,-468.8 -85.7,-622.5 -183,-182.9 -549.3,-248.7 -1057.8,-248.7"
         style="fill:#213d17;fill-opacity:1;fill-rule:nonzero;stroke:none"
         id="path180" />
      <path
         d="m 15229.4,6307 c 13.8,403 140,794.5 328,1148.2 60.8,117.4 134.3,227.4 209.3,335.7 l 3.6,-165.9 c -20.3,28.4 -33.8,49.8 -48.7,74.3 -309,528.1 -445.4,1152.3 -441.1,1759.7 -0.3,103 12.2,211.2 23.4,313.2 13.9,103.7 36.7,206.4 61.6,307.6 1.6,6.7 8.4,10.8 15.1,9.1 5.4,-1.4 9.1,-5.9 9.5,-11.2 21.8,-180.7 34.1,-356.4 51.6,-535.7 63,-609.3 198.2,-1236.3 552.3,-1746.2 85.5,-114.4 -43.3,-219.7 -91.3,-318.6 -149.9,-257.5 -263.6,-537.8 -327.6,-828.8 -24.5,-113.5 -44.3,-235.1 -49.2,-349.4 -12.2,-191.6 -294.1,-185.7 -296.5,8"
         style="fill:#213d17;fill-opacity:1;fill-rule:nonzero;stroke:none"
         id="path182" />
      <path
         d="m 19438.6,8729.2 c 176.4,385.2 214.5,825.5 206.8,1245.8 -5.4,351.2 -92,689.7 -91,1043 -0.6,12.1 17.1,18.3 23.6,7.3 172.9,-262.6 245.1,-571.1 294.6,-877.4 66.3,-415.6 65.7,-848.7 -51.1,-1256.1 -32.5,-110.8 -69.3,-211.1 -127.7,-314.3 -104.2,-168.1 -352.3,-20.8 -255.2,151.7"
         style="fill:#213d17;fill-opacity:1;fill-rule:nonzero;stroke:none"
         id="path184" />
      <path
         d="m 18694.3,6883.1 c -207.1,14.9 -415.6,43.3 -621.7,72.6 -192.6,35 -443.4,36.6 -622.3,139.3 -9.5,4.9 -9.9,19.4 -0.5,24.7 203.6,116.6 421.3,86.8 640.6,97.5 213.5,0.6 425.2,-8.6 637.2,-39.1 186.6,-31.9 155.4,-305.7 -33.3,-295"
         style="fill:#213d17;fill-opacity:1;fill-rule:nonzero;stroke:none"
         id="path186" />
      <path
         d="m 18289.1,5374.7 c -98.6,301.5 -317.1,550.5 -571.7,734.5 -97.2,70.3 -190.9,133.5 -272.3,230.8 -26.9,49.8 178,14.6 200.8,10.7 411.7,-121.5 789.5,-443.4 920.6,-861.5 5.7,-20.8 9.6,-34.3 14.2,-58.6 15,-80.3 -37.8,-157.5 -118,-172.6 -81.4,-15.7 -155.4,39.2 -173.6,116.7"
         style="fill:#213d17;fill-opacity:1;fill-rule:nonzero;stroke:none"
         id="path188" />
      <path
         d="m 19484.2,5370.5 c -151.8,362.9 -416.8,658 -718.3,906.4 -42.7,42.4 -87.7,83.2 -126.6,140.4 -4.3,6.3 -2.7,14.8 3.5,19.1 134.8,9.6 263.7,-41.1 372.4,-106.1 304.9,-176.4 566.2,-445 712.9,-767.8 15.3,-34 25.5,-61.1 38.3,-99.6 25.4,-77.7 -17,-161.4 -94.7,-186.8 -78.6,-26.1 -160.9,18.4 -187.5,94.4"
         style="fill:#213d17;fill-opacity:1;fill-rule:nonzero;stroke:none"
         id="path190" />
      <path
         d="m 22753.8,8384.5 c 710.6,99 1434.8,267.3 2068.4,613.9 213.2,121.3 408.6,253.3 611.4,397.5 5.8,4.2 13.9,2.8 18,-3 -193.3,-449.8 -763.5,-741.8 -1195.1,-930.1 -351.6,-146.9 -719.7,-252 -1094.3,-319.8 -125.7,-22.7 -248.1,-42.5 -380.4,-54.1 -81.7,-7.1 -153.7,53.3 -160.8,135 -7.2,81 52.6,152.4 132.8,160.6"
         style="fill:#213d17;fill-opacity:1;fill-rule:nonzero;stroke:none"
         id="path192" />
      <path
         d="m 26327.8,7146 c -165.4,6.5 -339.1,21.3 -506.2,36.1 -164,22.2 -367.6,4.3 -520.1,99.3 -9,5.1 -10,18.4 -1.9,24.7 82.5,66.6 169.7,92.3 257.4,105 265.6,41.1 530.6,62.9 799.6,30.4 81.3,-10.8 138.4,-85.5 127.6,-166.8 -10.2,-78 -79.6,-133.5 -156.4,-128.7"
         style="fill:#213d17;fill-opacity:1;fill-rule:nonzero;stroke:none"
         id="path194" />
      <path
         d="m 26250,5598 c -13,140 -103.4,295.4 -206.3,405.2 -123.1,149.7 -308.5,234.4 -419.2,402.1 -6.2,8.5 -0.6,21.5 10,22.6 168.2,22 315.7,-55.7 455.1,-138.2 230.7,-141.4 443.4,-376.9 457.5,-663.2 -0.5,-22.7 1.5,-35.6 -2.1,-62.4 -27.3,-193.8 -312.3,-161.3 -295,33.9"
         style="fill:#213d17;fill-opacity:1;fill-rule:nonzero;stroke:none"
         id="path196" />
      <path
         d="m 27327.6,5667.8 c -74.4,190.5 -210.1,361 -355,506.7 -129.9,134.1 -290.6,222.2 -394.7,384.5 -22.9,50.4 163,7.7 184.2,3.3 360.2,-132.3 700.8,-405.7 839.2,-773.1 41.1,-94 15,-205.8 -96,-233.2 -80,-18.2 -159.5,31.9 -177.7,111.8"
         style="fill:#213d17;fill-opacity:1;fill-rule:nonzero;stroke:none"
         id="path198" />
      <path
         d="m 10494.8,11880.2 c 34.9,-178.1 109.7,-321.1 263.3,-407.4 259.3,-159.3 733.5,-50.7 729.1,309.3 29.2,536.7 -258.5,1167.1 -866.6,1156.2 -374.4,17.6 -656.67,-273.9 -788.52,-609.1 -142.66,-349.2 -150.55,-756 -31.8,-1118.1 177.98,-539.9 640.62,-1001 1199.32,-1137.7 381.1,-94.3 779.8,-49.2 1154.2,64.1 187.1,57.9 383.1,134.8 552,228.4 145.2,77.6 268.7,-130.9 129.7,-220.9 -998,-599.2 -2259.8,-613.1 -3008.91,376.7 -419.19,535.4 -539.83,1288.1 -282.71,1924.7 254.02,646.2 844.72,976.6 1519.12,716.4 534.3,-233.7 754.2,-852.6 721.5,-1395.8 -9.9,-577.2 -725.4,-815.7 -1171.3,-533.9 -218.8,126.3 -336,418.6 -264.2,655.1 20.4,76.4 134.4,69 145.8,-8"
         style="fill:#213d17;fill-opacity:1;fill-rule:nonzero;stroke:none"
         id="path200" />
      <path
         d="m 18041,17111.6 c -148.9,0 -351.4,130 -518.5,261.6 142.9,351.6 266.4,655.5 373,918 179.9,-389.9 430.9,-1015.9 256.3,-1145.9 -31.4,-23.4 -69,-33.7 -110.8,-33.7"
         style="fill:#47a932;fill-opacity:1;fill-rule:nonzero;stroke:none"
         id="path202" />
      <path
         d="m 17522.5,17373.2 c -63.9,50.4 -122.6,101 -171.1,144.7 172,355.2 332.5,667.2 471.3,927 21.7,-44.7 46.5,-96.7 72.8,-153.7 -106.6,-262.5 -230.1,-566.4 -373,-918"
         style="fill:#81b775;fill-opacity:1;fill-rule:nonzero;stroke:none"
         id="path204" />
      <path
         d="m 17351.4,17517.9 c -81.7,73.6 -134.5,127.5 -134.5,127.5 l 523.6,963.2 c 0,0 33.3,-63.3 82.2,-163.7 -138.8,-259.8 -299.3,-571.8 -471.3,-927"
         style="fill:#213d17;fill-opacity:1;fill-rule:nonzero;stroke:none"
         id="path206" />
      <path
         d="m 17219.9,14251 c -184.5,0 -480.6,211.6 -717.7,410.1 138.8,423.1 294.9,870.9 469.1,1332 228.1,-613.9 527.5,-1525.2 365.5,-1696.8 -29.8,-31.4 -69.7,-45.3 -116.9,-45.3"
         style="fill:#47a932;fill-opacity:1;fill-rule:nonzero;stroke:none"
         id="path208" />
      <path
         d="m 16502.2,14661.1 c -99,82.9 -187.7,163.4 -253.7,225.3 186.4,526.3 383.5,1023.3 579,1480.9 39.1,-98.4 89.4,-227.8 143.8,-374.2 -174.2,-461.1 -330.3,-908.9 -469.1,-1332"
         style="fill:#81b775;fill-opacity:1;fill-rule:nonzero;stroke:none"
         id="path210" />
      <path
         d="m 16248.5,14886.4 c -73.4,68.8 -118.8,114.6 -118.8,114.6 0,0 427,1132.9 618.2,1563.1 0,0 31.1,-74.6 79.6,-196.8 -195.5,-457.6 -392.6,-954.6 -579,-1480.9"
         style="fill:#213d17;fill-opacity:1;fill-rule:nonzero;stroke:none"
         id="path212" />
      <path
         d="m 16736,11581.2 c -279.5,0 -685.2,267.3 -974.6,490 86.3,352.4 213,845.2 383,1431.1 392.7,-682.5 997.5,-1828.8 680.7,-1910.5 -27.9,-7.2 -57.7,-10.6 -89.1,-10.6"
         style="fill:#47a932;fill-opacity:1;fill-rule:nonzero;stroke:none"
         id="path214" />
      <path
         d="m 15761.4,12071.2 c -103.2,79.3 -191.5,153 -254.2,206.9 115.1,549.4 255.7,1087.3 412.1,1605.5 54.2,-89.4 133.9,-222.9 225.1,-381.3 -170,-585.9 -296.7,-1078.7 -383,-1431.1"
         style="fill:#81b775;fill-opacity:1;fill-rule:nonzero;stroke:none"
         id="path216" />
      <path
         d="m 15507.2,12278.1 c -63.1,54.2 -100.2,88.5 -100.2,88.5 0,0 190.1,1052.6 438.6,1637.4 0,0 27.5,-44.2 73.7,-120.4 -156.4,-518.2 -297,-1056.1 -412.1,-1605.5"
         style="fill:#213d17;fill-opacity:1;fill-rule:nonzero;stroke:none"
         id="path218" />
      <path
         d="m 14891.8,8583.5 c -12.6,0 -26,3.7 -40.3,11.4 -305.4,163.6 -725.9,1224.2 -919.7,1752.2 33,14.9 66.1,30.2 99.1,45.9 382,182.1 702.2,371.6 953,541.5 67.7,-802.3 165,-2351 -92.1,-2351"
         style="fill:#47a932;fill-opacity:1;fill-rule:nonzero;stroke:none"
         id="path220" />
      <path
         d="m 13931.8,10347.1 c -21.7,59 -40.5,111.4 -56.1,155.1 461.4,232.7 828.9,504.5 1082.5,719.9 7.3,-76.9 16.2,-174.9 25.7,-287.6 -250.8,-169.9 -571,-359.4 -953,-541.5 -33,-15.7 -66.1,-31 -99.1,-45.9"
         style="fill:#81b775;fill-opacity:1;fill-rule:nonzero;stroke:none"
         id="path222" />
      <path
         d="m 13875.7,10502.2 c -31.7,89.4 -49.6,142.7 -49.6,142.7 l 1114.1,759.6 c 0,0 7.2,-67.9 18,-182.4 -253.6,-215.4 -621.1,-487.2 -1082.5,-719.9"
         style="fill:#213d17;fill-opacity:1;fill-rule:nonzero;stroke:none"
         id="path224" />
      <path
         d="m 12379.2,7897.5 c -179.1,7.3 -361.8,22 -547.2,45.7 -302.4,454.4 -379,1420 -397.5,1786.4 300.4,1.4 606.7,62.2 902.3,173.5 143.2,19 333.8,50 553,100.1 -65.1,-533.6 -230.9,-1663.1 -510.6,-2105.7"
         style="fill:#47a932;fill-opacity:1;fill-rule:nonzero;stroke:none"
         id="path226" />
      <path
         d="m 12138.5,7714.2 c -25.8,0 -52.1,5.9 -79.3,18.1 -87.2,39.5 -162.4,113.5 -227.2,210.9 185.4,-23.7 368.1,-38.4 547.2,-45.7 -72.5,-114.8 -152.7,-183.3 -240.7,-183.3"
         style="fill:#3f942c;fill-opacity:1;fill-rule:nonzero;stroke:none"
         id="path228" />
      <path
         d="m 12336.8,9903.1 c 147.1,55.4 291.6,123.3 431.2,202.6 0,0 0,0 0.1,0 11.1,0 22.5,1.2 33.7,3.9 34.7,8 69.3,16.5 103.4,25.3 -4.3,-38.2 -9.4,-82.4 -15.4,-131.7 -219.2,-50.1 -409.8,-81.1 -553,-100.1"
         style="fill:#81b775;fill-opacity:1;fill-rule:nonzero;stroke:none"
         id="path230" />
      <path
         d="m 12768.1,10105.7 c -0.1,0 -0.1,0 -0.1,0 22.6,12.8 45.1,25.9 67.5,39.3 57.1,37 69.9,94 55.1,142.9 12.4,2.6 20.7,3.1 25.6,3.1 3.8,0 5.6,-0.3 5.6,-0.3 0,0 -5.5,-57.7 -16.6,-155.8 -34.1,-8.8 -68.7,-17.3 -103.4,-25.3 -11.2,-2.7 -22.6,-3.9 -33.7,-3.9"
         style="fill:#213d17;fill-opacity:1;fill-rule:nonzero;stroke:none"
         id="path232" />
      <path
         d="m 11434.5,9729.6 c -4.6,91.1 -5.6,145.2 -5.6,145.2 0,0 922.7,108.9 1171.2,269.7 161.6,104.6 249.1,134.9 290.5,143.4 14.8,-48.9 2,-105.9 -55.1,-142.9 -22.4,-13.4 -44.9,-26.5 -67.5,-39.3 -139.6,-79.3 -284.1,-147.2 -431.2,-202.6 -295.6,-111.3 -601.9,-172.1 -902.3,-173.5"
         style="fill:#213d17;fill-opacity:1;fill-rule:nonzero;stroke:none"
         id="path234" />
      <path
         d="m 9184.61,9298.8 c -49.93,0 -90.26,9.4 -118.09,30.4 -0.31,0.2 -0.64,0.5 -0.94,0.7 -10.49,13 -20.93,26.1 -31.21,39.2 -119.78,247.3 419,1137.9 607.84,1436.9 52.92,-99.8 114.5,-195 184.38,-284.3 219.01,-289.4 481.81,-493 769.11,-621.3 -328.6,-189.6 -1080.34,-601.6 -1411.09,-601.6"
         style="fill:#47a932;fill-opacity:1;fill-rule:nonzero;stroke:none"
         id="path236" />
      <path
         d="m 9065.58,9329.9 c -13.26,10.2 -23.57,23.4 -31.21,39.2 10.28,-13.1 20.72,-26.2 31.21,-39.2"
         style="fill:#3f942c;fill-opacity:1;fill-rule:nonzero;stroke:none"
         id="path238" />
      <path
         d="m 10595.7,9900.4 c -287.3,128.3 -550.1,331.9 -769.11,621.3 -69.88,89.3 -131.46,184.5 -184.38,284.3 39.22,62.1 63.34,98.7 63.34,98.7 0,0 75.79,-91.3 194.91,-218.1 -9.73,-22.8 -14.66,-35.9 -14.66,-35.9 70.68,-152 256.3,-285.6 471.1,-395.8 131.1,-106.9 268.3,-202 397.5,-260.9 0,0 -60.4,-36.9 -158.7,-93.6"
         style="fill:#213d17;fill-opacity:1;fill-rule:nonzero;stroke:none"
         id="path240" />
      <path
         d="m 9414.04,11878.4 c -293.1,83.6 -904.92,277.7 -1228.68,522.3 119.18,249.8 292.24,551.9 532.5,842.1 269.22,-157.4 640.66,-379.9 932.96,-575.5 -40.3,-68.7 -76.1,-142.4 -106.94,-220.9 -73.68,-182.4 -116.34,-374.3 -129.84,-568"
         style="fill:#47a932;fill-opacity:1;fill-rule:nonzero;stroke:none"
         id="path242" />
      <path
         d="m 8185.36,12400.7 c -2.7,2 -5.38,4.1 -8.03,6.1 67.34,349.5 186.81,666.1 355.37,943.4 52.81,-30.4 115.54,-66.7 185.16,-107.4 -240.26,-290.2 -413.32,-592.3 -532.5,-842.1"
         style="fill:#81b775;fill-opacity:1;fill-rule:nonzero;stroke:none"
         id="path244" />
      <path
         d="m 8177.33,12406.8 c -51.16,39.4 -94.76,80 -128.33,121.7 0,0 165.4,612.9 311.59,919.9 0,0 65.89,-37 172.11,-98.2 -168.56,-277.3 -288.03,-593.9 -355.37,-943.4"
         style="fill:#213d17;fill-opacity:1;fill-rule:nonzero;stroke:none"
         id="path246" />
      <path
         d="m 9578.67,11833.8 c 0,0 -63.24,15.7 -164.63,44.6 13.5,193.7 56.16,385.6 129.84,568 30.84,78.5 66.64,152.2 106.94,220.9 45.56,-30.5 89.24,-60.3 130.27,-89.2 0,0 -201.12,-415 -202.42,-744.3"
         style="fill:#213d17;fill-opacity:1;fill-rule:nonzero;stroke:none"
         id="path248" />
      <path
         d="m 11262.3,13048.2 c -60.8,44.5 -127.2,83 -199.3,114.6 -146.5,56.5 -288.9,85.2 -424.9,88.8 16.6,225.4 74,659.4 272.7,1070.5 0.5,0 1.1,0 1.6,0 348.9,0 658,-74.9 928.3,-203.6 -124.1,-306.4 -322.5,-732.7 -578.4,-1070.3"
         style="fill:#47a932;fill-opacity:1;fill-rule:nonzero;stroke:none"
         id="path250" />
      <path
         d="m 11840.7,14118.5 c -270.3,128.7 -579.4,203.6 -928.3,203.6 -0.5,0 -1.1,0 -1.6,0 44.3,91.8 95.7,182.4 155.2,269.3 313.5,-21 611.3,-93.8 873.9,-212.6 -24.3,-68 -57.6,-157.4 -99.2,-260.3"
         style="fill:#81b775;fill-opacity:1;fill-rule:nonzero;stroke:none"
         id="path252" />
      <path
         d="m 11939.9,14378.8 c -262.6,118.8 -560.4,191.6 -873.9,212.6 30.9,45.1 64,89.2 99.5,131.9 0,0 541.1,-57.2 821.7,-205.3 0,0 -16.2,-52 -47.3,-139.2"
         style="fill:#213d17;fill-opacity:1;fill-rule:nonzero;stroke:none"
         id="path254" />
      <path
         d="m 11165.5,12928.2 c 0,0 -324.4,76.4 -534,166.7 0,0 -0.6,58.6 6.6,156.7 136,-3.6 278.4,-32.3 424.9,-88.8 72.1,-31.6 138.5,-70.1 199.3,-114.6 -31.4,-41.4 -63.7,-81.6 -96.8,-120"
         style="fill:#213d17;fill-opacity:1;fill-rule:nonzero;stroke:none"
         id="path256" />
      <path
         d="m 12793.3,11153.1 c -299,17.5 -716.2,92.7 -1073.6,343.1 39.7,79.3 63,169.8 64.8,270.8 8.9,148.6 -1.1,302.9 -31.2,453.5 286.7,6.5 914.6,51.2 1384.5,303.6 4.2,-12.7 8.2,-25.5 12.1,-38.2 28.7,-211.1 34.1,-411.4 23.2,-598.1 -79.4,-242.1 -203.2,-503.4 -379.8,-734.7"
         style="fill:#47a932;fill-opacity:1;fill-rule:nonzero;stroke:none"
         id="path258" />
      <path
         d="m 12948.6,11148.5 c -46.8,0 -99,1.3 -155.3,4.6 176.6,231.3 300.4,492.6 379.8,734.7 -16.2,-277.5 -68.4,-525.5 -134.1,-737.7 -27.2,-0.9 -57.5,-1.6 -90.4,-1.6"
         style="fill:#3f942c;fill-opacity:1;fill-rule:nonzero;stroke:none"
         id="path260" />
      <path
         d="m 13149.9,12485.9 c -3.9,12.7 -7.9,25.5 -12.1,38.2 2.1,1.1 4.2,2.2 6.2,3.3 2.1,-13.9 4.1,-27.6 5.9,-41.5"
         style="fill:#81b775;fill-opacity:1;fill-rule:nonzero;stroke:none"
         id="path262" />
      <path
         d="m 13039,11150.1 c 65.7,212.2 117.9,460.2 134.1,737.7 10.9,186.7 5.5,387 -23.2,598.1 -1.8,13.9 -3.8,27.6 -5.9,41.5 46.9,25.4 92.2,53 135.4,82.8 0,0 143.7,-864.5 -86.7,-1448.7 0,0 -57.4,-7.9 -153.7,-11.4"
         style="fill:#213d17;fill-opacity:1;fill-rule:nonzero;stroke:none"
         id="path264" />
      <path
         d="m 11719.7,11496.2 c -41.1,28.8 -81.5,60 -120.8,93.7 0,0 66.3,413.4 0,630.5 0,0 25.3,-0.9 70.3,-0.9 23.1,0 51.4,0.2 84.1,1 30.1,-150.6 40.1,-304.9 31.2,-453.5 -1.8,-101 -25.1,-191.5 -64.8,-270.8"
         style="fill:#213d17;fill-opacity:1;fill-rule:nonzero;stroke:none"
         id="path266" />
      <path
         d="m 11100,10506.4 c -6.7,1.1 -13.5,2.3 -20.2,3.6 -467.2,85.8 -788.9,273.4 -1010.4,487.3 96.4,142.8 229.4,291.6 395.3,364 41.6,-51.4 91.6,-95.4 148.5,-128.2 127,-80.3 276,-118.4 424.3,-118.4 0.3,0 0.6,0 0.8,0 5.2,-143.4 19.9,-375.4 61.7,-608.3"
         style="fill:#47a932;fill-opacity:1;fill-rule:nonzero;stroke:none"
         id="path268" />
      <path
         d="m 11240.2,10031.9 c -80.7,8.2 -161.1,21.8 -240.6,41.5 -424.9,103.9 -794.2,395.5 -1024.97,766.6 26.07,48.4 57.67,102.4 94.77,157.3 221.5,-213.9 543.2,-401.5 1010.4,-487.3 6.7,-1.3 13.5,-2.5 20.2,-3.6 30.2,-168.9 74.8,-338.2 140.2,-474.5"
         style="fill:#3f942c;fill-opacity:1;fill-rule:nonzero;stroke:none"
         id="path270" />
      <path
         d="m 11309.3,9912.8 c 0,0 -532,126.3 -952.4,342.1 -173.8,141.8 -336.9,304.6 -456.44,431.7 14.39,33.7 39.28,88.6 74.17,153.4 230.77,-371.1 600.07,-662.7 1024.97,-766.6 79.5,-19.7 159.9,-33.3 240.6,-41.5 20.8,-43.4 43.8,-83.5 69.1,-119.1 m -271.8,1201.9 c -148.3,0 -297.3,38.1 -424.3,118.4 -56.9,32.8 -106.9,76.8 -148.5,128.2 52.4,22.8 108,38.1 166.8,43.2 0,0 307.9,-146.3 400.2,-146.3 1.3,0 2.7,0.1 3.9,0.1 0,0 -0.4,-54.8 2.7,-143.6 -0.2,0 -0.5,0 -0.8,0"
         style="fill:#213d17;fill-opacity:1;fill-rule:nonzero;stroke:none"
         id="path272" />
      <path
         d="m 10356.9,10254.9 c -214.8,110.2 -400.42,243.8 -471.1,395.8 0,0 4.93,13.1 14.66,35.9 119.54,-127.1 282.64,-289.9 456.44,-431.7"
         style="fill:#213d17;fill-opacity:1;fill-rule:nonzero;stroke:none"
         id="path274" />
      <path
         d="m 30051.8,26534.7 c 0,0 32.9,-2078 -1984.6,-2721.3 -2017.4,-643.2 -3040.8,1081.8 -5233.6,1169.6 -2192.9,87.7 -4151.9,-1403.5 -6169.3,-1432.7 -2017.5,-29.3 -2777.7,2017.4 -2777.7,2017.4 0,0 -1120.3,-1758.7 309.6,-4195 1722.7,-1485.6 4866.1,-2646.8 9368.3,-2646.8 3741.8,0 5771.2,1465.9 6786.9,3089.6 796.4,2714.6 -299.6,4719.2 -299.6,4719.2"
         style="fill:#fae043;fill-opacity:1;fill-rule:nonzero;stroke:none"
         id="path276" />
      <path
         d="m 31110.2,25721.9 c -526.2,1491.2 -1464.1,2360.3 -1464.1,2360.3 0,0 -555.5,4502.7 -3596.3,3537.9 0,0 -833.3,292.3 -1447.3,438.5 0,0 -2025.6,2341.6 -4488.1,2441.4 -2163.6,87.8 -2587.6,-2660.7 -2587.6,-2660.7 0,0 -2178.2,175.5 -3040.8,-2733.7 0,0 -1783.5,-2309.9 -1842,-4839 -22.2,-958.8 500.4,-1986.8 1552.2,-2893.9 -1429.9,2436.3 -309.6,4195 -309.6,4195 0,0 760.2,-2046.7 2777.7,-2017.4 2017.4,29.2 3976.4,1520.4 6169.3,1432.7 2192.8,-87.8 3216.2,-1812.8 5233.6,-1169.6 2017.5,643.3 1984.6,2721.3 1984.6,2721.3 0,0 1096,-2004.6 299.6,-4719.2 952.6,1522.9 1013.5,3184.7 758.8,3906.4"
         style="fill:#57d83d;fill-opacity:1;fill-rule:nonzero;stroke:none"
         id="path278" />
      <path
         d="m 29299.1,28990.8 c -353.9,950.4 -1101.5,2323.2 -2469,2323.2 -147.1,0 -301.6,-15.9 -463.4,-50 -209.7,-44.1 -409.9,-126.1 -592.2,-238.6 -297.6,-183.6 -590,-414.5 -590,-414.5 99.9,324.1 322.3,571.1 461.4,701.4 -295.8,96.2 -959,329.1 -1299.2,410.1 0,0 -1929.8,2247.7 -4232.3,2334.4 -31.8,1.2 -63,1.8 -94.1,1.8 -1257.5,0 -1905.6,-969.7 -2221.6,-1739.2 230.8,739.7 832.7,2034.2 2217.7,2034.2 30.2,0 61,-0.6 92,-1.9 2368.1,-96 4362,-2367.3 4381.8,-2390.2 20.4,-23.5 47.7,-40.1 77.9,-47.3 599.3,-142.7 1424.2,-431.3 1432.5,-434.2 15.9,-5.6 32.5,-8.4 49.1,-8.4 15.2,0 30.3,2.3 44.9,7 268.4,85.1 524.6,127.7 767.6,127.7 368,0 705.6,-97.6 1009.4,-292.3 783.6,-502.4 1210.1,-1552.1 1427.5,-2323.2 m -14644,160.4 c 346.8,1110.2 927,1874.3 1725.5,2271.7 494,245.9 928.2,269.9 1078.6,269.9 35.4,0 55.1,-1.4 56.1,-1.5 3.9,-0.3 7.8,-0.4 11.6,-0.4 72.6,0 135.3,52.9 146.7,125.8 0.1,1.1 1,6.3 2.6,15.4 197.8,-46.6 500.9,-164.5 798.6,-436 502.1,-457.9 692.8,-1073.5 692.8,-1073.5 -310.9,449.2 -706.9,715.3 -1032,870.2 -245.3,116.8 -510.9,175.2 -778.1,175.2 -170.7,0 -342.1,-23.9 -509,-71.6 -642.6,-183.5 -1595.6,-700 -2193.4,-2145.2"
         style="fill:#abec9e;fill-opacity:1;fill-rule:nonzero;stroke:none"
         id="path280" />
      <path
         d="m 19270.1,19281.8 c -2272.5,466.4 -4110.8,1320 -5289.9,2491.8 -295,601 -437.5,1154 -488.3,1641.2 199.6,-245.3 434.5,-486 704.3,-718.7 1082.9,-933.9 2727.1,-1739.5 4917.4,-2209.1 l 5.8,-83 c 3.4,-50.1 36.9,-93.2 84.7,-108.9 l 346.1,-113.9 -11.9,-537.9 -149.6,-6.2 c -66.3,-2.7 -118.6,-57.3 -118.6,-123.6 v -231.7 m 10393.4,1861.3 c -283.1,123.9 -571.9,249.5 -837.2,363.5 661.8,482.9 1159.2,1047.3 1525.1,1632.3 107.1,171.3 203,344.3 288.4,517.5 -9,-401.9 -53.7,-835.3 -150.4,-1293.4 -124.7,-248 -271.3,-495.2 -442.1,-736.7 -112.1,-158.4 -239.4,-320.6 -383.8,-483.2"
         style="fill:#cfbf3a;fill-opacity:1;fill-rule:nonzero;stroke:none"
         id="path282" />
      <path
         d="m 13980.2,21773.6 c -20.7,20.6 -41.1,41.1 -61.4,61.9 -755.7,773.4 -1145.3,1612.9 -1126.4,2427.7 2.6,111.8 8.7,223.4 17.9,334.3 139.6,-397.7 366.9,-796 681.6,-1182.7 50.8,-487.2 193.3,-1040.2 488.3,-1641.2 m 16509.2,589.4 c 96.7,458.1 141.4,891.5 150.4,1293.4 209.9,425.9 356.5,853.1 452.1,1258.8 21.4,-697.7 -139.4,-1630.9 -602.5,-2552.2"
         style="fill:#4cb935;fill-opacity:1;fill-rule:nonzero;stroke:none"
         id="path284" />
      <path
         d="m 26808.2,23696.5 c -984.5,-42.4 -1840.2,-1462 -4150.1,-1491.2 -2309.8,-29.2 -4882.8,1491.2 -4882.8,1491.2 0,0 2009,688.6 3270.5,1057 1261.5,368.3 2381.4,372.5 3297.6,-100.5 1187.4,-613 2464.8,-956.5 2464.8,-956.5"
         style="fill:#213d17;fill-opacity:1;fill-rule:nonzero;stroke:none"
         id="path286" />
      <path
         d="m 25415.1,23056.2 c -2944.5,1179.8 -6041.2,-125.6 -6041.2,-125.6 0,0 2104.1,-774.1 3527.5,-716.8 1423.3,57.3 2513.7,842.4 2513.7,842.4"
         style="fill:#f792bc;fill-opacity:1;fill-rule:nonzero;stroke:none"
         id="path288" />
      <path
         d="m 18518.9,28457.5 c -73.5,-1156.9 -849.2,-2053.6 -1732.6,-2002.7 -883.3,50.9 -1539.8,1030 -1466.3,2187 73.5,1156.9 849.2,2053.6 1732.6,2002.7 883.4,-50.9 1539.9,-1030 1466.3,-2187"
         style="fill:#fae043;fill-opacity:1;fill-rule:nonzero;stroke:none"
         id="path290" />
      <path
         d="m 16981,30522.9 c -787.4,0 -1470.3,-830.4 -1537.6,-1889 -39.8,-626.1 140,-1213.9 493.2,-1612.7 240.4,-271.3 536.7,-424.5 856.9,-442.9 813.1,-46.1 1532.9,799.6 1602,1887 39.8,626.1 -140,1213.9 -493.2,1612.7 -240.3,271.4 -536.6,424.6 -856.8,443 -21.6,1.2 -43.1,1.9 -64.5,1.9 M 16857.3,26329 c -26,0 -51.9,0.8 -78.1,2.3 -387.4,22.3 -742.8,204.2 -1027.8,525.9 -396.6,447.7 -598.8,1101 -554.8,1792.4 77.7,1222.8 914.4,2173.5 1863.1,2118.4 387.4,-22.3 742.8,-204.2 1027.8,-525.9 396.6,-447.8 598.8,-1101.1 554.9,-1792.4 -75.6,-1189.2 -868.2,-2120.7 -1785.1,-2120.7"
         style="fill:#213d17;fill-opacity:1;fill-rule:nonzero;stroke:none"
         id="path292" />
      <path
         d="m 18425.3,28222.1 c -91.1,-732.9 -626.3,-1275.1 -1195.5,-1211.1 -569.2,64 -956.8,710 -865.7,1443 91,732.9 626.3,1275.1 1195.5,1211.1 569.1,-64 956.7,-710 865.7,-1443"
         style="fill:#213d17;fill-opacity:1;fill-rule:nonzero;stroke:none"
         id="path294" />
      <path
         d="m 18425.3,28222.1 h 0.4 -0.4 m -957.6,1324.5 c -471.7,0 -902.6,-477.6 -980.9,-1107.9 -47.3,-380.7 41.5,-746 243.6,-1002.4 138.5,-175.6 315.9,-280.2 513.2,-302.4 501.7,-56.4 976.3,438.6 1058.9,1103.5 47.3,380.7 -41.5,746 -243.6,1002.4 -138.4,175.6 -315.9,280.2 -513.2,302.4 -26.1,2.9 -52.1,4.4 -78,4.4 m -147.5,-2664.4 c -34.6,0 -69.4,1.9 -104.3,5.8 -260.6,29.4 -502.1,169.7 -679.8,395.2 -242.7,307.9 -350.2,740.2 -294.8,1186 99.3,798.7 697,1390.3 1332.1,1318.8 260.6,-29.3 502.1,-169.6 679.8,-395 242.8,-308 350.2,-740.3 294.8,-1186.1 -93.8,-754.8 -632.7,-1324.7 -1227.8,-1324.7"
         style="fill:#213d17;fill-opacity:1;fill-rule:nonzero;stroke:none"
         id="path296" />
      <path
         d="m 17984.7,28191.8 c -53,-426.6 -364.5,-742.2 -695.8,-705 -331.3,37.3 -556.9,413.3 -503.9,839.9 53,426.6 364.6,742.2 695.8,705 331.3,-37.3 556.9,-413.3 503.9,-839.9"
         style="fill:#213d17;fill-opacity:1;fill-rule:nonzero;stroke:none"
         id="path298" />
      <path
         d="m 18013.6,28755 c -21.7,-174.9 -179.2,-300.9 -351.7,-281.5 -172.5,19.4 -294.7,176.9 -273,351.7 21.8,174.9 179.2,300.9 351.7,281.5 172.5,-19.4 294.7,-176.9 273,-351.7"
         style="fill:#ffffff;fill-opacity:1;fill-rule:nonzero;stroke:none"
         id="path300" />
      <path
         d="m 17103.1,27429.9 c -106.4,0 -230.6,48 -326.8,188.3 -108.5,158.1 -148.9,360.5 -127.8,502 10.2,68.2 64.5,101.6 118.7,101.6 3.4,0 6.9,-0.2 10.3,-0.4 -7.2,-380.8 206.8,-699.1 509.6,-734.4 -41.3,-32.7 -108.2,-57.1 -184,-57.1"
         style="fill:#64785d;fill-opacity:1;fill-rule:nonzero;stroke:none"
         id="path302" />
      <path
         d="m 17287.1,27487 c -302.8,35.3 -516.8,353.6 -509.6,734.4 53.7,-4.2 104.6,-41.1 109.7,-109.3 7.4,-99.9 43.2,-225.6 133.5,-326.8 146.7,-164.4 299.8,-168.3 309,-216.3 5.3,-27.5 -11.3,-57.1 -42.6,-82"
         style="fill:#64785d;fill-opacity:1;fill-rule:nonzero;stroke:none"
         id="path304" />
      <path
         d="m 25609.5,28457.5 c 73.5,-1156.9 849.3,-2053.6 1732.6,-2002.7 883.4,50.9 1539.9,1030 1466.4,2187 -73.5,1156.9 -849.3,2053.6 -1732.6,2002.7 -883.4,-50.9 -1539.9,-1030 -1466.4,-2187"
         style="fill:#fae043;fill-opacity:1;fill-rule:nonzero;stroke:none"
         id="path306" />
      <path
         d="m 27147.5,30522.9 c -21.5,0 -42.9,-0.6 -64.5,-1.9 -320.2,-18.4 -616.5,-171.6 -856.9,-443 -353.1,-398.7 -532.9,-986.5 -493.1,-1612.7 67.3,-1058.5 750.2,-1888.8 1537.5,-1888.9 21.5,0 42.9,0.6 64.5,1.9 320.2,18.4 616.5,171.6 856.8,442.9 353.2,398.8 533,986.6 493.3,1612.7 -67.3,1058.6 -750.2,1889 -1537.6,1889 m 123.8,-4193.9 c -917.1,0 -1709.6,931.5 -1785.2,2120.7 -43.9,691.4 158.3,1344.6 554.9,1792.4 284.9,321.7 640.4,503.6 1027.8,525.9 950.6,55 1785.4,-895.6 1863.2,-2118.4 43.9,-691.4 -158.4,-1344.7 -555,-1792.4 -284.9,-321.8 -640.4,-503.6 -1027.7,-525.9 -26.1,-1.5 -52.2,-2.3 -78,-2.3"
         style="fill:#213d17;fill-opacity:1;fill-rule:nonzero;stroke:none"
         id="path308" />
      <path
         d="m 25703.2,28222.1 c 91.1,-732.9 626.3,-1275.1 1195.5,-1211.1 569.2,64 956.8,710 865.7,1443 -91.1,732.9 -626.3,1275.1 -1195.5,1211.1 -569.2,-64 -956.8,-710 -865.7,-1443"
         style="fill:#213d17;fill-opacity:1;fill-rule:nonzero;stroke:none"
         id="path310" />
      <path
         d="m 25826,28237.4 c 82.6,-664.9 557.7,-1159.8 1058.9,-1103.5 197.2,22.2 374.7,126.8 513.2,302.4 202.1,256.4 290.9,621.7 243.6,1002.4 -82.7,664.8 -556.2,1159.8 -1059,1103.5 -197.2,-22.2 -374.7,-126.8 -513.2,-302.4 -202,-256.3 -290.8,-621.7 -243.5,-1002.4 m 982.3,-1355.2 c -595.2,0 -1134,569.9 -1227.8,1324.7 -55.4,445.8 52,878.2 294.8,1186.1 177.7,225.4 419.1,365.7 679.8,395 634.7,71.9 1232.8,-520.1 1332.1,-1318.8 55.4,-445.8 -52.1,-878.1 -294.8,-1186 -177.7,-225.5 -419.2,-365.8 -679.9,-395.2 -34.8,-3.9 -69.7,-5.8 -104.2,-5.8"
         style="fill:#213d17;fill-opacity:1;fill-rule:nonzero;stroke:none"
         id="path312" />
      <path
         d="m 26143.7,28191.8 c 53.1,-426.6 364.6,-742.2 695.9,-705 331.3,37.3 556.9,413.3 503.9,839.9 -53.1,426.6 -364.6,742.2 -695.9,705 -331.3,-37.3 -556.9,-413.3 -503.9,-839.9"
         style="fill:#213d17;fill-opacity:1;fill-rule:nonzero;stroke:none"
         id="path314" />
      <path
         d="m 26114.9,28755 c 21.7,-174.9 179.2,-300.9 351.6,-281.5 172.5,19.4 294.8,176.9 273,351.7 -21.7,174.9 -179.1,300.9 -351.6,281.5 -172.5,-19.4 -294.7,-176.9 -273,-351.7"
         style="fill:#ffffff;fill-opacity:1;fill-rule:nonzero;stroke:none"
         id="path316" />
      <path
         d="m 27025.4,27429.9 c -75.8,0 -142.7,24.4 -184,57.1 302.8,35.3 516.7,353.6 509.6,734.4 3.4,0.2 6.8,0.4 10.3,0.4 54.2,0 108.5,-33.4 118.7,-101.6 21.1,-141.5 -19.4,-343.9 -127.8,-502 -96.3,-140.3 -220.4,-188.3 -326.8,-188.3"
         style="fill:#64785d;fill-opacity:1;fill-rule:nonzero;stroke:none"
         id="path318" />
      <path
         d="m 26841.4,27487 c -31.3,24.9 -47.9,54.5 -42.7,82 9.3,48 162.3,51.9 309.1,216.3 90.3,101.2 126.1,226.9 133.5,326.8 5.1,68.2 56,105.1 109.7,109.3 7.1,-380.8 -206.8,-699.1 -509.6,-734.4"
         style="fill:#64785d;fill-opacity:1;fill-rule:nonzero;stroke:none"
         id="path320" />
      <path
         d="m 19588.3,23011.8 c 7.6,3.6 1113,531.4 2806.2,600.5 95,3.9 188.4,5.8 280.2,5.8 1529.5,0 2608.5,-507.8 2638.6,-522.1 -883.3,336.5 -1777.3,453.9 -2593.8,453.9 -1451,0 -2658.1,-370.2 -3131.2,-538.1"
         style="fill:#213d17;fill-opacity:1;fill-rule:nonzero;stroke:none"
         id="path322" />
      <path
         d="m 20678.5,22531.2 -1090.2,349.1 v 131.4 0.1 c 473.1,167.9 1680.2,538.1 3131.2,538.1 816.5,0 1710.5,-117.4 2593.8,-453.9 0.5,-0.2 0.7,-0.3 0.7,-0.3 l -326.6,-285.4 c 0,0 -764.9,410.9 -2044.4,410.9 -119.8,0 -244,-3.6 -372.6,-11.5 -1502.1,-92 -1891.9,-678.5 -1891.9,-678.5"
         style="fill:#cc819b;fill-opacity:1;fill-rule:nonzero;stroke:none"
         id="path324" />
      <path
         d="m 17459.2,31692.8 c -150.4,0 -584.6,-24 -1078.6,-269.9 -819.4,-407.8 -1409,-1201.7 -1752.2,-2359.5 -5.2,-17.6 -13.6,-34 -24.8,-48.5 -17.5,-22.8 -1754.6,-2302.4 -1811.2,-4751.7 -18.9,-814.8 370.7,-1654.3 1126.4,-2427.7 1838.8,-1881.8 5354.6,-2961.1 9645.7,-2961.1 3748.8,0 5594.5,1496.5 6482.8,2751.9 1081.9,1529.2 1191,3286.7 922.9,4046.2 -506.7,1435.9 -1415.9,2292.4 -1425.1,2300.9 -25.6,23.8 -42,55.9 -46.3,90.6 -3,24 -312.6,2407.2 -1627.2,3250 -504.3,323.3 -1102.1,378.7 -1777,164.6 -30.7,-9.7 -63.6,-9.2 -94,1.4 -8.3,2.9 -833.2,291.5 -1432.5,434.2 -30.2,7.2 -57.5,23.8 -77.9,47.3 -19.8,22.9 -2013.7,2294.2 -4381.8,2390.2 -31,1.3 -61.8,1.9 -92,1.9 -1929.1,0 -2338.9,-2511.1 -2342.8,-2536.9 -12,-76.8 -80.9,-131.4 -158.3,-125.4 -1,0.1 -20.7,1.5 -56.1,1.5 m 6105.3,-13115.3 c -4370.6,0 -7963.7,1111.9 -9858,3050.5 -812.9,832 -1231.6,1745.5 -1210.9,2642.1 56.6,2445.2 1660.6,4644.9 1856,4903.9 462.4,1536 1294.5,2219.6 1912.9,2522.7 493.7,242 928.5,286.9 1139.6,292.5 49.5,235.4 183.2,760.7 475.4,1285.6 521.6,936.9 1297.4,1411.9 2240.9,1373.6 2358.4,-95.7 4283.5,-2145.4 4562.4,-2456.5 531.3,-130.2 1189.3,-353.4 1369.7,-415.6 743.9,224.4 1409.8,153 1979.9,-212.8 1334,-855.7 1699.7,-3032.7 1753.9,-3410.3 188.1,-186 986.5,-1029.2 1463.9,-2381.8 289.3,-819.7 182.6,-2700.8 -960.5,-4316.5 -928.7,-1312.7 -2849.4,-2877.4 -6725.2,-2877.4"
         style="fill:#213d17;fill-opacity:1;fill-rule:nonzero;stroke:none"
         id="path326" />
      <path
         d="m 19131.8,30274.2 c -41.8,78.4 -90.9,186.1 -132.5,262.1 -25.5,43.2 -86,145.9 -110.1,187.3 -215.6,332.3 -506.3,629.2 -864.5,803.5 -162.9,83.8 -339.7,142.3 -520.8,166.8 -80.3,11.3 -136.3,85.6 -125,166 8.6,60.4 52.9,107 108.4,121.6 112.2,29.2 219.4,53.8 329.3,77.4 545.2,114.7 1104.4,180.2 1661.6,179.4 223.2,0.2 446.6,-15 667.7,-42.5 27.2,-3.4 46.5,-28.2 43.1,-55.4 -3.1,-24.6 -23.7,-42.7 -47.6,-43.5 -219.3,-13.8 -436.8,-24.9 -653.7,-50.2 -645.7,-69.4 -1294.5,-185.7 -1921.4,-349.5 l -28.4,289.2 c 323.9,-38.3 631.4,-179.4 888.2,-376.6 291.4,-223.2 521.1,-529.8 659.1,-867 60,-135.3 105.8,-295.5 140.6,-437.6 14.5,-58.8 -70,-87.7 -94,-31"
         style="fill:#213d17;fill-opacity:1;fill-rule:nonzero;stroke:none"
         id="path328" />
      <path
         d="m 26120.9,31489.7 c -277.1,-181 -533.1,-405.9 -725.1,-678.1 -67,-92.5 -127.5,-187.1 -226.6,-277.9 -5.6,-5.1 -14.3,-4.7 -19.4,0.9 -37.3,200.9 61.7,380.7 154.5,547.6 166.9,272.7 392.5,512.1 674.4,668.2 174.5,89.3 311.3,-162 142.2,-260.7"
         style="fill:#213d17;fill-opacity:1;fill-rule:nonzero;stroke:none"
         id="path330" />
      <path
         d="m 16621.8,23401.5 c -2065,-0.1 -2866.4,2093.2 -2874.3,2114.5 -28.5,76.9 10.6,162.3 87.4,190.9 76.7,28.4 162.3,-10.7 190.9,-87.5 29.7,-79.4 749.1,-1950.2 2636.3,-1920.7 926.1,13.4 1834.4,341.3 2796.2,688.5 1078,389.2 2192.7,791.8 3381.2,744.1 985.8,-39.5 1723.6,-390.6 2437.1,-730.1 892.4,-424.8 1662.9,-791.6 2745.6,-446.4 1890.5,602.8 1881.5,2557.9 1881.1,2577.6 -1.2,82 64.1,149.5 146.1,150.8 83.2,1 149.5,-64.1 150.8,-146.1 0.4,-21.9 10.4,-2196.1 -2087.8,-2865.1 -1194.4,-380.9 -2053.6,28.1 -2963.4,461.1 -686.5,326.7 -1396.3,664.5 -2321.4,701.5 -1130.1,45.4 -2217.3,-347.2 -3268.5,-726.7 -942.4,-340.1 -1916.9,-691.9 -2892.7,-706.1 -14.8,-0.2 -29.8,-0.3 -44.6,-0.3"
         style="fill:#213d17;fill-opacity:1;fill-rule:nonzero;stroke:none"
         id="path332" />
      <path
         d="m 22591.2,22056.5 c -2305.5,0 -4785.9,1449.9 -4891.4,1512.2 -70.5,41.7 -93.9,132.7 -52.2,203.3 41.6,70.6 132.7,93.9 203.2,52.3 25.4,-15 2566,-1498.5 4805.5,-1470.6 1370.4,17.4 2213.3,538.7 2890.7,957.6 447.1,276.6 833.2,515.4 1254.8,533.5 83.2,3 151.1,-60 154.7,-141.9 3.5,-81.9 -60,-151.2 -141.9,-154.7 -344.1,-14.8 -682.7,-224.2 -1111.5,-489.4 -708.5,-438.2 -1590.2,-983.5 -3043.1,-1001.9 -22.8,-0.3 -45.9,-0.4 -68.8,-0.4"
         style="fill:#213d17;fill-opacity:1;fill-rule:nonzero;stroke:none"
         id="path334" />
      <path
         d="m 19374,22782.1 c -57.9,0 -113,34.2 -136.9,90.9 -31.8,75.5 3.6,162.6 79.1,194.4 128.8,54.2 3186.9,1315.5 6154.1,126.6 76.1,-30.5 113.1,-116.9 82.6,-193 -30.5,-76.1 -116.9,-113.1 -193,-82.6 -2851.3,1142.5 -5898,-111.8 -5928.4,-124.6 -18.8,-7.9 -38.3,-11.7 -57.5,-11.7"
         style="fill:#213d17;fill-opacity:1;fill-rule:nonzero;stroke:none"
         id="path336" />
      <path
         d="m 22178,23664.7 c 231.2,-100.3 420.6,-273.1 557.9,-481.9 46.5,-67 76.7,-149.8 64.5,-246 -1.1,-8.5 -8.8,-14.5 -17.3,-13.5 -165.7,58.9 -236.3,171 -372.4,255.5 -50.2,35.1 -124.1,81.7 -177,114 -47.7,28 -136.6,78.5 -184.7,105.3 -159.3,93.5 -42.1,333.5 129,266.6"
         style="fill:#213d17;fill-opacity:1;fill-rule:nonzero;stroke:none"
         id="path338" />
      <path
         d="m 21788.4,25960.2 c -48.6,0 -96.3,23.9 -124.7,67.8 l -80.4,124.3 c -44.6,68.8 -24.9,160.7 43.9,205.2 69,44.5 160.8,24.9 205.3,-44 l 80.4,-124.2 c 44.5,-68.9 24.9,-160.8 -43.9,-205.3 -25,-16.1 -52.9,-23.8 -80.6,-23.8"
         style="fill:#213d17;fill-opacity:1;fill-rule:nonzero;stroke:none"
         id="path340" />
      <path
         d="m 22570.3,25960.2 c -31.4,0 -63.1,9.9 -90.1,30.5 -65,49.8 -77.5,143 -27.7,208.1 l 95,124.3 c 49.8,65.1 142.9,77.5 208.1,27.7 65.1,-49.8 77.6,-143 27.8,-208.1 l -95.1,-124.2 c -29.2,-38.2 -73.3,-58.3 -118,-58.3"
         style="fill:#213d17;fill-opacity:1;fill-rule:nonzero;stroke:none"
         id="path342" />
      <path
         d="m 29703,26727.9 c 373.1,105.7 755,-254.9 749.3,-622.9 0.8,-43.2 -53.8,-68.7 -86.3,-41.1 -162.1,151.9 -313.4,296.9 -496,422.3 -57.9,45 -124.7,92.6 -187,151.3 -30.3,26.4 -18.2,79.3 20,90.4"
         style="fill:#213d17;fill-opacity:1;fill-rule:nonzero;stroke:none"
         id="path344" />
      <path
         d="m 13443.7,25220.7 c -45.9,420.5 362.3,796.6 773.3,770.4 56,-1.1 112.3,-16.1 166.2,-30.4 27.2,-8.2 42.6,-36.9 34.4,-64.2 -5,-17.2 -18.1,-28.2 -33.4,-34.7 -170.8,-70.2 -337,-136.8 -474.1,-260.3 -139.1,-118.8 -243.4,-259.9 -370,-403.1 -26.1,-39.3 -91.4,-24.9 -96.4,22.3"
         style="fill:#213d17;fill-opacity:1;fill-rule:nonzero;stroke:none"
         id="path346" />
      <path
         d="m 20431.1,16415 12.2,-130.5 65.8,-1315.7 c 0,0 3442.8,-1929.7 4605.1,-1951.6 l 5964.6,526.2 c 0,0 1150.6,263.2 509.5,1776.3 l -6287.7,-460.5 c 0,0 -3280.8,765.2 -4869.5,1555.8"
         style="fill:#ed3558;fill-opacity:1;fill-rule:nonzero;stroke:none"
         id="path348" />
      <path
         d="m 31238.9,18872.1 -116.3,1491.2 c 0,0 -3216.2,1432.7 -3406.2,1461.9 -190.1,29.2 -8519.5,-755.7 -8519.5,-755.7 l 45.8,-656.9 433.1,-142.5 -16.4,-745.6 -265.6,-10.9 V 18927 l 830.3,-296.1 6.7,-71.9 4014.1,-906.8 6994,1219.9"
         style="fill:#5197fc;fill-opacity:1;fill-rule:nonzero;stroke:none"
         id="path350" />
      <path
         d="m 32496.8,18126.6 -1257.9,745.5 -6994,-1219.9 -4014.1,906.8 200.3,-2144 c 1588.7,-790.6 4869.5,-1555.8 4869.5,-1555.8 l 6287.7,460.5 908.5,73.1 v 730.9 h -380.1 l -43.8,1081.9 423.9,73 v 848"
         style="fill:#ffbf70;fill-opacity:1;fill-rule:nonzero;stroke:none"
         id="path352" />
      <path
         d="m 30541.4,20298.3 -2894.5,1194.3 -7533.3,-691 -389.7,193.3 c 3228.5,303 7648.7,707.5 7969.3,707.5 2.3,0 4.4,0 6.2,0 179.8,-45.3 1964.4,-826.2 3180,-1366.3 l -338,-37.8"
         style="fill:#a8cbfe;fill-opacity:1;fill-rule:nonzero;stroke:none"
         id="path354" />
      <path
         d="m 24368.6,19281.6 v 312.5 c 0,0.3 0,0.7 0,1.1 l 18.7,14.8 6492.1,726.1 c 42.7,-19 84.5,-37.6 125.6,-55.9 l 16.1,-206.5 -6652.5,-792.1"
         style="fill:#a8cbfe;fill-opacity:1;fill-rule:nonzero;stroke:none"
         id="path356" />
      <path
         d="m 19675.8,20270.1 c 0,0 3611,-857.1 3771.8,-1149.4 52.7,-95.9 63,-201.3 53,-299.6 -21.1,-206.9 -223.7,-344.6 -423.5,-286.8 l -3417.7,990.2"
         style="fill:#ffffff;fill-opacity:1;fill-rule:nonzero;stroke:none"
         id="path358" />
      <path
         d="m 20460.2,15947.3 c 0,0 3931.2,-1270.9 4087.9,-1548.6 156.7,-277.8 156.7,-862.6 -515.8,-745.6 -672.4,116.9 -3532.5,1501.5 -3532.5,1501.5 l -39.6,792.7"
         style="fill:#ffffff;fill-opacity:1;fill-rule:nonzero;stroke:none"
         id="path360" />
      <path
         d="m 32116.7,16123.7 -6816.1,-649.8 -4155.5,1249.2 -109.7,1052.6 4594.1,-1150.9 6443.4,580.8 43.8,-1081.9"
         style="fill:#ffffff;fill-opacity:1;fill-rule:nonzero;stroke:none"
         id="path362" />
      <path
         d="m 20629.3,15043.7 c 459.8,-253.9 3439,-1876.7 4480.8,-1902.7 l 5947.6,524.8 c 48.6,13.6 355.8,109.9 509.4,413.6 148.9,294.4 117.7,695.5 -92.7,1192.1 -15.5,36.5 -12.4,78.3 8.1,112.3 20.6,34 56.3,56 95.9,59.2 l 794.8,63.9 v 493.2 h -256.4 c -66.4,0 -120.9,52.3 -123.6,118.6 l -43.9,1081.8 c -2.6,62.1 41.3,116.4 102.5,126.9 l 321.4,55.5 v 673.2 l -1197.4,709.6 c -34.6,20.5 -57.1,56.7 -60.3,96.8 l -110.5,1417.7 c -1214.2,540.4 -3119.5,1375.3 -3305.6,1422.2 -1.8,0 -3.9,0 -6.2,0 -334,0 -5114.6,-438.7 -8364.5,-744.7 l 31.7,-453.5 354.1,-116.6 c 51.7,-17 86.2,-65.8 85,-120.2 l -16.4,-745.6 c -1.5,-65.2 -53.4,-118.2 -118.6,-120.9 l -147,-6.1 v -380.6 l 748.1,-266.8 c 45.3,-16.1 77.1,-57.1 81.6,-105 l 219.3,-2346.4 c 0.2,-1.8 0.3,-3.5 0.4,-5.3 l 62.4,-1247 m 4484.9,-2150.2 h -2.4 c -1179.7,22.2 -4521.5,1888 -4663.2,1967.4 -37.1,20.8 -60.9,59.2 -63,101.7 l -65.7,1313.1 -211.7,2265.2 -755.9,269.6 c -49.3,17.5 -82.2,64.2 -82.2,116.5 v 586.5 c 0,66.3 52.3,120.9 118.6,123.6 l 149.6,6.2 11.9,537.9 -346.1,113.9 c -47.8,15.7 -81.3,58.8 -84.7,108.9 l -45.9,656.9 c -4.7,67 44.9,125.5 111.8,131.8 1393.5,131.3 8356,785.2 8549.9,754.8 196.5,-30.3 2898.2,-1230.8 3437.8,-1471.2 41.4,-18.5 69.4,-58.1 73,-103.4 l 111.2,-1427.1 1202.7,-712.8 c 37.6,-22.3 60.6,-62.7 60.6,-106.4 v -847.9 c 0,-60.2 -43.3,-111.7 -102.6,-122 l -317.1,-54.6 34.8,-854.7 h 261.2 c 68.3,0 123.7,-55.3 123.7,-123.7 v -730.9 c 0,-64.5 -49.5,-118.1 -113.8,-123.3 l -742,-59.7 c 182,-498.7 189.2,-917.3 21.1,-1246 -220.6,-431.6 -660.8,-536.6 -679.4,-540.9 -5.6,-1.3 -11.1,-2.1 -16.7,-2.7 l -5964.6,-526.3 c -3.6,-0.3 -7.3,-0.4 -10.9,-0.4"
         style="fill:#213d17;fill-opacity:1;fill-rule:nonzero;stroke:none"
         id="path364" />
      <path
         d="m 25300.6,14735.5 c -9.5,0 -18.9,1.1 -28.1,3.2 -134.6,31.4 -3313.2,777.6 -4896.5,1565.6 -61.1,30.4 -86,104.6 -55.6,165.8 30.4,61.2 104.6,86.2 165.9,55.6 1496.7,-744.8 4558.9,-1479 4824.2,-1541.7 l 6268.8,459.1 c 67.8,4.3 127.4,-46.2 132.4,-114.4 5,-68.1 -46.2,-127.4 -114.3,-132.4 l -6287.8,-460.5 c -3,-0.2 -6,-0.3 -9,-0.3"
         style="fill:#213d17;fill-opacity:1;fill-rule:nonzero;stroke:none"
         id="path366" />
      <path
         d="m 25110.1,13141 c -106.3,2.6 -232.8,21.9 -374.8,54.7 27.8,24.6 57.3,53.7 83.3,85.7 109.2,116.6 183.1,251.7 90.9,357.1 -47.9,54.7 -121.5,110.5 -206.1,163.7 95.8,207.2 54.3,476.8 -47.6,657.3 -19.8,35.2 -47.7,84.6 -285.2,202.2 15,56.2 40.8,197.2 -34.9,311.1 360.1,-94.3 644.4,-164.1 802.8,-202.2 6.7,-262.1 135.7,-685.5 871.2,-791.5 134.2,-19.3 322,-27.8 548.4,-27.8 363.3,0 825.6,21.8 1323.7,55.6 -101.4,-78.2 -119.8,-248.6 -113.9,-395.2 4.1,-102.9 20.2,-194.1 28.1,-233.7 l -2685.9,-237 m 5044.2,445.1 c 12.5,214.1 -75,445.6 -175.5,602.6 817.8,82.4 1482.8,159.9 1673.5,182.4 -12.4,-106.5 -40.8,-203.9 -85.2,-291.7 -153.6,-303.7 -460.8,-400 -509.4,-413.6 l -903.4,-79.7 m -1186.2,49.5 h -0.1 c -2.1,0 -3.9,0.7 -5.1,2 -0.1,0.1 -0.2,0.2 -0.2,0.2 v 0 c -0.3,0.3 -0.5,0.6 -0.8,0.9 -0.6,0.7 -1.3,1.4 -2.1,2.1 -0.2,0.3 -0.5,0.5 -0.7,0.8 -0.4,0.4 -0.9,0.8 -1.3,1.2 -0.1,0.1 -0.3,0.2 -0.4,0.3 -0.1,0.2 -0.3,0.3 -0.4,0.4 -20.1,18.6 -76,59.1 -153.3,107.7 v 0.1 c -1.1,0.7 -2.3,1.4 -3.5,2.2 -154.9,97.2 -393.4,225.6 -602.3,276 416.6,31.3 848,69.2 1260,108.3 -35.3,-36.2 -71.2,-74.3 -106.7,-112.6 -0.3,-0.4 -0.7,-0.8 -1,-1.1 l -0.1,-0.1 c -0.6,-0.6 -1.2,-1.3 -1.8,-1.9 -0.1,-0.2 -0.3,-0.3 -0.4,-0.5 -0.5,-0.5 -0.9,-1 -1.4,-1.5 -0.2,-0.2 -0.4,-0.4 -0.6,-0.6 -1.9,-2.1 -3.8,-4.2 -5.7,-6.2 -0.5,-0.6 -1,-1.1 -1.5,-1.6 -1.5,-1.7 -3.1,-3.4 -4.6,-5 -1.2,-1.3 -2.3,-2.5 -3.4,-3.8 -3.9,-4.1 -7.7,-8.3 -11.5,-12.4 -1.2,-1.4 -2.5,-2.8 -3.8,-4.1 -0.2,-0.2 -0.3,-0.4 -0.5,-0.6 -161.8,-176.5 -308.6,-346.7 -345.7,-350.1 0,0 0,0 0,-0.1 -0.4,0 -0.8,0 -1.1,0 m -5538,1416.1 c -255.8,96.5 -566.3,209.5 -943.7,342.2 -309.5,108.8 -618.5,214.7 -897.4,309.1 -117.9,72.9 -237,150.1 -354.8,231.1 811.2,-311.5 1767.5,-597.8 2546.1,-812.2 -119.9,-14.2 -242.6,-41.4 -350.2,-70.2"
         style="fill:#c4374b;fill-opacity:1;fill-rule:nonzero;stroke:none"
         id="path368" />
      <path
         d="m 24486.2,13923.8 c -118.2,59.9 -235.3,111.2 -320.9,146.9 -17.2,30 -37.1,61.4 -59.9,94.1 -5.4,7.8 -12.4,16 -20.9,24.5 45,58.9 111.7,152.2 169.5,256.9 98.1,-47.9 163.3,-86.3 189.2,-113.4 62,-113.4 89.6,-286.6 43,-409"
         style="fill:#d3d8d1;fill-opacity:1;fill-rule:nonzero;stroke:none"
         id="path370" />
      <path
         d="m 24930.6,13030.1 c -73.2,0 -168.8,15.5 -280.9,43.1 -12.2,24.7 -21.9,39.7 -22.1,40 0,0 0,0 0.1,0 1.8,1.2 51.4,32.7 107.6,82.5 142,-32.8 268.5,-52.1 374.8,-54.7 l 2685.9,237 c 2.7,-13.5 4.4,-20.9 4.4,-20.9 0,0 -592,-22 -646.9,-133.8 -0.8,-1.7 -1.4,-3.4 -2,-5.3 -1058.7,-97.2 -1968.7,-177.2 -2200.2,-187.4 -6.7,-0.3 -13.6,-0.5 -20.7,-0.5 m 5212.7,468.7 c 5.7,28.6 9.3,57.8 11,87.3 l 903.4,79.7 c 48.6,13.6 355.8,109.9 509.4,413.6 44.4,87.8 72.8,185.2 85.2,291.7 36,4.3 55.1,6.6 55.1,6.6 87.7,-474.2 -468.5,-774.1 -468.5,-774.1 0,0 -443.5,-42.7 -1095.6,-104.8"
         style="fill:#213d17;fill-opacity:1;fill-rule:nonzero;stroke:none"
         id="path372" />
      <path
         d="m 25138.5,14770.6 c -158.4,38.1 -442.7,107.9 -802.8,202.2 -25.2,37.8 -61.5,72.7 -113.2,100.5 295,-70.7 602.8,-133 921,-183.1 -3.7,-33.3 -6.2,-74 -5,-119.6 m -1358.2,351.3 c -778.6,214.4 -1734.9,500.7 -2546.1,812.2 -124.9,85.8 -248.5,175.7 -368.1,269.7 -11.3,8.8 -22.4,17.6 -33.6,26.6 -7.9,6.3 -15.8,12.6 -23.7,18.8 -1.3,1.1 -2.8,2.3 -4.1,3.4 v 0.2 l 1111.1,-395 c 540.1,-239.5 1252.4,-513 2075.9,-726.9 -16.6,0.9 -33.4,1.3 -50.6,1.3 -51.8,0 -106,-3.8 -160.8,-10.3"
         style="fill:#213d17;fill-opacity:1;fill-rule:nonzero;stroke:none"
         id="path374" />
      <path
         d="m 25300.6,15350.2 c -12.1,0 -24.1,1.8 -35.6,5.2 l -4155.6,1249.2 c -47.8,14.4 -82.2,56.1 -87.4,105.7 l -109.6,1052.6 c -4.2,40.1 11.5,79.8 42,106.3 30.5,26.4 71.9,36.3 111.1,26.5 l 4573.8,-1145.8 6422.5,578.8 c 67.8,6.4 128.2,-44 134.3,-112.1 6.1,-68 -44.1,-128.2 -112.2,-134.3 l -6443.3,-580.7 c -13.6,-1.3 -27.7,-0.2 -41.2,3.2 l -4422.6,1108 82.7,-795 4053.5,-1218.5 6792,647.6 c 67.8,6.8 128.5,-43.4 134.9,-111.4 6.5,-68 -43.4,-128.4 -111.4,-134.9 l -6816.2,-649.9 c -3.9,-0.4 -7.8,-0.5 -11.7,-0.5"
         style="fill:#213d17;fill-opacity:1;fill-rule:nonzero;stroke:none"
         id="path376" />
      <path
         d="m 25629.5,17191.5 c -9.8,0 -19.7,1.2 -29.2,3.5 l -5405.5,1315.7 c -66.4,16.2 -107.1,83.1 -91,149.5 16.2,66.3 83.1,107 149.5,90.9 l 5383.8,-1310.5 6845.2,808.8 c 67.7,8.3 129.4,-40.5 137.4,-108.3 8,-67.8 -40.5,-129.4 -108.4,-137.4 L 25644,17192.3 c -4.8,-0.5 -9.7,-0.8 -14.5,-0.8"
         style="fill:#213d17;fill-opacity:1;fill-rule:nonzero;stroke:none"
         id="path378" />
      <path
         d="m 24244.7,17528.5 c -58.9,0 -111.2,42.4 -121.7,102.5 -11.7,67.3 33.3,131.3 100.6,143.1 l 6994,1219.9 c 67.1,11.4 131.4,-33.3 143.2,-100.6 11.7,-67.3 -33.3,-131.4 -100.7,-143.1 l -6994,-1220 c -7.1,-1.2 -14.3,-1.8 -21.4,-1.8"
         style="fill:#213d17;fill-opacity:1;fill-rule:nonzero;stroke:none"
         id="path380" />
      <path
         d="m 24244.9,19470.4 c -11.7,0 -23.4,1.6 -34.7,4.9 l -5048,1475.5 c -65.6,19.2 -103.2,87.9 -84.1,153.4 19.2,65.6 87.6,103.3 153.5,84.1 l 5024.2,-1468.6 6853.1,766.5 c 68.3,7.9 129.1,-41.3 136.7,-109.2 7.5,-67.9 -41.3,-129 -109.2,-136.6 l -6877.7,-769.3 c -4.6,-0.5 -9.2,-0.7 -13.8,-0.7"
         style="fill:#213d17;fill-opacity:1;fill-rule:nonzero;stroke:none"
         id="path382" />
      <path
         d="m 25300.6,15350.2 c -68.4,0 -123.7,55.4 -123.7,123.7 v 1233.3 c 0,68.3 55.3,123.7 123.7,123.7 68.3,0 123.6,-55.4 123.6,-123.7 v -1233.3 c 0,-68.3 -55.3,-123.7 -123.6,-123.7"
         style="fill:#213d17;fill-opacity:1;fill-rule:nonzero;stroke:none"
         id="path384" />
      <path
         d="m 21125.5,17322.6 c 327.7,-77.4 652.3,-166.6 975.3,-261.8 324,-104 655.1,-169.3 954.6,-343.6 8.7,-5 5.4,-20 -5.1,-20 -346.3,-10.8 -668.7,89.1 -1003.1,151.8 -329.4,69.9 -657.4,145.9 -982.4,233.7 -152.3,46.2 -95.7,271.5 60.7,239.9"
         style="fill:#213d17;fill-opacity:1;fill-rule:nonzero;stroke:none"
         id="path386" />
      <path
         d="m 25266.7,15971.5 c -371.2,80.1 -747.4,175.7 -1112,280.4 -123.8,34.4 -245.9,77.2 -361.1,153 -8.2,5 -5.5,18.9 4.2,20.2 266.3,41.5 514.5,-28.4 773.8,-61.9 256.4,-42.4 511.2,-85.6 762.8,-153.7 155.9,-48.6 90.7,-278.2 -67.7,-238"
         style="fill:#213d17;fill-opacity:1;fill-rule:nonzero;stroke:none"
         id="path388" />
      <path
         d="m 32104.7,16584 c -599.8,-62.2 -1200.9,-110.5 -1802.3,-155.7 -604.1,-35.7 -1202.9,-110.6 -1810.2,-71.8 -11,0.5 -13.3,18 -2,20.5 295.4,79.2 594,123.3 893.4,160.5 598.5,75.4 1197.6,144 1797.5,206.7 299.8,32.2 599.9,60.5 900.4,86.1 159.9,9.4 183.5,-224.8 23.2,-246.3"
         style="fill:#213d17;fill-opacity:1;fill-rule:nonzero;stroke:none"
         id="path390" />
      <path
         d="m 24196.8,13514.1 c -56,0 -117.7,5.3 -185.7,17.1 -681.7,118.6 -3447.8,1455.2 -3565.2,1512.1 -61.5,29.7 -87.2,103.7 -57.4,165.2 29.7,61.4 103.7,87.2 165.2,57.4 28.4,-13.7 2852,-1378.3 3499.8,-1490.9 137.3,-24 318.7,-27.2 403.2,92.4 84.4,119.7 58.8,333.1 -13.5,465.4 -177.5,185.3 -2199.5,907.9 -4021,1496.8 -65.1,21 -100.7,90.8 -79.7,155.8 21,65 90.9,100.5 155.8,79.6 9.8,-3.2 995.8,-322.2 1988.1,-671.1 2048.7,-720.4 2127.2,-859.6 2169.4,-934.4 115.2,-204.1 153.1,-521.9 3,-734.7 -72,-101.9 -208.2,-210.7 -462,-210.7"
         style="fill:#213d17;fill-opacity:1;fill-rule:nonzero;stroke:none"
         id="path392" />
      <path
         d="m 20526,15682.7 c 431,-170.5 857.4,-352.2 1281.3,-539.7 423,-196.1 859.1,-354.9 1249.5,-617.8 8.9,-5.8 2.9,-21.5 -7.8,-19.1 -233.8,40.4 -454.3,113.5 -672.1,193.1 -653.2,238.4 -1304,483.9 -1944.6,754.5 -145.4,66.4 -57.6,283.5 93.7,229"
         style="fill:#213d17;fill-opacity:1;fill-rule:nonzero;stroke:none"
         id="path394" />
      <path
         d="m 23343.9,19054 z m -174.1,-656.6 c -42.5,0 -85.2,6 -127.1,18.1 l -3417.7,990.2 c -65.7,19 -103.5,87.6 -84.4,153.2 18.9,65.6 87.5,103.7 153.2,84.4 l 3417.7,-990.2 c 59.6,-17.1 123.2,-7.2 174.5,27.5 51.8,34.9 85.2,90.7 91.6,153.1 8.7,86 -3.3,160.8 -35.8,222.5 -169.2,175.8 -2006.7,692.9 -3694.5,1093.5 -66.5,15.8 -107.6,82.5 -91.8,149 15.8,66.4 82.2,107.5 148.9,91.8 9,-2.2 915.2,-217.6 1829.5,-466.1 1896.3,-515.4 1978.1,-664.2 2022.1,-744.1 59.1,-107.5 81.9,-232.5 67.6,-371.7 -13.8,-135.6 -86.4,-257 -199.2,-333.1 -76.2,-51.5 -164.8,-78.1 -254.6,-78.1"
         style="fill:#213d17;fill-opacity:1;fill-rule:nonzero;stroke:none"
         id="path396" />
      <path
         d="m 19706.2,19976.6 c 350.3,-90.8 697.3,-193.4 1042.5,-301.9 345.9,-117.3 699.7,-196 1020,-383.3 8.9,-5 5.3,-20.3 -5.4,-19.9 -371,3 -715.4,116.4 -1072.6,192.6 -352.1,83.4 -702.7,172.8 -1050.1,274 -151.6,49.1 -90.3,273.6 65.6,238.5"
         style="fill:#213d17;fill-opacity:1;fill-rule:nonzero;stroke:none"
         id="path398" />
      <path
         d="m 24244.9,17652 c -68.3,0 -123.7,55.4 -123.7,123.7 v 1818.4 c 0,68.3 55.4,123.6 123.7,123.6 68.3,0 123.7,-55.3 123.7,-123.6 v -1818.4 c 0,-68.3 -55.4,-123.7 -123.7,-123.7"
         style="fill:#213d17;fill-opacity:1;fill-rule:nonzero;stroke:none"
         id="path400" />
      <path
         d="m 25310.5,14984 c -232.1,54.9 -2604.9,623.7 -4197.3,1263.9 -192.5,103 -297.1,167.1 -297.1,167.1 l 4484.5,-1260.4 7072.6,622 v -269.7 l -793,-63.8 c -0.3,0 -0.6,0 -0.9,0 L 25310.5,14984"
         style="fill:#d3a55e;fill-opacity:1;fill-rule:nonzero;stroke:none"
         id="path402" />
      <path
         d="m 31710.9,15302.6 c 1.2,8.5 1.5,17.2 0.8,26.1 -4.8,65.5 -60,114.6 -124.4,114.6 -2.3,0 -4.7,0 -7.1,-0.2 l 793,63.8 v 269.7 l 123.6,10.9 c 0,0 43.9,-307 0,-394.7 -9,-18 -311.3,-50.3 -785.9,-90.2"
         style="fill:#213d17;fill-opacity:1;fill-rule:nonzero;stroke:none"
         id="path404" />
      <path
         d="m 25443.1,14878.8 h -225.2 c -24.9,3.7 -49.7,7.6 -74.4,11.4 6.4,57.8 16.3,93.2 16.3,93.2 l -2881.8,745.6 -362.2,128.8 c -341.6,151.5 -614.2,289.4 -802.6,390.1 1592.4,-640.2 3965.2,-1209 4197.3,-1263.9 l 6268.8,459.1 c 0.3,0 0.6,0 0.9,0 2.4,0.2 4.8,0.2 7.1,0.2 64.4,0 119.6,-49.1 124.4,-114.6 0.7,-8.9 0.4,-17.6 -0.8,-26.1 -1839.1,-154.5 -6267.8,-423.8 -6267.8,-423.8"
         style="fill:#213d17;fill-opacity:1;fill-rule:nonzero;stroke:none"
         id="path406" />
      <path
         d="m 25143.5,14890.2 c -318.2,50.1 -626,112.4 -921,183.1 -23.1,12.4 -49.2,23.4 -78.7,32.6 -45.7,14.3 -97.2,22.1 -152.1,25 -823.5,213.9 -1535.8,487.4 -2075.9,726.9 l 362.2,-128.8 2881.8,-745.6 c 0,0 -9.9,-35.4 -16.3,-93.2"
         style="fill:#213d17;fill-opacity:1;fill-rule:nonzero;stroke:none"
         id="path408" />
      <path
         d="m 25553.5,16163 c -52.9,0 -96.3,1.3 -129.3,4 v 381.7 l 175.2,-43.9 c 9.9,-2.5 20.1,-3.7 30.1,-3.7 3.7,0 7.4,0.1 11.1,0.5 l 6314,569.1 10.1,-250.5 c -261.4,-22.9 -522.7,-48 -783.6,-76 -599.9,-62.7 -1199,-131.3 -1797.5,-206.7 -288.9,-35.9 -577.1,-78.2 -862.3,-152.3 -1246.7,-117.5 -2490.8,-222.2 -2967.8,-222.2"
         style="fill:#d3d8d1;fill-opacity:1;fill-rule:nonzero;stroke:none"
         id="path410" />
      <path
         d="m 31964.7,16820.2 -10.1,250.5 129.3,11.6 c 20.4,1.9 39.1,8.5 55.2,18.7 6.1,-12.1 10.5,-21.6 10.5,-23.4 0,-3.7 -11.1,-157.1 -18.2,-253.1 -12.2,3.9 -25.9,6.1 -40.7,6.1 -3,0 -6.1,-0.1 -9.2,-0.3 -39,-3.3 -77.9,-6.7 -116.8,-10.1"
         style="fill:#213d17;fill-opacity:1;fill-rule:nonzero;stroke:none"
         id="path412" />
      <path
         d="m 25629.5,16501.1 c -10,0 -20.2,1.2 -30.1,3.7 l -175.2,43.9 v 105.2 l 113.9,-29.1 6567.7,540.5 c 0,0 20.4,-38.2 33.3,-64.3 -16.1,-10.2 -34.8,-16.8 -55.2,-18.7 l -129.3,-11.6 -6314,-569.1 c -3.7,-0.4 -7.4,-0.5 -11.1,-0.5"
         style="fill:#213d17;fill-opacity:1;fill-rule:nonzero;stroke:none"
         id="path414" />
      <path
         d="m 25176.9,16249 c -61.4,14.3 -123,27.4 -184.7,39.7 -524.9,144.9 -1498.1,393.9 -2354.8,610.4 -176.7,58.7 -357.7,104.3 -536.6,161.7 -295.5,87.1 -592.4,169.1 -891.7,241.7 l -32.3,310.3 4000.1,-1002.1 V 16249"
         style="fill:#d3d8d1;fill-opacity:1;fill-rule:nonzero;stroke:none"
         id="path416" />
      <path
         d="m 25176.9,16610.7 -4000.1,1002.1 32.3,-310.3 c -27.9,6.8 -55.7,13.5 -83.6,20.1 -10.2,2 -20,3 -29.3,3 -27.7,0 -51.4,-8.6 -70.2,-22.6 -32,8 -49.1,12.2 -49.1,12.2 l 58.5,460.5 4141.9,-1058.7 c -0.3,-3.2 -0.4,-6.5 -0.4,-9.8 v -96.5"
         style="fill:#213d17;fill-opacity:1;fill-rule:nonzero;stroke:none"
         id="path418" />
      <path
         d="m 25424.2,16167 c -10.3,0.8 -19.5,1.8 -27.7,2.9 -14.5,17.2 -34.9,31.1 -62.1,39.6 -52.4,14.2 -104.9,27.3 -157.5,39.5 v 361.7 96.5 c 0,3.3 0.1,6.6 0.4,9.8 l 246.9,-63.1 v -105.2 -381.7"
         style="fill:#213d17;fill-opacity:1;fill-rule:nonzero;stroke:none"
         id="path420" />
      <path
         d="m 22637.4,16899.1 c -760.3,192.1 -1429,358.6 -1611.4,403.9 18.8,14 42.5,22.6 70.2,22.6 9.3,0 19.1,-1 29.3,-3 27.9,-6.6 55.7,-13.3 83.6,-20.1 299.3,-72.6 596.2,-154.6 891.7,-241.7 178.9,-57.4 359.9,-103 536.6,-161.7"
         style="fill:#213d17;fill-opacity:1;fill-rule:nonzero;stroke:none"
         id="path422" />
      <path
         d="m 25396.5,16169.9 c -15.9,2.2 -27.9,4.9 -35.6,8.2 -44.2,18.4 -176.3,57.5 -368.7,110.6 61.7,-12.3 123.3,-25.4 184.7,-39.7 52.6,-12.2 105.1,-25.3 157.5,-39.5 27.2,-8.5 47.6,-22.4 62.1,-39.6"
         style="fill:#213d17;fill-opacity:1;fill-rule:nonzero;stroke:none"
         id="path424" />
      <path
         d="m 28521.3,16385.2 c 285.2,74.1 573.4,116.4 862.3,152.3 598.5,75.4 1197.6,144 1797.5,206.7 260.9,28 522.2,53.1 783.6,76 38.9,3.4 77.8,6.8 116.8,10.1 3.1,0.2 6.2,0.3 9.2,0.3 14.8,0 28.5,-2.2 40.7,-6.1 -3.2,-43.9 -5.5,-75.8 -5.5,-75.8 l -69.5,-9.1 -339.6,-32.4 c 0,0 -1599.9,-171.5 -3195.5,-322"
         style="fill:#213d17;fill-opacity:1;fill-rule:nonzero;stroke:none"
         id="path426" />
      <path
         d="m 24121.2,17809.6 -3861.9,940.1 -741.8,264.5 v 191.2 l 4603.7,-1256.6 v -139.2"
         style="fill:#4785ce;fill-opacity:1;fill-rule:nonzero;stroke:none"
         id="path428" />
      <path
         d="m 20112.5,18684.5 c -369.5,117.7 -718.7,242.5 -718.7,242.5 l 18.9,307 104.8,-28.6 v -191.2 l 741.8,-264.5 -6,1.4 c -9.8,2.4 -19.6,3.5 -29.3,3.5 -47.3,0 -90.9,-27.3 -111.5,-70.1"
         style="fill:#213d17;fill-opacity:1;fill-rule:nonzero;stroke:none"
         id="path430" />
      <path
         d="m 24124.7,17681.5 c -437.4,106.4 -3032.3,738.1 -3449.3,839.6 -159.4,38.8 -364.1,100.1 -562.9,163.4 20.6,42.8 64.2,70.1 111.5,70.1 9.7,0 19.5,-1.1 29.3,-3.5 l 6,-1.4 3861.9,-940.1 v -33.9 c 0,-22.5 6,-43.6 16.5,-61.7 -5.8,-10.1 -10.2,-21.1 -13,-32.5"
         style="fill:#213d17;fill-opacity:1;fill-rule:nonzero;stroke:none"
         id="path432" />
      <path
         d="m 24187.2,17666.3 c -0.6,0.1 -22.6,5.4 -62.5,15.2 2.8,11.4 7.2,22.4 13,32.5 11.6,-20.2 28.8,-36.8 49.5,-47.7"
         style="fill:#213d17;fill-opacity:1;fill-rule:nonzero;stroke:none"
         id="path434" />
      <path
         d="m 24368.6,17799.4 v 618.7 l 6476.3,914.5 75.7,-390.4 -6552,-1142.8"
         style="fill:#4785ce;fill-opacity:1;fill-rule:nonzero;stroke:none"
         id="path436" />
      <path
         d="m 24324.5,17681 c 26.9,22.7 44.1,56.7 44.1,94.7 v 23.7 l 6552,1142.8 19.3,-99.3 -6391.8,-1137.8 -223.6,-24.1"
         style="fill:#213d17;fill-opacity:1;fill-rule:nonzero;stroke:none"
         id="path438" />
      <path
         d="m 24187.2,17666.2 c 0,0 0,0 0,0.1 -20.7,10.9 -37.9,27.5 -49.5,47.7 -10.5,18.1 -16.5,39.2 -16.5,61.7 v 33.9 139.2 l 72,-19.6 51.7,109.6 -51.7,175.5 51.7,186.4 123.7,17.4 v -618.7 -23.7 c 0,-38 -17.2,-72 -44.1,-94.7 l -137.3,-14.8"
         style="fill:#213d17;fill-opacity:1;fill-rule:nonzero;stroke:none"
         id="path440" />
      <path
         d="m 17713.9,15919.1 c 0,0 841.1,-1959 2066.7,-2631.5 1225.6,-672.5 2987.2,-804 2987.2,-804 0,0 1425.4,-438.6 1863.9,160.8 190.1,336.2 -131.5,380.1 -131.5,380.1 0,0 614,380.1 409.3,614 -204.7,233.9 -877.2,485.4 -877.2,485.4 0,0 584.8,684.1 219.3,903.4 -365.5,219.3 -1125.6,-117 -1125.6,-117 0,0 -1666.6,676.1 -2675.4,1653.8 -1008.7,977.7 -1253.7,1416.3 -1253.7,1416.3 l -1483,-2061.3"
         style="fill:#57d83d;fill-opacity:1;fill-rule:nonzero;stroke:none"
         id="path442" />
      <path
         d="m 24370.6,14661.7 c -6.4,3.2 -13,6.5 -19.8,9.7 33.1,116.8 32.1,228.6 -39.8,307.9 8.2,-2.2 16.6,-4.4 24.7,-6.5 75.7,-113.9 49.9,-254.9 34.9,-311.1 m -890.3,371 c -16.5,6.3 -33.3,12.6 -50.2,19 107.6,28.8 230.3,56 350.2,70.2 27.3,-7.5 54.4,-14.9 81.2,-22.3 -129.9,-7.3 -263.8,-34.9 -381.2,-66.9"
         style="fill:#e29ba5;fill-opacity:1;fill-rule:nonzero;stroke:none"
         id="path444" />
      <path
         d="m 24335.7,14972.8 c -8.1,2.1 -16.5,4.3 -24.7,6.5 -16.1,17.7 -35.7,33.8 -59.4,48 -89.8,53.9 -203.6,74.3 -324,74.3 -21.9,0 -43.9,-0.7 -66.1,-2 -26.8,7.4 -53.9,14.8 -81.2,22.3 54.8,6.5 109,10.3 160.8,10.3 17.2,0 34,-0.4 50.6,-1.3 76,-19.7 153,-39 230.8,-57.6 51.7,-27.8 88,-62.7 113.2,-100.5"
         style="fill:#909e8b;fill-opacity:1;fill-rule:nonzero;stroke:none"
         id="path446" />
      <path
         d="m 24363.1,14636.9 c 0,0 -3.7,10.6 -14.6,26.3 0.8,2.8 1.6,5.5 2.3,8.2 6.8,-3.2 13.4,-6.5 19.8,-9.7 -4.2,-15.7 -7.5,-24.8 -7.5,-24.8 m -1237.1,273.4 c 0,0 -422.3,171.4 -970.4,466.2 546.7,-287.3 946.6,-429.6 946.6,-429.6 0,0 141,54.8 327.9,104.8 16.9,-6.4 33.7,-12.7 50.2,-19 -201.6,-54.8 -354.3,-122.4 -354.3,-122.4"
         style="fill:#909e8b;fill-opacity:1;fill-rule:nonzero;stroke:none"
         id="path448" />
      <path
         d="m 24222.5,15073.3 c -77.8,18.6 -154.8,37.9 -230.8,57.6 54.9,-2.9 106.4,-10.7 152.1,-25 29.5,-9.2 55.6,-20.2 78.7,-32.6"
         style="fill:#909e8b;fill-opacity:1;fill-rule:nonzero;stroke:none"
         id="path450" />
      <path
         d="m 20866.1,16203.8 c -19.2,15 -38.3,30.2 -57.3,45.4 7.9,-6.2 15.8,-12.5 23.7,-18.8 11.2,-9 22.3,-17.8 33.6,-26.6"
         style="fill:#909e8b;fill-opacity:1;fill-rule:nonzero;stroke:none"
         id="path452" />
      <path
         d="m 19358.7,17749 c -0.1,0.1 -0.1,0.1 -0.2,0.2 v 0.1 c 0,0 0.1,-0.1 0.2,-0.3"
         style="fill:#abec9e;fill-opacity:1;fill-rule:nonzero;stroke:none"
         id="path454" />
      <path
         d="m 23152.1,14606.8 c -181.1,0 -1568.5,556.8 -2699.1,1483.7 -1255.7,1126.9 -1096.1,1653.4 -1094.5,1658.7 0.1,-0.1 0.1,-0.1 0.2,-0.2 9.2,-15.3 400.8,-659.1 1450.1,-1499.8 19,-15.2 38.1,-30.4 57.3,-45.4 443.4,-348.8 903.1,-624.3 1289.5,-827.3 548.1,-294.8 970.4,-466.2 970.4,-466.2 0,0 152.7,67.6 354.3,122.4 117.4,32 251.3,59.6 381.2,66.9 22.2,1.3 44.2,2 66.1,2 120.4,0 234.2,-20.4 324,-74.3 23.7,-14.2 43.3,-30.3 59.4,-48 71.9,-79.3 72.9,-191.1 39.8,-307.9 -0.7,-2.7 -1.5,-5.4 -2.3,-8.2 -31.1,44.7 -120.4,130.6 -348.5,130.6 -15.4,0 -31.4,-0.4 -48.1,-1.2 -350.8,-17.3 -635.9,-174.6 -794.9,-185.6 -1.5,-0.1 -3.2,-0.2 -4.9,-0.2"
         style="fill:#abec9e;fill-opacity:1;fill-rule:nonzero;stroke:none"
         id="path456" />
      <path
         d="m 23845.1,12297.7 c -457.1,0.1 -1005.8,165.1 -1022.7,170.2 143.3,-39.3 546.9,-139.1 948.7,-139.1 285.3,0 569.7,50.3 759.5,208.3 -84.7,-85.6 -208.9,-163.6 -388.6,-208.3 -88.8,-22.1 -190.3,-31.1 -296.9,-31.1 m -1023.2,170.4 c -3.3,0.3 -119.5,13.5 -309,41.7 160.4,-19.2 254.9,-26.2 254.9,-26.2 0,0 19.3,-6 54.1,-15.5 m 1869.9,366.1 c -0.7,63 -29.1,105.7 -63.7,134.4 21.3,-5.3 42.4,-10.4 63.2,-15.2 3,-14.8 5.2,-30.2 6.2,-45.9 1.2,-18.4 -0.2,-43.6 -5.7,-73.3"
         style="fill:#cfbf3a;fill-opacity:1;fill-rule:nonzero;stroke:none"
         id="path458" />
      <path
         d="m 24691.3,12953.4 c -20.8,4.8 -41.9,9.9 -63.2,15.2 -55.8,46 -127.9,55.9 -127.9,55.9 0,0 38.5,23.8 93,63.2 19.3,-5.1 38.1,-10 56.5,-14.5 14.3,-29.1 32.1,-71.7 41.6,-119.8"
         style="fill:#213d17;fill-opacity:1;fill-rule:nonzero;stroke:none"
         id="path460" />
      <path
         d="m 24649.7,13073.2 c -18.4,4.5 -37.2,9.4 -56.5,14.5 10.9,7.9 22.4,16.4 34.4,25.5 0.2,-0.3 9.9,-15.3 22.1,-40"
         style="fill:#213d17;fill-opacity:1;fill-rule:nonzero;stroke:none"
         id="path462" />
      <path
         d="m 24735.3,13195.7 c -1.5,0.3 -3.2,0.7 -4.7,1.1 30.2,26.5 60.3,55 88,84.6 -26,-32 -55.5,-61.1 -83.3,-85.7"
         style="fill:#a33841;fill-opacity:1;fill-rule:nonzero;stroke:none"
         id="path464" />
      <path
         d="m 24627.7,13113.2 c 32.1,24.3 67.6,52.6 102.9,83.6 1.5,-0.4 3.2,-0.8 4.7,-1.1 -56.2,-49.8 -105.8,-81.3 -107.6,-82.5"
         style="fill:#213d17;fill-opacity:1;fill-rule:nonzero;stroke:none"
         id="path466" />
      <path
         d="m 23771.1,12328.8 c -401.8,0 -805.4,99.8 -948.7,139.1 -0.3,0.1 -0.4,0.1 -0.4,0.1 0,0 0,0.1 -0.1,0.1 -34.8,9.5 -54.1,15.5 -54.1,15.5 0,0 -94.5,7 -254.9,26.2 -567.3,84.4 -1791.4,302.9 -2610,713.5 -1096,549.7 -2067.4,2437.2 -2067.4,2437.2 0,0 1131.3,-1451.9 2213.1,-2022.7 1081.8,-570.8 2549.2,-702.9 2768.5,-735.8 219.3,-32.9 652.4,-126.1 1107.4,-142.5 17.3,-0.6 33.9,-0.9 49.9,-0.9 405,0 404.4,192.8 386,192.8 -19.2,0 -112.7,30.6 -112.7,30.6 l -323.2,35.2 c 0,0 307,169.9 498.9,290.5 191.9,120.6 372.8,330.1 372.8,330.1 156.1,-116.9 106.9,-252.4 22.4,-356.4 -27.7,-29.6 -57.8,-58.1 -88,-84.6 -35.3,-31 -70.8,-59.3 -102.9,-83.6 -0.1,0 -0.1,0 -0.1,0 v 0 c -12,-9.1 -23.5,-17.6 -34.4,-25.5 -54.5,-39.4 -93,-63.2 -93,-63.2 0,0 72.1,-9.9 127.9,-55.9 34.6,-28.7 63,-71.4 63.7,-134.4 -14.9,-80.5 -59.5,-194.3 -161.2,-297.1 -189.8,-158 -474.2,-208.3 -759.5,-208.3"
         style="fill:#4cb935;fill-opacity:1;fill-rule:nonzero;stroke:none"
         id="path468" />
      <path
         d="m 17713.9,15919.1 c 371.7,-411.2 616.7,-878.3 942.3,-1313.5 309.3,-419.7 644.9,-830.8 1082.7,-1118.5 915.4,-531.9 1998.4,-743.9 3039.9,-855.5 159.6,-38.9 325.6,-84.5 493,-109.6 391.6,-71.7 1004.3,-88.4 1230.7,195.4 20.8,38.9 56.2,107.1 33.3,134.7 -123.5,90.6 -121.4,290.1 2,379.2 96.9,75.5 198.5,159.1 252.9,261.2 13,29.5 13.7,40.6 8.4,45 -32.6,39.1 -71.8,67.9 -116.7,100.2 -212.9,144.2 -462,252.4 -702.1,347.2 -94.6,34.5 -126.3,159.7 -60.8,235.5 100.5,120.2 422.2,564.9 257.8,678 -287.6,137.5 -711.7,-15.4 -994.8,-125.3 -37.2,-15.9 -77.8,-14.7 -112.3,-0.3 -398.5,167.4 -776.8,356.8 -1150.9,564.4 -557.5,315.2 -1114.8,662.5 -1585,1105.5 -152.3,148.3 -301.4,299.7 -445.3,457 -283,319.1 -589.3,653 -692.1,1080.7 503.9,-393.6 910.1,-860.7 1371.4,-1296.2 744,-714.9 1670,-1231.3 2613.4,-1636.3 l -115.8,-1.8 c 368.5,143 793.7,286.9 1186,145.4 535.9,-231 143.9,-865.4 -106.7,-1164 l -60.9,235.5 c 325.5,-135.2 663.4,-263.4 923.3,-512.7 25.9,-28 51.1,-60.3 65.8,-97.5 105.9,-282.3 -161.9,-501.2 -349.2,-652.6 l -7,-5.5 c 7.4,5.3 13.2,12.8 17.1,21.1 12.1,23.4 4.2,55.2 -16.8,71.4 l 21.3,-18.5 c 148.9,-129.8 111,-367.1 13.6,-510.7 -118,-162.4 -301.6,-264.4 -487.2,-316.9 -518.2,-129.3 -1037,-34.3 -1541.1,100.6 l 32.6,-6.2 c -279.5,24.6 -548.7,62.6 -820.6,109.5 -817.2,148.4 -1634.7,365.2 -2357.6,787.4 -479.2,300.1 -870.3,720.5 -1193.3,1179.8 -307.5,459.4 -607.2,947 -671.3,1506.9"
         style="fill:#213d17;fill-opacity:1;fill-rule:nonzero;stroke:none"
         id="path470" />
      <path
         d="m 24560.5,12871.4 c -182.7,-42.4 -366.3,-34.6 -548.5,1.7 -60.1,11.6 -121.4,36.9 -171.4,104.4 -5.6,7.6 -4.2,18.2 2.9,24.2 64.6,53.5 118.9,69.3 174.3,78 157.4,27.2 335.8,67.2 492.4,83.8 182.4,14.6 226,-245.6 50.3,-292.1"
         style="fill:#213d17;fill-opacity:1;fill-rule:nonzero;stroke:none"
         id="path472" />
      <path
         d="m 27855.2,12523.8 c -144.1,38.3 -756.5,587.7 -701.7,699.5 54.9,111.8 646.9,133.8 646.9,133.8 0,0 -149.4,646.9 183,690.7 332.4,43.9 935.4,-359.4 979.3,-410 22.1,-25.5 189.7,171.7 371.4,368.9 178,193.1 369.5,386.3 450.9,370 164.5,-32.8 526.3,-657.8 296,-1041.6 -230.2,-383.7 -657.8,-1228 -2225.8,-811.3"
         style="fill:#57d83d;fill-opacity:1;fill-rule:nonzero;stroke:none"
         id="path474" />
      <path
         d="m 27881.8,14006.9 c 21.9,16.9 47.7,29.5 78,36.6 -30.3,-7.1 -56.1,-19.7 -78,-36.6 v 0"
         style="fill:#f69aac;fill-opacity:1;fill-rule:nonzero;stroke:none"
         id="path476" />
      <path
         d="m 27767.9,13611.7 c -5.9,146.6 12.5,317 113.9,395.2 v 0 c -101.3,-78.2 -119.8,-248.6 -113.9,-395.2 m 1200.2,23.9 h -0.1 0.1 v 0 m 1.1,0 c 0,0.1 0,0.1 0,0.1 0,0 0,0 0,-0.1 m -6.3,2 c -0.1,0.1 -0.2,0.2 -0.2,0.2 0,0 0.1,-0.1 0.2,-0.2 m -1,1.1 c -0.6,0.7 -1.3,1.4 -2.1,2.1 0.8,-0.7 1.5,-1.4 2.1,-2.1 m -2.8,2.9 c -0.4,0.4 -0.9,0.8 -1.3,1.2 0.4,-0.4 0.9,-0.8 1.3,-1.2 m -1.7,1.5 c -0.1,0.2 -0.3,0.3 -0.4,0.4 0.1,-0.1 0.3,-0.2 0.4,-0.4 m -153.7,108.1 c 0,0.1 0,0 0,0.1 v -0.1"
         style="fill:#e29ba5;fill-opacity:1;fill-rule:nonzero;stroke:none"
         id="path478" />
      <path
         d="m 28197.9,14029.5 c -56.7,13.7 -111.2,21.6 -161.2,21.6 v 0 c 50,0 104.5,-7.9 161.2,-21.6 v 0"
         style="fill:#f69aac;fill-opacity:1;fill-rule:nonzero;stroke:none"
         id="path480" />
      <path
         d="m 28800.2,13753.5 c -154.9,97.2 -393.4,225.6 -602.3,276 v 0 c 208.9,-50.4 447.4,-178.8 602.3,-276 m 514.7,232.3 c 0.2,0.2 0.3,0.4 0.5,0.6 -0.2,-0.2 -0.3,-0.4 -0.5,-0.6 m 4.3,4.7 c 3.8,4.1 7.6,8.3 11.5,12.4 -3.9,-4.1 -7.7,-8.3 -11.5,-12.4 m 19.5,21.2 c 0.5,0.5 1,1 1.5,1.6 -0.5,-0.6 -1,-1.1 -1.5,-1.6 m 7.2,7.8 c 0.2,0.2 0.4,0.4 0.6,0.6 -0.2,-0.2 -0.4,-0.4 -0.6,-0.6 m 2,2.1 c 0.1,0.2 0.3,0.3 0.4,0.5 -0.1,-0.2 -0.3,-0.3 -0.4,-0.5 m 2.2,2.4 0.1,0.1 -0.1,-0.1"
         style="fill:#e29ba5;fill-opacity:1;fill-rule:nonzero;stroke:none"
         id="path482" />
      <path
         d="m 29457.9,14137.8 c 129.6,132.8 251.3,239.9 316.9,239.9 3.5,0 7,-0.3 10.2,-1 20.4,-4 43.8,-17.2 68.7,-37.9 -24.9,20.7 -48.3,33.9 -68.7,37.9 -3.2,0.7 -6.6,1 -10.2,1 -65.6,0 -187.3,-107.1 -316.9,-239.9 v 0"
         style="fill:#f69aac;fill-opacity:1;fill-rule:nonzero;stroke:none"
         id="path484" />
      <path
         d="m 29351.2,14025.2 c 35.5,38.3 71.4,76.4 106.7,112.6 v 0 c -35.3,-36.2 -71.2,-74.3 -106.7,-112.6"
         style="fill:#e29ba5;fill-opacity:1;fill-rule:nonzero;stroke:none"
         id="path486" />
      <path
         d="m 27959.9,14043.6 c 0.9,0.1 1.7,0.3 2.5,0.5 -0.8,-0.2 -1.6,-0.4 -2.5,-0.5 m 2.8,0.6 c 0.8,0.2 1.6,0.3 2.4,0.5 -0.8,-0.2 -1.6,-0.3 -2.4,-0.5 m 2.9,0.6 c 0.2,0.1 0.4,0.1 0.7,0.1 -0.3,0 -0.5,0 -0.7,-0.1 m 1.6,0.3 c 0.2,0.1 0.5,0.1 0.7,0.2 -0.2,-0.1 -0.4,-0.1 -0.7,-0.2 m 1.2,0.3 c 0.2,0 0.4,0.1 0.6,0.1 -0.2,0 -0.4,-0.1 -0.6,-0.1 m 1.7,0.3 c 0.2,0 0.3,0.1 0.5,0.1 -0.2,0 -0.3,-0.1 -0.5,-0.1 m 1.3,0.2 c 0.2,0.1 0.3,0.1 0.4,0.1 -0.1,0 -0.3,0 -0.4,-0.1 m 1.6,0.3 c 0.1,0 0.3,0.1 0.4,0.1 -0.1,0 -0.3,-0.1 -0.4,-0.1 m 1.3,0.3 c 0.2,0 0.3,0 0.4,0 -0.1,0 -0.3,0 -0.4,0 m 1.6,0.2 c 0.1,0 0.2,0 0.4,0.1 -0.2,-0.1 -0.3,-0.1 -0.4,-0.1 m 1.4,0.2 c 0.1,0.1 0.2,0.1 0.2,0.1 0,0 -0.1,0 -0.2,-0.1 m 1.5,0.3 c 0.1,0 0.2,0 0.4,0 -0.2,0 -0.3,0 -0.4,0 m 1.5,0.2 c 0.1,0 0.1,0 0.1,0 0,0 0,0 -0.1,0 m 1.4,0.2 c 0.1,0 0.2,0 0.4,0 -0.1,0 -0.3,0 -0.4,0 m 1.7,0.2 c 17,2.3 34.8,3.3 53.2,3.3 -18.4,0 -36.2,-1 -53.2,-3.3 m 1872.9,288.8 v 0.1 c 0,0 0,0 0,-0.1 m -0.4,0.4 c -0.1,0.1 -0.2,0.1 -0.2,0.2 0,-0.1 0.1,-0.1 0.2,-0.2 m -0.5,0.4 c -0.1,0.1 -0.2,0.2 -0.3,0.3 0.1,-0.1 0.2,-0.2 0.3,-0.3 m -0.6,0.5 c -0.1,0.1 -0.2,0.2 -0.3,0.3 0.1,-0.1 0.2,-0.2 0.3,-0.3 m -0.5,0.5 c -0.2,0.1 -0.3,0.2 -0.4,0.3 0.1,-0.1 0.2,-0.2 0.4,-0.3"
         style="fill:#f69aac;fill-opacity:1;fill-rule:nonzero;stroke:none"
         id="path488" />
      <path
         d="m 28963.7,13260.6 c -0.3,0 -0.7,0 -1,0 -63.9,0.6 -594.5,413 -931.8,413 -16.3,0 -32.2,-1 -47.5,-3 -118.2,-15.6 -175.3,-107.4 -200,-219.2 -6.6,44.1 -13.1,100.2 -15.5,160.3 -5.9,146.6 12.6,317 113.9,395.2 21.9,16.9 47.7,29.5 78,36.6 0,0 0.1,0 0.1,0.1 0.9,0.1 1.7,0.3 2.5,0.5 0.1,0 0.2,0.1 0.3,0.1 0.8,0.2 1.6,0.3 2.4,0.5 0.2,0 0.3,0.1 0.5,0.1 0.2,0.1 0.4,0.1 0.7,0.1 0.3,0.1 0.6,0.2 0.9,0.2 0.3,0.1 0.5,0.1 0.7,0.2 0.2,0 0.4,0 0.5,0.1 0.2,0 0.4,0.1 0.6,0.1 0.4,0.1 0.7,0.1 1.1,0.2 0.2,0 0.3,0.1 0.5,0.1 0.3,0 0.5,0.1 0.8,0.1 0.1,0.1 0.3,0.1 0.4,0.1 0.4,0.1 0.8,0.1 1.2,0.2 0.1,0 0.3,0.1 0.4,0.1 0.3,0.1 0.6,0.1 0.9,0.2 0.1,0 0.3,0 0.4,0 0.4,0.1 0.8,0.1 1.2,0.2 0.1,0 0.2,0 0.4,0.1 0.3,0 0.7,0.1 1,0.1 0.1,0.1 0.2,0.1 0.2,0.1 0.4,0 0.9,0.1 1.3,0.2 0.1,0 0.2,0 0.4,0 0.3,0.1 0.7,0.1 1.1,0.2 0.1,0 0.1,0 0.1,0 0.5,0.1 0.9,0.1 1.3,0.2 0.1,0 0.3,0 0.4,0 0.4,0.1 0.8,0.2 1.3,0.2 v 0 c 17,2.3 34.8,3.3 53.2,3.3 0,0 0,0 0.1,0 50,0 104.5,-7.9 161.2,-21.6 208.9,-50.4 447.4,-178.8 602.3,-276 1.2,-0.8 2.3,-1.5 3.5,-2.2 0,-0.1 0,0 0,-0.1 77.3,-48.6 133.2,-89.1 153.3,-107.7 0.1,-0.1 0.3,-0.2 0.4,-0.4 0.1,-0.1 0.3,-0.2 0.4,-0.3 0.4,-0.4 0.9,-0.8 1.3,-1.2 0.2,-0.3 0.5,-0.5 0.7,-0.8 0.8,-0.7 1.5,-1.4 2.1,-2.1 0.3,-0.3 0.5,-0.6 0.8,-0.9 v 0 c 0,0 0.1,-0.1 0.2,-0.2 1.2,-1.3 3,-2 5.1,-2 h 0.1 v 0 0 c 0.3,0 0.7,0 1.1,0 0,0.1 0,0.1 0,0.1 37.1,3.4 183.9,173.6 345.7,350.1 0.2,0.2 0.3,0.4 0.5,0.6 1.3,1.3 2.6,2.7 3.8,4.1 3.8,4.1 7.6,8.3 11.5,12.4 1.1,1.3 2.2,2.5 3.4,3.8 1.5,1.6 3.1,3.3 4.6,5 0.5,0.5 1,1 1.5,1.6 1.9,2 3.8,4.1 5.7,6.2 0.2,0.2 0.4,0.4 0.6,0.6 0.5,0.5 0.9,1 1.4,1.5 0.1,0.2 0.3,0.3 0.4,0.5 0.6,0.6 1.2,1.3 1.8,1.9 l 0.1,0.1 c 0.3,0.3 0.7,0.7 1,1.1 35.5,38.3 71.4,76.4 106.7,112.6 129.6,132.8 251.3,239.9 316.9,239.9 3.6,0 7,-0.3 10.2,-1 20.4,-4 43.8,-17.2 68.7,-37.9 0.1,0 0.1,-0.1 0.2,-0.1 0.1,-0.1 0.2,-0.2 0.4,-0.3 0,-0.1 0.1,-0.2 0.2,-0.2 0.1,-0.1 0.2,-0.2 0.3,-0.3 0.1,-0.1 0.2,-0.1 0.3,-0.2 0.1,-0.1 0.2,-0.2 0.3,-0.3 0.1,0 0.2,-0.1 0.3,-0.2 0,-0.1 0.1,-0.1 0.2,-0.2 0.1,-0.1 0.2,-0.2 0.4,-0.3 v -0.1 c 157,-132.9 372,-558.5 274.9,-886.4 -64.8,278.6 -243.8,528.8 -346.2,549.3 -3.5,0.7 -7,1.1 -10.6,1.1 -85.5,0 -229.1,-185 -380.8,-370 -151.8,-185 -311.7,-370 -429.9,-370"
         style="fill:#abec9e;fill-opacity:1;fill-rule:nonzero;stroke:none"
         id="path490" />
      <path
         d="m 29745.3,14234.3 z m -691.8,-479.1 c 9.7,-8.2 16.9,-15 21.2,-20 -6.6,7.6 -13.7,14.3 -21.2,20 z m -202.9,-214.6 c 0.8,-1.1 1.9,-2.3 3.1,-3.6 -1,1.1 -2.1,2.4 -3.1,3.6 z m -955.3,-873.9 c 1397.4,-370.4 1793.8,298.3 2030.5,697.9 l 27.9,46.9 c 85.4,142.2 49.2,331.5 20,431.7 -55.6,191.2 -155.4,327.1 -206.6,374.6 -100.3,-64.7 -318.7,-305.4 -428.9,-426.9 -216.2,-238.3 -275.5,-303.7 -369.6,-303.7 h -2.3 c -42.3,0.5 -82.5,18 -111.3,48.4 -77,68.6 -600.6,397.4 -852.2,365 -20.9,-2.7 -33,-10.1 -44.8,-27.1 -64,-92 -46.1,-338 -12.9,-483.2 9.9,-43.1 0,-88.4 -26.9,-123.5 -26.9,-35.1 -68,-56.4 -112.2,-58.1 -175.4,-6.5 -359.6,-28.8 -464.7,-53.7 125.3,-159.5 457.3,-451.7 554,-488.3 z m 737.3,-404.2 c -234.8,0 -504.6,35.2 -815.5,117.8 v 0 c -186.6,49.6 -696.2,514.6 -790.2,721.1 -31.5,69 -33.7,132.1 -6.7,187.3 23.5,47.7 82.1,167.3 606.7,207.4 -18.1,161.6 -19.2,393.2 87,546.5 59.6,86 146.1,138.7 250,152.4 312.2,41.2 783.2,-222.9 999.5,-372.3 44.5,45.9 103.7,111.1 155,167.7 358.3,394.9 532,564.3 695.7,531.9 202.3,-40.5 355,-364.5 383.6,-429 137.9,-311.8 141.8,-616 10.6,-834.6 l -27,-45.4 c -196.1,-331 -563.3,-950.8 -1548.7,-950.8"
         style="fill:#213d17;fill-opacity:1;fill-rule:nonzero;stroke:none"
         id="path492" />
    </g>
  </g>
</svg>
