<?xml version="1.0" encoding="UTF-8" standalone="no"?>
<!-- Created with Inkscape (http://www.inkscape.org/) -->

<svg
   version="1.1"
   id="svg132"
   width="5333.3335"
   height="5333.3335"
   viewBox="0 0 5333.3335 5333.3335"
   xmlns="http://www.w3.org/2000/svg"
   xmlns:svg="http://www.w3.org/2000/svg">
  <defs
     id="defs136" />
  <g
     id="g140"
     transform="matrix(1.3333333,0,0,-1.3333333,0,5333.3333)">
    <g
       id="g142"
       transform="scale(0.1)">
      <path
         d="m 19466.5,3650 c -4942.9,0 -8950,728.9 -8950,1628 0,470.6 1098.3,894.7 2854,1191.9 -197.7,-245 -333.7,-486.6 -417.9,-659.6 -78.3,-161.2 -65.9,-346.4 33.3,-495.5 93.6,-140.8 246.8,-222.7 414.4,-222.7 9.6,0 19.4,0.3 29.2,0.9 l 685,38.4 c 1,-123.2 56.5,-237.8 152.6,-315 73.4,-58.9 163.1,-90 255,-90 29.8,0 59.8,3.3 89.6,9.9 601.9,133.8 1838.8,162.5 2786.7,162.5 214.7,0 414.6,-1.5 588.9,-3.5 5.7,-0.1 11.5,-0.1 17.2,-0.1 576.2,0 1086.7,364.6 1274.5,909.8 l 379.3,1100.5 c 207.1,-0.7 412.5,-2.8 616,-6.1 -280.7,-449.8 -372.8,-966.3 -395.2,-1367 -10.1,-181.2 74.5,-348.4 226.2,-447.2 83,-54.1 176.5,-81.3 270.6,-81.3 77.3,0 154.9,18.4 227.3,55.4 l 109.2,55.8 c 21.4,-77.9 51.4,-154.7 89.5,-229.1 61.2,-119.3 165.6,-207.1 293.9,-247.1 49.1,-15.4 99.3,-23 149.3,-23 81,0 161.4,20 235,59.5 l 572.5,306.6 c 37.6,-120 91.5,-225.5 161.3,-315.5 83.3,-107.4 208.9,-176.2 344.8,-188.7 15.2,-1.4 30.3,-2.1 45.5,-2.1 121.9,0 241.2,44.9 332.9,126.5 l 2039.2,1814.7 c 43.1,38.3 80.6,81.3 112,127.9 2030.2,-298.5 3328.2,-755.1 3328.2,-1266.8 0,-899.1 -4007,-1628 -8950,-1628"
         style="opacity:0.5;fill:#b3b3b3;fill-opacity:1;fill-rule:nonzero;stroke:none"
         id="path146" />
      <path
         d="m 25121.4,19165.1 c -366.1,-503.7 -864.4,-981.4 -864.4,-981.4 l -517.9,3103 c 0,0 632.4,-270.5 1141.4,-606.5 269.3,-177.7 504.3,-373.7 591.7,-558 105.7,-222 -88.6,-596.4 -350.8,-957.1"
         style="fill:#ffffff;fill-opacity:1;fill-rule:nonzero;stroke:none"
         id="path148" />
      <path
         d="m 26116.4,17110.2 c -240.3,-631.3 -1201,-1457.9 -1201,-1457.9 l -658.4,2531.4 c 0,0 588.1,-22.5 1113.6,-173.6 333.7,-95.7 641.9,-243.3 759.4,-468.9 62,-119.3 47.8,-268.7 -13.6,-431"
         style="fill:#ffffff;fill-opacity:1;fill-rule:nonzero;stroke:none"
         id="path150" />
      <path
         d="m 24046,20883.3 367.3,-2199.9 c 112.1,121.4 241.1,267.3 364.5,421.5 568.5,710 481.8,914 480.9,916 -116.8,245.1 -690.7,601.1 -1212.7,862.4 m 211.2,-2935.6 c -24.9,0 -50,3.9 -74.4,12 -83.1,27.6 -144.1,98.9 -158.5,185.3 l -518.1,3102.7 c -14.2,85.1 19.2,171.2 87,224.6 67.9,53.3 159.5,65.4 238.8,31.4 260.8,-111.5 1575.8,-697.2 1853.2,-1279.7 151.3,-317.8 -20.7,-768.4 -541.5,-1417.8 -341,-425.4 -707.6,-778 -723,-792.8 -44.7,-42.8 -103.5,-65.7 -163.5,-65.7"
         style="fill:#5c0000;fill-opacity:1;fill-rule:nonzero;stroke:none"
         id="path152" />
      <path
         d="m 24569,17923.3 476,-1831.6 c 537.6,522.5 984.4,1131.6 875.5,1340.2 -137.6,263.8 -792.7,429.6 -1351.5,491.4 m 346.1,-2507.1 c -23.5,0 -47.3,3.5 -70.4,10.8 -77.8,24.3 -137.6,87.1 -158.1,166 l -658,2531.5 c -18.8,72.3 -2.2,149.2 44.6,207.4 46.9,58.3 118.8,90.1 193.1,88 284.9,-11 1723.6,-99.8 2073,-769.5 177.4,-339.9 6.2,-806.2 -523.4,-1425.4 -349.4,-408.5 -730.6,-737.8 -746.6,-751.6 -43.5,-37.4 -98.4,-57.2 -154.2,-57.2"
         style="fill:#5c0000;fill-opacity:1;fill-rule:nonzero;stroke:none"
         id="path154" />
      <path
         d="m 24850.1,19196.9 c -125.4,515.7 -239.5,1003.5 -337.8,1433.4 115,-67.8 224.9,-137.3 323.8,-206.2 -32.4,-286.1 -17.2,-656.3 157.5,-1030.3 -41.3,-60.2 -88.9,-125.7 -143.5,-196.9"
         style="fill:#c5cec3;fill-opacity:1;fill-rule:nonzero;stroke:none"
         id="path156" />
      <path
         d="m 24921.2,18906.3 c -24.1,97.8 -47.8,194.6 -71.1,290.6 54.6,71.2 102.2,136.7 143.5,196.9 35.7,-76.3 78,-152.8 127.8,-228.7 -63.8,-87.9 -131.7,-174.9 -200.2,-258.8 m -85.1,1517.8 c -98.9,68.9 -208.8,138.4 -323.8,206.2 -7,30.5 -13.9,60.9 -20.7,90.7 70.1,23.5 139.6,47.7 208.7,72.8 60.9,-36.8 121.4,-74.7 180.2,-113.6 -17.3,-73.9 -33.5,-160.3 -44.4,-256.1"
         style="fill:#4b0f04;fill-opacity:1;fill-rule:nonzero;stroke:none"
         id="path158" />
      <path
         d="m 25524.4,16611.8 c -111.4,393 -220.6,796.9 -325.9,1200.3 61.8,-15.6 121.9,-32.5 179.4,-50.8 32.3,-296.4 159.8,-563 492.9,-634.1 -70.5,-147.8 -193,-327.1 -346.4,-515.4"
         style="fill:#c5cec3;fill-opacity:1;fill-rule:nonzero;stroke:none"
         id="path160" />
      <path
         d="m 25602.7,16339 c -26.2,90.2 -52.3,181.2 -78.3,272.8 153.4,188.3 275.9,367.6 346.4,515.4 56.6,-12 119,-18.5 187.9,-18.5 18.8,0 38,0.5 57.7,1.5 -94.2,-247.6 -299.3,-525.2 -513.7,-771.2 m -224.8,1422.3 c -57.5,18.3 -117.6,35.2 -179.4,50.8 -22.5,86 -44.7,172 -66.8,257.7 79.6,-17.2 160,-37 238.9,-59.7 -3.2,-82.9 -1.6,-167 7.3,-248.8"
         style="fill:#4b0f04;fill-opacity:1;fill-rule:nonzero;stroke:none"
         id="path162" />
      <path
         d="m 31762.6,14320.1 -1796.8,-184.8 423.4,869.2 211.4,434 c 111,228.5 434.6,235 555,11.2 l 197.8,-368.4 409.2,-761.2"
         style="fill:#ffffff;fill-opacity:1;fill-rule:nonzero;stroke:none"
         id="path164" />
      <path
         d="m 29628.6,13887.9 -2279.3,31.9 708.6,1093.6 321.8,496.5 c 134.7,207.9 446.4,183.7 546.8,-42.5 l 180.1,-405 522,-1174.5"
         style="fill:#ffffff;fill-opacity:1;fill-rule:nonzero;stroke:none"
         id="path166" />
      <path
         d="m 27349.3,13919.8 -2651.8,509 1176.8,1383.5 155.3,182.4 c 152.4,178.9 440.5,131.1 527.3,-86.8 l 265.7,-666.6 526.7,-1321.5"
         style="fill:#ffffff;fill-opacity:1;fill-rule:nonzero;stroke:none"
         id="path168" />
      <path
         d="m 30881,15377.6 h -1.7 c -17.3,-0.3 -48.9,-6.3 -66.5,-42.5 l -448.8,-921.4 1023.7,105.5 -440.2,818.6 c -18.5,34.3 -48.9,39.8 -66.5,39.8 m -915.4,-1478.5 c -76.6,0 -149.1,37.2 -193.5,100.9 -49.2,70.2 -56.4,161.6 -18.8,238.7 l 634.8,1303.2 c 90.5,185.9 275.1,303.9 481.7,308 205.9,4.7 395.8,-106.3 493.7,-288.4 l 607.4,-1129.3 c 37.3,-69.4 37.5,-152.8 0.6,-222.5 -36.9,-69.6 -106.1,-116.3 -184.5,-124.3 l -1797.2,-185.1 c -8.1,-0.8 -16.2,-1.2 -24.2,-1.2"
         style="fill:#5c0000;fill-opacity:1;fill-rule:nonzero;stroke:none"
         id="path170" />
      <path
         d="m 27779.9,14150 1483,-20.7 -552.2,1241.9 c -16,35.9 -46.5,43.4 -63.3,44.7 -16.7,1.2 -48.1,-1.4 -69.4,-34.2 L 27779.9,14150 m 1848.8,-498.3 c -1.1,0 -2.2,0 -3.3,0 l -2279.4,31.9 c -85.9,1.2 -164.4,49 -205,124.8 -40.5,75.8 -36.6,167.7 10.1,239.8 l 1030.5,1590.3 c 109.4,168.9 302.2,263.8 502.8,248.4 200.7,-15.8 376.2,-139.8 457.9,-323.8 l 702.2,-1579.3 c 32.7,-73.5 25.7,-158.7 -18.7,-226 -43.7,-66.3 -117.8,-106.1 -197.1,-106.1"
         style="fill:#5c0000;fill-opacity:1;fill-rule:nonzero;stroke:none"
         id="path172" />
      <path
         d="m 25139.9,14584.2 1830.3,-351.2 -632.6,1587.4 c -13.8,34.5 -42.3,44 -58,46.6 -15.7,2.8 -45.8,2.8 -70,-25.6 l -1069.7,-1257.2 m 2209.5,-900.6 c -14.8,0 -29.7,1.4 -44.6,4.2 l -2651.9,508.9 c -82.6,15.9 -150.4,74.4 -178.3,153.7 -27.9,79.2 -11.6,167.3 42.9,231.3 l 1332.4,1565.8 c 125.7,147.7 315,216.9 506.3,185.7 191.3,-31.5 348.4,-157.8 420.2,-337.9 l 792.4,-1988.1 c 31.9,-80.1 17.6,-171.4 -37.4,-237.9 -45.3,-54.8 -112.4,-85.7 -182,-85.7"
         style="fill:#5c0000;fill-opacity:1;fill-rule:nonzero;stroke:none"
         id="path174" />
      <path
         d="m 26745.9,14795.9 c -268.7,42.9 -523.5,90.8 -762.2,141 -36.3,161.3 -76.9,326.6 -121.5,496.1 l 114.4,134.5 c 104.6,-183.9 285.1,-362.3 591.8,-362.3 4.8,0 9.5,0 14.3,0.1 l 163.2,-409.4"
         style="fill:#c5cec3;fill-opacity:1;fill-rule:nonzero;stroke:none"
         id="path176" />
      <path
         d="m 27016.4,14755.2 c -38.8,5.5 -77.3,11.1 -115.2,16.7 -52.2,7.8 -104.1,15.9 -155.3,24 l -163.2,409.4 c 72.8,1.3 152.6,12.6 239.9,36 l 193.8,-486.1 m -1154.2,677.8 c -23.9,90.9 -49,183 -75.3,276.5 l 87.4,102.8 c 20.8,-70.8 53.2,-158.4 102.3,-244.8 l -114.4,-134.5"
         style="fill:#4b0f04;fill-opacity:1;fill-rule:nonzero;stroke:none"
         id="path178" />
      <path
         d="m 29020.6,14611.2 c -318.6,0 -627.1,11.5 -921.6,31.1 l 223.7,345.3 c 62.7,-3.8 125.6,-5.9 188.3,-5.9 122.6,0 244.2,7.9 361.1,26.4 l 176.5,-396.9 c -9.3,0 -18.7,0 -28,0"
         style="fill:#c5cec3;fill-opacity:1;fill-rule:nonzero;stroke:none"
         id="path180" />
      <path
         d="m 29048.6,14611.2 -176.5,396.9 c 80.8,12.8 159.3,30.6 234.5,54.3 l 199.2,-448.1 c -86.5,-1.9 -172.1,-2.9 -257.2,-3.1 m -949.6,31.1 c -90.8,6.1 -180.2,12.9 -268.2,20.5 l 227.1,350.6 c 86.9,-11.5 175.6,-20.4 264.8,-25.8 l -223.7,-345.3"
         style="fill:#4b0f04;fill-opacity:1;fill-rule:nonzero;stroke:none"
         id="path182" />
      <path
         d="m 30502.6,14698.2 131.4,269.9 c 34.6,-2.4 70,-3.6 106,-3.6 120.1,0 248.2,13.7 383.5,45.9 l 107.3,-199.5 c -244.5,-46.4 -487.6,-83.6 -728.2,-112.7"
         style="fill:#c5cec3;fill-opacity:1;fill-rule:nonzero;stroke:none"
         id="path184" />
      <path
         d="m 30225.3,14668.1 163.9,336.4 c 76.6,-17.7 158.4,-30.5 244.8,-36.4 l -131.4,-269.9 c -92.8,-11.2 -185.3,-21.2 -277.3,-30.1 m 1005.5,142.8 -107.3,199.5 c 74.5,17.8 151.2,41.1 229.9,70.9 l 119.1,-221.6 c -80.6,-17.3 -161.2,-33.6 -241.7,-48.8"
         style="fill:#4b0f04;fill-opacity:1;fill-rule:nonzero;stroke:none"
         id="path186" />
      <path
         d="m 23956.4,15282.1 59.5,-4464.8 20.9,-1598.6 c 6877.6,-1175.5 9095.9,5779.4 9128.3,5882.3 v 0.6 c -62.9,-24.9 -125.8,-49.8 -189.1,-72.9 -2380.4,-891.7 -4873.9,-725 -6634.5,-394.5 -1436.8,269.8 -2385.1,647.9 -2385.1,647.9"
         style="fill:#58da3f;fill-opacity:1;fill-rule:nonzero;stroke:none"
         id="path188" />
      <path
         d="m 28997.7,13771.4 c -946.6,0 -1831.4,100.5 -2590.8,234.9 -20.6,129.9 -43.6,256.7 -68.3,379.7 154.8,-27.9 315.1,-54.6 480.2,-79.4 631.8,-94.8 1383.2,-167.7 2201.3,-167.7 1100.4,0 2321.3,131.9 3532.2,519.5 -108.5,-136.4 -238.7,-293 -390.2,-463.2 -1074.5,-309.5 -2154.7,-423.8 -3164.4,-423.8"
         style="fill:#bcf0b2;fill-opacity:1;fill-rule:nonzero;stroke:none"
         id="path190" />
      <path
         d="m 24203.9,9424.1 c 2685.2,-404 4945.4,408.2 6720.5,2416.5 960.5,1086.7 1516.6,2239.9 1773.9,2865.8 -2158,-728.3 -4363.6,-627.4 -5879.5,-399.8 -1244.3,186.9 -2210.2,478.7 -2688.2,641.1 l 73.3,-5523.6 M 25490.7,8853 c -506.4,0 -1026.9,45.5 -1560.2,136.7 -112.3,19.1 -194.9,115.8 -196.4,229.7 l -80.4,6063.3 c -1.1,78.8 37.4,153 102.3,197.7 65,44.7 148,54 221.3,24.9 11.9,-4.8 1212.8,-477.8 2923.9,-733.4 1569.4,-234.3 3903.4,-328.7 6109.7,552.7 74.4,29.7 158.8,19.7 224.2,-26.5 65.3,-46.3 102.8,-122.6 99.5,-202.6 -0.9,-20.8 -4.5,-41.9 -10.7,-61.7 -23.8,-75.5 -598.4,-1868.8 -2045.5,-3506.1 C 30432.6,10571 29458.9,9859.5 28384.1,9413 27486.3,9040.1 26517.5,8853 25490.7,8853"
         style="fill:#5c0000;fill-opacity:1;fill-rule:nonzero;stroke:none"
         id="path192" />
      <path
         d="m 23949.3,10821 21,-1598.6 c 6877.6,-1175.5 9095.9,5779.4 9128.2,5882.3 -58.9,-91.9 -3423.2,-5280.4 -9149.2,-4283.7"
         style="fill:#ffdf46;fill-opacity:1;fill-rule:nonzero;stroke:none"
         id="path194" />
      <path
         d="m 24145.5,9373.3 c 2727.8,-425 5023,391.6 6823.1,2428.2 660,746.6 1130.3,1524.9 1444.6,2144 -409.1,-458 -964.6,-1007.8 -1657.2,-1532.1 -2016.9,-1526.8 -4303.9,-2147 -6626.8,-1800.9 l 16.3,-1239.2 m 1345.1,-461.2 c -503.1,0 -1020.3,45.2 -1550.1,135.8 -84.3,14.4 -146.2,86.8 -147.3,172.2 l -21,1598.6 c -0.7,52.7 22.1,102.9 62.2,137.1 40.1,34.2 93.4,48.7 145.3,39.7 2328.7,-405.2 4536.5,166.8 6562.5,1700.4 1539.1,1165 2372.5,2450.3 2407.2,2504.4 47.9,74.7 143.7,102.5 224.2,64.8 80.4,-37.6 120.5,-128.9 93.9,-213.5 -23.6,-75.1 -594.4,-1856.8 -2033.4,-3484.7 -839.7,-950.1 -1806.2,-1656.4 -2872.6,-2099.3 -890.6,-369.9 -1851.8,-555.5 -2870.9,-555.5"
         style="fill:#5c0000;fill-opacity:1;fill-rule:nonzero;stroke:none"
         id="path196" />
      <path
         d="m 30955.4,11345.6 c -10.8,0 -21.7,1 -32.7,3.1 -96.2,17.9 -159.6,110.4 -141.7,206.6 138.1,739.7 73.4,1273.4 72.7,1278.7 -12.2,97 56.4,185.6 153.3,198 96.8,12.4 185.6,-56 198.1,-152.9 3.1,-23.8 73.3,-590.4 -75.8,-1388.8 -15.9,-85.2 -90.3,-144.7 -173.9,-144.7"
         style="fill:#5c0000;fill-opacity:1;fill-rule:nonzero;stroke:none"
         id="path198" />
      <path
         d="m 28826.2,9702.1 c -29,0 -58.3,7.1 -85.5,22.1 -85.6,47.3 -116.7,155.1 -69.5,240.7 433.4,785.1 324,1624.5 322.9,1632.8 -13.4,96.8 54.2,186.3 151,199.8 96.4,13.7 186.1,-53.7 199.8,-150.5 5.5,-38.8 128.9,-961.4 -363.5,-1853.3 -32.3,-58.5 -92.8,-91.6 -155.2,-91.6"
         style="fill:#5c0000;fill-opacity:1;fill-rule:nonzero;stroke:none"
         id="path200" />
      <path
         d="m 26533.8,8980.7 c -28.6,0 -57.7,7 -84.6,21.6 -85.9,46.8 -117.6,154.4 -70.9,240.3 367.3,674.7 469.2,1626.7 470.2,1636.2 10.1,97.3 97.1,168 194.4,158 97.3,-10 168,-97 158.1,-194.3 -4.3,-41.7 -109.7,-1031.2 -511.5,-1769.3 -32.1,-59 -93,-92.5 -155.7,-92.5"
         style="fill:#5c0000;fill-opacity:1;fill-rule:nonzero;stroke:none"
         id="path202" />
      <path
         d="m 25781.8,10877.9 c 414,993.9 528.1,1981.7 364,3176.9 31.6,-6.2 63.6,-12.3 95.7,-18.3 54.5,-10.2 109.5,-20.3 165.4,-30.2 73.4,-463.6 116.1,-966.8 97.2,-1479.8 -21.7,-588.5 268.6,-1135.6 748.9,-1438.3 -74,-17.9 -148.4,-34.8 -222.8,-50.5 -1.9,0 -3.7,0.1 -5.6,0.1 -26.5,0 -51.9,-6 -74.8,-16.7 -385,-77.2 -774.4,-125 -1168,-143.2"
         style="fill:#59ae32;fill-opacity:1;fill-rule:nonzero;stroke:none"
         id="path204" />
      <path
         d="m 26406.9,14006.3 c -55.9,9.9 -110.9,20 -165.4,30.2 -32.1,6 -64.1,12.1 -95.7,18.3 -17.1,124 -37.1,250.2 -60.1,378.9 82.6,-16.3 166.9,-32.2 252.9,-47.7 24.7,-123 47.7,-249.8 68.3,-379.7"
         style="fill:#a9c08e;fill-opacity:1;fill-rule:nonzero;stroke:none"
         id="path206" />
      <path
         d="m 26338.6,14386 c -86,15.5 -170.3,31.4 -252.9,47.7 -14.6,81.6 -30.4,164.5 -47.4,248.2 80.7,-16.5 163.1,-32.6 247.2,-48.4 18.4,-80.6 36.2,-163.2 53.1,-247.5"
         style="fill:#5c0000;fill-opacity:1;fill-rule:nonzero;stroke:none"
         id="path208" />
      <path
         d="m 25509.8,9264.1 c -196.6,0 -395.8,7.2 -597.6,21.6 34,75.3 74.2,148.3 120.5,218.3 230.5,348.3 426.4,685.4 588.6,1018.7 401,11.7 799.5,52.5 1194,122 -51,-309.6 -167.8,-869.2 -397.9,-1327.3 -296.1,-35.5 -598.6,-53.3 -907.6,-53.3 m 1325.5,116 c 218.7,526 315.8,1092.9 350.1,1338.5 197.6,44.1 394,95.5 589.2,154.1 250.8,-67.7 527.1,-111.8 822,-111.8 117.3,0 237.7,7 360.4,22.3 -44.1,-241.8 -124.1,-513.7 -265.5,-780.9 -585,-296.9 -1203.9,-504.4 -1856.2,-622.2"
         style="fill:#deb238;fill-opacity:1;fill-rule:nonzero;stroke:none"
         id="path210" />
      <path
         d="m 25504.1,9084.3 c -214.1,0 -433.7,8.3 -658.7,25.8 18.6,59.7 40.9,118.3 66.8,175.6 201.8,-14.4 401,-21.6 597.6,-21.6 309,0 611.5,17.8 907.6,53.3 -12.6,-25.3 -25.7,-50.2 -39.1,-74.8 -19.4,-35.6 -25.3,-75 -19.4,-112.2 -274.9,-30.2 -559.6,-46.1 -854.8,-46.1 m 1242.4,99.1 c 31.6,64.4 61.2,130.2 88.8,196.7 652.3,117.8 1271.2,325.3 1856.2,622.2 -6.6,-12.5 -13.4,-24.9 -20.3,-37.4 -30.8,-55.8 -28.3,-121.1 0.9,-172.8 -574.9,-278.6 -1215.2,-492.2 -1925.6,-608.7 m -1125.2,1339.3 c 57.8,118.8 111.2,236.9 160.5,355.2 393.6,18.2 783,66 1168,143.2 -54.5,-25.5 -94.6,-78.1 -101.3,-142.3 -0.3,-2.9 -9.8,-92.2 -33.2,-234.1 -394.5,-69.5 -793,-110.3 -1194,-122 m 1564.1,195.9 c 10,71.5 14.7,115.8 15.6,123.9 9.9,97.3 -60.8,184.3 -158.1,194.3 -4.2,0.5 -8.5,0.7 -12.7,0.9 74.4,15.7 148.8,32.6 222.8,50.5 108.6,-68.4 226.8,-124.3 353.4,-165.4 54.7,-17.8 110.7,-34.5 168.2,-50.1 -195.2,-58.6 -391.6,-110 -589.2,-154.1"
         style="fill:#5c0000;fill-opacity:1;fill-rule:nonzero;stroke:none"
         id="path212" />
      <path
         d="m 29196,10285.8 c 66.6,200.5 107.9,393.6 132.7,568.4 471.7,122.2 971.2,376 1474.3,827.1 -4.1,-25.1 -8.4,-50.4 -12.9,-76.1 C 30294.4,11076 29762.6,10636 29196,10285.8"
         style="fill:#deb238;fill-opacity:1;fill-rule:nonzero;stroke:none"
         id="path214" />
      <path
         d="m 29090.1,10012.4 c 41,91.9 76,183.4 105.9,273.4 566.6,350.2 1098.4,790.2 1594.1,1319.4 -2.9,-16.5 -5.9,-33.1 -9.1,-49.9 -12.1,-65.2 13.1,-128.8 60.6,-168.5 -490.1,-507.4 -1070.2,-986.2 -1751.5,-1374.4"
         style="fill:#5c0000;fill-opacity:1;fill-rule:nonzero;stroke:none"
         id="path216" />
      <path
         d="m 31208,12083.5 c 0.1,1.6 0.3,3.1 0.4,4.8 13.4,15 26.9,30.1 40.3,45.4 -13.5,-16.7 -27,-33.5 -40.7,-50.2"
         style="fill:#deb238;fill-opacity:1;fill-rule:nonzero;stroke:none"
         id="path218" />
      <path
         d="m 31171.2,11747.1 c 16.7,119.4 28.6,232 36.8,336.4 13.7,16.7 27.2,33.5 40.7,50.2 572.6,652.1 1141.2,1584.4 1671.3,2894.4 63.4,23 126.3,47.9 189.1,72.8 v -0.6 c -15.9,-50.7 -562.7,-1766.8 -1937.9,-3353.2"
         style="fill:#5c0000;fill-opacity:1;fill-rule:nonzero;stroke:none"
         id="path220" />
      <path
         d="m 30841.6,11386.8 c -47.5,39.7 -72.7,103.3 -60.6,168.5 3.2,16.8 6.2,33.4 9.1,49.9 4.5,25.7 8.8,51 12.9,76.1 134.9,121 270.3,256.3 405.4,407 -0.1,-1.7 -0.3,-3.2 -0.4,-4.8 -8.2,-104.4 -20.1,-217 -36.8,-336.4 -105,-121.2 -214.7,-241.5 -329.6,-360.3"
         style="fill:#5c0000;fill-opacity:1;fill-rule:nonzero;stroke:none"
         id="path222" />
      <path
         d="m 28672.1,9792.1 c -29.2,51.7 -31.7,117 -0.9,172.8 6.9,12.5 13.7,24.9 20.3,37.4 141.4,267.2 221.4,539.1 265.5,780.9 121.7,15.1 245.6,38.3 371.7,71 -24.8,-174.8 -66.1,-367.9 -132.7,-568.4 -29.9,-90 -64.9,-181.5 -105.9,-273.4 -135.3,-77.1 -274.7,-150.8 -418,-220.3"
         style="fill:#5c0000;fill-opacity:1;fill-rule:nonzero;stroke:none"
         id="path224" />
      <path
         d="m 26358.9,9130.4 c -5.9,37.2 0,76.6 19.4,112.2 13.4,24.6 26.5,49.5 39.1,74.8 230.1,458.1 346.9,1017.7 397.9,1327.3 23.4,141.9 32.9,231.2 33.2,234.1 6.7,64.2 46.8,116.8 101.3,142.3 22.9,10.7 48.3,16.7 74.8,16.7 1.9,0 3.7,-0.1 5.6,-0.1 4.2,-0.2 8.5,-0.4 12.7,-0.9 97.3,-10 168,-97 158.1,-194.3 -0.9,-8.1 -5.6,-52.4 -15.6,-123.9 -34.3,-245.6 -131.4,-812.5 -350.1,-1338.5 -27.6,-66.5 -57.2,-132.3 -88.8,-196.7 -127,-20.8 -256.1,-38.5 -387.6,-53"
         style="fill:#5c0000;fill-opacity:1;fill-rule:nonzero;stroke:none"
         id="path226" />
      <path
         d="m 24949,7062.5 c 53.2,-168.3 2.4,-352 -129.3,-468.9 L 22780.3,4778.8 c -112.4,-100.1 -287.2,-86.5 -379.4,32.5 -81.3,104.8 -157.2,271.2 -173.4,532.3 l -858.7,-459.9 c -128.9,-69 -289.7,-19.8 -356.5,110.3 -63.2,123.2 -118.2,291.7 -100.4,488.3 l -415.8,-212.5 c -180.5,-92.3 -392.2,46.3 -380.9,248.7 18.3,326.5 90.2,783.4 321.3,1189.7 l 2.4,4.1 c 93.3,163.6 212.6,318.3 364.9,453.5 0,0 -62,33.7 -160,93.3 -213.8,129.3 -597.6,379.1 -884,665.5 L 19056,5882.1 c -156.5,-454.1 -585.8,-755.9 -1065.8,-750.5 -1001.3,11.7 -2674.5,3.2 -3429.5,-164.6 -107.7,-23.9 -209.7,57.5 -209.7,167.9 v 246.4 l -934.3,-52.3 c -201,-11.3 -339.1,197.5 -251,378.5 40.9,84.1 90.3,177.1 149,274.4 367.9,609.9 1101.8,1387 2402.7,1221.7 0,0 -507.8,560.4 -983.2,1512.8 -434.6,870.4 -841.4,2068.5 -807.2,3465.6 3,147 11.8,296.4 25.4,448.1 0,2.4 0,5.4 0.6,7.7 46.6,507.8 154.1,1039.3 340.7,1588.4 757.6,2231.5 1441.4,4417.5 1874.8,6013.5 337.2,1241.2 522.6,2126.4 474.8,2398.6 l 5157.8,-264 2109.3,-108 c 0,0 746.3,-3596.1 1561.8,-6319.4 961.3,-3214 552.7,-4747.5 -1119,-6997.3 L 24949,7062.5"
         style="fill:#58da3f;fill-opacity:1;fill-rule:nonzero;stroke:none"
         id="path228" />
      <path
         d="m 14188.3,12630.2 v -0.4 0.4 m -6.7,-51.1 -0.1,-0.2 0.1,0.2 m -0.1,-0.4 -0.2,-0.5 0.2,0.5 m 8045.7,-6999.1 c 39.7,0 79.3,-10 115,-29.9 70.3,-39.1 115.7,-111.4 120.7,-191.6 10.7,-172.1 53.7,-311.1 124.3,-402.1 1.4,-1.8 5.4,-7 14.9,-7.9 5.4,-0.2 13.5,0.3 21,7 L 24662.4,6770 c 62.2,55.2 86.1,142 61.1,221.3 L 24399,8019.1 c -187.8,595.1 -100.5,1231.3 239.7,1745.6 1270,1919.7 1417.5,3405.5 606.9,6114.5 -705.3,2357.3 -1366.8,5398.8 -1529,6160.4 l -6839,350.1 c -113.5,-1344.1 -1495.2,-5692.1 -2360.5,-8239.5 -171.2,-503.9 -281.9,-1020 -329.1,-1534.1 l -0.2,-1.2 c -0.1,-2.2 -0.3,-4.2 -0.5,-6.4 -275.4,-3015.6 1685.1,-5224.6 1704.9,-5246.5 66.3,-73.4 79.9,-180.3 34.2,-267.8 -45.8,-87.6 -141.4,-137.6 -239.1,-125 -1348.7,172.3 -2026,-781.8 -2309.8,-1365.4 -1.9,-3.9 -7,-14.3 1.7,-27.3 8.5,-12.8 19.3,-12.2 23.9,-11.8 l 934.4,52.3 c 64.8,3.6 128.3,-19.6 175.5,-64.2 47.2,-44.6 73.9,-106.7 73.9,-171.6 v -167.6 c 771.7,150.7 2267.3,167.5 3405.7,154 379.5,-3.8 716.5,233.5 839.8,591.3 l 703.9,2042.5 c 26.5,77 90.8,134.9 170.2,153.2 79.3,18.5 162.5,-5.5 220.1,-63.1 388.9,-388.9 984,-715.2 989.9,-718.4 67.6,-36.8 113,-104.2 121.7,-180.7 8.7,-76.5 -20.4,-152.4 -77.9,-203.4 -457.9,-406.1 -584.2,-1030.6 -609.5,-1482.9 -0.3,-4.5 -0.9,-16.4 12.2,-25 12.2,-7.9 21,-3.4 25.2,-1.2 l 415.9,212.6 c 76.7,39.1 168.5,33.5 239.8,-14.6 71.2,-48.2 110.7,-131.3 102.9,-217 -10.8,-119.7 14.6,-240.6 75.4,-359.2 3,-5.9 7.8,-9.9 14.3,-11.9 4.9,-1.5 12.3,-2.3 20.5,2 l 858.7,459.8 c 34.8,18.7 73.2,28 111.5,28 m 377,-1103.9 c -15.2,0 -30.3,0.7 -45.5,2.1 -135.9,12.5 -261.5,81.3 -344.8,188.7 -69.8,90 -123.7,195.5 -161.3,315.5 l -572.5,-306.6 c -119,-63.8 -255.5,-76.7 -384.3,-36.5 -128.3,40 -232.7,127.8 -293.9,247.1 -38.1,74.4 -68.1,151.2 -89.5,229.1 l -109.2,-55.8 c -160.6,-82.2 -346.8,-72.5 -497.9,25.9 -151.7,98.8 -236.3,266 -226.2,447.2 26.1,466.3 146.5,1089.4 548.7,1581.7 -156.1,98.1 -361.7,236.3 -560.6,397.7 L 19279,5805 c -189.7,-550.6 -708.5,-917.1 -1291.7,-909.7 -944,11.1 -2637.5,5.1 -3375.6,-159 -121.8,-27.1 -247.4,2.2 -344.6,80.1 -96.1,77.2 -151.6,191.8 -152.6,315 l -685,-38.4 c -178.9,-10.1 -344.6,72.9 -443.6,221.8 -99.2,149.1 -111.6,334.3 -33.3,495.5 242.9,499.5 917.7,1569.5 2262,1647.4 -584.8,805.9 -1720.9,2719.9 -1498.4,5186.2 0.3,6.8 0.9,14.6 2,23.1 51,548.5 169.3,1098.6 351.6,1635.1 1626.2,4787.4 2419.7,7846.9 2340.6,8295 -12.5,70.8 7.9,143.5 55.6,197.5 47.6,53.8 117.4,82.8 189,79.5 l 7267.2,-372 c 107.3,-5.5 197.3,-82.7 219.1,-187.9 7.5,-35.9 754.3,-3617.4 1556.9,-6299.6 847.9,-2833.9 680,-4476.8 -665.5,-6510.6 -261.2,-394.8 -328,-884.2 -183.2,-1342.7 L 25174,7133.5 c 81,-256.7 3.4,-538 -197.7,-716.6 L 22937.1,4602.2 c -91.7,-81.6 -211,-126.5 -332.9,-126.5"
         style="fill:#5c0000;fill-opacity:1;fill-rule:nonzero;stroke:none"
         id="path230" />
      <path
         d="m 21991.9,5364.3 c 19.8,101.2 41.8,195 65.3,291.7 23.6,95.8 48.8,191.3 77,286.4 28.1,95.2 57.8,189.9 93.1,284.3 35.4,94.4 73.6,188.4 124.7,281.4 29.9,54.6 98.4,74.5 153,44.6 47.2,-25.9 68.5,-80.7 54,-130.4 l -1.2,-3.9 c -24.2,-82.8 -40.1,-172.7 -53,-263 -13,-90.4 -21.2,-183.1 -27.9,-275.8 -6.7,-92.7 -10.7,-186.1 -13.1,-279.5 -2.2,-92.6 -3.4,-188.5 -1.4,-277.5 3,-131.2 -101,-240 -232.2,-243 -131.2,-3 -240,101 -243,232.2 -0.4,17.1 1,33.8 4.1,50 l 0.6,2.5"
         style="fill:#5c0000;fill-opacity:1;fill-rule:nonzero;stroke:none"
         id="path232" />
      <path
         d="m 20681.4,5521.8 c 32.5,104.3 67.2,195.1 105.2,290.2 38.1,93.8 78.7,186.2 123.4,277.1 90,181 193.2,359.1 332.5,512.7 28,30.9 75.7,33.2 106.6,5.3 25.5,-23.2 31.5,-60 16.9,-89.5 l -1.6,-3.1 c -80.8,-162.5 -127.6,-342.5 -161.9,-524.3 -16.9,-91.1 -29.7,-183.3 -40.1,-275.4 -9.8,-90.9 -18.2,-187.4 -20.2,-272.1 -3,-130.5 -111.3,-233.8 -241.7,-230.8 -130.5,3.1 -233.8,111.3 -230.8,241.7 0.5,22.1 4.1,43.5 10.2,63.6 l 1.5,4.6"
         style="fill:#5c0000;fill-opacity:1;fill-rule:nonzero;stroke:none"
         id="path234" />
      <path
         d="m 14115.2,5402.8 c 2.6,17.6 5.1,28.4 7.5,39.5 2.4,11.6 5,22.7 7.9,32.9 5.6,20.9 10.8,42.3 17.6,62 12.1,40.5 26.8,79.4 41.9,117.9 15.2,38.5 33.4,75.5 50.4,112.8 19.8,36.1 38.3,72.6 59.3,107.7 83.9,140.3 190.9,267.4 317,369 29.6,27.5 63.5,49.6 96.7,72.2 33.6,22.1 65.1,46.7 101.4,63.6 l 105.3,54.8 c 35.9,15.9 73.1,28.5 109.4,42.6 l 54.6,20.3 c 18.1,6.7 37.3,9.9 55.8,15 l 111.6,27.3 c 74.6,15 150.1,20.8 224,31 49.1,6.7 94.3,-27.5 101.1,-76.6 6,-43.7 -20.4,-84.3 -60.9,-97.5 l -12.9,-4.2 c -64.5,-21.1 -129.9,-37.2 -191.7,-61.2 l -90.6,-39.7 c -14.9,-6.9 -30.5,-12.1 -44.5,-20.4 l -41.9,-24.8 c -27.6,-16.8 -56.1,-31.8 -82.6,-49.5 l -75.4,-57.9 c -26.2,-17.5 -46.9,-41.8 -69.7,-63 -22.3,-21.6 -45.2,-42.2 -63.7,-67.5 -81.4,-92.5 -143,-199.7 -186.3,-313.1 -10.8,-28.3 -19.4,-57.6 -29.3,-85.9 -7.3,-29.5 -16,-58.3 -21.8,-87.6 -5.9,-29.4 -11.5,-58.5 -14.7,-87.4 -2.4,-14.6 -3,-28.4 -4.3,-42.3 -0.7,-7.2 -0.9,-13.5 -1,-19.5 -0.2,-6.5 -0.4,-13.2 0.3,-13.3 -11.8,-129.9 -126.7,-225.6 -256.6,-213.8 -129.9,11.8 -225.7,126.7 -213.9,256.6"
         style="fill:#5c0000;fill-opacity:1;fill-rule:nonzero;stroke:none"
         id="path236" />
      <path
         d="m 20667.6,7358.6 c 14.9,9.2 20.1,11.2 29.4,16.1 8.6,4.4 15.6,7.3 23.5,11 15.6,7.3 30,12.7 44.8,18.8 29.4,11.3 58.2,21.8 86.9,30.5 57.5,18.3 114.5,32.1 171.4,43.4 113.7,22.6 226.7,33.3 338.2,36.7 111.6,1.5 221.6,-3.5 329.6,-17.4 54,-5.2 107.2,-16.7 160.2,-24.7 52.8,-10.4 104.9,-23.1 156.8,-34.5 40.1,-8.9 65.5,-48.6 56.6,-88.8 -7.4,-33.6 -36.4,-56.8 -69.2,-58.3 l -5.4,-0.3 c -50.6,-2.3 -100.7,-3.4 -150.5,-6.7 -49.7,-5.6 -99.2,-7.8 -148,-16.1 -97.8,-13.1 -193.2,-34.5 -285.4,-60.4 -91.7,-27.7 -180.2,-61.1 -262.2,-101.8 -40.9,-20.3 -80.6,-42.1 -117,-65.9 -18.5,-11.5 -35.8,-24.1 -52.1,-36.2 -7.8,-6.1 -16.3,-12.2 -22.8,-18.2 -3.1,-2.9 -7.5,-6.2 -9.7,-8.6 -1.6,-2 -7.3,-6.7 -3,-4.8 -106.7,-75.1 -254,-49.6 -329.1,57.1 -75.2,106.6 -49.7,254 57,329.1"
         style="fill:#5c0000;fill-opacity:1;fill-rule:nonzero;stroke:none"
         id="path238" />
      <path
         d="m 19759.6,7924.4 c 0,0 -6016.5,262.2 -5807.5,4705.6 0,2.4 0,5.3 0.6,7.7 46.7,507.8 154.2,1039.3 340.7,1588.4 1347.5,3966.9 2459.4,7789.7 2349.6,8412.1 l 5157.9,-264 c -898.7,-1929.1 -4196,-10481.7 -2041.3,-14449.8"
         style="fill:#ffdf46;fill-opacity:1;fill-rule:nonzero;stroke:none"
         id="path240" />
      <path
         d="m 14124.3,12593.8 v -0.2 0.2 m 0,-0.3 -0.1,-0.4 0.1,0.4 m 4.7,26.5 c -48.3,-1035.7 255.3,-1920.3 902.4,-2629.3 1286.3,-1409.4 3598.4,-1775.3 4428.8,-1863.3 -799.9,1741.1 -799.5,4371.5 2.4,7826.6 618.3,2663.8 1567,5124.1 2069.5,6256.6 l -4708.7,240.9 c -65.2,-1107.2 -1194.6,-4845.1 -2362.2,-8282.4 -172.7,-508.2 -284.4,-1028.9 -332,-1547.6 l -0.2,-1.5 m 5630.6,-4872.7 c -2.6,0 -5.1,0.1 -7.7,0.2 -134,5.8 -3301.5,164.2 -4981.3,2003.3 -713.2,780.9 -1048.1,1751.4 -995.6,2884.3 0.2,6.9 0.6,15.3 1.9,24.9 50.5,544.4 167.8,1090.5 348.8,1623.1 1430.1,4210.2 2437.3,7788.8 2342.8,8324.3 -9.4,53.1 6,107.6 41.7,148.1 35.7,40.4 87.7,62.8 141.8,59.6 l 5157.9,-264 c 58.9,-3 112.4,-35 142.8,-85.5 30.3,-50.5 33.6,-112.8 8.8,-166.2 -456.6,-980 -1494.3,-3584.2 -2153.7,-6425.5 -815.6,-3513.9 -778.4,-6233.5 107.4,-7864.9 30.5,-56.1 28.4,-124.3 -5.4,-178.4 -32.5,-51.9 -89.3,-83.3 -150.2,-83.3"
         style="fill:#5c0000;fill-opacity:1;fill-rule:nonzero;stroke:none"
         id="path242" />
      <path
         d="m 22604,4948.1 c -0.6,0 -1.3,0 -1.9,0 -9.5,0.9 -13.5,6.1 -14.9,7.9 -70.6,91 -113.6,230 -124.3,402.1 -0.3,4.8 -0.7,9.7 -1.3,14.5 -0.7,74.3 0.4,152 2.2,227.5 2.3,87.6 6,175.2 11.9,262.2 33.7,-4.6 72.6,-7.7 115.8,-7.7 224.3,0 562.2,85.3 857.1,509.4 304.9,438.8 -45.2,1515.1 -356.9,2272.7 -189.2,459.9 -80.3,988.4 273.5,1337.9 2585.2,2553.6 989.9,7515 371.6,9130.6 -102.8,268.7 -359.9,442.1 -640.7,442.1 -33.3,0 -66.9,-2.5 -100.6,-7.5 -450.8,-66.8 -889.9,-111.9 -1315.3,-138.7 l -16,12.5 c -15.7,-5.1 -31.1,-10.5 -46.5,-16.3 -272.5,-16 -539.9,-24.6 -800.8,-26.6 97.4,285.4 194.1,558.4 288.5,816.6 79.5,0.6 159.3,1.9 238.9,3.9 953.5,24.2 1856.1,155.2 2694.6,390.5 296.4,-1299.4 742.1,-3149.5 1206.7,-4702.5 810.6,-2709 663.1,-4194.8 -606.9,-6114.5 -340.2,-514.3 -427.5,-1150.5 -239.7,-1745.6 l 324.5,-1027.8 c 25,-79.3 1.1,-166.1 -61.1,-221.3 L 22623.1,4955.1 c -6.7,-5.9 -13.8,-7 -19.1,-7"
         style="fill:#59ae32;fill-opacity:1;fill-rule:nonzero;stroke:none"
         id="path244" />
      <path
         d="m 22604.9,4517.7 c -76.9,0 -153.1,33.6 -204,99.4 -73.8,95.1 -143.2,241.1 -167.5,462.6 129.7,4.7 232,112.7 229,242.9 -0.4,16.4 -0.6,33.1 -0.8,50 0.6,-4.8 1,-9.7 1.3,-14.5 10.7,-172.1 53.7,-311.1 124.3,-402.1 1.4,-1.8 5.4,-7 14.9,-7.9 0.6,0 1.3,0 1.9,0 5.3,0 12.4,1.1 19.1,7 L 24662.4,6770 c 62.2,55.2 86.1,142 61.1,221.3 L 24399,8019.1 c -187.8,595.1 -100.5,1231.3 239.7,1745.6 1270,1919.7 1417.5,3405.5 606.9,6114.5 -464.6,1553 -910.3,3403.1 -1206.7,4702.5 62.2,17.5 124,35.5 185.5,54.1 293.2,-1297.1 758,-3247.5 1247.8,-4883.1 961.3,-3214 552.7,-4747.5 -1119,-6997.3 L 24949,6868.2 c 53.2,-168.3 2.4,-351.9 -129.3,-468.8 L 22780.3,4584.5 c -50.3,-44.8 -113.1,-66.8 -175.4,-66.8"
         style="fill:#5c0000;fill-opacity:1;fill-rule:nonzero;stroke:none"
         id="path246" />
      <path
         d="m 21244.4,5088.6 c -3,0 -5.7,0.5 -7.9,1.2 -6.5,2 -11.3,6 -14.3,11.9 -60.8,118.6 -86.2,239.5 -75.4,359.2 1.7,18.8 1.2,37.5 -1.5,55.7 3.7,64.7 10.1,132.9 17.1,198.2 3.8,34.1 8,68.1 12.6,102.1 110,-218.4 264.2,-293.6 424.5,-293.6 161.6,0 329.4,76.4 464.4,159.8 -2.2,-9.1 -4.5,-18.1 -6.7,-27.1 -12.7,-52.1 -24.9,-103.3 -36.6,-155.3 L 21257,5091.8 c -4.5,-2.4 -8.8,-3.2 -12.6,-3.2"
         style="fill:#59ae32;fill-opacity:1;fill-rule:nonzero;stroke:none"
         id="path248" />
      <path
         d="m 21244.8,4658.2 c -94.7,0 -186.2,51.4 -232.5,141.5 -54.9,107 -103.6,248.1 -103.8,412.2 126.8,1.3 230.7,103 233.7,230.8 0.6,23.8 1.6,48.6 3.1,73.9 2.7,-18.2 3.2,-36.9 1.5,-55.7 -10.8,-119.7 14.6,-240.6 75.4,-359.2 3,-5.9 7.8,-9.9 14.3,-11.9 2.2,-0.7 4.9,-1.2 7.9,-1.2 3.8,0 8.1,0.8 12.6,3.2 l 763.6,408.9 c -10,-44.6 -19.6,-89.7 -28.7,-136.4 l -0.6,-2.5 c -3.1,-16.2 -4.5,-32.9 -4.1,-50 2.2,-96.5 61.6,-178.2 145,-213.5 l -763.4,-408.8 c -39.5,-21.2 -82,-31.3 -124,-31.3"
         style="fill:#5c0000;fill-opacity:1;fill-rule:nonzero;stroke:none"
         id="path250" />
      <path
         d="m 20376.6,5476.6 c -3.8,0 -8.4,1.1 -13.6,4.5 -13.1,8.6 -12.5,20.5 -12.2,25 9.7,173.7 34.3,372.8 86.9,575.2 43.7,-176.7 153.8,-230.9 272.5,-230.9 32,0 64.5,4 96.6,10.5 -6.8,-16.3 -13.5,-32.6 -20.2,-48.9 -21.4,-53.6 -41.7,-105.8 -61.3,-159.8 l -337.1,-172.3 c -2.4,-1.3 -6.4,-3.3 -11.6,-3.3"
         style="fill:#59ae32;fill-opacity:1;fill-rule:nonzero;stroke:none"
         id="path252" />
      <path
         d="m 20376.9,5046.4 c -142.6,0 -270.5,119.3 -261.7,277.8 18.3,326.6 90.2,783.5 321.3,1189.7 l 2.4,4.2 c -29.4,-194.3 -26.2,-335.6 -1.2,-436.8 -52.6,-202.4 -77.2,-401.5 -86.9,-575.2 -0.3,-4.5 -0.9,-16.4 12.2,-25 5.2,-3.4 9.8,-4.5 13.6,-4.5 5.2,0 9.2,2 11.6,3.3 l 337.1,172.3 c -15.1,-41.9 -29.7,-84.8 -43.9,-130.4 l -1.5,-4.6 c -6.1,-20.1 -9.7,-41.5 -10.2,-63.6 -2.2,-96.7 54,-181.1 136.3,-219.6 l -309.9,-158.5 c -39.1,-20 -79.7,-29.1 -119.2,-29.1"
         style="fill:#5c0000;fill-opacity:1;fill-rule:nonzero;stroke:none"
         id="path254" />
      <path
         d="m 22233.4,5079.7 c -2.4,22.4 -4.4,45.6 -5.9,69.6 l -95.3,-51 c -83.4,35.3 -142.8,117 -145,213.5 -0.4,17.1 1,33.8 4.1,50 l 0.6,2.5 c 9.1,46.7 18.7,91.8 28.7,136.4 11.7,52 23.9,103.2 36.6,155.3 2.2,9 4.5,18 6.7,27.1 162.2,100.1 276.9,210.2 276.9,210.2 0,0 50.9,-19.7 134.9,-31 -5.9,-87 -9.6,-174.6 -11.9,-262.2 -1.8,-75.5 -2.9,-153.2 -2.2,-227.5 0.2,-16.9 0.4,-33.6 0.8,-50 3,-130.2 -99.3,-238.2 -229,-242.9"
         style="fill:#5c0000;fill-opacity:1;fill-rule:nonzero;stroke:none"
         id="path256" />
      <path
         d="m 20908.5,5211.9 c -0.1,24.9 1,50.3 3.4,76.2 L 20806,5234 c -82.3,38.5 -138.5,122.9 -136.3,219.6 0.5,22.1 4.1,43.5 10.2,63.6 l 1.5,4.6 c 14.2,45.6 28.8,88.5 43.9,130.4 19.6,54 39.9,106.2 61.3,159.8 6.7,16.3 13.4,32.6 20.2,48.9 156.7,31.9 301.1,125.7 301.1,125.7 19.8,-64.3 42.4,-120.7 67.1,-169.7 -4.6,-34 -8.8,-68 -12.6,-102.1 -7,-65.3 -13.4,-133.5 -17.1,-198.2 -1.5,-25.3 -2.5,-50.1 -3.1,-73.9 -3,-127.8 -106.9,-229.5 -233.7,-230.8"
         style="fill:#5c0000;fill-opacity:1;fill-rule:nonzero;stroke:none"
         id="path258" />
      <path
         d="m 20443.6,19372.4 c -31.6,0.5 -63.3,1.1 -94.7,1.8 l -375.7,851.1 c 248.8,-18.2 501.3,-30.4 756.4,-35.5 -93.9,-259.5 -189.8,-532.6 -286,-817.4"
         style="fill:#deb238;fill-opacity:1;fill-rule:nonzero;stroke:none"
         id="path260" />
      <path
         d="m 20698.5,19370.3 c -85.7,0 -170.6,0.7 -254.9,2.1 96.2,284.8 192.1,557.9 286,817.4 92,-1.9 184.5,-2.9 277.2,-2.9 32.8,0 65.7,0.1 98.6,0.4 -94.4,-258.2 -191.1,-531.2 -288.5,-816.6 -39.7,-0.3 -79,-0.4 -118.4,-0.4"
         style="fill:#5c0000;fill-opacity:1;fill-rule:nonzero;stroke:none"
         id="path262" />
      <path
         d="m 14586.9,5213.6 v 167.6 c 0,4.4 -0.1,8.7 -0.3,13.1 1.2,13.4 1.7,26.7 4.1,40.8 3.2,28.9 8.8,58 14.7,87.4 5.8,29.3 14.5,58.1 21.8,87.6 9.9,28.3 18.5,57.6 29.3,85.9 43.3,113.4 104.9,220.6 186.3,313.1 18.5,25.3 41.4,45.9 63.7,67.5 22.8,21.2 43.5,45.5 69.7,63 l 75.4,57.9 c 15.2,10.1 31,19.3 46.9,28.6 26.3,-138.6 198.4,-566 1321.1,-566 257.1,0 563.7,22.4 930.1,75.7 315.2,46 574.3,273.2 658.5,580.4 122,444.8 -156.4,899.5 -607.8,994 -552.8,115.7 -1304.7,340.2 -2033.9,773 -315,495.4 -701.3,1223.9 -950.4,2116.7 105.4,-155.9 223.6,-305.7 354.5,-449.1 1401.7,-1534.7 3839.4,-1899 4685.9,-1981 l -624.1,-1810.9 c -122.3,-355 -455,-591.3 -830.7,-591.3 -3,0 -6,0 -9.1,0 -195.4,2.3 -401.3,3.7 -612.3,3.7 -1018.2,0 -2154.2,-32.9 -2793.4,-157.7 m -1186.8,350.9 c -5.4,0 -13.9,1.5 -20.9,12 -8.7,13 -3.6,23.4 -1.7,27.3 28.6,58.8 61.2,121.5 98.2,186.4 230.9,10.2 527.3,51.2 871.9,160.2 -16.7,-24.5 -32.6,-49.4 -47.8,-74.8 -21,-35.1 -39.5,-71.6 -59.3,-107.7 -17,-37.3 -35.2,-74.3 -50.4,-112.8 -6.1,-15.7 -12.2,-31.4 -18.1,-47.3 l -768.9,-43.1 c -0.8,-0.1 -1.9,-0.2 -3,-0.2 m 7791.4,1563.9 c 68.4,30.8 140.6,57 215,79.5 38,10.7 76.5,20.6 115.5,29.5 63.1,-18.8 128.4,-34.9 195.9,-47.9 l -526.4,-61.1 m -367.3,297.6 c -183.2,107.9 -600.6,368.4 -897.6,665.5 -23.7,23.6 -51.7,41.6 -81.9,53.4 -389.1,783.5 -596,1799.4 -620,3017.8 L 22509,12816 c 192.6,96.8 322.5,269.9 370,465 88.1,-383.9 92.7,-932 -424.2,-1291.5 -866.2,-603.5 -2764.6,-1864.7 -2764.6,-1864.7 0,0 131.5,-1876.6 1317.6,-2649.6 -51.7,-10.7 -103.4,-23.6 -155.6,-40.2 -9.3,-2.8 -18.6,-5.8 -28,-9"
         style="fill:#59ae32;fill-opacity:1;fill-rule:nonzero;stroke:none"
         id="path264" />
      <path
         d="m 14522.8,4768.6 c -92.6,0 -171.8,74.8 -171.8,172 v 204.6 c 120.7,0.1 223.6,92.3 234.7,214.8 -0.7,0.1 -0.5,6.8 -0.3,13.3 0.1,6 0.3,12.3 1,19.5 0.1,0.5 0.1,1 0.2,1.5 0.2,-4.4 0.3,-8.7 0.3,-13.1 v -167.6 c 639.2,124.8 1775.2,157.7 2793.4,157.7 211,0 416.9,-1.4 612.3,-3.7 3.1,0 6.1,0 9.1,0 375.7,0 708.4,236.3 830.7,591.3 l 624.1,1810.9 c 167.9,-16.2 273.2,-21.4 295.4,-22.3 2.6,-0.1 5.1,-0.2 7.7,-0.2 60.9,0 117.7,31.4 150.2,83.3 33.8,54.1 35.9,122.3 5.4,178.4 -24.1,44.5 -47.6,89.7 -70.5,135.9 30.2,-11.8 58.2,-29.8 81.9,-53.4 297,-297.1 714.4,-557.6 897.6,-665.5 -19.5,-6.6 -39,-13.8 -58.9,-21.5 -14.8,-6.1 -29.2,-11.5 -44.8,-18.8 -7.9,-3.7 -14.9,-6.6 -23.5,-11 -9.3,-4.9 -14.5,-6.9 -29.4,-16.1 -82.4,-58 -116.4,-159.2 -92.9,-251.3 -220.6,137.3 -557.2,365.3 -814.9,623 L 19056,5687.8 c -155.1,-450.1 -578.4,-750.5 -1053.4,-750.5 -4.1,0 -8.3,0 -12.4,0 -179.6,2.1 -380.9,3.6 -594.5,3.6 -977.5,0 -2215.4,-30.4 -2835,-168.1 -12.8,-2.9 -25.5,-4.2 -37.9,-4.2 m -1121.7,365.7 c -192.4,0 -321.2,202.6 -235.4,378.9 40.9,84.2 90.3,177.2 149,274.4 12.1,-0.1 24.5,-0.2 37.1,-0.2 38.9,0 80.2,0.8 123.9,2.8 -37,-64.9 -69.6,-127.6 -98.2,-186.4 -1.9,-3.9 -7,-14.3 1.7,-27.3 7,-10.5 15.5,-12 20.9,-12 1.1,0 2.2,0.1 3,0.2 l 768.9,43.1 c -8.5,-23.2 -16.6,-46.6 -23.8,-70.6 -6.8,-19.7 -12,-41.1 -17.6,-62 -2.9,-10.2 -5.5,-21.3 -7.9,-32.9 -2.4,-11.1 -4.9,-21.9 -7.5,-39.5 -8.4,-92.4 37.6,-177.1 111.6,-222.7 l -810.1,-45.4 c -5.2,-0.3 -10.4,-0.4 -15.6,-0.4 m 1965.4,2948.9 c -214.6,127.4 -427.3,272.9 -632.3,439 -343.8,688.6 -670.3,1582.3 -774.7,2617.4 107.1,-334.3 259.5,-647.9 456.6,-939.7 249.1,-892.8 635.4,-1621.3 950.4,-2116.7"
         style="fill:#5c0000;fill-opacity:1;fill-rule:nonzero;stroke:none"
         id="path266" />
      <path
         d="m 14351,5145.2 v 41.9 l -124.2,-7 c -74,45.6 -120,130.3 -111.6,222.7 2.6,17.6 5.1,28.4 7.5,39.5 2.4,11.6 5,22.7 7.9,32.9 5.6,20.9 10.8,42.3 17.6,62 7.2,24 15.3,47.4 23.8,70.6 5.9,15.9 12,31.6 18.1,47.3 15.2,38.5 33.4,75.5 50.4,112.8 19.8,36.1 38.3,72.6 59.3,107.7 15.2,25.4 31.1,50.3 47.8,74.8 229.2,72.4 479.7,174.9 746.2,318.5 0,0 -0.3,-16 4.7,-42.8 -15.9,-9.3 -31.7,-18.5 -46.9,-28.6 l -75.4,-57.9 c -26.2,-17.5 -46.9,-41.8 -69.7,-63 -22.3,-21.6 -45.2,-42.2 -63.7,-67.5 -81.4,-92.5 -143,-199.7 -186.3,-313.1 -10.8,-28.3 -19.4,-57.6 -29.3,-85.9 -7.3,-29.5 -16,-58.3 -21.8,-87.6 -5.9,-29.4 -11.5,-58.5 -14.7,-87.4 -2.4,-14.1 -2.9,-27.4 -4.1,-40.8 -0.1,-0.5 -0.1,-1 -0.2,-1.5 -0.7,-7.2 -0.9,-13.5 -1,-19.5 -0.2,-6.5 -0.4,-13.2 0.3,-13.3 -11.1,-122.5 -114,-214.7 -234.7,-214.8"
         style="fill:#5c0000;fill-opacity:1;fill-rule:nonzero;stroke:none"
         id="path268" />
      <path
         d="m 20643.8,7064.9 c -21.4,12.9 -44.6,27.1 -69.1,42.4 -23.5,92.1 10.5,193.3 92.9,251.3 14.9,9.2 20.1,11.2 29.4,16.1 8.6,4.4 15.6,7.3 23.5,11 15.6,7.3 30,12.7 44.8,18.8 19.9,7.7 39.4,14.9 58.9,21.5 9.4,3.2 18.7,6.2 28,9 52.2,16.6 103.9,29.5 155.6,40.2 153.1,-99.8 323.9,-181.3 514.2,-237.8 -39,-8.9 -77.5,-18.8 -115.5,-29.5 -74.4,-22.5 -146.6,-48.7 -215,-79.5 l -547.7,-63.5"
         style="fill:#5c0000;fill-opacity:1;fill-rule:nonzero;stroke:none"
         id="path270" />
      <path
         d="m 19460.2,8127.4 c -830.4,88 -3142.5,453.9 -4428.8,1863.3 -411.2,450.5 -683.7,971.9 -815.3,1557.9 488.2,-697 1140.6,-1411.2 1939.4,-1804 215,-105.7 443.2,-155.9 667.9,-155.9 550.2,0 1080.1,300.7 1347.8,822.9 l 152.6,297.6 543.8,273.8 c 38.2,-1125.2 235.7,-2078.8 592.6,-2855.6"
         style="fill:#deb238;fill-opacity:1;fill-rule:nonzero;stroke:none"
         id="path272" />
      <path
         d="m 19759.6,7747.3 c -2.6,0 -5.1,0.1 -7.7,0.2 -22.2,0.9 -127.5,6.1 -295.4,22.3 -846.5,82 -3284.2,446.3 -4685.9,1981 -130.9,143.4 -249.1,293.2 -354.5,449.1 -197.1,291.8 -349.5,605.4 -456.6,939.7 -27.5,273.2 -39.6,556.3 -32.5,848.1 88.8,-143.4 185.2,-290.9 289.1,-439.1 131.6,-586 404.1,-1107.4 815.3,-1557.9 1286.3,-1409.4 3598.4,-1775.3 4428.8,-1863.3 -356.9,776.8 -554.4,1730.4 -592.6,2855.6 l 357.1,179.7 c 24,-1218.4 230.9,-2234.3 620,-3017.8 22.9,-46.2 46.4,-91.4 70.5,-135.9 30.5,-56.1 28.4,-124.3 -5.4,-178.4 -32.5,-51.9 -89.3,-83.3 -150.2,-83.3"
         style="fill:#5c0000;fill-opacity:1;fill-rule:nonzero;stroke:none"
         id="path274" />
      <path
         d="m 22806.1,13808.4 -526,1191.4 c 92.5,97 179.6,195.9 261.5,295.7 450.3,506.3 874.3,1152.5 1197.5,1974.7 0,0 147.3,-2338.3 -933,-3461.8"
         style="fill:#59ae32;fill-opacity:1;fill-rule:nonzero;stroke:none"
         id="path276" />
      <path
         d="m 8384.24,27321.8 c -6.5,-299.9 42.51,-595.8 131.67,-870.9 213.76,-660.2 657.8,-1202.3 1116.02,-1394.8 169.47,-72 341.31,-95.6 503.67,-59.6 0,0 -503.08,-3896.6 3959.8,-3016.8 0,0 3433.7,-1649.8 7242.9,-1552.4 1162.1,29.5 2359,222 3504,672.6 4148.1,1633.9 2388.5,5279.5 2451.6,6473.5 14.8,285.8 -5.9,683.8 -71.4,1130.2 -135.2,914 -457,2031.8 -1039.3,2813 -321.2,431.1 -722.1,760.6 -1215.2,896.4 0,0 -1068.2,1131.4 -2576.9,439.9 0,0 -1759.6,1068.2 -4148.1,-62.6 0,0 -2368.4,1291.4 -2820.8,-1704.1 l -0.6,-1.2 c -36,-240.9 -60.2,-509.6 -69.6,-809 0,0 -85.1,-28.3 -202,-92.1 l -1.2,-0.6 c -128.1,-70.2 -293.4,-183 -425.1,-347.2 0,0 -1068.8,314.2 -1697.1,-125.7 0,0 -2199.5,817.2 -3896.58,-754.1 -520.8,-482.4 -733.38,-1065.2 -745.78,-1634.5"
         style="fill:#58da3f;fill-opacity:1;fill-rule:nonzero;stroke:none"
         id="path278" />
      <path
         d="m 26280.4,30575.5 c -316.8,506.8 -662.4,927.1 -1004.1,1096.4 0,0 -807.6,906.4 -2149.2,906.4 -394.4,0 -834.9,-78.4 -1314.6,-281 0,0 -251,224.4 -868.6,329.5 2.3,-10.7 3.5,-21.3 3.5,-31.9 0,-188.4 -377.9,-341.3 -844.4,-341.3 -461.8,0 -837.3,150 -844.4,335.4 -213.7,-35.5 -443.4,-83.3 -689.1,-145.9 0,0 -447.7,169.6 -1020.2,169.6 -540.6,0 -1192.6,-151.4 -1683.6,-739.6 150.8,374.7 361.7,641.1 631.7,796.5 206.7,118.9 431.7,161 646.9,161 518.4,0 979.4,-244.3 985.6,-247.6 35.2,-19.2 74.1,-28.9 113.1,-28.9 34.5,0 69,7.6 101.1,22.7 797.3,377.5 1516.3,500.3 2114.6,500.3 1079.8,0 1766.5,-400.1 1809.9,-426.1 37.5,-22.8 79.9,-34.3 122.5,-34.3 33.5,0 67.1,7.1 98.5,21.5 319.9,146.6 617,202.6 884.4,202.6 844.8,0 1392.9,-559.2 1422.3,-590 29.6,-31.3 67.3,-54 108.9,-65.5 562.9,-155.4 998.5,-605.9 1326.1,-1177.3 18,-132.6 34.9,-277.2 49.1,-432.5"
         style="fill:#bcf0b2;fill-opacity:1;fill-rule:nonzero;stroke:none"
         id="path280" />
      <path
         d="m 8626.08,27105.8 c -31.25,452.2 56.92,1114.6 664.41,1677.2 781.31,723.4 1671.11,908.5 2377.51,908.5 709.7,0 1234.2,-187 1276.4,-202.6 26.7,-9.8 54.5,-14.7 82.2,-14.7 47.8,0 95.3,14.5 135.5,42.7 211.6,148.1 493.2,192.6 754.9,192.6 389.2,0 734.5,-98.4 740.1,-100 22,-6.5 44.4,-9.6 66.6,-9.6 70.5,0 138.8,31.7 184.4,88.6 202.6,253 516.4,362.7 518.6,363.5 93.9,31.3 158.2,117.8 161.3,216.7 0.3,8.8 0.6,17.5 0.9,26.3 170.9,29.7 385.7,53.6 633.8,53.6 663.4,0 1565.1,-171.2 2502.7,-862 -40.7,14 -1090.8,372.2 -2130.2,372.2 -530,0 -1057.4,-93.2 -1446.4,-372.8 l 1279.6,-836.8 c -51.1,24.8 -1697.4,815.5 -2686.5,815.5 -95.6,0 -185.2,-7.4 -266.5,-23.6 l 1081.2,-1315.6 c -37.5,37.5 -1256.7,1241.7 -2889,1241.7 -191.6,0 -389,-16.6 -590.7,-53.7 -1430.39,-262.4 -2178.47,-1176.6 -2450.82,-2207.7"
         style="fill:#bcf0b2;fill-opacity:1;fill-rule:nonzero;stroke:none"
         id="path282" />
      <path
         d="m 10135.6,24996.5 c 0,0 -503.08,-3896.6 3959.8,-3016.8 0,0 3433.7,-1649.8 7242.9,-1552.4 2567.4,924.1 1887.2,4294.6 302.9,5214.6 -1754.3,1018.6 -2155.2,-752.9 -3294.9,-1403.6 -1140.2,-650.1 -2213.7,-446.4 -3197.5,-233.8 -983.7,212.6 -1850,181.3 -2896.3,401.5 -1046.3,220.3 -1417.2,892.2 -1417.2,892.2 -479.4,-248.6 -879.2,-295.8 -1203.37,-242.1 169.47,-72 341.31,-95.6 503.67,-59.6"
         style="fill:#ffdf46;fill-opacity:1;fill-rule:nonzero;stroke:none"
         id="path284" />
      <path
         d="m 21888.5,20690.6 c 515.1,319.1 840.3,766.2 1011.5,1265.2 550.7,13.3 1112,108.7 1638.7,284.3 2467.7,822.6 1514,5149.7 1514,5149.7 304.3,1216.4 303.9,2353.5 227.7,3185.7 170.7,-273.1 333.1,-571.3 482,-868.7 234.8,-821.2 320.8,-1642.7 295.7,-2120.9 -14.1,-265.7 49,-618.6 122,-1027.3 284.9,-1593.8 715.3,-4002.3 -2424.4,-5238.9 -871.6,-343 -1833.9,-554 -2867.2,-629.1"
         style="fill:#59ae32;fill-opacity:1;fill-rule:nonzero;stroke:none"
         id="path286" />
      <path
         d="m 26762.4,29706.8 c -148.9,297.4 -311.3,595.6 -482,868.7 -14.2,155.3 -31.1,299.9 -49.1,432.5 226.6,-395.2 401.5,-848.1 531.1,-1301.2"
         style="fill:#a9c08e;fill-opacity:1;fill-rule:nonzero;stroke:none"
         id="path288" />
      <path
         d="m 16660.7,23797.8 c -523.8,0 -1028.6,102.3 -1511.9,206.7 -983.7,212.6 -1850,181.3 -2896.3,401.5 -1046.3,220.3 -1417.2,892.2 -1417.2,892.2 -173.2,-89.8 -336.1,-153.3 -488.8,-195.3 -12.7,25.3 -30.1,48.4 -51.5,68 -44,40.2 -101,61.8 -159.3,61.8 -17.1,0 -34.2,-1.8 -51.2,-5.6 -33.4,-7.4 -67.8,-11.1 -103.25,-11.1 -80.83,0 -166.84,19.2 -256.92,57.5 l -0.86,0.4 c -315.92,132.8 -676.48,503.4 -898.02,1020.1 296.37,-381.4 615.73,-507 907.73,-506.9 561.52,0 1021.82,464.2 1021.82,464.2 0,0 1223.3,-1411.7 2273.1,-1411.6 105,0 208.4,14.1 308.5,45.2 199.6,61.9 422.9,87.6 659.9,87.6 1070.1,0 2419.8,-523.9 3127.5,-606.6 42.1,-4.9 85.7,-7.3 130.5,-7.3 721.5,0.1 1769.3,604.9 2117.6,819 -311.2,-337.8 -622.2,-708.9 -1025.8,-939.3 -580.1,-330.8 -1143,-440.5 -1685.6,-440.5"
         style="fill:#59ae32;fill-opacity:1;fill-rule:nonzero;stroke:none"
         id="path290" />
      <path
         d="m 21014.6,20659.4 c -426.7,0 -848.1,21.6 -1259.4,59.6 l -256.8,581.7 c -43.1,97.7 -125.8,173.4 -227,207.6 -39.8,13.5 -81.1,20.2 -122.4,20.2 -63.8,0 -127.3,-15.9 -184.1,-47.1 l -193.9,-106.4 -196.9,72.5 -452,166.5 -157.3,427.3 c -37.8,102.7 -118,184.4 -220,224.1 -44.7,17.4 -91.7,26 -138.6,26 -60.2,0 -120.3,-14.2 -175,-42.4 l -1437.8,-740.5 c -1090.4,350 -1780.6,676.9 -1795.7,684.1 -32.1,15.4 -67.1,23.3 -102.3,23.3 -15.3,0 -30.5,-1.5 -45.7,-4.4 -423.9,-83.6 -813,-125.3 -1166.7,-125.3 -772.1,0 -1375.1,198.8 -1799.7,595 -885.7,826.3 -715.2,2270.9 -713.4,2285.1 6.1,47.5 -2.4,95 -23.4,136.6 152.7,42 315.6,105.5 488.8,195.3 0,0 370.9,-671.9 1417.2,-892.2 1046.3,-220.2 1912.6,-188.9 2896.3,-401.5 483.3,-104.4 988.1,-206.7 1511.9,-206.7 542.6,0 1105.5,109.7 1685.6,440.5 403.6,230.4 714.6,601.5 1025.8,939.3 74.8,46 117.4,74 117.4,74 -493.3,-2229 1300.3,-3297.5 3277.4,-3297.4 44.2,0 88.7,0.5 133.1,1.6 -171.2,-499 -496.4,-946.1 -1011.5,-1265.2 -183.2,-13.3 -368.6,-22.4 -556.2,-27.2 -106.3,-2.7 -212,-4 -317.7,-4"
         style="fill:#deb238;fill-opacity:1;fill-rule:nonzero;stroke:none"
         id="path292" />
      <path
         d="m 14095.4,22215.9 c 35.2,0 70.2,-7.9 102.3,-23.3 33.8,-16.2 3429.4,-1624 7134.6,-1529.2 1245.4,31.7 2397.3,252.5 3423.4,656.3 3139.7,1236.6 2709.3,3645.1 2424.4,5238.9 -73,408.7 -136.1,761.6 -122,1027.3 58.9,1123.6 -495.1,4141.9 -2152.9,4599.4 -41.6,11.5 -79.3,34.2 -108.9,65.5 -38.7,40.5 -976.3,997 -2306.7,387.4 -71.3,-32.6 -154,-27.9 -221,12.8 -67.4,40.4 -1688.5,984.4 -3924.5,-74.2 -68.3,-32.3 -147.9,-30 -214.2,6.2 -8.8,4.7 -928.2,492 -1632.5,86.6 -563.7,-324.5 -869.7,-1132.3 -909.4,-2400.9 -3.1,-98.9 -67.4,-185.4 -161.3,-216.7 -2.2,-0.8 -316,-110.5 -518.6,-363.5 -59.9,-74.8 -159,-106 -251,-79 -9.4,2.8 -968.6,275.9 -1495,-92.6 -63.6,-44.5 -145,-54.9 -217.7,-28 -84.2,31 -2087.5,744.5 -3653.91,-705.9 -727.94,-674.1 -710.2,-1491.6 -634.86,-1919 142.72,-809.2 645.2,-1412.5 1067.84,-1590.1 l 0.86,-0.4 c 129.56,-55 250.68,-70.7 360.17,-46.4 75.2,16.7 153.6,-4.3 210.5,-56.2 56.8,-52 84.7,-128.3 74.9,-204.6 -1.8,-14.2 -172.3,-1458.8 713.4,-2285.1 619.2,-577.7 1617.1,-735.7 2966.4,-469.7 15.2,2.9 30.4,4.4 45.7,4.4 m 6911.4,-2029 c -3427.7,-0.2 -6431.7,1311.5 -6942.1,1546.4 -1470.4,-275.8 -2582.6,-72.4 -3306.4,605 -812.51,760.4 -888.54,1890.7 -875.46,2410.6 -113.18,11.2 -228.46,41.2 -342.42,89.5 -640.53,269.2 -1195.66,1068.5 -1350,1943.6 -158.97,901.4 117.75,1735.1 779.13,2347.6 1579.45,1462.4 3533.85,991.2 4025.95,839.9 564.6,318.7 1329.2,200.3 1647.6,130 165.4,165.5 351.2,273.4 478.9,335.1 66.8,1360.1 450.9,2249.9 1142.8,2646.1 775.6,444.3 1671.3,111.9 1980.9,-28.9 2110.3,953 3726.4,282.1 4157,63.6 1398.5,573.5 2449.3,-274.3 2686.6,-491.7 2005.9,-614.7 2498.1,-3964.1 2440.5,-5062.7 -11.2,-211.3 47.5,-539.4 115.4,-919.3 143.1,-800.8 339.1,-1897.5 62.7,-2959.6 -328.4,-1262.3 -1263.4,-2205 -2779.1,-2802 -1077.8,-424.1 -2283.7,-655.9 -3584.5,-688.9 -112.7,-2.9 -225.6,-4.3 -337.5,-4.3"
         style="fill:#5c0000;fill-opacity:1;fill-rule:nonzero;stroke:none"
         id="path294" />
      <path
         d="m 15254.5,30484.4 c 28.9,7.5 48.2,11.6 71.1,16.5 22.1,4.6 43.8,8.8 65.4,12.7 43.3,7.9 86.1,14.7 128.9,20.7 85.6,11.8 170.8,21.3 256.1,27.2 170.4,13 340.7,14.2 510.2,6.4 339,-15.4 675.1,-72.2 998.2,-168.8 323.3,-96 632.1,-235.1 918.4,-407.2 284.8,-174.8 546.6,-382.7 780.3,-615.8 33.5,-33.3 33.6,-87.4 0.2,-120.8 -31.7,-31.8 -82.1,-33.5 -115.7,-5 l -0.7,0.6 c -241.6,206 -505,383.1 -783.9,525.9 -280.4,140 -575.7,246 -879.2,310.9 -303.3,65.6 -613.5,93.2 -921.5,83.2 -153.9,-4.9 -307.4,-18 -458.5,-41.5 -75.6,-11.1 -150.5,-25.6 -224.2,-41.6 -36.8,-8.1 -73.4,-16.9 -109.1,-26.3 l -52.8,-14.7 c -16.4,-4.7 -36.2,-10.9 -46.2,-14.5 -122.6,-44.9 -258.5,18.1 -303.5,140.8 -44.9,122.6 18.2,258.5 140.8,303.4 7,2.6 14,4.8 21,6.6 l 4.7,1.3"
         style="fill:#5c0000;fill-opacity:1;fill-rule:nonzero;stroke:none"
         id="path296" />
      <path
         d="m 14755.2,30066.6 c 33.8,-14.7 58.2,-26.6 85.6,-40.2 26.9,-13 52.9,-26.5 78.6,-40.2 52.1,-26.8 101.9,-55.7 152.2,-84 99.4,-58.3 196.9,-118.2 291.5,-182.1 189.2,-127.3 371.8,-262.5 543.6,-409.8 171.7,-147.3 337.7,-300 490.7,-465 156.1,-161.8 297.7,-336.2 434.6,-512.4 27.6,-35.6 21.2,-86.9 -14.4,-114.5 -33,-25.7 -79.6,-22 -108.2,7.1 l -1.9,2 c -152.6,154.9 -307.8,305.9 -475,442.8 -164.1,140.1 -339.1,266.5 -516.9,386.1 -177.8,119.7 -364,226 -552.8,323.2 -94.4,48.8 -190.6,93.2 -286.8,135.5 -48.4,20.1 -96.7,41.1 -145,59.1 -24.2,9.4 -48.3,18.5 -72.1,26.8 -23.1,8.3 -49.6,17.3 -67,22.3 -125.6,36.5 -197.8,167.9 -161.3,293.5 36.5,125.6 167.8,197.8 293.4,161.3 9.3,-2.8 18.3,-6 27,-9.7 l 4.2,-1.8"
         style="fill:#5c0000;fill-opacity:1;fill-rule:nonzero;stroke:none"
         id="path298" />
      <path
         d="m 13144.1,29913.9 c 18.5,-9.2 30.6,-16.3 44.2,-23.8 13.7,-7.6 26.3,-15.1 38.8,-22.7 25.3,-15.1 50.1,-30.3 73.9,-46.2 48.7,-30.7 94.4,-64.1 140.8,-96.6 90.8,-67.3 178.3,-137.7 261.5,-212.1 166.7,-148.7 319.4,-311.2 452.9,-487.5 133.9,-175.5 254.1,-360.8 349.4,-557.8 23.4,-49.5 51.4,-96.3 70.5,-147.6 l 61.9,-151 c 22.2,-49.5 36.9,-102 53.9,-153.4 l 49.4,-154.3 c 12.2,-37.7 -8.6,-78.1 -46.3,-90.2 -34.8,-11.1 -71.7,5.6 -86.8,37.7 l -2.5,5.3 -66.2,140.2 c -22.3,46.4 -42.2,93.8 -69.4,137.7 l -76.2,133.5 c -23.7,45.3 -56,85.7 -83.5,128.6 -111.7,170.6 -244.3,325.7 -386.1,468.6 -141.4,143.7 -297.7,271.4 -462.3,383.5 -82.1,56.2 -167,107.7 -252.9,155.6 -43.4,22.6 -86.4,46.3 -130.1,66.3 -21.8,10.8 -43.4,20.4 -64.9,29.6 -10.8,4.8 -21.6,9.5 -31.7,13.3 -10.1,4 -21.6,8.7 -27.1,10.2 -126.7,35.1 -201.1,166.2 -166.1,292.9 35.1,126.7 166.2,201.1 292.9,166 14.4,-3.9 28,-9.1 41,-15.4 l 21,-10.4"
         style="fill:#5c0000;fill-opacity:1;fill-rule:nonzero;stroke:none"
         id="path300" />
      <path
         d="m 10083.8,25174.9 c 54.7,14.9 115.8,33.9 172.9,53.2 57.8,19.5 115.2,40.3 170.7,62.9 55.3,22.5 110.2,45.9 160.7,72.1 50.4,26 98.2,54 136.5,82.7 81.6,61.2 197.2,44.6 258.3,-36.9 l 0.1,-0.1 2.5,-3.3 c 24.8,-33.2 58.6,-74.6 90.2,-111.2 32.4,-37.6 66.1,-74.5 100.4,-110.9 69,-72.3 141.2,-141.7 216.4,-207.4 149.7,-131.8 310.7,-249.3 481.8,-343.9 170.7,-95.3 351.9,-166.1 537.5,-204.7 46.4,-10.2 93.1,-16.9 139.9,-23.1 47.6,-4.4 91.4,-8.8 145.6,-10.7 104,-5.7 208.1,-8.5 312.3,-12.5 208.6,-6.8 418.2,-8 631.8,-11.6 213.5,-3.7 431.5,-12.2 648.8,-34.5 217.4,-21.9 433,-56.9 645.2,-100.4 211.9,-43.5 422.4,-98.9 623.2,-150.7 202.2,-50.9 403.4,-96.2 605.3,-128.3 201.8,-31.2 404.1,-49.1 605.5,-47.7 402.9,0.4 800.5,89.3 1166.7,258.1 367.8,167.6 695.9,421.4 990.1,709.8 294.3,290.1 550.8,621.3 786.6,967.3 l 0.3,0.5 c 25.2,36.9 75.4,46.4 112.3,21.2 35.3,-24 45.4,-71.3 24.2,-107.6 -216.2,-368.6 -466,-720.8 -757.8,-1041.4 -295.3,-316.1 -636.7,-601.1 -1033.2,-801.4 -197.4,-100.1 -406.3,-181.3 -622.8,-234.5 -216.1,-54.4 -438.4,-82.8 -659.9,-89.5 -221.7,-6.9 -442.5,7.4 -659.5,35.6 -216.9,29 -429.9,71.6 -639.1,118.9 -210.4,47.6 -409.5,98.6 -612.6,137.9 -202.7,39.1 -405.5,69.6 -609.3,87.8 -406,38 -825.5,20.4 -1255.8,30.2 -107.2,2.3 -214.5,6.8 -321.8,12.4 -51.4,1.8 -113,7.3 -170.7,13.1 -58.1,7.7 -116,16.4 -173,28.8 -228.7,47.9 -445.4,134.3 -643.8,245.3 -198.9,110.8 -381.6,244.3 -548.3,393 -83.2,74.7 -162.5,153.1 -238.4,234.8 -37.7,41.2 -74.8,82.9 -110.9,125.9 -36.7,44 -69.7,84.8 -107.5,136.9 l 260.8,-40.4 c -65.3,-47.5 -129.8,-83 -194,-115.1 -64.2,-32 -128.2,-58.1 -192.2,-83.1 -64.1,-24.8 -128.4,-45.9 -192.8,-66.1 -65.3,-20.1 -127.5,-38 -197.3,-55.2 -95,-23.4 -190.93,34.6 -214.34,129.6 -23.05,93.5 32.76,187.9 125.04,213.2 l 3.4,1"
         style="fill:#5c0000;fill-opacity:1;fill-rule:nonzero;stroke:none"
         id="path302" />
      <path
         d="m 20021.8,24566.2 c -27,188.6 -60.2,377 -110.7,552.8 -49.9,176.3 -115.8,342.3 -204.7,486.4 -43.7,72.7 -95.6,137.5 -151.7,197.1 -56.7,58.8 -117,114.5 -186.6,160.2 -135.9,96.9 -299.5,162.2 -479.7,228.1 l -5.2,1.9 c -43.4,15.8 -65.7,63.8 -49.8,107.2 11.2,30.7 38.7,50.9 69.2,54.4 52,5.8 104.7,11 157.9,10.1 52.9,-3.1 107,-3.7 160.2,-14.4 107.4,-15.7 213.7,-51.8 314.1,-101.8 201.7,-100.9 368.7,-273.4 473.4,-467.4 106.2,-194.4 161.7,-405.6 179.5,-613.2 15.2,-208.7 2.7,-413.3 -56.6,-613.5 -8.7,-29.6 -39.8,-46.5 -69.3,-37.7 -21.6,6.4 -36.4,24.7 -39.5,45.6 l -0.5,4.2"
         style="fill:#5c0000;fill-opacity:1;fill-rule:nonzero;stroke:none"
         id="path304" />
      <path
         d="m 22539.9,32659.9 c -33,-14 -75.9,-36.4 -113.8,-57.2 -39.2,-21.3 -78,-44 -116.6,-67.4 -76.9,-47 -151.9,-97.9 -224.5,-152.2 -144.7,-109.3 -278.3,-234 -386.5,-382 l -1.5,-2.2 c -21.1,-28.7 -61.5,-35 -90.3,-14 -23.5,17.2 -31.9,47.4 -22.8,73.5 33.2,94.5 73.8,187.8 122.4,276.4 49,88.1 102.8,174.6 162.3,256.4 59.3,82 122.6,161.3 189.9,237.7 33.6,38.2 68.1,75.8 103.9,112.7 36.7,37.7 70.2,71.6 115.4,111.4 l 9.6,8.4 c 99.6,87.5 251.4,77.7 338.9,-21.9 87.6,-99.6 77.8,-251.4 -21.8,-339 -19.6,-17.1 -42,-30.8 -64.6,-40.6"
         style="fill:#5c0000;fill-opacity:1;fill-rule:nonzero;stroke:none"
         id="path306" />
      <path
         d="m 25201.2,32518.5 c 11.7,-21.1 15.7,-31.8 22.1,-46.4 6.1,-13.9 10.8,-26.9 16,-40.2 10,-26.4 19.2,-52.3 27.3,-78.2 16.8,-51.7 30.7,-102.9 42.9,-154.1 24.4,-102.3 41.3,-204.2 53.5,-305.5 10.5,-101.6 17.7,-202.1 17.9,-302.2 1.5,-100 -3.7,-199.2 -10.9,-297 -1.6,-21.4 -20.2,-37.5 -41.6,-35.9 -16.8,1.3 -30.3,13 -34.6,28.4 l -0.3,1.1 c -25.4,92.9 -52.5,184.1 -85.5,272.7 -31.7,88.9 -69.6,174.8 -109.2,258.1 -41.2,82.7 -85.6,162.6 -134.4,237.4 -24.3,37.4 -49.5,73.7 -75.9,107.5 -12.9,17.2 -26.5,33.5 -39.7,49 -6.7,7.4 -13.4,15.5 -19.9,22 -5.8,6 -14.5,15.6 -16.1,14.4 -74.2,107.3 -47.5,254.4 59.8,328.7 107.2,74.2 254.3,47.5 328.6,-59.8"
         style="fill:#5c0000;fill-opacity:1;fill-rule:nonzero;stroke:none"
         id="path308" />
      <path
         d="m 11927.7,27364.9 c 0,-277.2 145.4,-501.9 324.8,-501.9 179.4,0 324.8,224.7 324.8,501.9 0,277.2 -145.4,502 -324.8,502 -179.4,0 -324.8,-224.8 -324.8,-502"
         style="fill:#5c0000;fill-opacity:1;fill-rule:nonzero;stroke:none"
         id="path310" />
      <path
         d="m 9418.18,27866.9 c 0,-277.2 145.4,-502 324.76,-502 179.37,0 324.76,224.8 324.76,502 0,277.2 -145.39,501.9 -324.76,501.9 -179.36,0 -324.76,-224.7 -324.76,-501.9"
         style="fill:#5c0000;fill-opacity:1;fill-rule:nonzero;stroke:none"
         id="path312" />
      <path
         d="m 17914.1,24000.4 c 318.8,143.4 643,357.2 967.2,667.2 -152.3,268.7 -447,611.2 -1019.2,925.9 0,0 59.7,-835 52,-1593.1"
         style="fill:#ffffff;fill-opacity:1;fill-rule:nonzero;stroke:none"
         id="path314" />
      <path
         d="m 16132.6,23791.9 c 106.9,-986.7 755.2,-1357.5 755.2,-1357.5 88.6,501.9 265.7,915.2 265.7,1345.1 -356,-52 -699.7,-34.8 -1020.9,12.4"
         style="fill:#ffffff;fill-opacity:1;fill-rule:nonzero;stroke:none"
         id="path316" />
      <path
         d="m 14101.3,24166.9 c 298.8,-19.5 621.8,-62.6 1047.5,-162.4 -2.3,353.1 -63.1,879.2 -327.7,1441.4 0,0 -547.4,-319.5 -719.8,-1279"
         style="fill:#ffffff;fill-opacity:1;fill-rule:nonzero;stroke:none"
         id="path318" />
      <path
         d="m 12872.5,22788.7 c -107.5,430.4 -18.9,1013.3 66.7,1404.2 -95,2.9 -196,7 -302.9,12.9 -282.2,16 -539.7,93.9 -765.2,200.2 -80.9,-1273.1 1001.4,-1617.3 1001.4,-1617.3"
         style="fill:#ffffff;fill-opacity:1;fill-rule:nonzero;stroke:none"
         id="path320" />
      <path
         d="m 10008.7,24965 -242.35,-963.9 c -40.32,-160.4 -265.85,-166.9 -315.41,-9.1 l -518.16,1649.9 c 0,0 455.88,-626.3 1075.92,-676.9"
         style="fill:#ffffff;fill-opacity:1;fill-rule:nonzero;stroke:none"
         id="path322" />
      <path
         d="m 17847.7,23898.8 c -19.9,44.8 -42.9,104.4 -51.1,166.6 -2.2,15.3 -3.6,30.6 -4.5,45.5 l -0.8,22.1 -0.3,16.7 -1.1,49.4 -5.2,197.8 c -4.4,131.9 -9.8,263.9 -16.7,395.8 -13.6,263.6 -31.1,528.6 -53.1,790.3 l -0.3,3.6 c -6.7,79.6 52.4,149.6 132,156.3 31.5,2.7 61.5,-4.9 86.7,-20.1 l 0.5,-0.3 c 205.5,-125.6 402.6,-267.8 578.6,-435.5 175.9,-166.9 331.9,-358.8 444.3,-576.6 l 5.1,-9.9 c 17.2,-33.2 7.7,-73.2 -20.6,-95.6 l -0.2,-0.2 c -81.6,-59.8 -158.6,-123.6 -237.1,-185.8 -78.3,-62.4 -155.9,-125.8 -236,-186.5 -80.3,-60.5 -162.1,-119.6 -246.3,-176.2 l -127.4,-84.2 -64.8,-41.3 c -3.6,-2.1 -3.6,-2.6 -10,-6 -6.9,-3.5 -14.1,-6.9 -21.8,-10 -15.3,-6.3 -32.4,-11.5 -50.1,-15 -35.7,-7.1 -71.9,-4.9 -99.8,-0.9 z m 132.8,203.1 c -5.6,14.4 -19.5,26.9 -32.9,30.1 -6.5,1.7 -12.5,1.6 -16.6,0.5 -2.1,-0.5 -3.8,-1.3 -5,-2.2 -0.9,-0.8 4.6,1.5 6.5,2.1 l 67.4,24.3 c 44.8,16.7 88.6,35.9 132,56.3 86.6,41 170.9,87.7 252,139.7 81.1,51.9 160,108.1 233.3,171.1 73.3,63 143.2,130.3 204,206.2 l 0.2,0.3 -15.5,-105.5 c -118,186.5 -273.9,347.6 -447.6,485.7 -173.6,138.7 -366.5,253.8 -566.9,353.4 l -0.4,0.2 218.4,139.9 c 13.7,-268.5 22.4,-534.5 27.3,-802 2.6,-133.6 3.6,-267.3 3.7,-401.1 l -1.3,-200.8 -0.6,-50.2 -0.1,-6.3 -0.2,-1.9 c -0.2,-1 -0.5,-2 -1,-2.8 -0.9,-1.7 -2.4,-3 -4.7,-4.3 -8.5,-4.2 -31.8,-11.1 -52,-32.7"
         style="fill:#5c0000;fill-opacity:1;fill-rule:nonzero;stroke:none"
         id="path324" />
      <path
         d="m 16030.2,23898.3 c 25.2,12.2 57.2,24.2 91.8,29.4 17.1,2.6 34.6,3.7 51.3,3.3 8.4,-0.2 16.5,-0.7 24.4,-1.6 l 17.5,-2.3 61.2,-10 c 40.8,-6.2 81.7,-12 122.6,-17.1 81.8,-10.2 163.9,-17.7 246,-22.2 164.3,-9.1 329,-5.8 492.5,11.8 l 4.2,0.5 c 61,6.6 115.9,-37.6 122.5,-98.6 0.4,-4 0.6,-8.1 0.6,-12 v -0.2 c 5.6,-246.1 -42.5,-483.1 -93.4,-708.2 -51.7,-225.7 -105.9,-443.9 -138.1,-661.8 l -0.1,-0.6 -0.7,-3.8 c -15,-79.3 -91.5,-131.5 -170.8,-116.4 -16.9,3.2 -33.1,9.5 -47.2,17.8 v 0 c -12.8,7.4 -19.9,12.3 -28.7,18 -8.9,5.6 -16.4,11.1 -24.4,16.6 -16,11 -31,22.3 -45.7,33.8 -30.2,22.5 -57.5,46.9 -85.5,71 -54.1,49.5 -106.2,100.8 -153.1,156.2 -95,109.9 -177.6,229.6 -245.6,356.9 -17.4,31.6 -31.8,64.6 -47.8,96.9 l -23.3,48.7 -19.8,50.1 -39,100.5 -31.8,102.6 -15.7,51.3 -12.1,52.1 -23.6,104.4 c -2,9.9 -3.7,14.7 -6,28.8 -2.2,14.1 -4,28.5 -5.5,43.3 -2.9,29.6 -4.1,60.6 -2.9,91.5 2.2,62 14.5,120.8 26.2,169.3 z m 204.8,-212.8 c 21.3,-17.6 43.4,-24.9 55.2,-29 6.1,-2.2 9.8,-4.3 11.7,-7.7 1,-1.8 1.6,-3.9 1.8,-6.3 0.1,-2.4 3,-13.8 4.4,-20.2 l 20.7,-91.2 10.4,-45.5 13.8,-44.4 27.3,-89 33.8,-86.4 16.9,-43.2 20.1,-41.6 c 13.7,-27.5 25.8,-56 40.7,-82.9 58,-108.6 128.2,-210 207.9,-302.3 39.4,-46.7 82.9,-89.2 127.2,-130 22.7,-19.4 45.3,-39.7 68.7,-57 11.7,-9.2 23.3,-17.9 34.9,-25.8 5.7,-4 11.7,-8.5 17,-11.7 l 13.6,-8.8 v 0 l -218.7,-102.5 0.2,0.7 c 47.3,233.2 115.9,456.7 177.9,674.3 61.7,217.5 115.5,431.4 121.8,644.3 v 0.2 l 127.3,-110.1 c -174.6,-31.5 -352,-47.6 -529.2,-50.5 -88.6,-1.4 -177.2,0.4 -265.5,5.1 -44.1,2.3 -88.2,5.4 -132.2,9 l -65.9,6 c -4.8,0.5 -0.9,-0.2 1.7,-0.2 2.6,-0.1 5.4,0.1 8.5,0.7 6.1,1.1 13.1,3.6 19.7,7.7 13.4,8.2 24.3,23.1 28.3,38.3"
         style="fill:#5c0000;fill-opacity:1;fill-rule:nonzero;stroke:none"
         id="path326" />
      <path
         d="m 14280.3,24300.7 c 232,-21.7 461.9,-57.3 714.2,-110.5 -18.2,278.7 -77.4,636.5 -231.8,1020.4 -142.2,-137.2 -363,-417.5 -482.4,-909.9 z m 868.5,-443.8 c -11.2,0 -22.5,1.3 -33.7,3.9 -376.3,88.2 -691.9,137.2 -1023.4,158.8 -41.9,2.7 -80.7,23.2 -106.6,56.3 -25.9,33.1 -36.5,75.7 -29.1,117.1 182.4,1014.9 766,1365.9 790.7,1380.3 35.9,21 78.7,25.8 118.3,13.5 39.5,-12.3 72.1,-40.6 89.7,-78.1 278.1,-591 339.4,-1143.6 341.7,-1503.2 0.4,-45.3 -20.1,-88.2 -55.5,-116.4 -26.4,-21.1 -58.9,-32.2 -92.1,-32.2"
         style="fill:#5c0000;fill-opacity:1;fill-rule:nonzero;stroke:none"
         id="path328" />
      <path
         d="m 12016.5,24185.8 c 31.2,-649.3 410.3,-987.8 667.2,-1143.8 -27,332.7 17.6,701.2 76.1,1009.9 -44.1,1.9 -87.8,4.1 -131.6,6.5 -204.9,11.6 -409.9,54.3 -611.7,127.4 z m 856,-1544.8 c -15,0 -30,2.3 -44.7,7 -11.9,3.8 -1191.3,395.1 -1104.1,1767.4 3.1,48.8 30.2,92.9 72.3,117.7 42.1,24.9 93.8,27.3 138,6.5 233.9,-110.3 473,-172.9 710.7,-186.4 98,-5.4 195.9,-9.6 299.1,-12.8 43.9,-1.4 84.9,-22.2 111.9,-56.8 27,-34.6 37.1,-79.4 27.8,-122.3 -85.6,-390.8 -166.9,-939.9 -67.7,-1336.9 12.9,-51.9 -3.2,-106.7 -42.3,-143.4 -27.7,-26 -64,-40 -101,-40"
         style="fill:#5c0000;fill-opacity:1;fill-rule:nonzero;stroke:none"
         id="path330" />
      <path
         d="m 9250.18,25123.9 341.6,-1087.7 c 1.66,-5.3 4.3,-11.3 16.04,-11.4 12.33,0.3 14.02,7 15.36,12.3 l 203,807.5 c -221.56,51.3 -417.19,161.1 -576,279.3 z m 356.76,-1394.4 c -136.98,0 -255.54,86.7 -296.85,218.2 l -518.16,1650 c -21.66,69 9.84,143.5 74.41,176 64.55,32.5 143.19,13.6 185.77,-44.9 4.08,-5.6 425.15,-572.3 968.59,-616.6 43.2,-3.6 82.7,-25.9 108,-61.2 25.3,-35.3 33.7,-79.9 23.1,-121.9 l -242.29,-964 c -34.35,-136.7 -152.15,-231.4 -293.09,-235.5 -3.18,0 -6.35,-0.1 -9.48,-0.1"
         style="fill:#183c10;fill-opacity:1;fill-rule:nonzero;stroke:none"
         id="path332" />
      <path
         d="m 18371.6,32988.4 c 17.8,-14 22.9,-20.2 32.3,-29.4 8.9,-8.7 15.9,-16.8 23.6,-25.2 14.6,-16.6 28.7,-32.9 41.4,-49.5 26.3,-32.9 49.4,-66.2 71.3,-99.8 43.7,-67.2 80.7,-136 113.5,-205.3 31.8,-69.8 59.9,-139.9 82.7,-211 23.5,-70.6 41.6,-142.2 57.7,-213.1 9,-39.9 -16,-79.6 -56,-88.7 -30.2,-6.8 -60.3,5.8 -77,29.7 l -1.6,2.3 c -39.3,56 -79.4,110.2 -122.9,160.7 -42.8,50.9 -88.9,98 -135.7,142 -47.7,43.3 -96.8,83.3 -147.2,117.6 -25.1,17.1 -50.5,33.3 -75.6,46.8 -12.5,7.1 -25.1,13 -37,18.6 -5.8,2.4 -12,5.5 -17.1,7.1 -4.3,1.3 -13.1,5.3 -9.7,1 -109.4,71.1 -140.4,217.4 -69.4,326.8 71.1,109.4 217.3,140.4 326.7,69.4"
         style="fill:#5c0000;fill-opacity:1;fill-rule:nonzero;stroke:none"
         id="path334" />
      <path
         d="m 24316.6,29461.2 h -1.2 c -130.5,0.6 -235.7,106.9 -235,237.3 -0.1,39.8 -10.3,992.5 -794,1073.2 -767.8,79 -1023.6,-780.2 -1034.1,-816.9 -36,-125.1 -166.4,-197.8 -291.6,-162.3 -125.2,35.5 -198.2,165.2 -163.1,290.5 124.1,442.7 605.2,1254.6 1537.2,1158.6 968.8,-99.7 1220.3,-1054.5 1217.9,-1545.4 -0.6,-130 -106.2,-235 -236.1,-235"
         style="fill:#5c0000;fill-opacity:1;fill-rule:nonzero;stroke:none"
         id="path336" />
      <path
         d="m 17862.1,30213.3 c -130.2,0 -235.9,105.5 -236.2,235.7 -0.3,34.4 -14.7,860 -660.6,976.5 -660.6,119 -937.7,-709.3 -949.1,-744.6 -40.2,-123.8 -173.1,-192.1 -297.1,-152.2 -123.9,39.9 -192.3,172.2 -152.8,296.2 138.8,435.9 627.6,1219.6 1482.8,1065.5 827.9,-149.3 1048.3,-1007.5 1049.2,-1440.4 0.3,-130.4 -105.2,-236.4 -235.7,-236.7 h -0.5"
         style="fill:#5c0000;fill-opacity:1;fill-rule:nonzero;stroke:none"
         id="path338" />
      <path
         d="m 25590.5,30324.5 -38.4,-286.4 c -79.7,-597.5 -387.3,-1128.4 -866.2,-1494.5 -478.3,-366.1 -1071.1,-523.7 -1668.7,-444 l -322.4,43.1 c -1233,164.1 -2102.7,1301.4 -1938.6,2534.9 l 36,270.5 0.6,1.7 1.8,14.2 c 0.6,4.7 1.2,8.9 2.4,13.6 v 1.8 c 62,434.6 287.5,820.2 637.1,1087.6 292.9,224.4 644.8,342.5 1008,342.5 74.4,0 148.8,-4.7 223.2,-14.7 l 1494.5,-199 c 441.1,-59.1 832.6,-285.8 1102.4,-639.5 270.5,-353.1 386.8,-790.7 328.3,-1231.8 z m 3344.5,-974.9 -112.7,306.5 c -219.1,599.3 -794.8,1001.5 -1433.2,1001.5 H 26429 c -21.2,505.4 -196.6,990.8 -509.6,1401.2 -404.5,528.5 -990.8,868 -1650.4,956 l -1494.5,199.6 c -659.6,87.9 -1314.4,-86.8 -1842.9,-490.7 -344.3,-264 -608.8,-604.7 -775.3,-992.6 -326,155.3 -669,162.3 -959.6,105.7 -60.2,380.8 -214.9,742.8 -455.2,1057.5 -381.5,499 -934.8,819 -1557.1,902.3 l -1105.4,147.6 c -623,82.7 -1240,-81.5 -1739,-462.9 -499,-381.5 -819.6,-934.2 -902.9,-1557.1 -17.1,-130 -25.3,-258.7 -25.3,-386.2 0,-746.4 189.5,-1172.1 671.9,-1696.5 158.9,112.2 501.4,-7.1 806.6,122.8 -498.9,454.7 -775.3,1138.5 -679.6,1856.5 55.5,416.3 269.8,786 603.5,1041 333,255.1 745.7,365 1161.4,308.9 l 1105.4,-147.1 c 416.3,-55.5 786,-269.2 1041.1,-603.4 254.5,-333.1 364.9,-745.8 308.8,-1162.1 -63.8,-477.7 -282.3,-910.5 -623,-1241.2 180.1,-91 444.1,-168.9 717.5,-375.6 452.3,416.3 568,764.7 653.6,1333.9 159.5,63.8 493.1,148.8 770.6,-93.8 l -12.4,-94.5 c -225,-1685.3 963.7,-3239.4 2648.3,-3463.8 l 322.4,-43.1 c 138.2,-18.3 276.4,-27.8 414,-27.8 672.5,0.6 1323.3,219.7 1866.5,634.8 627.7,480.1 1039.9,1167.4 1168.6,1943.9 h 1032.1 c 292.9,0 556.9,-184.3 657.3,-458.8 l 112.1,-306.5 c 61.5,-167.7 219.7,-271.6 388,-271.6 47.2,0 95.1,8.2 142.3,25.4 214.3,78.5 324.2,315.9 246.2,530.2"
         style="fill:#5c0000;fill-opacity:1;fill-rule:nonzero;stroke:none"
         id="path340" />
      <path
         d="m 17629,29862.2 c 60.2,45.4 116.9,95 170.7,147 -30.2,-26.6 -131.7,-114 -170.7,-147"
         style="fill:#5c0000;fill-opacity:1;fill-rule:nonzero;stroke:none"
         id="path342" />
      <path
         d="m 20797,30977.6 c -1.2,-9.4 -2.4,-18.9 -4.2,-27.8 l 1.8,14.2 c 0.6,4.7 1.2,8.9 2.4,13.6"
         style="fill:#5c0000;fill-opacity:1;fill-rule:nonzero;stroke:none"
         id="path344" />
      <path
         d="m 22721.7,13448.6 c 0,-194.9 -107.5,-381.5 -292.3,-474.2 l -5118.9,-2576.9 c -153.5,-76.7 -328.9,-98 -496.6,-59 l -1033.9,240.3 c -215,50.2 -395.7,193.7 -492.5,391.5 l -3638,7411.8 c -62,125.7 -77.3,262.7 -53.1,390.9 19.5,103.3 64.3,200.1 132.2,282.2 52,63.8 117.5,118.7 196.1,158.9 l 5587.7,2877.4 c 109.3,56.7 243.3,4.1 286.4,-111.6 l 185.4,-503.7 801.3,-295.2 264.6,145.2 c 105.7,57.9 237.9,13 286.4,-96.8 l 3340.3,-7566.5 c 30.7,-69.7 45.5,-142.3 44.9,-214.3"
         style="fill:#0096f0;fill-opacity:1;fill-rule:nonzero;stroke:none"
         id="path346" />
      <path
         d="m 22362.9,13139.5 -609.4,1380.4 c 89,70 174.2,142.1 255.9,216 l 505.3,-1144.5 c 74,-168.1 7.3,-363.7 -151.8,-451.9 m -2104.4,4766.6 -1217.9,2758.8 c -34,77.1 -109.3,122.2 -187.7,122.2 -33.3,0 -67.2,-8.1 -98.7,-25.4 l -264.5,-145.2 -227.5,83.8 605.5,323.6 c 1,0.6 2,1.1 3,1.6 l 264.7,145.3 c 4.7,2.6 9.3,3.5 13.3,3.5 3.5,0 6.6,-0.7 9,-1.5 5.4,-1.8 12.5,-5.9 16.6,-15.2 l 1277.3,-2893.2 c -72,-121.8 -136.4,-243.1 -193.1,-358.3 m -8155.5,987.6 -181.9,106.3 c 25.6,21.7 54,40.6 84.6,56.5 l 5587.7,2877.5 c 4.6,2.4 8.9,3.2 12.7,3.2 4,0 7.5,-0.9 10.2,-2 5.3,-2.1 12.5,-6.6 16.1,-16.3 l 131.6,-357.4 -264.6,-137 c -33.5,78.4 -109.7,125.4 -189.3,125.4 -31.4,0 -63.4,-7.3 -93.5,-22.9 L 12103,18893.7 m 5714.3,1970.5 -128.9,47.5 -65.5,177.9 373.3,193.3 357.8,-131.8 -536.7,-286.9"
         style="fill:#99d5f9;fill-opacity:1;fill-rule:nonzero;stroke:none"
         id="path348" />
      <path
         d="m 17606.1,21937.2 c -3.8,0 -8.1,-0.8 -12.7,-3.2 l -5587.7,-2877.5 c -123.9,-64.1 -209.7,-179.3 -235.2,-316.1 -18.2,-96.3 -5.1,-193 37.8,-280.1 l 3638.2,-7412 c 73.7,-150.6 209.9,-258.9 373.7,-297.1 l 1033.8,-240.3 c 126.5,-29.4 260.4,-13.4 377.2,45 l 5118.5,2576.6 0.1,0.1 c 168.5,84.6 240.9,286.2 164.9,458.8 l -3340.4,7566.2 c -4.1,9.3 -11.2,13.4 -16.6,15.2 -5.2,1.8 -13.4,2.9 -22.3,-2 l -264.7,-145.3 c -45,-24.6 -98.3,-28.6 -146.5,-10.9 l -801.3,295.3 c -48.6,17.9 -87,56.3 -104.9,105 l -185.6,504 c -3.6,9.7 -10.8,14.2 -16.1,16.3 -2.7,1.1 -6.2,2 -10.2,2 m -626.6,-11795 c -68.9,0 -138,7.9 -205.7,23.6 l -1034,240.3 c -268,62.6 -490.8,239.8 -611.5,486.2 l -3637.9,7411.6 c -77,156.3 -100.6,329.9 -68.1,501.9 45.6,244.6 199.1,450.9 421,565.5 l 5587.9,2877.7 c 97.3,50.1 211.5,56.1 313.6,16.4 102,-39.7 182.2,-121.4 220,-224.1 l 157.3,-427.3 648.9,-239 193.9,106.4 c 93.6,51.4 205.3,61.2 306.5,26.9 101.2,-34.2 183.9,-109.9 227,-207.6 l 3340.4,-7566.4 c 152.3,-345.5 7.4,-748.8 -329.8,-918.3 l -5118.9,-2576.8 c -128.3,-64.1 -269.2,-97 -410.6,-97"
         style="fill:#5c0000;fill-opacity:1;fill-rule:nonzero;stroke:none"
         id="path350" />
      <path
         d="m 18785.5,21180.8 -5607,-2996.9 c -41.3,-22.1 -90.8,-22.9 -132.9,-2.2 l -471.4,231.8 c -107.2,52.7 -108.8,205 -2.7,260 l 5412.7,2802.6 801.3,-295.3"
         style="fill:#ffffff;fill-opacity:1;fill-rule:nonzero;stroke:none"
         id="path352" />
      <path
         d="m 12708.5,18544.9 400.8,-197.1 5244.7,2803.3 -357.8,131.8 -5287.7,-2738 m 401.4,-555.2 c -48.8,0 -97.5,10.9 -142.3,32.9 l -471.6,231.9 c -109.9,54.1 -179,163.8 -180.3,286.3 -1.2,122.5 65.6,233.6 174.4,290 l 5412.6,2802.6 c 44.3,22.9 96.1,26.1 142.7,8.9 l 801.3,-295.2 c 65.5,-24.2 110.7,-84.5 115.5,-154.1 4.8,-69.6 -31.7,-135.5 -93.2,-168.4 l -5607,-2997 c -47.3,-25.3 -99.7,-37.9 -152.1,-37.9"
         style="fill:#5c0000;fill-opacity:1;fill-rule:nonzero;stroke:none"
         id="path354" />
      <path
         d="m 12574,18236.3 c -30.3,0 -61,7.8 -89.1,24.2 l -916.9,535.4 c -84.5,49.3 -113,157.8 -63.7,242.3 49.4,84.5 157.8,113 242.3,63.7 l 916.9,-535.4 c 84.5,-49.4 113,-157.9 63.7,-242.3 -33,-56.4 -92.3,-87.9 -153.2,-87.9"
         style="fill:#5c0000;fill-opacity:1;fill-rule:nonzero;stroke:none"
         id="path356" />
      <path
         d="m 17009.7,10142.1 c -65.6,0 -128.6,36.6 -159.3,99.6 l -3831.1,7864.6 c -42.8,87.9 -6.3,194 81.7,236.9 87.9,42.8 193.9,6.3 236.8,-81.7 l 3831.1,-7864.6 c 42.8,-88 6.3,-194 -81.7,-236.9 -25,-12.1 -51.4,-17.9 -77.5,-17.9"
         style="fill:#5c0000;fill-opacity:1;fill-rule:nonzero;stroke:none"
         id="path358" />
      <path
         d="m 19672.3,17795.5 -3601.6,-1794.2 -989.8,1987 3601.5,1794.2 989.9,-1987"
         style="fill:#ffffff;fill-opacity:1;fill-rule:nonzero;stroke:none"
         id="path360" />
      <path
         d="m 15278.8,17922 858.2,-1722.7 3337.3,1662.5 -858.2,1722.7 -3337.3,-1662.5 m 791.9,-2068.3 c -15.8,0 -31.6,2.6 -46.9,7.6 -37.1,12.5 -67.8,39.1 -85.2,74.2 l -989.9,1987 c -17.4,35 -20.3,75.5 -7.8,112.7 12.4,37.1 39.1,67.8 74.1,85.2 l 3601.6,1794.2 c 35.1,17.4 75.6,20.3 112.8,7.8 37.1,-12.4 67.7,-39 85.2,-74.1 l 989.8,-1987 c 36.4,-72.9 6.7,-161.6 -66.3,-197.9 l -3601.6,-1794.2 c -20.6,-10.3 -43.2,-15.5 -65.8,-15.5"
         style="fill:#5c0000;fill-opacity:1;fill-rule:nonzero;stroke:none"
         id="path362" />
      <path
         d="m 16980.2,10125.2 c -55.6,0 -111.3,6.3 -166.3,19 l -1033.9,240.4 c -58.5,13.6 -114.3,34.1 -166.7,60.8 40.8,-16 83,-29.1 126.5,-39.3 l 1034,-240.3 c 67.7,-15.7 136.8,-23.6 205.7,-23.6 6.4,0 12.7,0.1 19.1,0.2 3.7,-0.2 7.4,-0.3 11.1,-0.3 8.5,0 17,0.6 25.5,1.8 96.2,5.9 191.5,27 282,62.8 l -6.7,-3.4 c -103.2,-51.6 -216.3,-78.1 -330.3,-78.1"
         style="fill:#deb238;fill-opacity:1;fill-rule:nonzero;stroke:none"
         id="path364" />
      <path
         d="m 17112.6,10512.4 -762.3,1564.9 c 79.1,-13.5 156.6,-19.8 232.2,-19.8 667.3,0.1 1199.3,491 1527.3,901.2 659.8,-295.7 1309.6,-405.1 1910.4,-405.1 680.4,-0.1 1297.3,140.3 1794.6,309.7 l -4583.6,-2307.4 c -38,-19 -77.8,-33.6 -118.6,-43.5 m -410.6,33.8 -881.8,205 c -163.8,38.2 -300,146.5 -373.7,297.1 l -1690.8,3444.6 c 406.9,159.2 697,451.5 767.2,526.7 l 170.9,-350.8 c -307.8,-468 339.8,-796.9 339.8,-796.9 -269.2,-212.2 -338.5,-398.1 -308.8,-552.6 -76.1,-407 562.1,-644.2 562.1,-644.2 203.2,-194.8 400.2,-336.7 590,-435 l 825.1,-1693.9 m -1742.3,4385.8 -658,1350.7 c 91.8,168.2 143.2,296.6 143.2,296.6 h -287.7 l -268.8,551.8 c 47.3,78.3 83.6,152.4 110.6,214.9 l 626,-417.7 c 293.9,-642.9 604.6,-1197.4 926.6,-1674 -257.1,-110.7 -450,-218.7 -591.9,-322.3 m -651.8,83.5 c 62.3,50.6 113.5,97.2 151.7,134.1 l 51.6,-106 c -69.2,-12.2 -137.1,-21.5 -203.3,-28.1 m 89,262.9 -787.6,257.5 c 179.4,68.9 338.7,225.4 468.8,396.8 l 318.8,-654.3 m -633.8,1300.9 h -457.3 c 133.9,64.9 246.2,149.5 339.8,241.4 l 117.5,-241.4"
         style="fill:#1278c0;fill-opacity:1;fill-rule:nonzero;stroke:none"
         id="path366" />
      <path
         d="m 16979.5,10142.2 c -68.9,0 -138,7.9 -205.7,23.6 l -1034,240.3 c -43.5,10.2 -85.7,23.3 -126.5,39.3 -140.3,71.4 -255.3,186.6 -325.8,330.7 l -1786.9,3640.5 c 89.1,18.4 174.4,44.7 255.1,76.3 l 1690.8,-3444.6 c 73.7,-150.6 209.9,-258.9 373.7,-297.1 l 881.8,-205 148.4,-304.5 c 28.9,-59.4 86.7,-95.4 148.2,-99.3 -6.4,-0.1 -12.7,-0.2 -19.1,-0.2 m 55.7,1.7 c 17.6,2.6 35.2,7.9 52,16.1 88,42.9 124.5,148.9 81.7,236.9 l -56.3,115.5 c 40.8,9.9 80.6,24.5 118.6,43.5 l 4583.6,2307.4 c 381.6,130 692.4,277.1 906.9,391 0,-194.8 -107.5,-381.4 -292.3,-474.1 l -5112.2,-2573.5 c -90.5,-35.8 -185.8,-56.9 -282,-62.8"
         style="fill:#5c0000;fill-opacity:1;fill-rule:nonzero;stroke:none"
         id="path368" />
      <path
         d="m 17009.7,10142.1 c -3.7,0 -7.4,0.1 -11.1,0.3 -61.5,3.9 -119.3,39.9 -148.2,99.3 l -148.4,304.5 -825.1,1693.9 c 163.5,-84.7 321.4,-137 473.4,-162.8 l 762.3,-1564.9 56.3,-115.5 c 42.8,-88 6.3,-194 -81.7,-236.9 -16.8,-8.2 -34.4,-13.5 -52,-16.1 -8.5,-1.2 -17,-1.8 -25.5,-1.8 m -2315.9,4526.7 -170.9,350.8 c 10.9,11.6 16.4,18 16.4,18 l -21.8,7.1 c -2.1,-0.4 -4.2,-0.8 -6.3,-1.1 l -51.6,106 c 51.8,50.1 79.7,82.2 79.7,82.2 l -21.8,7.1 -120.6,39.5 -318.8,654.3 c 89.2,117.5 164.7,241.9 223.6,350 l 658,-1350.7 c -125.3,-91.5 -210.8,-179.5 -265.9,-263.2 m -536.6,1910.5 h -394.1 l -117.5,241.4 c 101.8,100.1 181.6,208.9 242.8,310.4 l 268.8,-551.8"
         style="fill:#5c0000;fill-opacity:1;fill-rule:nonzero;stroke:none"
         id="path370" />
      <path
         d="m 13725.1,17528.8 h -30.4 l -14.6,30 45,-30 m -424.5,0 h -829.7 l -569.8,884.6 c 0,0 -13.8,-23.8 -36.4,-67.9 l -56.4,114.8 c -34.2,69.5 -49.5,145 -45,221.6 l 698.3,-407.8 c 10.9,-7.1 22.4,-13.7 34.4,-19.6 l 471.6,-231.9 c 14.3,-7 28.9,-12.9 43.9,-17.6 l 84.7,-56.6 204.4,-419.6"
         style="fill:#1278c0;fill-opacity:1;fill-rule:nonzero;stroke:none"
         id="path372" />
      <path
         d="m 11724.8,18034.5 -75.3,153.3 c -62,125.8 -77.3,262.8 -53.1,390.9 11,58.4 30.1,114.7 56.9,167.4 l 110,-64.2 c -4.5,-76.6 10.8,-152.1 45,-221.6 l 56.4,-114.8 c -32.9,-64.1 -84.6,-171.3 -139.9,-311"
         style="fill:#5c0000;fill-opacity:1;fill-rule:nonzero;stroke:none"
         id="path374" />
      <path
         d="m 13011.5,18005 c -15,4.7 -29.6,10.6 -43.9,17.6 l -471.6,231.9 c -12,5.9 -23.5,12.5 -34.4,19.6 l 23.3,-13.6 c 28.1,-16.4 58.8,-24.2 89.1,-24.2 24,0 47.6,4.8 69.6,14.2 l 367.9,-245.5"
         style="fill:#5c0000;fill-opacity:1;fill-rule:nonzero;stroke:none"
         id="path376" />
      <path
         d="m 12574,18236.3 c -30.3,0 -61,7.8 -89.1,24.2 l -23.3,13.6 -698.3,407.8 -110,64.2 c 20.6,40.6 45.8,79.2 75.3,114.9 l 915,-610.5 c -22,-9.4 -45.6,-14.2 -69.6,-14.2"
         style="fill:#5c0000;fill-opacity:1;fill-rule:nonzero;stroke:none"
         id="path378" />
      <path
         d="m 13694.7,17528.8 h -394.1 l -204.4,419.6 583.9,-389.6 14.6,-30"
         style="fill:#5c0000;fill-opacity:1;fill-rule:nonzero;stroke:none"
         id="path380" />
      <path
         d="m 14539.3,15231.8 c 0,0 -1271.3,-1461.4 -2524.3,0 -704.4,822 -600.5,1809.9 -406.8,2464.7 126.9,430.5 292.9,716.9 292.9,716.9 l 569.8,-884.6 h 1594.3 c 0,0 -171.2,-664.3 -759.4,-949.5 h 1139.1 c 0,0 -341.9,-853.8 -835.6,-1043.4 l 908.2,-297 21.8,-7.1"
         style="fill:#58da3f;fill-opacity:1;fill-rule:nonzero;stroke:none"
         id="path382" />
      <path
         d="m 13226.4,14388 c -374,0 -793.7,162.4 -1211.4,649.6 -443.6,517.6 -566.6,1101.1 -548.6,1625.7 16.7,-471.6 159,-976.9 548.6,-1431.5 417.7,-487.2 837.4,-649.5 1211.4,-649.5 30,0 59.8,1 89.2,3.1 l 90.8,-185 c -58.6,-8 -118.7,-12.4 -180,-12.4"
         style="fill:#a9c862;fill-opacity:1;fill-rule:nonzero;stroke:none"
         id="path384" />
      <path
         d="m 13406.4,14400.4 -90.8,185 c 32.8,2.2 65.2,5.6 97.1,10.2 l 87.9,-179 c -31,-6.4 -62.4,-11.8 -94.2,-16.2"
         style="fill:#5c0000;fill-opacity:1;fill-rule:nonzero;stroke:none"
         id="path386" />
      <path
         d="m 13755.7,14492.9 -81,164.9 c 261.7,87.2 480.9,234.2 633.2,357.7 66.2,6.6 134.1,15.9 203.3,28.1 l 11.7,-24 c -70.2,-75.2 -360.3,-367.5 -767.2,-526.7"
         style="fill:#21609a;fill-opacity:1;fill-rule:nonzero;stroke:none"
         id="path388" />
      <path
         d="m 13500.6,14416.6 -87.9,179 c 91.1,12.8 178.8,34.5 262,62.2 l 81,-164.9 c -80.7,-31.6 -166,-57.9 -255.1,-76.3"
         style="fill:#5c0000;fill-opacity:1;fill-rule:nonzero;stroke:none"
         id="path390" />
      <path
         d="m 14522.9,15019.6 -11.7,24 c 2.1,0.3 4.2,0.7 6.3,1.1 l 21.8,-7.1 c 0,0 -5.5,-6.4 -16.4,-18"
         style="fill:#5c0000;fill-opacity:1;fill-rule:nonzero;stroke:none"
         id="path392" />
      <path
         d="m 13226.4,14582.3 c -374,0 -793.7,162.3 -1211.4,649.5 -389.6,454.6 -531.9,959.9 -548.6,1431.5 10.7,308.5 70.1,596.5 141.8,839 250.2,-947.8 897.5,-2499.4 2452.7,-2499.4 79.9,0 162.1,4.1 247,12.6 -152.3,-123.5 -371.5,-270.5 -633.2,-357.7 -83.2,-27.7 -170.9,-49.4 -262,-62.2 -31.9,-4.6 -64.3,-8 -97.1,-10.2 -29.4,-2.1 -59.2,-3.1 -89.2,-3.1"
         style="fill:#59ae32;fill-opacity:1;fill-rule:nonzero;stroke:none"
         id="path394" />
      <path
         d="m 11924.2,18050.5 c -225.2,-536.2 -588.5,-1753.6 225.5,-2703.3 332.4,-387.8 692.5,-585.5 1070.4,-587.6 408.2,-1.4 767.2,224.2 979.7,396.9 l -645.3,210.7 c -71.3,23.3 -120.2,89 -122.1,163.9 -1.9,74.9 43.5,143 113.5,169.9 251.1,96.6 479.9,438.8 619.4,701.4 h -859.5 c -82.6,0 -154.2,57.1 -172.7,137.5 -18.4,80.6 21.2,163.1 95.6,199.1 304.7,147.4 483.4,419.2 577.4,612.4 h -1335.4 c -60.3,0 -116.4,30.6 -149,81.3 z m 1302.2,-3645.2 c -1.9,0 -3.6,0 -5.5,0 -486.2,1.8 -937.2,241.1 -1340.2,711.4 -1235.4,1441.2 -178.3,3306.9 -132.7,3385.6 31,53.4 87.5,86.8 149.2,88.3 60.9,2.3 119.7,-29.4 153.1,-81.3 l 517.1,-803.6 H 14065 c 54.8,0 106.4,-25.4 140,-68.6 33.5,-43.3 45.2,-99.6 31.6,-152.7 -5.7,-21.8 -106.2,-399.6 -406.4,-727.7 h 614.4 c 58.8,0 113.8,-29.2 146.7,-77.8 33,-48.7 39.6,-110.6 17.8,-165.1 -29.4,-73.6 -245.9,-594.5 -598.4,-922.8 l 583.8,-190.7 c 56.5,-18.4 99.9,-63.9 115.8,-121.2 15.8,-57.3 1.8,-118.6 -37.1,-163.4 -25.3,-29.1 -627.7,-710.4 -1446.8,-710.4"
         style="fill:#5c0000;fill-opacity:1;fill-rule:nonzero;stroke:none"
         id="path396" />
      <path
         d="m 23739.1,17794.5 c 0,0 -943.6,-4285.1 -5263.6,-4154.6 0,0 -1341.6,-2602.3 -3188.6,-830.8 0,0 -1088.3,404.4 -253.3,1062.8 0,0 -1265.4,642.5 582.2,1409.5 0,0 -81.5,222.1 -295.2,399.8 -7.7,6.5 -15.4,13 -23.1,18.9 -95,75 -67.9,226.1 49,258 400.4,108.7 1122.6,187.2 1806.9,-340.1 0,0 1302.6,1353.4 2793,1524.6 0,0 494.9,1616.8 1469.2,2160.6 79.7,44.3 162.3,82.1 248.6,110.4 l 2074.9,-1619.1"
         style="fill:#58da3f;fill-opacity:1;fill-rule:nonzero;stroke:none"
         id="path398" />
      <path
         d="m 17154,15012.2 c 0,0 -808.8,669.2 -1803.7,669.2 -9.9,0 -19.8,-0.1 -29.7,-0.2 v 0 c -7.7,6.5 -15.4,13 -23.1,18.9 -39.1,30.9 -57.6,74.7 -57.5,117.8 0.1,61.5 37.8,121.5 106.5,140.2 154.3,41.9 356.3,79.3 585.5,79.3 365.7,0 800.7,-95.2 1221.4,-419.4 0,0 1302.6,1353.4 2793,1524.6 0,0 494.9,1616.8 1469.2,2160.6 0,0 -877.5,-1459.1 -877.5,-2674.3 0,0 -17.3,1.3 -50.5,1.3 -269.7,0 -1593.2,-84.2 -3333.6,-1618"
         style="fill:#bcf0b2;fill-opacity:1;fill-rule:nonzero;stroke:none"
         id="path400" />
      <path
         d="m 22274.1,15013.4 -34.5,78.3 c 813.1,834.4 1220.9,1817 1393.6,2337 40.6,84.8 75.6,162.9 105.3,232.5 l 0.6,-0.6 c 0,0 -273.1,-1239.6 -1197.5,-2365.1 -88.3,-99.3 -177.7,-193.2 -267.5,-282.1"
         style="fill:#59ae32;fill-opacity:1;fill-rule:nonzero;stroke:none"
         id="path402" />
      <path
         d="m 22280.1,14999.8 -6,13.6 c 89.8,88.9 179.2,182.8 267.5,282.1 -81.9,-99.8 -169,-198.7 -261.5,-295.7"
         style="fill:#5a8b28;fill-opacity:1;fill-rule:nonzero;stroke:none"
         id="path404" />
      <path
         d="m 18109.8,12958.7 c -26.7,11.9 -53.6,24.3 -80.3,36.9 285.8,333.6 446,644.3 446,644.3 64.9,-2 128.8,-2.9 192.1,-2.9 1312.9,0 2302.5,414.9 3041.8,982.6 l 44.1,-99.7 c -744,-585.2 -1746.8,-1016.9 -3085.9,-1016.9 -63.3,0 -127.2,1 -192.1,3 0,0 -130.4,-252.9 -365.7,-547.3"
         style="fill:#1278c0;fill-opacity:1;fill-rule:nonzero;stroke:none"
         id="path406" />
      <path
         d="m 21753.5,14519.9 -44.1,99.7 c 89.5,68.7 175.3,139.6 257.6,212.3 l 42.4,-96 c -81.7,-73.9 -166.9,-146 -255.9,-216"
         style="fill:#8daac7;fill-opacity:1;fill-rule:nonzero;stroke:none"
         id="path408" />
      <path
         d="m 22009.4,14735.9 -42.4,96 c 95.6,84.5 186.3,171.2 272.6,259.8 l 34.5,-78.3 6,-13.6 c -85.5,-89.8 -175.7,-178 -270.7,-263.9"
         style="fill:#5c0000;fill-opacity:1;fill-rule:nonzero;stroke:none"
         id="path410" />
      <path
         d="m 16582.5,12057.5 c -75.6,0 -153.1,6.3 -232.2,19.8 l -72.1,148.1 c 104.2,-23.3 205.8,-34 304.3,-34 615.4,0.1 1115.6,417.5 1447,804.2 26.7,-12.6 53.6,-25 80.3,-36.9 -328,-410.2 -860,-901.1 -1527.3,-901.2 m -705.6,182.6 c -189.8,98.3 -386.8,240.2 -590,435 0,0 -638.2,237.2 -562.1,644.2 62.4,-324.6 562.1,-510.2 562.1,-510.2 171.6,-164.6 338.7,-291.3 500.9,-386 l 89.1,-183"
         style="fill:#21609a;fill-opacity:1;fill-rule:nonzero;stroke:none"
         id="path412" />
      <path
         d="m 16350.3,12077.3 c -152,25.8 -309.9,78.1 -473.4,162.8 l -89.1,183 c 169.2,-98.8 332.9,-162.6 490.4,-197.7 l 72.1,-148.1"
         style="fill:#5c0000;fill-opacity:1;fill-rule:nonzero;stroke:none"
         id="path414" />
      <path
         d="m 16582.5,12191.4 c -98.5,0 -200.1,10.7 -304.3,34 -157.5,35.1 -321.2,98.9 -490.4,197.7 -162.2,94.7 -329.3,221.4 -500.9,386 0,0 -499.7,185.6 -562.1,510.2 18.2,97.2 77,204 194.8,319.5 459.3,-466 904.2,-637 1309.7,-637 1116.8,0 1935,1296.6 1935,1296.6 240.9,-26.5 473.1,-39 695.6,-39 2894,0 4267.2,2111.7 4773.3,3169.3 -172.7,-520 -580.5,-1502.6 -1393.6,-2337 -86.3,-88.6 -177,-175.3 -272.6,-259.8 -82.3,-72.7 -168.1,-143.6 -257.6,-212.3 -739.3,-567.7 -1728.9,-982.6 -3041.8,-982.6 -63.3,0 -127.2,0.9 -192.1,2.9 0,0 -160.2,-310.7 -446,-644.3 -331.4,-386.7 -831.6,-804.1 -1447,-804.2"
         style="fill:#59ae32;fill-opacity:1;fill-rule:nonzero;stroke:none"
         id="path416" />
      <path
         d="m 23802.3,17780.4 c -22.6,-156.4 -56.9,-305.5 -97.8,-455.1 -39.7,-149.5 -89,-296.2 -141.9,-441.7 -107.7,-290.4 -238.6,-572.9 -392.3,-843.8 -308.5,-540.9 -709.2,-1035.1 -1189.6,-1443.9 -242.3,-201.8 -503.5,-381.2 -779,-536.4 -278.8,-149.5 -571.3,-271.7 -871.9,-368.2 -75.7,-21.8 -152.2,-41.1 -228.3,-61.7 l -114.2,-30.3 -115.8,-22.7 -231.7,-44.1 -233.7,-27.8 c -155.4,-22.8 -312.2,-23.2 -468.1,-32.8 -78,-6.2 -156,-0.5 -233.9,0.3 l -233.6,5.9 148.7,87.6 -0.3,-0.6 c -43.9,-82.2 -86.8,-153 -133.8,-226.2 -46.7,-72.2 -94.9,-143.3 -146.1,-212.4 -101.6,-138.5 -211.8,-271.3 -332.6,-395.9 -240.9,-247.8 -526.6,-469.1 -868.2,-597.7 -169.8,-64.3 -353.7,-101.8 -538.7,-102 -184.9,-1.5 -368.2,31.9 -540.9,88.9 -342.3,124.2 -634.8,334.1 -883.7,572.3 l 55.5,-34.8 c -37.3,14.4 -65,26.9 -96.2,41.6 -30.3,14.3 -60,29.6 -89.4,45.8 -58.8,32.4 -116.3,68.4 -171.9,110.1 -55.6,41.7 -109.7,89 -159.1,145.8 -49.1,56.8 -94.3,124.1 -123.8,204.3 -29.9,79.6 -40.2,172.2 -27,258 12.2,86.6 45.8,163.1 85.3,227.9 79.8,131.5 181.9,225.4 285.3,308 l 26.9,-271.3 c -28.7,15 -47.1,26.3 -69.5,40.2 -21.3,13.3 -42.1,27.2 -62.6,41.6 -40.9,28.7 -80.3,60.3 -118.3,94.8 -75.7,68.6 -146.8,150.6 -198.5,254.8 -53.2,102.1 -75.3,235.1 -52.6,356.4 21.9,122.4 81.4,224.5 147.1,306 66.7,81.6 140.2,151.6 217.4,209.3 76.4,60.3 156.1,111 236.5,158.5 161.2,94.1 326.9,170.8 493.8,241.6 l -89.8,-205.3 -11.7,26.8 c -5.1,10.6 -10.4,21.3 -16.1,32 -11.3,21.3 -23.5,42.7 -36.9,63.4 -26.4,41.5 -56.1,81.1 -88.4,117.7 -32.4,36.5 -67,70.8 -104.7,100.6 l -21.3,18.2 c -10.9,9.8 -21.7,19.4 -31.1,31.3 -19.6,22.4 -36.3,48.3 -48.4,76 -24.8,55.5 -32.4,117.3 -22.9,176.2 9.2,58.9 36.4,116.3 79.4,161.5 21.3,22.5 46.2,42.1 73.1,56.7 13.4,7.2 27.2,14.4 41.1,19 13.1,4.8 31.3,10.6 35.8,11.4 59.6,15.7 119.7,29.3 180.2,40.9 121.1,23.3 244.3,36.5 368.1,40.1 123.8,3.8 248.4,-1.3 371.7,-19.4 62,-6.7 122.8,-21.2 184.1,-32.9 60.2,-16.2 121.4,-29.6 180.2,-50.6 237.3,-77.8 460.2,-197.6 656.1,-348.3 l -215.3,-15.9 c 102.4,102.9 201.7,194.1 307.2,284.8 104.3,90.6 211.5,177.4 320.9,261.5 219.1,167.8 448.6,322.6 687.7,463 239.5,140 492.5,259.1 753.9,359.9 262.9,98.1 538.9,165 821,203.8 l -136.2,-113.4 v 0.1 c 70.6,249.6 161.3,479.9 270.6,708.4 108.5,227.3 235.2,447.1 382.3,654.6 147.6,206.8 315.7,402.9 516.1,566.8 99.8,81.8 206,157 321.5,216.9 115.9,58.4 236.8,107.8 363,134.5 32.8,7 65,-14 71.9,-46.7 5.9,-27.9 -8.3,-55.3 -32.8,-67.1 l -1,-0.5 c -212.3,-103.2 -393.9,-250.1 -552.8,-419.6 -40.1,-41.9 -77.7,-86.7 -115.8,-130.5 -36.4,-45.9 -73.1,-90.9 -107.3,-138.7 -70.5,-93.2 -135.3,-191.3 -197.1,-291.7 -124.3,-200.2 -232.9,-411.5 -334.2,-626.5 -50,-107.8 -98.5,-216.6 -144.3,-326.5 -47.2,-108.2 -90.5,-222.6 -130.7,-328.1 v -0.1 c -19.5,-62.1 -72.7,-104.3 -133.1,-112.9 l -3.2,-0.4 c -252.1,-35.3 -502.5,-95 -745.2,-185.7 -241.5,-93.3 -478,-204.1 -704.2,-336.4 -225.8,-132.7 -444.1,-279.8 -653.1,-439.9 -104.4,-80.2 -206.8,-163 -306.1,-249.3 -99.1,-84.8 -198.2,-176.5 -285.9,-264.7 l -1.8,-1.8 c -58.2,-58.4 -149.8,-63.1 -213.5,-14.1 -169.4,130.1 -358.2,231 -558.6,296.9 -49.7,18 -101.5,28.8 -152.4,42.8 -51.9,9.6 -103.2,22.4 -156,27.8 -104.6,15.6 -211.1,19.8 -317.5,16.6 -106.4,-3.1 -213,-14.4 -318.2,-34.7 -52.6,-10.1 -104.8,-21.9 -156.6,-35.5 -9.7,-2.3 -4.9,-1.9 -5.4,-1.7 l 2,1 c 1.4,1.1 3.6,2.4 5.1,4.1 3.1,3.6 4,6.7 4.6,8.7 0.4,2.1 0.3,4.5 -1,7.4 -0.8,1.3 -1.5,2.7 -2.2,3.6 -0.9,0.1 -0.4,0.7 -0.7,0.8 0.9,-0.8 -2.7,1.6 1.8,-2 l 9.7,-8 c 52.6,-41.8 100.3,-88.8 144.2,-138.4 43.9,-49.8 83.5,-102.7 118.9,-158.3 17.8,-27.8 34.3,-56.4 49.9,-85.9 7.8,-14.8 15.4,-29.9 22.7,-45.3 7.6,-16.9 13.5,-29 22.5,-52.5 30.7,-80.5 -7.9,-170.4 -86.5,-203.9 l -3.3,-1.4 c -156.9,-66.6 -311.1,-138.2 -453.9,-221.7 -141.2,-83.2 -275.9,-179.8 -364.3,-289.8 -44.5,-54.5 -73.8,-111.3 -82.4,-163.1 -8.1,-51.7 -2.9,-101.7 24.8,-156 26.5,-53.9 70.8,-108.6 125.5,-157.7 27.2,-24.6 56.5,-48.4 87.6,-70.1 15.5,-10.9 31.3,-21.5 47.3,-31.5 14.9,-9.4 34.2,-20.7 44.6,-26.1 l 1.3,-0.7 c 79.3,-41.1 110.2,-138.7 69.1,-217.9 -10.9,-20.9 -26.3,-38.9 -43.6,-52.6 -85.7,-67.5 -162.5,-143.2 -208,-220 -23.4,-38.1 -38.7,-75.5 -42.8,-109.2 -4.8,-34 -1.6,-65.3 10.7,-99.2 24,-67.7 90.5,-141.4 173.1,-202.6 41.2,-30.9 86.5,-59.4 133.8,-85.5 23.6,-13 47.8,-25.5 72.2,-37 23.5,-11.3 51.3,-23.3 70.4,-30.7 l 2.2,-0.9 c 20.2,-7.8 38.5,-19.9 53.4,-34 227,-217.8 485.1,-397.9 765.3,-500 281.2,-94 583.4,-98.9 861.5,10.6 278.9,104.4 530.7,294.9 748.5,519.4 109.1,112.6 210.3,234.5 304.1,362.2 47.2,63.6 91.6,129.4 134.6,195.8 42.4,65.6 84.7,136.5 118.7,199.9 l 0.2,0.4 c 26,53.6 78.9,85.5 134.6,87.2 l 14,0.3 221.7,6.4 110.6,2.8 55.3,1.1 55.1,4.6 c 146.4,14.1 294,18.8 438.4,45.2 l 217.4,33 214.4,46.1 107.2,22.7 105.3,29.9 c 70,20.3 140.5,39.1 210.2,60.3 276.3,92.5 545.4,204.5 801.1,343.3 254.3,141 496.4,304.2 722.1,489 452.3,369.5 832.1,826.1 1151.5,1322.9 317.8,497.2 585.3,1037.7 785.5,1599.4 l 1.1,3.2 c 12,33.7 49.1,51.3 82.7,39.3 29.6,-10.5 46.8,-40.3 42.4,-70.2"
         style="fill:#5c0000;fill-opacity:1;fill-rule:nonzero;stroke:none"
         id="path418" />
    </g>
  </g>
</svg>
