<?xml version="1.0" encoding="UTF-8" standalone="no"?>
<!-- Created with Inkscape (http://www.inkscape.org/) -->

<svg
   version="1.1"
   id="svg132"
   width="5333.3335"
   height="5333.3335"
   viewBox="0 0 5333.3335 5333.3335"
   xmlns="http://www.w3.org/2000/svg"
   xmlns:svg="http://www.w3.org/2000/svg">
  <defs
     id="defs136" />
  <g
     id="g140"
     transform="matrix(1.3333333,0,0,-1.3333333,0,5333.3333)">
    <g
       id="g142"
       transform="scale(0.1)">
      <path
         d="m 21482.2,6626.3 c -374.6,0 -749.4,55.7 -1111.7,167.1 l -7995.1,2458.5 c -60,18.5 -121.8,27.6 -183.3,27.6 -101.4,0 -202.2,-24.7 -293.5,-73.1 -174.4,-92.4 -481.9,-240.2 -1011.5,-459 -286.4,-118.3 -588,-157.7 -863,-157.7 -549.86,0 -993.09,157.7 -993.09,157.7 l 789.34,528.1 -1157,57.7 1281.62,644.2 -800.8,167.6 c -289.98,60.7 -323.63,461.4 -47.82,569.6 l 421.83,165.5 c 8.67,-17.8 17.48,-35.1 26.4,-51.9 176.17,-331.5 373.88,-423.9 515.22,-440.3 L 20506.3,7305.7 c 15.2,-4.5 30.9,-6.7 46.6,-6.7 16,0 31.9,2.3 47.3,6.9 l 12912.1,3860.8 c 69.8,20.9 117.7,85.1 117.7,158 v 160.8 l 610.3,-232.7 c 331.3,-126.3 319,-599.1 -18.4,-707.9 L 22643.7,6809.1 c -377.5,-121.8 -769.4,-182.8 -1161.5,-182.8"
         style="fill:#acb2c5;fill-opacity:1;fill-rule:nonzero;stroke:none"
         id="path146" />
      <path
         d="m 32687.5,14079 v -2248.2 l -12134.6,-3351 -10233.8,2799.6 c 0,0 -460.5,1657.6 291.9,2201.6 l 10099.5,-2867.6 11977,3465.6"
         style="fill:#ffffff;fill-opacity:1;fill-rule:nonzero;stroke:none"
         id="path148" />
      <path
         d="m 33033.1,15286.6 c 0,0 -6157.6,2748.9 -14078.4,1853.5 C 11034,16244.8 9820.35,14461.9 9820.35,14461.9 l 11086.05,-3139.7 12126.7,3964.4"
         style="fill:#0096f0;fill-opacity:1;fill-rule:nonzero;stroke:none"
         id="path150" />
      <path
         d="m 10934.5,15240.6 c -36.2,50.5 -47.4,81.3 -47.4,81.3 l 258.8,21.4 c -74.3,-34.8 -144.8,-69.1 -211.4,-102.7 m 20950.8,482.9 c -190.7,65.7 -403.8,136.3 -637.4,209.9 -7,67.6 -18.9,133.6 -34,197.2 233.4,-102.4 437.8,-217.6 601.8,-347.4 25.2,-20.1 48.4,-39.9 69.6,-59.7"
         style="fill:#acb2c5;fill-opacity:1;fill-rule:nonzero;stroke:none"
         id="path152" />
      <path
         d="m 16964.5,12851.6 c -15.4,0 -30.8,0.1 -46.4,0.2 l -3166.4,794.2 c -707.1,409.4 -933.7,815.9 -933.7,815.9 -1324.9,183.3 -1757,601.9 -1883.5,778.7 66.6,33.6 137.1,67.9 211.4,102.7 l 355.8,29.5 c 110.5,-40.2 226.6,-75.5 348.3,-105.9 920.1,-230.5 2078,-297.3 3111.5,-297.3 692.6,0 1329.5,30 1801.1,60.9 48.6,3.2 97.1,4.7 145.4,4.7 412.6,0 812.8,-115.2 1165.3,-337 l 310.4,-195.3 c 26.5,-16.6 57,-25.3 87.9,-25.3 7.3,0 14.6,0.5 21.9,1.5 155.9,20.9 3134,437.7 5097.2,1902 216.9,50.9 1164.6,272.6 1834.5,419.9 302.8,-724.4 680.4,-901.8 680.4,-901.8 -178.6,-118.8 -323.3,-236.1 -436.4,-351.6 -243,-246 -346.8,-482.2 -346.6,-698 0.3,-250.7 140.8,-474 366.1,-653.7 -836.7,-795.2 -2226.2,-1015.6 -3508.4,-1015.6 -1591.1,0 -3017.5,339.1 -3017.5,339.1 0,0 -602.6,-667.8 -2198.3,-667.8 m 12764,1538 c 323.6,143.2 524.1,252.8 524.1,252.8 785.3,273.4 1002.6,731.4 1002.5,1154.8 0,45.9 -2.5,91.4 -7.2,136.2 233.6,-73.6 446.7,-144.2 637.4,-209.9 286.9,-267.9 206.1,-515.2 -73.4,-734.8 l -2083.4,-599.1"
         style="fill:#0b77c8;fill-opacity:1;fill-rule:nonzero;stroke:none"
         id="path154" />
      <path
         d="m 33088,14195.9 -12323,-3598.2 -9969.2,2874.2 c -229.6,66.2 -466.7,-79 -512,-313.5 -98.8,-511.3 -119.6,-1025.3 -51.3,-1542.4 21.5,-162.8 136.4,-297.9 294.5,-341.9 l 10120.2,-2820.6 12040.3,3393 v 730.4 l 777.5,-471.2 v -781 L 20552.9,7463.9 10091.3,10550.6 c -673.48,47.1 -1080.27,2511 -270.95,3911.3 l 11086.05,-2780.3 12169.9,3498.9 11.7,-984.6"
         style="fill:#0096f0;fill-opacity:1;fill-rule:nonzero;stroke:none"
         id="path156" />
      <path
         d="m 9904.06,14270.9 c -546.54,-1064.4 -414.75,-2635.7 -68.17,-3287.9 87.41,-164.5 184.71,-262.1 266.91,-267.9 11.9,-0.8 23.7,-3 35.2,-6.3 L 20552.6,7636 33300.1,11447.6 v 565.2 l -447.7,271.3 v -437.6 c 0,-73.9 -49.1,-138.7 -120.2,-158.8 L 20691.9,8294.8 c -29.1,-8.2 -59.9,-8.2 -89,-0.2 l -10120.2,2820.6 c -221,61.6 -383.4,249.7 -413.7,479.2 -68.8,521.2 -51,1057.9 52.9,1595.3 30.3,157.1 126,295.1 262.5,378.8 136.7,83.7 303.3,106.1 457.1,61.9 l 9923.2,-2861 12156.9,3549.8 -7.7,643.1 -11962,-3439.3 c -27.9,-8 -57.5,-8.5 -85.7,-1.4 L 9904.06,14270.9 M 20552.9,7299 c -15.7,0 -31.4,2.2 -46.6,6.7 l -10446.5,3082.2 c -141.34,16.4 -339.05,108.8 -515.22,440.3 -403.02,758.4 -547.36,2539.1 132.97,3716.2 36.87,63.8 111.28,95.4 182.95,77.5 l 11042.9,-2769.6 12127.3,3486.8 c 49.3,14.2 102.6,4.5 144,-26.2 41.2,-30.7 65.8,-78.9 66.5,-130.4 l 11.8,-984.6 c 0.9,-74 -47.7,-139.5 -118.7,-160.3 L 20811.2,10439.4 c -29.9,-8.8 -61.8,-8.9 -91.9,-0.2 l -9969.2,2874.2 c -66,19 -134.7,9.8 -193.4,-26.2 -58.5,-35.9 -98,-92.8 -110.9,-160.1 -97.2,-502.5 -113.9,-1003.6 -49.8,-1489.5 13,-98.3 81.8,-178.6 175.3,-204.7 l 10075.6,-2808.1 11875.6,3346.6 v 605.5 c 0,59.6 32.1,114.5 84,143.7 51.9,29.3 115.5,28.2 166.5,-2.6 l 777.5,-471.3 c 49.4,-29.9 79.5,-83.4 79.5,-141 v -781 c 0,-72.9 -47.9,-137.1 -117.7,-158 L 20600.2,7305.9 c -15.4,-4.6 -31.3,-6.9 -47.3,-6.9"
         style="fill:#262f6a;fill-opacity:1;fill-rule:nonzero;stroke:none"
         id="path158" />
      <path
         d="m 9820.22,14298.1 c -32.47,0 -65.23,9.5 -93.75,29.4 -74.02,51.8 -93.26,152.6 -42.43,227.2 51.27,75.4 1347.16,1855.7 9252.16,2749.3 4114.6,465.2 7744.2,-66.3 10064.5,-594.1 2516.3,-572.2 4084.1,-1265.8 4099.6,-1272.7 83.2,-37.1 120.5,-134.7 83.3,-217.8 -37,-83.2 -134.6,-120.5 -217.7,-83.4 -15.4,6.8 -1560.3,689.5 -4047.6,1254.4 -2293.3,520.9 -5880.3,1045.3 -9945.1,585.8 -7687.8,-869 -9005.22,-2591.5 -9017.63,-2608.8 -32.37,-45.1 -83.54,-69.3 -135.35,-69.3"
         style="fill:#262f6a;fill-opacity:1;fill-rule:nonzero;stroke:none"
         id="path160" />
      <path
         d="M 11539,9608.5 C 10858,9058.6 9533.83,8979.9 9533.83,8979.9 l 578.67,597 -1081.49,157 c 0,0 1005.19,188.5 1688.49,576.8 683.3,387.8 426.9,1677.6 426.9,1677.6 l 1044.3,-282.8 c 0,0 29.2,-1547.5 -651.7,-2097"
         style="fill:#ff6981;fill-opacity:1;fill-rule:nonzero;stroke:none"
         id="path162" />
      <path
         d="m 10236.5,12460.9 3588.3,-1070.4 c 37.4,-11.2 58.7,-50.6 47.5,-88 -10.8,-36.2 -48.2,-57.3 -84.5,-48.5 l -3637.7,888.5 c -214.31,59.8 -130.7,374.9 86.4,318.4"
         style="fill:#262f6a;fill-opacity:1;fill-rule:nonzero;stroke:none"
         id="path164" />
      <path
         d="m 9869.2,9778.9 267,-38.7 c 61.3,-8.9 112.4,-51.4 132.4,-110.1 20,-58.6 5.4,-123.5 -37.6,-168 l -254.92,-262.9 c 429.82,69.5 1067.22,221 1459.32,537.6 v 0.1 c 462.8,373.4 579,1362.4 589.9,1842.6 l -681.7,184.5 c 40.8,-427.2 38.6,-1266.8 -542.7,-1596.8 -289,-164.2 -629.2,-293.1 -931.7,-388.3 z m -335.4,-964 c -64.16,0 -122.86,37.4 -149.86,96.2 -28.37,61.8 -15.87,134.7 31.45,183.6 l 354.15,365.3 -762.21,110.6 c -79.78,11.6 -139.5,79.2 -141.21,159.8 -1.66,80.7 55.22,150.7 134.47,165.6 9.77,1.8 986.72,188.3 1637.41,558.1 474.1,269.1 411,1175.6 346.6,1502.2 -11,55.9 7.7,113.7 49.4,152.5 41.6,38.9 100.4,53.7 155.6,38.7 l 1044.2,-282.7 c 70.8,-19.2 120.5,-82.8 121.8,-156.2 1.3,-66.4 22.2,-1634.9 -713,-2228.4 -713.8,-576.5 -2042.74,-661.6 -2098.99,-665 -3.27,-0.2 -6.54,-0.3 -9.81,-0.3"
         style="fill:#262f6a;fill-opacity:1;fill-rule:nonzero;stroke:none"
         id="path166" />
      <path
         d="m 20553.1,7299 c -5.2,0 -10.5,0.2 -15.8,0.7 -90.7,8.7 -157.2,89.2 -148.6,179.8 l 94.3,989.6 c 8.6,90.7 88.6,157.3 179.8,148.6 90.7,-8.6 157.2,-89.1 148.6,-179.8 l -94.3,-989.6 c -8.1,-85.4 -79.9,-149.3 -164,-149.3"
         style="fill:#262f6a;fill-opacity:1;fill-rule:nonzero;stroke:none"
         id="path168" />
      <path
         d="m 20765.2,10432.7 c -7.1,0 -14.3,0.5 -21.5,1.4 -90.4,11.8 -154,94.6 -142.3,184.9 l 141.4,1083.9 c 11.7,90.3 94.1,154.2 184.9,142.2 90.3,-11.8 154,-94.6 142.2,-184.9 l -141.3,-1083.8 c -10.9,-83.1 -81.8,-143.7 -163.4,-143.7"
         style="fill:#262f6a;fill-opacity:1;fill-rule:nonzero;stroke:none"
         id="path170" />
      <path
         d="m 32687.5,12412 c -91.2,0 -165,73.8 -165,164.9 V 14079 c 0,91.1 73.8,164.9 165,164.9 91.1,0 164.9,-73.8 164.9,-164.9 v -1502.1 c 0,-91.1 -73.8,-164.9 -164.9,-164.9"
         style="fill:#262f6a;fill-opacity:1;fill-rule:nonzero;stroke:none"
         id="path172" />
      <path
         d="m 20552.9,8338.4 c -78,0 -141.3,63.3 -141.3,141.4 v 2117.9 c 0,78.1 63.3,141.4 141.3,141.4 78.1,0 141.4,-63.3 141.4,-141.4 V 8479.8 c 0,-78.1 -63.3,-141.4 -141.4,-141.4"
         style="fill:#262f6a;fill-opacity:1;fill-rule:nonzero;stroke:none"
         id="path174" />
      <path
         d="m 16557.4,11208 4031.4,-984.1 -69.1,0.7 2804.8,606.7 c 86.2,17.8 122.9,-111 33.3,-137.4 l -2771.6,-744.1 c -23.6,-6.3 -47.2,-5.8 -69.1,0.6 l -3995.5,1120.9 c -84.4,24.9 -56.9,156.5 35.8,136.7"
         style="fill:#262f6a;fill-opacity:1;fill-rule:nonzero;stroke:none"
         id="path176" />
      <path
         d="m 17688.4,10155.6 2900.3,-685.6 -70.5,0.2 2679.9,607 c 86.6,18.5 123.5,-109.8 34.7,-137.1 l -2645.1,-743.9 c -24,-6.8 -48.2,-6.3 -70.6,0.2 l -2864.4,822.4 c -84.9,25.4 -54.8,156.4 35.7,136.8"
         style="fill:#262f6a;fill-opacity:1;fill-rule:nonzero;stroke:none"
         id="path178" />
      <path
         d="m 25375.9,10940.5 c 2209.9,711.3 4432.6,1392 6695.2,1916.5 82.9,17.4 123.6,-104.2 38.9,-136 -1096.3,-385.3 -2210.9,-709.3 -3328.7,-1024.1 -1117.8,-313.8 -2237.8,-618.6 -3366.5,-892.3 -84,-19.2 -125.6,104.7 -38.9,135.9"
         style="fill:#262f6a;fill-opacity:1;fill-rule:nonzero;stroke:none"
         id="path180" />
      <path
         d="m 20694.3,10262.4 v 184 l 22.1,-6.4 c 6.6,-2 13.4,-3.6 20.4,-4.8 0.1,0 0.2,-0.1 0.3,-0.1 0.1,0 0.3,0 0.4,0 2.9,-0.5 5.9,-1 8.9,-1.3 6.3,-0.7 12.6,-1.1 18.8,-1.1 17.3,0 34.1,2.7 49.9,7.8 L 32522.5,13859 v -301.2 l -9890.2,-2876.2 -1938,-419.2 m -282.7,4.8 -2690.3,656.7 -7280.1,2179.4 c 1.5,7.9 3,15.9 4.6,23.8 12.9,67.3 52.4,124.2 110.9,160.1 38.8,23.8 81.9,35.9 125.7,35.9 22.6,0 45.3,-3.2 67.7,-9.7 l 9661.5,-2785.5 v -260.7"
         style="fill:#bdc0d2;fill-opacity:1;fill-rule:nonzero;stroke:none"
         id="path182" />
      <path
         d="m 20746.4,10433.8 c -3,0.3 -6,0.8 -8.9,1.3 2,-0.4 4.1,-0.7 6.2,-1 0.9,-0.1 1.8,-0.2 2.7,-0.3 m -9.3,1.3 c -0.1,0 -0.2,0.1 -0.3,0.1 0.1,0 0.2,-0.1 0.3,-0.1 m -20.7,4.9 -22.1,6.4 v 2.2 c 7.1,-3.3 14.5,-6.2 22.1,-8.6 m 98.7,0.5 c 59,18.9 104.9,70.4 113.5,135.9 l 13.6,104.4 11580.3,3377.5 V 13859 L 20815.1,10440.5 m -403.5,87.4 -9661.5,2785.5 c -22.4,6.5 -45.1,9.7 -67.7,9.7 -43.8,0 -86.9,-12.1 -125.7,-35.9 -58.5,-35.9 -98,-92.8 -110.9,-160.1 -1.6,-7.9 -3.1,-15.9 -4.6,-23.8 l -109.5,32.8 113,229.7 265,121.2 9763.5,-2772.5 c -37.2,-25.5 -61.6,-68.3 -61.6,-116.8 v -69.8"
         style="fill:#262f6a;fill-opacity:1;fill-rule:nonzero;stroke:none"
         id="path184" />
      <path
         d="m 20765.2,10432.7 c -6.2,0 -12.5,0.4 -18.8,1.1 -0.9,0.1 -1.8,0.2 -2.7,0.3 -2.1,0.3 -4.2,0.6 -6.2,1 -0.1,0 -0.3,0 -0.4,0 -0.1,0 -0.2,0.1 -0.3,0.1 -7,1.2 -13.8,2.8 -20.4,4.8 -7.6,2.4 -15,5.3 -22.1,8.6 v 149.1 c 0,20.4 -4.3,39.9 -12.2,57.4 l 87.2,-24.7 172.9,50.4 -13.6,-104.4 c -8.6,-65.5 -54.5,-117 -113.5,-135.9 -15.8,-5.1 -32.6,-7.8 -49.9,-7.8"
         style="fill:#262f6a;fill-opacity:1;fill-rule:nonzero;stroke:none"
         id="path186" />
      <path
         d="m 32522.5,13557.8 v 500.5 l 70.7,20.7 94.3,-473.2 -165,-48"
         style="fill:#262f6a;fill-opacity:1;fill-rule:nonzero;stroke:none"
         id="path188" />
      <path
         d="m 20554.9,10232.2 -143.3,35 v 330.5 c 0,48.5 24.4,91.3 61.6,116.8 l 208.9,-59.4 c 7.9,-17.5 12.2,-37 12.2,-57.4 v -149.1 -2.2 -184 l -139.4,-30.2"
         style="fill:#262f6a;fill-opacity:1;fill-rule:nonzero;stroke:none"
         id="path190" />
      <path
         d="m 20647.2,10002.7 -389.6,161.9 -2536.3,759.3 2690.3,-656.7 143.3,-35 139.4,30.2 1938,419.2 -1867.3,-543.1 -117.8,-135.8"
         style="fill:#262f6a;fill-opacity:1;fill-rule:nonzero;stroke:none"
         id="path192" />
      <path
         d="m 30044.7,23638.4 c 0,0 1794.5,-592 2250.1,-2319.9 455.5,-1727.9 288.4,-3440.1 -649.1,-1131"
         style="fill:#fdc167;fill-opacity:1;fill-rule:nonzero;stroke:none"
         id="path194" />
      <path
         d="m 22390.8,13778.6 c -3016,-259.2 -3919.3,863.8 -3919.3,863.8 0,0 182.3,197.4 486.7,506.1 980.7,994.3 3226.6,3144.6 4711.1,3570.1 578.2,165.9 1041.4,69.8 1268.6,-458.5 992.4,-2304.4 468.9,-4222.3 -2547.1,-4481.5"
         style="fill:#fdc167;fill-opacity:1;fill-rule:nonzero;stroke:none"
         id="path196" />
      <path
         d="m 30920.3,16794.6 c 0,0 1091.9,-1539.6 -667.7,-2152.2 0,0 -1492,-815.7 -2905.7,-902.5 -1271.5,-78.2 -2695.1,777.6 -1677.7,1807.7 113.1,115.5 257.8,232.8 436.4,351.6 0,0 -486.3,228.6 -797.8,1225.7 -155.1,665.9 -138.6,1291.7 19.8,1836 -211.1,258.2 -419,537.7 -525.5,703.5 -220,340.7 -565.4,1795.5 -597,2171.5 -31.6,376.1 0,3003.3 0,3003.3 l 1183.3,649.8 c 1543.3,161.6 2956.1,-353.9 4047,-1264.3 l 0.5,-1 c 2045.2,-1706.4 2959.4,-4802 1484.4,-7429.1"
         style="fill:#fdc167;fill-opacity:1;fill-rule:nonzero;stroke:none"
         id="path198" />
      <path
         d="m 30920.3,16794.6 c 0,0 1091.9,-1539.6 -667.7,-2152.2 0,0 -1492,-815.7 -2905.7,-902.5 -1271.5,-78.2 -2695.1,777.6 -1677.7,1807.7 -80.6,-271.4 -165.8,-919.4 797.8,-1030.6 1225.3,-141.3 3864.2,204.1 3675.8,1916.1 0,0 -1485.4,-970.3 -3248.3,-649.8 4284.5,1090 4975.8,4059.3 2541.4,8440.4 2045.2,-1706.4 2959.4,-4802 1484.4,-7429.1"
         style="fill:#ee9c59;fill-opacity:1;fill-rule:nonzero;stroke:none"
         id="path200" />
      <path
         d="m 28219.3,25005 c -521.8,246.9 -1085.6,413.3 -1678.9,480.2 657.8,-39.6 1219.9,-234.9 1678.9,-480.2"
         style="fill:#f5f7f8;fill-opacity:1;fill-rule:nonzero;stroke:none"
         id="path202" />
      <path
         d="m 29676,23776.5 c -1218.9,1111.8 -2678.2,1278 -3442.2,1278 -320.5,0 -518.7,-29.2 -525.4,-30.2 -6.4,138.8 -20.2,279.7 -43,421.2 218,32.3 428.2,47.1 629.8,47.1 83.1,0 164.8,-2.5 245.2,-7.4 593.3,-66.9 1157.1,-233.3 1678.9,-480.2 948.9,-507.4 1456.7,-1228.5 1456.7,-1228.5"
         style="fill:#fee6c2;fill-opacity:1;fill-rule:nonzero;stroke:none"
         id="path204" />
      <path
         d="m 25371.1,25653.1 c 4661.6,482.4 7992.9,-4924.2 5693,-8939.3 l -9.2,176.1 c 73.6,-107.9 126,-207.3 179.8,-322.2 154.4,-341.3 242.3,-716.9 143.5,-1098.5 -127.4,-528.2 -674,-855.9 -1046.4,-971.5 -529.1,-276.9 -1070.5,-495.7 -1639.6,-668.8 -859.5,-256.8 -1817.5,-404.9 -2665.5,-22.9 -442.2,188.5 -911.5,578.8 -866.5,1114.4 50.8,504.5 478.9,861.1 854.3,1116.2 l 21,-286.6 c -471.4,276.6 -725,836.2 -887.9,1334.8 -574.3,2299.4 1043.6,4478.4 3497.5,3895.2 82.5,-21.7 63.4,-143.8 -20.7,-139.8 -968.7,55.9 -1974.1,-208.7 -2619.8,-952.3 -641.3,-719.8 -754.2,-1847.8 -539.6,-2713.6 124.3,-380 296.9,-771.6 597.9,-1042.3 31.9,-30.6 78.8,-62.8 113.1,-83.6 l 21,-286.6 c -317.2,-220.8 -657.3,-483.4 -708.1,-868.7 -24.5,-383.7 350.9,-643.1 670.7,-785.2 773.6,-347.4 1651.7,-195.8 2438.2,37.1 539.6,163.3 1078.2,381.6 1575.8,642.1 381.6,134.5 780.9,359.9 885.8,767.1 89.1,333 -29.1,714.8 -195.2,1016 -49.7,98.8 -154.6,194 -87.7,305.1 248.6,444.4 437.5,921.6 555.3,1416.2 614.2,2497.5 -713.1,5280.3 -2979.1,6462.2 -898.9,476.5 -1935.4,679.7 -2947.3,571.3 -214.5,-18.6 -252.8,298.4 -34.3,328.1"
         style="fill:#262f6a;fill-opacity:1;fill-rule:nonzero;stroke:none"
         id="path206" />
      <path
         d="m 26170.7,16050.8 c 676.9,-285.6 1444.4,-341.4 2165,-208.5 88.5,17.9 121,-113.2 32.7,-137.5 -564.9,-155.1 -1162.1,-191.1 -1741.9,-99.4 -199,31.8 -394.6,73.8 -585.7,142.2 -210.5,87.7 -79.6,395.2 129.9,303.2"
         style="fill:#262f6a;fill-opacity:1;fill-rule:nonzero;stroke:none"
         id="path208" />
      <path
         d="m 26653.8,13748.3 c -85.6,320.8 -57,682.6 127.1,963.6 57,93.5 136.1,168.8 215.4,237.7 29.4,25.6 73.9,22.5 99.5,-6.9 25,-28.6 21.9,-70.4 -3.4,-96.8 -119.4,-135.7 -197.9,-298.6 -212.6,-478 -15.7,-168.3 13.1,-347.8 82,-501.4 107.4,-224.1 -236.8,-357 -308,-118.2"
         style="fill:#262f6a;fill-opacity:1;fill-rule:nonzero;stroke:none"
         id="path210" />
      <path
         d="m 25524.3,14182.1 c 11,433.6 123.5,958.3 548.2,1166.9 35.3,16.7 77.5,1.7 94.2,-33.5 16,-33.5 2.9,-72.7 -27.7,-91.3 -312.9,-222.3 -327.9,-666.5 -286,-1014.5 30.7,-235.9 -319.4,-265.8 -328.7,-27.6"
         style="fill:#262f6a;fill-opacity:1;fill-rule:nonzero;stroke:none"
         id="path212" />
      <path
         d="m 22390.8,13778.6 c -3016,-259.2 -3919.3,863.8 -3919.3,863.8 0,0 182.3,197.4 486.7,506.1 463.3,-117.8 873.7,-228.6 873.7,-228.6 697.5,-1554 6069.7,338.3 4047.6,1911.9 l -210.2,1886.8 c 578.2,165.9 1041.4,69.8 1268.6,-458.5 992.4,-2304.4 468.9,-4222.3 -2547.1,-4481.5"
         style="fill:#ee9c59;fill-opacity:1;fill-rule:nonzero;stroke:none"
         id="path214" />
      <path
         d="m 18703.4,14649.2 c 306.6,-255.1 1335.9,-907 3673.3,-706.3 1276.7,109.7 2137.7,522.3 2558.9,1226.1 438.9,733.5 387.4,1779.8 -149.1,3025.9 -104.9,243.7 -267.3,381.3 -496.4,420.5 -1317.7,225.3 -4375.9,-2680 -5586.7,-3966.2 z m 2815.9,-1074.5 c -2370.6,0 -3141.2,920.8 -3176.2,964.5 -51.2,63.7 -48.1,155.3 7.4,215.3 10.3,11.2 1045.6,1127.9 2281.6,2193 1689,1455.4 2938.6,2126 3713.8,1993.1 342.9,-58.9 593.1,-265.9 743.6,-615.3 580.1,-1347.5 624.8,-2497.5 129.1,-3325.7 -478.7,-799.9 -1425.4,-1266 -2813.7,-1385.3 -317.2,-27.3 -612.2,-39.6 -885.6,-39.6"
         style="fill:#262f6a;fill-opacity:1;fill-rule:nonzero;stroke:none"
         id="path216" />
      <path
         d="m 18346.6,14642.4 c -31.1,-502.4 -47.2,-1225.2 -2175.8,-1272.4 -2128.1,-47.1 -3227.5,298.8 -3620.5,1005.7 -48.6,87.1 -83,165.8 -106.1,237.5 -110.2,337.8 26.9,510.8 132.5,589.5 3.7,2.8 7,5.2 10.8,8 49,34.4 88.6,47.6 88.6,47.6 1974.5,85.8 3899.1,144.7 5003.2,-236.6 279,-95.6 505.6,-220 667.3,-379.3"
         style="fill:#fdc167;fill-opacity:1;fill-rule:nonzero;stroke:none"
         id="path218" />
      <path
         d="m 18346.6,14642.4 c -31.1,-502.4 -47.2,-1225.2 -2175.8,-1272.4 -2128.1,-47.1 -3227.5,298.8 -3620.5,1005.7 -48.6,87.1 -83,165.8 -106.1,237.5 51.4,292.6 106.5,538.6 132.5,589.5 4.7,9 8.4,11.8 10.8,8 7.1,-11.8 5.7,-79.6 -9,-222.4 -96.6,-942.5 2405.7,-1508 4167.7,-1052.8 1181.4,305.9 1108.9,796.4 933.1,1086.2 279,-95.6 505.6,-220 667.3,-379.3"
         style="fill:#ee9c59;fill-opacity:1;fill-rule:nonzero;stroke:none"
         id="path220" />
      <path
         d="m 15927.6,13201.1 c -1900,-0.1 -2983.3,350.6 -3396.5,1094.3 -167.4,301.3 -210,563.8 -126.5,780.1 96,248.8 318.4,330.4 343.4,338.9 86.6,29.3 180,-17 209.2,-103.2 29,-85.6 -16.3,-178.5 -101.2,-208.5 -7.5,-2.9 -105.6,-42.4 -145.1,-149.8 -43.7,-118.9 -6.1,-290.8 108.6,-497.3 368.3,-663 1504.9,-964.1 3472.7,-920.5 1948.5,43.1 1984.5,627.6 2013.5,1097.3 l 1.3,20.4 c 5.7,91 83.7,160.2 174.9,154.4 90.9,-5.7 160,-84 154.3,-174.9 l -1.2,-20.2 c -42.4,-686.6 -257.6,-1360.8 -2335.4,-1406.8 -127.3,-2.8 -251.3,-4.2 -372,-4.2"
         style="fill:#262f6a;fill-opacity:1;fill-rule:nonzero;stroke:none"
         id="path222" />
      <path
         d="m 24660.8,17752.6 c -1508,-2481.6 -6189.3,-3110.2 -6189.3,-3110.2 l -310.1,195.6 c -420.8,264.3 -913.8,389.7 -1409.5,357.2 -1139,-74.5 -3339.3,-149.9 -4861.9,231.8 -1433,358.6 -1876,1380.8 -1937.23,2669.1 -30.17,632.9 32.04,1329.9 114.93,2044.3 251.2,2167.7 -597.02,4963.6 2733.3,6880.2 0,0 1987.2,1672.9 5670.5,1272.3 2456.5,-267.2 4480.1,-3134.7 5555.4,-5015 537.3,-939.2 837.9,-1632.4 837.9,-1632.4 0,0 1304,-1410.9 -204,-3892.9"
         style="fill:#fdc167;fill-opacity:1;fill-rule:nonzero;stroke:none"
         id="path224" />
      <path
         d="m 10690.2,23430.7 c 161,935.9 424.9,1776.1 896,2461.8 336.2,346.4 760.6,676.4 1297.1,985.1 8.3,4.8 16.4,10.5 23.7,16.6 17.4,14.6 1584.4,1295 4453.2,1295 345.7,0 710.5,-18.6 1093.6,-60.2 524.7,-57.1 1030.5,-239.3 1511.9,-508.7 -358.5,153.4 -729.4,257.5 -1110.7,298.9 -393.6,42.8 -768.3,62 -1122.8,62 -2962.9,0 -4547.6,-1334.3 -4547.6,-1334.3 -1605.8,-923.5 -2240,-2052.3 -2494.4,-3216.2"
         style="fill:#fee6c2;fill-opacity:1;fill-rule:nonzero;stroke:none"
         id="path226" />
      <path
         d="m 24660.8,17752.6 c -1508,-2481.6 -6189.3,-3110.2 -6189.3,-3110.2 l -310.1,195.6 c -420.8,264.3 -913.8,389.7 -1409.5,357.2 -1139,-74.5 -3339.3,-149.9 -4861.9,231.8 -1433,358.6 -1876,1380.8 -1937.23,2669.1 160.23,104.7 262.03,164 262.03,164 380.3,-1955.6 3519.7,-2856.7 6714.3,-2640.8 -133.9,147.9 -182.9,279.9 -182.9,279.9 l 1026.4,1366.6 2941,3978.7 c 0,0 2533.4,-2749.7 -108.8,-4830.7 2756.8,1094.7 4526.7,3290.2 2752,6644.5 l 670.1,219.6 c 537.3,-939.2 837.9,-1632.4 837.9,-1632.4 0,0 1304,-1410.9 -204,-3892.9"
         style="fill:#ee9c59;fill-opacity:1;fill-rule:nonzero;stroke:none"
         id="path228" />
      <path
         d="m 12035.2,19669.1 c 0,0 -2038.14,1060.3 -683.3,3063.1 1354.8,2002.8 3598.4,259.7 2720.1,-1488 -878.3,-1747.8 -2036.8,-1575.1 -2036.8,-1575.1"
         style="fill:#a46856;fill-opacity:1;fill-rule:nonzero;stroke:none"
         id="path230" />
      <path
         d="m 16746.1,21868.3 c 0,0 -1180.7,979.7 -450.2,2312 730.6,1332.3 2914,1316.6 3605.1,-65.7 691.2,-1382.4 197.9,-1984.8 -545.1,-2469 -742.9,-484.2 -2609.8,222.7 -2609.8,222.7"
         style="fill:#a46856;fill-opacity:1;fill-rule:nonzero;stroke:none"
         id="path232" />
      <path
         d="m 20992.7,20788.1 c -1028.8,2721.7 -9841.1,860.3 -9440.5,-2361.2 1295.9,-5048.9 11372.6,-3364.4 9440.5,2361.2"
         style="fill:#a46856;fill-opacity:1;fill-rule:nonzero;stroke:none"
         id="path234" />
      <path
         d="m 11685.1,18009.9 c 2452.8,-3389.7 10310.8,-1653.1 8949.8,3316.1 158.8,-154.1 280.4,-333.1 357.7,-538.1 1877,-5561.7 -7577.1,-7310 -9307.5,-2778"
         style="fill:#8b5144;fill-opacity:1;fill-rule:nonzero;stroke:none"
         id="path236" />
      <path
         d="m 11742.1,17868.5 c -75.9,176.3 -139.5,362.4 -189.9,558.5 -265.7,2136.2 3520.5,3674.5 6401.2,3674.5 1210,0 2260,-271.1 2783.2,-883.5 -31.9,37.3 -65.9,73.3 -101.7,108 26.2,-95.5 49,-190.2 68.5,-283.4 -560.5,498.3 -1526.6,721.7 -2623.7,721.7 -2880.9,0 -6667.3,-1538.4 -6401.7,-3674.8 9.7,-37.4 19.8,-74.7 30.5,-111.6 -7.9,10.7 -15.7,21.2 -23.4,32 17.8,-46.8 36.5,-93 56,-138.4 0.3,-1 0.7,-2 1,-3"
         style="fill:#dbc3bb;fill-opacity:1;fill-rule:nonzero;stroke:none"
         id="path238" />
      <path
         d="m 21052.9,20598.4 c -0.1,0.2 -0.2,0.4 -0.3,0.6 -3.2,11 -6.6,22.3 -10,33.3 3.5,-11.3 6.9,-22.6 10.3,-33.9"
         style="fill:#f8d7bd;fill-opacity:1;fill-rule:nonzero;stroke:none"
         id="path240" />
      <path
         d="m 21052.6,20599 c -0.1,0.3 -0.2,0.4 -0.4,0.7 -18.4,62.2 -38.3,125 -59.6,188.2 17.8,-52.2 34.3,-104 50,-155.6 3.4,-11 6.8,-22.3 10,-33.3"
         style="fill:#dbc3bb;fill-opacity:1;fill-rule:nonzero;stroke:none"
         id="path242" />
      <path
         d="m 11741.1,17871.5 c -19.5,45.4 -38.2,91.6 -56,138.4 7.7,-10.8 15.5,-21.3 23.4,-32 10.3,-35.8 21.2,-71.3 32.6,-106.4 m 9311.1,2728.2 c -86,166.7 -203.8,314 -348.8,442.9 -19.5,93.2 -42.3,187.9 -68.5,283.4 35.8,-34.7 69.8,-70.7 101.7,-108 109.5,-128.2 196,-271.5 256,-430.1 v 0 c 21.3,-63.2 41.2,-126 59.6,-188.2"
         style="fill:#d1b9b4;fill-opacity:1;fill-rule:nonzero;stroke:none"
         id="path244" />
      <path
         d="m 16162.8,22082.6 c -590.7,90.4 -1656.5,-225 -2019.5,-511.6 -98.2,-77.6 -126.6,-214.5 -71.3,-326.9 102.9,-209.1 391.5,-576.4 1166.9,-669.3 38.8,-4.7 78.3,-0.4 115.3,12.2 203.6,69.3 865.6,354.9 1028.4,1177.2 29.5,149.2 -69.5,295.3 -219.8,318.4"
         style="fill:#262f6a;fill-opacity:1;fill-rule:nonzero;stroke:none"
         id="path246" />
      <path
         d="m 13099.6,18742.8 c 1283.2,-448.5 1812,71.6 2278.9,1232.2 32.3,104.1 164.4,145.2 251.1,80.1 533.1,-354.2 1155.9,-610 1798.3,-525.5 311.5,38.5 613.2,154.4 893,319.3 281.1,164.5 537.8,377.8 788.6,605 58.9,57.8 158,-23 106.5,-93 -962.7,-1345 -2459.7,-1585.8 -3777.2,-575 -0.1,-0.3 252.1,81 250.9,79.8 -205,-678.9 -644.4,-1442.3 -1407.8,-1575.2 -152.4,-25.5 -307.1,-27.4 -454.3,-3.1 -295.2,47.3 -560.9,169.5 -791.2,328.9 -66.2,46 -13.9,152.8 63.2,126.5"
         style="fill:#262f6a;fill-opacity:1;fill-rule:nonzero;stroke:none"
         id="path248" />
      <path
         d="m 17113,19335.5 c -459.6,-1341.7 -1888.4,-1263.7 -2365.4,-656 286.5,256.5 560.5,621.9 821.9,1095.7 0,0 960.6,-461.2 1543.5,-439.7"
         style="fill:#262f6a;fill-opacity:1;fill-rule:nonzero;stroke:none"
         id="path250" />
      <path
         d="m 15534.2,19755.5 c -64.8,0 -126.1,38.4 -152.4,101.9 -6.3,15.2 -156.5,381.5 -326.3,1092.9 -21.2,88.6 33.5,177.6 122.1,198.8 88.2,21.1 177.6,-33.5 198.8,-122.2 162.9,-682.7 308.8,-1040 310.2,-1043.5 34.7,-84.1 -5.3,-180.6 -89.5,-215.3 -20.6,-8.5 -41.9,-12.6 -62.9,-12.6"
         style="fill:#262f6a;fill-opacity:1;fill-rule:nonzero;stroke:none"
         id="path252" />
      <path
         d="m 15717.8,18095 c -441,0 -861.5,179 -1099.9,482.7 -56.3,71.6 -43.8,175.3 27.9,231.6 71.6,56.2 175.3,43.7 231.6,-27.9 210.9,-268.8 645.2,-408 1055.2,-338.5 277.7,47 779.9,232.4 1024.4,946.1 29.5,86.1 123.3,132.1 209.5,102.5 86.2,-29.5 132.1,-123.3 102.6,-209.5 -219,-639.2 -686.1,-1063.6 -1281.4,-1164.4 -89.9,-15.2 -180.3,-22.6 -269.9,-22.6"
         style="fill:#262f6a;fill-opacity:1;fill-rule:nonzero;stroke:none"
         id="path254" />
      <path
         d="m 16720.1,18698.2 c 156.5,-1423.7 -428.1,-1529.4 -856,-1558.1 -549.8,0 -863.1,367.5 -738.3,1099.6 78.5,596.9 816.8,439.8 816.8,439.8 172.8,204.2 642.3,236.1 777.5,18.7"
         style="fill:#ff6981;fill-opacity:1;fill-rule:nonzero;stroke:none"
         id="path256" />
      <path
         d="m 15739.3,18533.3 c -106.6,0 -234.1,-17.4 -323.4,-81 -71.1,-50.6 -112.5,-127.1 -126.6,-234.1 -0.3,-2.1 -0.6,-4.2 -0.9,-6.2 -55.6,-326 -17.7,-578 109.6,-728.7 98.9,-117.3 253.9,-177.2 460.7,-178.2 194.8,13.3 395.8,41.1 533.3,205.2 166.8,199.3 223.7,576.6 169.2,1121.9 -31.3,26.2 -86.4,44.3 -152.3,49.1 -132.8,9.6 -279.9,-36.8 -340.4,-108.3 -39.3,-46.4 -101,-67.4 -160.2,-54.8 -34.7,7.1 -97.1,15.1 -169,15.1 z m 124.8,-1558.1 c -306.9,0 -555.2,102.1 -718.2,295.3 -191.5,226.8 -254.8,570.5 -183.2,993.9 26.6,196.5 117.7,354.7 263.6,457.8 223.6,158.1 514.4,150 661.3,132.8 137.2,110.6 341.1,170.3 545.3,155.3 194.1,-14.2 345.8,-94.1 427.3,-225 13,-20.9 21.2,-44.5 23.9,-69.1 74,-673.4 -4.3,-1137.1 -239.2,-1417.7 -211.7,-252.6 -495.1,-304.5 -769.8,-323 -3.7,-0.2 -7.4,-0.3 -11,-0.3"
         style="fill:#262f6a;fill-opacity:1;fill-rule:nonzero;stroke:none"
         id="path258" />
      <path
         d="m 16097.8,18623.8 c -93.2,-181.5 -142.1,-389.1 -148,-594.7 0.3,-40.1 -32.8,-72.8 -73,-71.7 -32.4,0.8 -59.2,23.2 -67.1,53.1 -60.9,235.4 -70,484.2 -22.3,724.8 57.7,267.3 437.8,129.2 310.4,-111.5"
         style="fill:#262f6a;fill-opacity:1;fill-rule:nonzero;stroke:none"
         id="path260" />
      <path
         d="m 11714.6,18457.6 c 349.2,-1344.9 1387.1,-2299.1 2923.5,-2687.6 2000.6,-505.7 4337.2,83.8 5556.3,1401.7 883.5,955.2 1105.9,2186.5 643,3560.8 -496.5,1304.3 -3059.4,1440.3 -5220.4,905.5 -2070.6,-512.3 -4077.3,-1693.8 -3902.4,-3180.4 z m 4396.5,-3195.9 c -524.7,0 -1049.5,61 -1553.8,188.5 -1662.9,420.4 -2786.9,1463 -3164.9,2935.7 -1.8,6.8 -3,13.7 -3.9,20.7 -98.3,790.6 306.4,1558.6 1170.4,2220.9 737.4,565.3 1795.4,1037.9 2978.9,1330.7 1223.4,302.7 2447.4,386.6 3446.3,235.9 1147.1,-172.9 1895,-638.9 2162.9,-1347.7 0.7,-1.8 1.4,-3.7 2,-5.6 638.2,-1891.2 -35.2,-3160.9 -712.5,-3893.1 -986.4,-1066.4 -2654.4,-1686 -4325.4,-1686"
         style="fill:#262f6a;fill-opacity:1;fill-rule:nonzero;stroke:none"
         id="path262" />
      <path
         d="m 16812.3,23762.2 c 249.6,-455.1 811.1,-608 1292,-518.3 527.9,94.4 870.3,477.5 988.7,989.4 10.5,38 49.8,60.3 87.8,49.9 30.3,-8.3 50.7,-35.1 52.4,-64.8 8.2,-145.9 -9.7,-295.6 -53.5,-441.4 -277.7,-948.7 -1646.2,-1169.6 -2285.8,-464.9 -102.7,115.2 -179.9,254 -214.1,400.8 -8.9,38.3 15,76.6 53.3,85.6 32.3,7.5 64.6,-8.3 79.2,-36.3"
         style="fill:#262f6a;fill-opacity:1;fill-rule:nonzero;stroke:none"
         id="path264" />
      <path
         d="m 11482.3,21914.8 c 273.1,-403.8 764.1,-460.7 1167.1,-213.2 413.7,246 571.1,723.1 522.5,1189.7 -2.4,39.3 27.6,73.1 66.9,75.5 31.6,2 59.7,-17.2 70.7,-45.2 49.3,-125.9 79.3,-261.4 88.7,-401.4 29.6,-434.2 -201,-873 -576.9,-1099.5 -372.9,-239.4 -912.4,-249.7 -1243.6,69.6 -106,103.6 -182.1,230.3 -222.7,362.9 -11.5,37.7 9.7,77.7 47.5,89.3 30.5,9.4 62.5,-2.8 79.8,-27.7"
         style="fill:#262f6a;fill-opacity:1;fill-rule:nonzero;stroke:none"
         id="path266" />
      <path
         d="m 11104.5,23521.6 c 0,0 48.9,840.6 502.8,1230.8 91.7,78.9 218.2,107.2 333.8,71.2 135.9,-42.5 326.4,-144.7 506.4,-389 -633.7,110.2 -924.8,-477.1 -1343,-913"
         style="fill:#262f6a;fill-opacity:1;fill-rule:nonzero;stroke:none"
         id="path268" />
      <path
         d="m 16523.8,25379.1 c 0,0 50.3,512.7 565,866.5 343.6,236.3 800.3,221.3 1114.7,-52.7 94.4,-82.2 187.1,-188.8 268.1,-326.9 -742.6,296.9 -1327.3,-157.1 -1947.8,-486.9"
         style="fill:#262f6a;fill-opacity:1;fill-rule:nonzero;stroke:none"
         id="path270" />
      <path
         d="m 20232,27711.9 c -249.3,55.6 -474.1,114.5 -673.4,173.4 182.4,12.2 406.2,-38.2 673.4,-173.4"
         style="fill:#262f6a;fill-opacity:1;fill-rule:nonzero;stroke:none"
         id="path272" />
      <path
         d="m 12801,27020.6 h 0.5 -0.5 m 4107.7,-11655.5 c 474.6,0 934.8,-132.6 1340.3,-387.7 l 258.8,-162.8 c 539,83.1 4651.8,785.3 6011.8,3023.8 1419.6,2336.3 273.1,3641.3 223.6,3695.7 -12.1,13.4 -22.5,29.3 -29.7,45.9 -26.7,61.6 -2714.2,6163.4 -6259.7,6549 -3562,387.3 -5527.3,-1218.5 -5546.8,-1234.8 -7.3,-6.1 -15.4,-11.8 -23.7,-16.6 -2552.7,-1469 -2571.1,-3422.5 -2589,-5311.8 -4.7,-505.4 -9.2,-982.9 -62.8,-1444.4 -253.23,-2184.7 -300.24,-4033.9 1698.6,-4534.6 1493.2,-373.9 3655,-302.8 4810.9,-227.2 56,3.7 112,5.5 167.7,5.5 m 1562.9,-887.5 c -30.9,0 -61.4,8.7 -87.9,25.3 l -310.4,195.3 c -393.8,247.8 -847,362.6 -1310.7,332.3 -1175.2,-77 -3375.8,-148.6 -4912.6,236.4 -1036,259.4 -1666,868.8 -1926.12,1862.8 -237.35,907.2 -134.76,2039.5 -19.97,3029.7 51.47,444.1 55.91,913.1 60.6,1409.6 17.77,1886.8 37.79,4025 2742.09,5587.6 187.4,152.7 2178,1692.3 5782.8,1300.3 1576.8,-171.5 3156.4,-1363.4 4694.9,-3542.7 1058.8,-1499.8 1730.8,-2976 1821.4,-3179.3 77.4,-92.3 356.9,-458.8 484,-1071.5 131.4,-633.9 118.7,-1668.3 -688.1,-2996.3 -1531.3,-2520.2 -6113.8,-3161.9 -6308.1,-3188 -7.3,-1 -14.6,-1.5 -21.9,-1.5"
         style="fill:#262f6a;fill-opacity:1;fill-rule:nonzero;stroke:none"
         id="path274" />
      <path
         d="m 25524.6,22001.8 c -377,-589 -1225.3,-636.2 -2709.7,1056.5 -1472.6,1679.1 -2565.9,4607.4 -2582.4,4653.1 l -0.5,0.5 c -249.3,55.6 -474.1,114.5 -673.4,173.4 -704,207.3 -1087.1,407.6 -1087.1,407.6 1099.8,1633.8 4084.2,-164.9 4084.2,-164.9 890.2,-165.9 1541.9,-456.7 2014.1,-819.5 1139,-875.6 1229.5,-2169.6 1096.1,-3128.1 -188.5,-1355.8 235.7,-1589.5 -141.3,-2178.6"
         style="fill:#a46856;fill-opacity:1;fill-rule:nonzero;stroke:none"
         id="path276" />
      <path
         d="m 25524.6,22001.8 c -377,-589 -1225.3,-636.2 -2709.7,1056.5 -1472.6,1679.1 -2565.9,4607.4 -2582.4,4653.1 1242.2,-629.1 3713.4,-5144.1 4620.5,-3541.9 670.1,1183.3 74,2520.7 -283.2,3139 1139,-875.6 1229.5,-2169.6 1096.1,-3128.1 -188.5,-1355.8 235.7,-1589.5 -141.3,-2178.6"
         style="fill:#8b5144;fill-opacity:1;fill-rule:nonzero;stroke:none"
         id="path278" />
      <path
         d="m 18813.6,28141.2 c -96.8,38.9 -173.6,72.4 -229.7,98 56.2,-25.6 133.1,-59.1 229.8,-97.9 -0.1,-0.1 -0.1,0 -0.1,-0.1"
         style="fill:#a8acc3;fill-opacity:1;fill-rule:nonzero;stroke:none"
         id="path280" />
      <path
         d="m 24748.4,26970.7 c -471.4,359.3 -1120.2,647.1 -2004.2,811.9 0,0 -1411.5,850.6 -2650.6,850.6 -484.6,0 -942.7,-130 -1279.9,-491.9 -96.7,38.8 -173.6,72.3 -229.8,97.9 -74.4,33.8 -112.4,53.7 -112.4,53.7 v 0 c 343.4,510.2 870.9,685.7 1433.6,685.7 1239.3,0 2650.6,-850.6 2650.6,-850.6 890.2,-165.9 1541.9,-456.7 2014.1,-819.5 v 0 c 55.6,-96.3 117,-210 178.6,-337.8"
         style="fill:#dbc3bb;fill-opacity:1;fill-rule:nonzero;stroke:none"
         id="path282" />
      <path
         d="m 25428.9,26239.2 c -166.4,259.7 -385.9,504.7 -670.6,723.9 -3.3,2.5 -6.6,5 -9.9,7.6 -61.6,127.8 -123,241.5 -178.6,337.8 408.6,-314.3 682.4,-682.4 859.1,-1069.3"
         style="fill:#d1b9b4;fill-opacity:1;fill-rule:nonzero;stroke:none"
         id="path284" />
      <path
         d="m 18471.6,28292.9 h 0.5 z m 257.5,62.6 c 258.8,-111.9 787.8,-315.7 1538.7,-482.8 54.7,-12.1 99.4,-51.1 118.9,-103.6 10.9,-29.3 1105.4,-2952.4 2552.2,-4602.1 1033,-1178 1652.4,-1394.6 1988.3,-1369.4 188.8,14.2 343.1,112.9 458.5,293.1 168.1,262.7 148.6,425.3 109.8,749.3 -35.6,297.7 -84.4,705.2 7,1363 198.5,1427 -156.9,3238.2 -2977,3762.8 -19.3,3.6 -38,10.7 -54.9,20.9 -27.4,16.5 -2653,1574.2 -3741.5,368.8 z m 6147.3,-6889.7 c -586.9,0 -1321.6,498.6 -2185.5,1483.7 -1365.2,1556.6 -2387.9,4116.4 -2581.7,4620.9 -1083.6,250.2 -1688.2,562.9 -1714.1,576.4 -41.5,21.7 -71.9,60.1 -83.4,105.6 -11.5,45.5 -3.1,93.7 23.1,132.6 1130,1678.8 3957.1,89.1 4280,-100.3 3210.4,-610.4 3392.6,-2846.2 3214.5,-4127.1 -85.6,-615.6 -41.6,-983.1 -6.2,-1278.3 40.3,-337.6 72.2,-604.2 -159.6,-966.4 -171.8,-268.5 -417.8,-422.1 -711.4,-444.3 -24.9,-1.8 -50.2,-2.8 -75.7,-2.8"
         style="fill:#262f6a;fill-opacity:1;fill-rule:nonzero;stroke:none"
         id="path286" />
      <path
         d="m 22627.4,28276.5 c 458.3,-305.2 776.5,-1159.4 952.4,-1670.2 28,-83.2 -92.2,-133.1 -130.7,-53.4 -124.8,273.2 -264,552.9 -424,806 -148.1,226.8 -324,485.2 -541,620.5 -193.3,99 -55.3,386.8 143.3,297.1"
         style="fill:#262f6a;fill-opacity:1;fill-rule:nonzero;stroke:none"
         id="path288" />
      <path
         d="m 12801,27020.6 c -357.2,-208.8 -657.4,-457.6 -910.5,-740.8 h -0.5 c -1517.4,-1696 -1344.4,-4624.4 -1586.6,-7600.3 -42,-756.3 -666.37,-1264.3 -1165.89,-1277 -274.74,-6.6 -491.03,229.9 -473.13,504.2 17.44,266.2 18.39,523.5 7.54,772.8 -73.04,1653.6 -681.89,2968.4 -701.21,4378.8 -23.56,1692.3 1849.64,2442.5 1849.64,2442.5 1354.85,2674.3 2980.65,1519.8 2980.65,1519.8"
         style="fill:#a46856;fill-opacity:1;fill-rule:nonzero;stroke:none"
         id="path290" />
      <path
         d="m 11890,26279.8 c -1517.4,-1696 -1344.4,-4624.4 -1586.6,-7600.3 -42,-756.3 -666.37,-1264.3 -1165.89,-1277 -274.74,-6.6 -491.03,229.9 -473.13,504.2 17.44,266.2 18.38,523.5 7.54,772.8 358.62,-1236 1395.78,-419.4 1148.43,2089.1 0,0 -395.38,4345.8 2069.65,5511.2"
         style="fill:#8b5144;fill-opacity:1;fill-rule:nonzero;stroke:none"
         id="path292" />
      <path
         d="m 7998.7,22578.5 c -15.96,159.1 -25.84,318.8 -27.99,479.8 -0.15,10.8 -0.22,21.5 -0.22,32.2 0,-10.7 0.07,-21.4 0.22,-32.2 2.21,-160.9 12.09,-320.7 27.99,-479.8"
         style="fill:#f5f7f8;fill-opacity:1;fill-rule:nonzero;stroke:none"
         id="path294" />
      <path
         d="m 12547.4,26858.9 c -0.1,0.1 -0.2,0.1 -0.3,0.1 25,17.3 50.2,34.3 75.8,51.1 -25.5,-16.8 -50.6,-33.8 -75.5,-51.2"
         style="fill:#a8acc3;fill-opacity:1;fill-rule:nonzero;stroke:none"
         id="path296" />
      <path
         d="m 8061.18,22114 c -25.59,154.7 -46.93,309.3 -62.48,464.5 -15.9,159.1 -25.78,318.9 -27.99,479.8 -0.15,10.8 -0.22,21.5 -0.22,32.2 0.36,1669.6 1849.86,2410.3 1849.86,2410.3 727.05,1435.1 1532.15,1767.6 2122.15,1767.6 509.4,0 858.5,-247.8 858.5,-247.8 v 0 c -61.2,-35.7 -120.4,-72.4 -178.1,-110.5 -25.6,-16.8 -50.8,-33.8 -75.8,-51.1 -126.9,36.6 -278.5,63.9 -447.8,63.9 -589.9,0 -1394.9,-332.3 -2122.03,-1767.5 0,0 -1873.19,-750.3 -1849.63,-2443 2.83,-194.6 16.49,-387.3 38.64,-579.1 -35.81,-5.2 -70.69,-11.8 -105.1,-19.3"
         style="fill:#dbc3bb;fill-opacity:1;fill-rule:nonzero;stroke:none"
         id="path298" />
      <path
         d="m 8664.41,17906.8 h 0.49 z M 11939.7,27103 c -107,0 -221.5,-12.2 -341.5,-42.3 -610.3,-153.4 -1159,-703.3 -1630.71,-1634.4 -18.12,-35.8 -48.59,-63.7 -85.79,-78.6 -17.53,-7.1 -1767.78,-730.3 -1746.05,-2287.2 9.52,-686.1 162.94,-1352.9 325.34,-2058.9 218.31,-949.1 444.05,-1930.5 368.02,-3105.4 v 0 c -5.71,-88.3 25.83,-175.2 86.52,-238.4 58.01,-60.3 135.65,-92.4 217.73,-90.3 386.03,9.8 966.14,414.7 1005.44,1121.2 46.2,567.8 77.4,1135.1 107.6,1683.7 150.2,2726.7 292.2,5308.1 2220.9,6631.8 -133.2,50.8 -315.2,98.8 -527.5,98.8 z M 9125.35,17237.5 c -169.97,0 -328.37,67.7 -447.61,191.7 -124.75,129.8 -189.6,307.8 -177.93,488.3 72.95,1126.8 -147.31,2084.2 -360.3,3010.2 -166.46,723.6 -323.68,1407 -333.74,2128.2 -22.71,1632.5 1561.67,2424.7 1894.92,2573.1 513.11,991.3 1126.51,1581 1824.11,1753.3 771.4,190.6 1347.5,-210.1 1371.7,-227.3 45.6,-32.4 71.7,-85.8 69.3,-141.7 -2.5,-56 -33.2,-106.8 -81.6,-135.1 -2014.1,-1178.1 -2150.6,-3655.4 -2308.5,-6523.9 -30.3,-550.8 -61.7,-1120.3 -107.9,-1688.2 -45.6,-821.4 -735.62,-1413.4 -1326.19,-1428.4 -5.42,-0.1 -10.84,-0.2 -16.26,-0.2"
         style="fill:#262f6a;fill-opacity:1;fill-rule:nonzero;stroke:none"
         id="path300" />
      <path
         d="m 9958.48,25410.7 c -229.83,-346 -414.21,-733.8 -559.64,-1124.7 -149.32,-399.3 -252.89,-814.8 -313.57,-1237.2 -14.33,-87.6 -146.28,-73.6 -140.31,16.4 30.64,437.7 106.5,872.6 230.08,1294.4 91,318.2 209.17,629.4 349.83,929.7 48.99,101.4 96.58,197.7 157.34,301.6 46.05,78.7 147.17,105.2 225.88,59.2 83.98,-48.5 107.51,-161.2 50.39,-239.4"
         style="fill:#262f6a;fill-opacity:1;fill-rule:nonzero;stroke:none"
         id="path302" />
      <path
         d="m 32344.9,18902.7 c -251.1,0 -505.6,369.6 -852,1222.8 -34.3,84.4 6.4,180.6 90.8,214.8 84.3,34.3 180.6,-6.3 214.9,-90.8 287.6,-708.5 459.8,-925.8 529.6,-990.9 77.5,205.4 79,986.5 -192.9,2017.9 -427.8,1622.5 -2125.2,2199.6 -2142.3,2205.3 -86.5,28.5 -133.5,121.8 -105,208.3 28.6,86.5 122,133.3 208.3,105 76.8,-25.4 1885,-640.7 2358,-2434.5 164.2,-622.8 480.2,-2275.8 -22.5,-2443.3 -29,-9.7 -58,-14.6 -86.9,-14.6"
         style="fill:#262f6a;fill-opacity:1;fill-rule:nonzero;stroke:none"
         id="path304" />
      <path
         d="m 15283.6,21682 c 16.2,-53.6 -142,-149 -353.5,-213.1 -211.4,-64.1 -396,-72.6 -412.2,-19.1 -16.3,53.6 142,149 353.4,213.1 211.5,64.1 396.1,72.6 412.3,19.1"
         style="fill:#ffffff;fill-opacity:1;fill-rule:nonzero;stroke:none"
         id="path306" />
      <path
         d="m 18321.5,30197.1 -1499.3,-328.7 -66,301 589.6,1402.5 -833.8,-182.9 -91.5,417 1469,322.1 65.3,-298.3 -597.3,-1407.1 872.6,191.3 91.4,-416.9"
         style="fill:#262f6a;fill-opacity:1;fill-rule:nonzero;stroke:none"
         id="path308" />
      <path
         d="m 19613.5,32472.9 -1062.1,-114.3 -23,213.2 513.8,926 -590.8,-63.6 -31.8,295.4 1040.7,112 22.8,-211.3 -519.5,-928.6 618.2,66.5 31.7,-295.3"
         style="fill:#262f6a;fill-opacity:1;fill-rule:nonzero;stroke:none"
         id="path310" />
      <path
         d="m 21727.3,31902.1 -1222.5,-131.5 -26.4,245.4 591.3,1065.6 -679.9,-73.2 -36.6,340 1197.7,128.9 26.2,-243.1 -597.8,-1068.7 711.4,76.6 36.6,-340"
         style="fill:#262f6a;fill-opacity:1;fill-rule:nonzero;stroke:none"
         id="path312" />
      <path
         d="m 19883.2,30173.6 -635.6,-68.4 -13.7,127.6 307.4,554.1 -353.5,-38 -19,176.7 622.7,67 13.6,-126.4 -310.8,-555.6 369.9,39.8 19,-176.8"
         style="fill:#262f6a;fill-opacity:1;fill-rule:nonzero;stroke:none"
         id="path314" />
    </g>
  </g>
</svg>
