<?xml version="1.0" encoding="UTF-8" standalone="no"?>
<!-- Created with Inkscape (http://www.inkscape.org/) -->

<svg
   version="1.1"
   id="svg2777"
   width="5333.3335"
   height="5333.3335"
   viewBox="0 0 5333.3335 5333.3335"
   xmlns="http://www.w3.org/2000/svg"
   xmlns:svg="http://www.w3.org/2000/svg">
  <defs
     id="defs2781" />
  <g
     id="g2785"
     transform="matrix(1.3333333,0,0,-1.3333333,0,5333.3333)">
    <g
       id="g2787"
       transform="scale(0.1)">
      <path
         d="M 20601.9,6550 C 14111.5,6550 8850,7513.6 8850,8702.2 c 0,453.3 765.23,873.9 2072.3,1220.8 115.4,-163.9 254.3,-311.5 412.7,-435.7 114.7,-90.2 239.4,-168.2 371.1,-231.7 66,-31.7 133.4,-60.3 202.5,-84.4 68.8,-25.2 134.4,-40.7 201.8,-61.4 268.3,-72.4 539.8,-120.3 809.7,-142.5 67.6,-8 135,-12.3 202.3,-15.8 67.3,-3.6 134.8,-8.7 202,-10.9 105.7,-1.8 211.7,-5.7 317.3,-5.7 28.3,0 56.6,0.3 84.8,1 534.9,4 1063.8,45.4 1588.6,98.7 507.6,51.3 1011.9,113.4 1514.7,173.1 985.4,-363.5 1996.7,-480.8 2863.8,-530.5 113.3,-210 249.8,-420.4 406.9,-626.8 101.3,-133.5 220.6,-252.3 354,-352.7 326.8,-247.6 722.9,-379.1 1132.4,-379.1 64.4,0 129.3,3.3 194.1,9.8 1672.3,169.1 2976.6,583.4 3987.6,1266.5 706.2,477.2 1273.8,1088.2 1717.1,1851.8 2949.5,-391 4868.2,-1026.8 4868.2,-1744.5 0,-1188.6 -5261.6,-2152.2 -11752,-2152.2"
         style="fill:#a0c49d;fill-opacity:1;fill-rule:nonzero;stroke:none"
         id="path2791" />
      <path
         d="m 16856.5,9421.3 c -1797.1,-212.9 -3635.4,-468.2 -4846.2,-65.2 -527.2,176 -939.4,584.5 -1140,1102.5 -839.8,2168.1 468.8,4042.7 1598.4,2238.2 l 905.6,548.8 3482.2,-3824.3"
         style="fill:#60547b;fill-opacity:1;fill-rule:nonzero;stroke:none"
         id="path2793" />
      <path
         d="m 11523.4,13395.9 c -89.2,0 -176.9,-20.9 -261.8,-63.4 -584.9,-293 -879.5,-1541.5 -367.1,-2864.5 201.3,-519.7 611,-916 1124.1,-1087.2 1132,-376.8 2848.6,-171.3 4508.6,27.4 l 276.1,32.9 -3433.8,3771.2 -909.3,-551 -13.6,21.7 c -291.6,465.9 -616.5,712.9 -923.2,712.9 m 2127.5,-4277.5 c -617.5,0 -1181.4,57.5 -1648.8,213 -527.8,176.2 -949.2,583.6 -1156,1117.8 -522.6,1349 -212.7,2626.7 392.2,2929.8 398.8,199.8 849.4,-35.9 1238.7,-646.7 l 902.1,546.6 3530.7,-3877.5 -376.4,-44.8 c -984.8,-117.9 -1989.5,-238.2 -2882.5,-238.2"
         style="fill:#000072;fill-opacity:1;fill-rule:nonzero;stroke:none"
         id="path2795" />
      <path
         d="m 13649.4,9543.4 c -613.8,0 -1173,57.6 -1639.1,212.7 -358.4,119.6 -663.6,346.6 -885.3,642.5 -17.7,36 -34.2,72.6 -49.1,109.9 -22.2,54.3 -44.6,115.3 -64.4,173.5 -41,117.6 -75.1,237.3 -103.9,358 -10.2,42.6 -19.6,85.5 -28.1,128.4 190.1,-179.5 417.9,-318.9 672.5,-404 466.1,-155.2 1025,-212.8 1638.9,-212.8 450.1,0 929.9,31 1423.9,77.1 202.5,-208.5 419,-399.9 650,-574.8 173.5,-131.4 351.5,-250.2 532.6,-357.7 -748.2,-84.8 -1480.4,-152.8 -2148,-152.8"
         style="fill:#433b78;fill-opacity:1;fill-rule:nonzero;stroke:none"
         id="path2797" />
      <path
         d="m 10842,12180.4 c 15,105.4 36.7,208.9 65.3,309.2 33,113.3 74.6,222 126.6,321.4 52.4,98.4 115.5,188.5 188.4,254.9 96.8,91.4 199.9,138.3 311.7,138.3 57.1,0 116.4,-12.2 178.4,-36.9 90.4,-37.3 183,-97.7 268.7,-173.2 85.6,-76.3 165.4,-166.1 241.7,-261.3 96,-124 184.5,-257.9 267.1,-397.6 -291.4,415.2 -590.8,594.3 -858.8,594.3 -340.2,0 -630,-288.6 -789.1,-749.1 m 1979.9,180.9 c -55.1,136.9 -117.5,272 -190.3,403.9 l 503,304.8 c 50.9,-139.1 104.5,-274.7 160.7,-406.8 l -473.4,-301.9"
         style="fill:#b7b2c3;fill-opacity:1;fill-rule:nonzero;stroke:none"
         id="path2799" />
      <path
         d="m 12631.6,12765.2 c -4.1,7.5 -8.4,15.1 -12.6,22.7 l 506.5,307 c 3.1,-8.4 6.1,-16.6 9.1,-24.9 l -503,-304.8"
         style="fill:#8c8cbf;fill-opacity:1;fill-rule:nonzero;stroke:none"
         id="path2801" />
      <path
         d="m 28566.9,16943.8 c -3,-330.4 -11,-651.5 -23.3,-963.5 -6.2,-154.4 -14.2,-306.4 -22.8,-456.5 -91.7,-1554.7 -320.5,-2863.3 -730.9,-3943.6 v -0.6 C 26865.8,9143.2 25022,7866 21760,7536.2 c -425.1,-43 -847.2,76.3 -1179.4,327.9 -116.9,88 -222.7,192.6 -313.8,312.6 -124.3,163 -231.3,324.2 -323.6,482.3 -43.1,73.9 -83.1,147.7 -119.4,220.3 -159.3,8 -319.9,18.4 -481.7,31.4 -1968.1,158.7 -4101.8,731.5 -5431.9,2999.9 -236.3,402.3 -446.7,857.6 -626.9,1374.4 -273.2,783.2 -475.6,1705.4 -588.2,2792.5 -126.7,1217 -140.9,2639.4 -16.6,4303.6 11.7,153.8 24,310.1 38.1,468.8 11.1,121.2 22.2,243.7 34.5,367.3 56,571.6 106.4,1143.1 137.8,1716.5 460.8,8362.9 10043.1,10346.5 13836,5024 13.6,-17.8 25.9,-35.6 38.8,-54.1 743.8,-1065.6 1258.8,-2417.9 1427.3,-4065.5 4.4,-43.6 8,-86.7 12.3,-130.4 v -0.6 c 238.8,-2594.5 380.9,-4840.1 363.6,-6763.3"
         style="fill:#ffffff;fill-opacity:1;fill-rule:nonzero;stroke:none"
         id="path2803" />
      <path
         d="m 20817.3,30884.6 c -723.9,0 -1459.6,-101.7 -2186.2,-312.3 -2601.4,-753.8 -5469.2,-3156.7 -5716.2,-7640 -34.1,-622.4 -91.6,-1244.9 -137.9,-1717.6 -11.2,-112.3 -21.4,-223.6 -31.5,-333.9 l -3,-33.2 c -14.1,-158.6 -26.4,-314.7 -38.1,-468.5 -119.5,-1599.9 -113.9,-3046.3 16.5,-4298.9 108,-1042 305.4,-1979.6 586.9,-2786.6 174.3,-499.8 384.5,-960.7 624.8,-1369.9 1391.5,-2373 3623,-2842.9 5411.6,-2987.1 161.3,-12.9 323.1,-23.5 480.9,-31.3 l 15.2,-0.8 6.8,-13.6 c 36.2,-72.4 76.1,-146 118.5,-218.8 95.1,-162.8 203.4,-324.2 321.9,-479.7 88.3,-116.3 192.2,-219.8 308.7,-307.5 330.8,-250.5 743,-365.1 1161.2,-322.8 3220.5,325.6 5073.2,1566.2 6006.5,4022.2 l 1.7,5.1 c 396,1042.7 634.6,2330.1 729.2,3936 10.2,176.4 17.4,321.3 22.8,456 12.5,317.4 20.4,641.3 23.3,962.6 15.7,1746.9 -99.8,3895.2 -363.4,6760.7 l -12.4,130.9 c -160.2,1566.6 -638.9,2930.3 -1422.7,4053.1 l -5.1,7.2 c -10.9,15.7 -21.5,30.9 -33.1,46.2 -1340.7,1881.4 -3549.6,2942.5 -5886.9,2942.5 m 769.8,-23383.1 c -369.9,0 -727.4,118.6 -1022.2,341.9 -120.4,90.6 -227.6,197.4 -318.8,317.6 -119.8,157.1 -229.3,320.3 -325.4,484.9 -40.4,69.2 -78.4,139.2 -113.3,208.2 -153.5,7.8 -310.7,18.1 -467.4,30.6 -1199.7,96.8 -2141.5,322.8 -2964.2,711.3 -1059.5,500.3 -1873.3,1253.1 -2488,2301.4 -242,412.1 -453.7,876.1 -629.1,1379 -282.8,810.9 -481.1,1752.4 -589.5,2798.5 -130.7,1255.6 -136.4,2705.1 -16.6,4308.1 11.7,154 24,310.4 38.1,469.2 l 3.1,33.3 c 10.1,110.4 20.2,221.9 31.4,334.3 46.3,472.2 103.7,1093.9 137.8,1715.3 108.7,1974.3 749.1,3739.7 1851.8,5105.5 1000.6,1239.2 2349.8,2132 3901.8,2581.7 1479.3,428.6 3018.5,424.1 4451.3,-13.1 1504.4,-459.1 2776.3,-1370.8 3678.2,-2636.4 11.5,-15.1 22.5,-30.9 33.8,-47.1 l 5.1,-7.2 c 788.9,-1130.2 1270.7,-2502.1 1431.9,-4077.7 l 12.3,-130.6 c 263.9,-2868.1 379.4,-5018 363.7,-6766.7 -2.9,-321.8 -10.8,-646.2 -23.4,-964.2 -5.3,-135 -12.6,-280.2 -22.8,-457 -94.8,-1608.9 -333.9,-2900 -730.8,-3946.9 l -1.7,-5.1 c -940.6,-2479.8 -2807,-3731.9 -6051.6,-4060 -58.7,-5.9 -117.3,-8.8 -175.5,-8.8"
         style="fill:#000072;fill-opacity:1;fill-rule:nonzero;stroke:none"
         id="path2805" />
      <path
         d="m 17394.3,11944.4 h -1493.2 l -2348,1202.4 c -134.6,358.1 -253.3,747.3 -354.4,1170.9 l 2607.1,-1334.9 c 29.9,-15.3 62.6,-22.9 95.1,-22.9 37.9,0 75.6,10.3 109,30.6 54.6,33.4 90.4,89.7 98.3,152.2 h 1078.9 c 6.6,-52.8 33.2,-101.5 75,-135.6 37.6,-30.8 84.4,-47.2 132.2,-47.2 13.8,0 27.6,1.3 41.4,4.1 l 4663.1,942.8 c 2,0.4 3.9,0.8 5.9,1.3 71.7,16.7 137.1,46.6 194.1,86.9 7.3,-5.5 14.9,-11.2 22.3,-16.6 v -759.2 c 0,-158.2 -109.5,-296 -264,-331.7 l -4662.8,-943.1"
         style="fill:#b2b2d4;fill-opacity:1;fill-rule:nonzero;stroke:none"
         id="path2807" />
      <path
         d="m 27789.9,11580.2 v -0.6 C 26865.8,9143.2 25022,7866 21760,7536.2 c -425.1,-43 -847.2,76.3 -1179.4,327.9 -407.9,456.6 -692.2,883.5 -874.3,1273.6 -390.7,838.5 -314.4,1510.4 9.9,1950.9 280.5,383.3 748.7,591.9 1258.1,581.4 171.7,-3.1 348.2,-30.8 524.2,-86.1 39.4,-11.7 79.4,-25.9 118.7,-40.6 794.9,761.6 1678.4,1259.3 2677.5,1414.4 473.2,73.2 972.7,70.1 1500.6,-18.5 0,0 89.8,-5.5 232,-28.9 1.2,0 3,0 4.3,-0.6 494,-79.4 1602.7,-364.8 1758.3,-1329.5"
         style="fill:#60547b;fill-opacity:1;fill-rule:nonzero;stroke:none"
         id="path2809" />
      <path
         d="m 28543.6,15980.3 -0.6,-1.8 c -5234.5,-2674.4 -12862.8,-3019.6 -15847.9,99 -138.4,1329.6 -142.7,2905.2 21.5,4772.4 2381.6,-1682.6 14071.7,-2075.8 15486.7,2857.2 280,-3040.5 427,-5602.4 340.3,-7726.8"
         style="fill:#5f5476;fill-opacity:1;fill-rule:nonzero;stroke:none"
         id="path2811" />
      <path
         d="m 26031.6,12909.7 v 0 c -1.3,0.6 -3.1,0.6 -4.3,0.6 3,0 4.3,0 4.3,0 v -0.6"
         style="fill:#ffffff;fill-opacity:1;fill-rule:nonzero;stroke:none"
         id="path2813" />
      <path
         d="m 22018.9,11251.9 c -11.3,13.2 -22.9,26.3 -34.9,39 -51.4,57.2 -106.7,111.5 -165.2,163.1 206.1,229 454.2,432.1 719.1,606 328.3,213 685.7,384 1057.5,509.1 l 281.9,84 c 95.2,22.9 191.2,42.8 287.1,62.2 193.4,30.6 387.7,50.4 582.2,62 389.7,30.8 775.7,33.5 1194.2,62.1 l 2.2,0.2 c 24.3,1.7 47.1,15.8 59,39.1 5.3,10.3 7.8,21.4 7.9,32.2 7.9,-0.2 13.7,-0.5 17.4,-0.6 v 0 c 1.2,0 3,0 4.3,-0.6 v 0 c -63.7,-231.9 -274.7,-387.2 -510.1,-387.2 -20.8,0 -41.7,1.2 -62.8,3.6 -138.2,16.2 -275.2,24.2 -410.7,24.2 -1080.5,0 -2079.1,-501.6 -3029.1,-1298.4"
         style="fill:#b7b2c3;fill-opacity:1;fill-rule:nonzero;stroke:none"
         id="path2815" />
      <path
         d="m 28001.9,12212.9 c 3942.1,0 2814.1,4283.4 469.7,2647.1 l -469.7,-2647.1"
         style="fill:#60547b;fill-opacity:1;fill-rule:nonzero;stroke:none"
         id="path2817" />
      <path
         d="m 28001.9,12186.9 v 52 c 1860,0 2366.5,920.8 2497.9,1316.7 181.8,547.7 22.4,1143.9 -387.5,1449.7 -426.1,317.9 -1018.7,257.2 -1625.8,-166.6 l -29.8,42.6 c 626.7,437.4 1241.5,497.8 1686.7,165.7 427.6,-319.1 594.5,-939.1 405.7,-1507.8 -134.9,-406.6 -653.3,-1352.3 -2547.2,-1352.3"
         style="fill:#000072;fill-opacity:1;fill-rule:nonzero;stroke:none"
         id="path2819" />
      <path
         d="m 30498.6,13552.2 c 7.9,183.2 -19,361.8 -76.6,524.6 8.7,43.5 15.3,87 20,130.3 v 0 c -14.9,-20.7 -30.4,-41.2 -46.6,-61.4 -166.9,398.2 -524.4,686.2 -1005.5,686.2 -219.6,0 -465.1,-60.1 -729.9,-197.2 11,109.5 21.2,220.5 30.6,333.2 279.4,158.7 551.8,238.7 802.3,238.7 228.6,0 439,-66.7 619.4,-201.3 409.9,-305.8 569.3,-902 387.5,-1449.7 -0.4,-1.1 -0.8,-2.3 -1.2,-3.4"
         style="fill:#b7b2c3;fill-opacity:1;fill-rule:nonzero;stroke:none"
         id="path2821" />
      <path
         d="m 30491.7,13459.5 c 3.3,31 5.6,61.9 6.9,92.7 0.4,1.1 0.8,2.3 1.2,3.4 181.8,547.7 22.4,1143.9 -387.5,1449.7 -180.4,134.6 -390.8,201.3 -619.4,201.3 -250.5,0 -522.9,-80 -802.3,-238.7 0.9,10.5 1.8,21.1 2.6,31.6 290.4,162.6 558.5,233.1 796.6,233.1 869.4,0 1335.7,-941.6 1001.9,-1773.1"
         style="fill:#8c8cbf;fill-opacity:1;fill-rule:nonzero;stroke:none"
         id="path2823" />
      <path
         d="m 28318.8,12584.5 c 75.1,302.5 140.7,621.4 197,957.9 142.4,-19.8 277.8,-29.1 406.5,-29.1 688.8,0 1180.8,267.5 1473.1,632.4 9.5,-22.6 18.4,-45.6 26.6,-68.9 -136,-681.4 -767.4,-1363.7 -2103.2,-1492.3"
         style="fill:#433b78;fill-opacity:1;fill-rule:nonzero;stroke:none"
         id="path2825" />
      <path
         d="m 30422,14076.8 c -8.2,23.3 -17.1,46.3 -26.6,68.9 16.2,20.2 31.7,40.7 46.6,61.4 v 0 c -4.7,-43.3 -11.3,-86.8 -20,-130.3"
         style="fill:#807cab;fill-opacity:1;fill-rule:nonzero;stroke:none"
         id="path2827" />
      <path
         d="m 14633.7,27895.6 c -2965.4,1201.6 169.2,4729.3 1762,1656.2 l -1762,-1656.2"
         style="fill:#5f5476;fill-opacity:1;fill-rule:nonzero;stroke:none"
         id="path2829" />
      <path
         d="m 13698.5,28950.4 c -69.1,161.6 -96.5,333.8 -79.1,512.9 50.8,520.4 475.5,987.3 988,1086.1 68,13.1 135.8,19.6 203.2,19.6 216.2,0 428.2,-66.7 628.7,-195 -113.6,30.7 -226.6,45.1 -337,45.1 -776.5,0 -1434.2,-711.1 -1403.8,-1468.7"
         style="fill:#b7b2c1;fill-opacity:1;fill-rule:nonzero;stroke:none"
         id="path2831" />
      <path
         d="m 21347.1,11539.5 c 272.6,354.1 604.9,634.5 962.8,870.5 359.6,233.3 747.8,418.8 1153.1,555.2 l 307.4,91.7 312.5,74.2 c 209.8,41.7 421.6,83 637,90.6 428.7,17 866.2,-50.2 1250.7,-246.3 35.4,-18 49.5,-61.3 31.4,-96.7 -11.9,-23.3 -34.7,-37.4 -59,-39.1 l -2.2,-0.2 c -418.5,-28.6 -804.5,-31.3 -1194.2,-62.1 -194.5,-11.6 -388.8,-31.4 -582.2,-62 -95.9,-19.4 -191.9,-39.3 -287.1,-62.2 l -281.9,-84 c -371.8,-125.1 -729.2,-296.1 -1057.5,-509.1 -326.2,-214.1 -626.9,-472.7 -855.2,-769.1 l -4.7,-6.2 c -70.3,-91.3 -201.4,-108.4 -292.8,-38 -91.4,70.3 -108.4,201.4 -38.1,292.8"
         style="fill:#000072;fill-opacity:1;fill-rule:nonzero;stroke:none"
         id="path2833" />
      <path
         d="m 19901.8,9212.4 c -2.6,6.1 -5.2,12.2 -7.5,18.4 l -33.5,87.9 c -23,58.4 -39.9,118.2 -59.7,177.3 -15.6,60 -34.7,119.4 -46.4,180 -28.6,120.3 -45.1,242.2 -53.8,363.6 -9.2,121.4 -5.8,242.6 8.3,361.2 27.9,237 103.2,465.1 232.4,653.9 127.3,188 308.4,330.8 514.3,394.8 84.1,27.1 172.1,40.3 261.1,40.3 128,0 258,-27.4 380.7,-80.6 104.1,-44.9 202.7,-106.6 296.3,-176.9 91.6,-74.3 180.5,-153.9 262.9,-243.3 66.9,-69.7 130.3,-144 191.4,-221.6 -352.7,289 -694.1,424.7 -991.7,424.7 -692.3,0 -1147.3,-734.3 -954.8,-1979.7"
         style="fill:#b7b2c3;fill-opacity:1;fill-rule:nonzero;stroke:none"
         id="path2835" />
      <path
         d="m 22526.6,9726.6 c -143,229.7 -271.8,456.7 -413.9,670 -141,213 -287.7,417.2 -455.8,592.4 -82.4,89.4 -171.3,169 -262.9,243.3 -93.6,70.3 -192.2,132 -296.3,176.9 -207.9,90.1 -436.6,106.3 -641.8,40.3 -205.9,-64 -387,-206.8 -514.3,-394.8 -129.2,-188.8 -204.5,-416.9 -232.4,-653.9 -14.1,-118.6 -17.5,-239.8 -8.3,-361.2 8.7,-121.4 25.2,-243.3 53.8,-363.6 11.7,-60.6 30.8,-120 46.4,-180 19.8,-59.1 36.7,-118.9 59.7,-177.3 l 33.5,-87.9 c 11.1,-29.3 25.6,-57.4 38.2,-86.2 l 78.1,-171.9 6.4,-14 c 47.6,-105 1.2,-228.7 -103.8,-276.3 -104.9,-47.7 -228.5,-1.5 -276.2,103.5 l -87.7,192.6 c -14.1,32.3 -30,63.7 -42.7,96.8 l -37.8,99.2 c -25.7,65.9 -45.7,134.6 -68,202.1 -18.2,69.1 -39.7,137.1 -53.6,207.7 -32.9,139.4 -52.8,283 -63,427.7 -10.8,144.7 -7.2,291.7 10.3,438.1 34.3,291.9 128.8,586.4 301.8,839.7 171.1,253.6 429.3,463.7 735,558.4 151.9,47.7 313.1,67.2 470.7,56.7 157.4,-10.4 311.6,-46.4 454.4,-102.9 143,-56.6 275.9,-130.9 398.8,-216.5 120,-88.3 231.6,-186.3 328.8,-294.6 50.2,-53.1 92.7,-111.4 138.5,-167.2 41,-58.8 83.3,-117.1 120.4,-177.7 75.1,-120.9 141.3,-245.9 196,-374.8 109.5,-257.7 186.7,-524.9 219.3,-799.3 4.7,-39.1 -23.2,-74.5 -62.3,-79.2 -28.3,-3.3 -54.7,10.4 -68.8,33 l -0.5,0.9"
         style="fill:#000072;fill-opacity:1;fill-rule:nonzero;stroke:none"
         id="path2837" />
      <path
         d="m 27789.9,11579.6 h 0.5 -0.5 M 20832,30703.2 c -58.5,0 -116.4,-0.6 -174.8,-2 -3438.8,-80.8 -7271.3,-2549.5 -7559.8,-7779 -34.2,-625.7 -92,-1250.7 -138.5,-1725.3 -11.1,-112.1 -21.2,-222.9 -31.3,-332.7 l -3,-33.3 c -156.3,-1776.9 -163.7,-3369.1 -21.8,-4731.7 612.3,-5896 3847.7,-6852.9 6931.8,-7011.3 l 121.4,-6.3 54.5,-108.7 c 111.8,-222.9 253.9,-448.2 422.5,-669.8 78.2,-103 170.1,-194.5 273.1,-272.1 294.4,-222.9 660.8,-324.6 1032.8,-287 3132.6,316.7 4936.6,1514.3 5845.1,3881.7 l 10.7,28.6 c 424.4,1117.6 666.5,2535.5 740.2,4334.6 78.5,1921.8 -26.2,4296.3 -339.5,7699.1 l -12.2,129.6 c -489.2,4775.7 -3914.1,6885.6 -7151.2,6885.6 m 754.9,-23384.6 c -409.5,0 -805.6,131.5 -1132.4,379.1 -133.4,100.4 -252.7,219.2 -354,352.7 -157.1,206.4 -293.6,416.8 -406.9,626.8 -1341.1,76.9 -3027.3,315.5 -4428.8,1376.7 -1573.2,1191.3 -2481.7,3154.6 -2777.4,6002.1 -144.7,1389 -137.5,3008.1 21.2,4812.2 l 3.1,34 c 10.1,110.9 20.3,222.8 31.6,335.7 46,470.1 103.3,1089.4 137.1,1707.2 135.4,2454.9 1054.4,4540.3 2657.7,6030.9 1436,1335.1 3321.5,2096.1 5309.3,2142.8 3479.9,80.1 7226.1,-2131.3 7751.4,-7259.4 l 13.4,-142.7 c 314.4,-3416.9 419.2,-5805.7 340,-7744.9 -74.7,-1825.7 -321.3,-3275.2 -753.5,-4429.7 v -0.2 l -13.5,-36.4 C 27500.3,10227.2 26775.3,9275.1 25768.6,8594.9 24757.6,7911.8 23453.3,7497.5 21781,7328.4 c -64.8,-6.5 -129.7,-9.8 -194.1,-9.8"
         style="fill:#000072;fill-opacity:1;fill-rule:nonzero;stroke:none"
         id="path2839" />
      <path
         d="m 16881.2,9213.8 c -519.8,-61.5 -1041.2,-126.2 -1566.1,-179.2 -524.8,-53.3 -1053.7,-94.7 -1588.6,-98.7 -133.4,-3.2 -268,2.4 -402.1,4.7 -67.2,2.2 -134.7,7.3 -202,10.9 -67.3,3.5 -134.7,7.8 -202.3,15.8 -269.9,22.2 -541.4,70.1 -809.7,142.5 -67.4,20.7 -133,36.2 -201.8,61.4 -69.1,24.1 -136.5,52.7 -202.5,84.4 -131.7,63.5 -256.4,141.5 -371.1,231.7 -229.9,180.2 -418.8,410.1 -554.3,666.8 -33.7,64.3 -64.8,130 -91.8,197.3 -14.9,34.1 -25.5,65.5 -37.8,97.9 -12,32.2 -24,64.4 -34.7,97.2 -45.2,129.9 -83.2,262.6 -115.1,396.8 -64.1,268.4 -104.1,544 -109.6,823.2 -5.1,278.9 18.3,561.7 92.3,840.5 36.4,139.4 89,276.9 157.7,410.1 35.3,66.4 73.9,132 120.2,194.7 45.3,63 97,123.7 157.1,179.3 117.5,111.9 275.9,202.3 453.2,234.6 178.1,34.2 360.8,-3.6 508.9,-71.4 150,-68.3 270.4,-167.5 375.2,-271.2 103.7,-105.1 191.2,-218.7 267.2,-336.6 151.9,-235.7 265.1,-484.8 356.6,-738 91.4,-253.4 161.2,-511.5 211.8,-772.5 7.3,-38 -17.5,-74.7 -55.5,-82.1 -32.5,-6.3 -64.3,11.4 -77.3,40.4 -107,239 -216.5,474.3 -335.4,701.2 -119.7,226.2 -251,443.9 -400.9,637.3 -76.3,95.2 -156.1,185 -241.7,261.3 -85.7,75.5 -178.3,135.9 -268.7,173.2 -183.4,73.2 -344,36.6 -490.1,-101.4 -72.9,-66.4 -136,-156.5 -188.4,-254.9 -52,-99.4 -93.6,-208.1 -126.6,-321.4 -64.8,-227.2 -94.1,-471.3 -91,-716.2 2.7,-245 33.4,-492.1 91.3,-733.4 28.8,-120.7 62.9,-240.4 103.9,-358 19.8,-58.2 42.2,-119.2 64.4,-173.5 21.7,-54.3 46.9,-107.2 73.9,-159 109.1,-206.7 260.6,-390.7 443.5,-534 91.3,-71.8 190.2,-133.6 294.5,-183.9 52.3,-24.9 105.6,-47.7 160.3,-66.7 54.2,-20.1 116.5,-34.8 174.3,-52.7 237.4,-63.9 484.3,-108.6 737,-129.1 62.6,-7.5 126,-11.5 189.6,-14.8 63.5,-3.3 126.8,-8.2 190.6,-10.3 127.9,-2 255.3,-7.6 384.1,-4.5 513.7,3.9 1031.4,44 1549.6,96.6 518.2,52.4 1037.5,116.8 1558.8,178.5 114.6,13.6 218.4,-68.3 232,-182.8 13.6,-114.5 -68.3,-218.4 -182.8,-232 h -0.1"
         style="fill:#000072;fill-opacity:1;fill-rule:nonzero;stroke:none"
         id="path2841" />
      <path
         d="m 12500,12500 c -53.2,0 -106.4,21.1 -145.7,63 -75.7,80.4 -71.8,207 8.7,282.7 320.9,301.8 606.5,462.1 926.2,519.8 108.7,19.4 212.7,-52.5 232.3,-161.2 19.7,-108.7 -52.5,-212.8 -161.2,-232.4 -239,-43.2 -462.1,-172 -723.3,-417.6 -38.6,-36.3 -87.8,-54.3 -137,-54.3"
         style="fill:#000072;fill-opacity:1;fill-rule:nonzero;stroke:none"
         id="path2843" />
      <path
         d="m 28001.9,12004.1 c -115.4,0 -208.9,93.5 -208.9,208.8 0,115.4 93.5,208.9 208.9,208.9 1740.9,0 2205.4,833.2 2324.3,1191.4 157.4,474 24.4,986.2 -323.2,1245.6 -358.9,267.7 -873.5,205.7 -1411.9,-170 -94.6,-66.1 -224.8,-42.9 -290.7,51.7 -66.1,94.5 -42.9,224.7 51.7,290.7 695.4,485.4 1388.2,544.6 1900.6,162.3 489.9,-365.5 683.2,-1069.4 469.9,-1711.9 -307,-925.2 -1324.1,-1477.5 -2720.7,-1477.5"
         style="fill:#000072;fill-opacity:1;fill-rule:nonzero;stroke:none"
         id="path2845" />
      <path
         d="m 25880.7,27307.8 c -479.8,874.2 -1142.7,1549.8 -2083,1924.8 2048.2,3740.6 5159.5,-323.7 2083,-1924.8"
         style="fill:#5f5476;fill-opacity:1;fill-rule:nonzero;stroke:none"
         id="path2847" />
      <path
         d="m 25660.3,27673.7 c -36.8,56.1 -74.6,111 -113.2,165 -0.7,0.9 -1.4,1.9 -2.1,2.9 -38.7,53.8 -78.2,106.5 -118.8,158.2 v 0.1 c -2.9,4.4 -5.9,8.7 -9.1,13 85.5,-108.3 166.7,-221.3 243.8,-338.8 -0.2,-0.1 -0.4,-0.2 -0.6,-0.4 m -251.7,349.9 c -3,3.6 -6.1,7.1 -9.3,10.6 -66.8,83.5 -136.5,164 -208.8,241.6 0.3,0.2 0.5,0.4 0.8,0.5 75.4,-81 147.8,-165.3 217.3,-252.7"
         style="fill:#b2b2d4;fill-opacity:1;fill-rule:nonzero;stroke:none"
         id="path2849" />
      <path
         d="m 25660.9,27674.1 c -77.1,117.5 -158.3,230.5 -243.8,338.8 -2.7,3.6 -5.6,7.2 -8.5,10.7 -69.5,87.4 -141.9,171.7 -217.3,252.7 886.8,561.8 1203.2,1367.2 1097.7,2040.4 84.6,-26.8 165.8,-62 243.2,-104.6 6.7,-6.6 13.3,-13.3 19.9,-20 91.9,-96 171.1,-205.7 234.9,-324.1 61.1,-115.7 107.2,-239.6 137.5,-367.1 0.3,-643.1 -356.5,-1343.4 -1263.6,-1826.8"
         style="fill:#423b75;fill-opacity:1;fill-rule:nonzero;stroke:none"
         id="path2851" />
      <path
         d="m 24118.8,29087.3 c -81.3,41.6 -164.9,80.2 -250.7,116.3 l 0.1,0.1 c 85.9,-36.2 169.4,-74.9 250.7,-116.2 0,-0.1 0,-0.1 -0.1,-0.2"
         style="fill:#ffffff;fill-opacity:1;fill-rule:nonzero;stroke:none"
         id="path2853" />
      <path
         d="m 24118.9,29087.5 c -81.3,41.3 -164.8,80 -250.7,116.2 162.7,79.6 257.9,189 348.6,301 92.2,114.1 173.8,232.6 260.1,348.1 86.3,115.8 189.2,215.4 295.4,307.5 106.8,91.5 220.4,172.4 340.3,236.7 193.2,104.8 403.6,162.6 611.9,162.6 49.5,0 99,-3.2 148,-9.9 127.2,-19 251,-59.6 366.3,-120 10.9,-5.9 21.7,-12 32.4,-18.2 6.9,-31.3 12.8,-62.9 17.8,-94.8 -124.1,39.3 -255.3,60.5 -391.4,60.5 -560.1,0 -1203.3,-358.9 -1778.7,-1289.7"
         style="fill:#b7b2c1;fill-opacity:1;fill-rule:nonzero;stroke:none"
         id="path2855" />
      <path
         d="m 26532.2,30212.1 c -77.4,42.6 -158.6,77.8 -243.2,104.6 -5,31.9 -10.9,63.5 -17.8,94.8 94.1,-54.6 182.1,-121.7 261,-199.4"
         style="fill:#aaa7c1;fill-opacity:1;fill-rule:nonzero;stroke:none"
         id="path2857" />
      <path
         d="m 23736.7,29266 c -18,187.2 38.9,341.3 119.3,480.7 76,142.5 182.1,267.3 292.9,386.6 111.7,118.7 226.5,236.4 352.3,344.7 126,107.9 263.5,206.3 414.1,287.1 150.3,80.8 314.1,143.7 486.4,179 172.1,35.6 352.4,43.2 529,19.2 176.4,-25.9 347.8,-82.5 504,-164.8 155.4,-83.7 296.2,-191.2 417.4,-315.8 120.4,-125.4 222.1,-266.8 303.6,-418.4 80.5,-152.2 140.3,-314.7 178.7,-482 77.6,-334.7 61,-690.3 -41.2,-1017.3 -101.5,-328.1 -289.8,-622.6 -522.3,-861.8 -28.3,-31 -58.7,-59.4 -89.1,-87.8 -30,-28.9 -60.6,-57.1 -92.5,-83.4 -62.3,-54.9 -122.6,-111.5 -186.1,-165.2 -65.4,-50.2 -136.8,-93.2 -216.8,-118.4 -39.9,-13 -81.7,-22.2 -127.5,-22.5 -46,0.1 -92.8,2.6 -146.1,20.2 -50.6,16.7 -78.8,70 -65,120.9 l 0.8,2.6 c 29.2,106.1 76.6,168.5 126.2,225.1 52.5,52.3 106.3,98.2 167.7,134.2 58.7,38.9 121.8,73.5 174.6,120.2 27.6,22 53.2,46.1 78.4,70.3 25.6,24 51.4,47.8 74.7,73.7 194.4,200 344.3,437.5 424.4,696.6 80.4,258.2 93.7,536.6 32.5,800 -30.2,131.5 -77.3,259.2 -140.1,378.3 -63.8,118.4 -143,228.1 -234.9,324.1 -92.7,95.3 -198.8,175.5 -313.3,237.6 -115.3,60.4 -239.1,101 -366.3,120 -255.1,34.8 -520.7,-23 -759.9,-152.7 -119.9,-64.3 -233.5,-145.2 -340.3,-236.7 -106.2,-92.1 -209.1,-191.7 -295.4,-307.5 -86.3,-115.5 -167.9,-234 -260.1,-348.1 -92.5,-114.1 -189.5,-225.6 -358,-305.6 l -2.3,-1.1 c -42,-19.9 -92.2,-2 -112.1,40 -4.3,8.9 -6.8,18.6 -7.7,28"
         style="fill:#000072;fill-opacity:1;fill-rule:nonzero;stroke:none"
         id="path2859" />
      <path
         d="m 14633.6,27686.7 c -26.1,0 -52.6,5 -78.3,15.4 -1326.1,537.3 -1387,1439 -1351.6,1801.8 69.2,708.8 626.2,1321 1324.6,1455.6 375.2,72.4 1326.6,89.5 2052.8,-1311.6 53.1,-102.4 13.2,-228.4 -89.3,-281.5 -102.3,-53.1 -228.4,-13.1 -281.5,89.3 -420.1,810.5 -1004.1,1209.2 -1602.9,1093.7 -512.5,-98.8 -937.2,-565.7 -988,-1086.1 -55.5,-569.4 342.7,-1070.2 1092.7,-1374.1 106.9,-43.3 158.5,-165.1 115.2,-272 -33,-81.2 -111.1,-130.5 -193.7,-130.5"
         style="fill:#000072;fill-opacity:1;fill-rule:nonzero;stroke:none"
         id="path2861" />
      <path
         d="m 16213.2,23915 c 473.3,163 946.6,95.8 1419.9,-201.4 185.6,-116.6 221.1,-371.6 77.4,-537.1 -209.9,-241.6 -476.4,-438.4 -777.9,-607.5 -155,-86.8 -349.8,-46.6 -458.7,93.9 -188.4,243 -342.6,501.7 -464.6,775.2 -83.5,187.2 10.1,410.1 203.9,476.9"
         style="fill:#000072;fill-opacity:1;fill-rule:nonzero;stroke:none"
         id="path2863" />
      <path
         d="m 23304.5,24425.5 c 89.8,-1042.3 -848.1,-1894.2 -1894.2,-1894.2 -830.1,0 -1393.3,985 -1586.5,2004.1 -194.8,1027.8 540.4,1784.2 1586.5,1784.2 1046.1,0 1828.1,-1127.9 1894.2,-1894.1"
         style="fill:#5f5476;fill-opacity:1;fill-rule:nonzero;stroke:none"
         id="path2865" />
      <path
         d="m 13721.4,24920.2 c -137.7,-817.9 328.8,-1547.1 927.7,-1609.8 475.2,-49.8 879.1,694.5 1074,1488 196.6,800.2 -161.7,1441.8 -760.6,1504.5 -598.9,62.8 -1139.9,-781.4 -1241.1,-1382.7"
         style="fill:#5f5476;fill-opacity:1;fill-rule:nonzero;stroke:none"
         id="path2867" />
      <path
         d="m 22057.4,14111.5 -4663.1,-942.8 v 6755.7 l 4508.5,906.8 c 213.8,49.8 418.3,-112.5 418.3,-332 v -6055.6 c 0,-158.5 -109.3,-296.2 -263.7,-332.1"
         style="fill:#05ce56;fill-opacity:1;fill-rule:nonzero;stroke:none"
         id="path2869" />
      <path
         d="m 17420.3,19903.1 v -6702.6 l 4631.5,936.4 c 143.3,33.5 243.3,159.5 243.3,306.7 v 6055.6 c 0,96.6 -43.4,186.5 -119.2,246.6 -75.6,60.1 -172.9,82 -267.2,60.1 l -4488.4,-902.8 m -52,-6766.2 v 6808.8 l 4529.4,911 c 108.8,25.5 222.4,-0.1 310.6,-70.2 88.2,-70 138.8,-174.7 138.8,-287.3 v -6055.6 c 0,-171.6 -116.7,-318.5 -283.8,-357.4 l -0.8,-0.2 -4694.2,-949.1"
         style="fill:#000072;fill-opacity:1;fill-rule:nonzero;stroke:none"
         id="path2871" />
      <path
         d="m 17603.1,19366.4 v 387 l 4340.9,873.1 c 2.1,0.4 4.1,0.9 6.2,1.3 10.9,2.6 21.2,3.7 30.9,3.7 38.2,0 66.3,-17.1 81.1,-28.9 18.7,-14.8 50,-47.9 50,-103.4 v -285.6 c -40.7,17.2 -85.3,26.7 -131.4,26.7 -25.6,0 -51.7,-3 -78,-9.1 l -4299.7,-864.8"
         style="fill:#8ee9b3;fill-opacity:1;fill-rule:nonzero;stroke:none"
         id="path2873" />
      <path
         d="m 12143,15092.9 3757.9,-1924.2 v 6755.7 l -3522.2,1837.3 c -222.6,82 -458.8,-82.7 -458.8,-319.9 v -6029 c 0,-142.9 89.1,-270.6 223.1,-319.9"
         style="fill:#05ce56;fill-opacity:1;fill-rule:nonzero;stroke:none"
         id="path2875" />
      <path
         d="m 12260.8,21757.5 c -62.9,0 -125.5,-19.3 -180.1,-57.4 -85.7,-59.7 -134.8,-153.9 -134.8,-258.3 v -6029 c 0,-131.4 82.8,-250.1 206.1,-295.5 l 2.8,-1.3 3720.1,-1904.8 v 6697.4 l -3508.2,1830.1 c -34.4,12.6 -70.2,18.8 -105.9,18.8 m 3666.1,-8631.3 -3794.4,1942.8 c -142.8,53.3 -238.6,191.3 -238.6,343.8 v 6029 c 0,121.7 57.3,231.4 157.1,301 99.8,69.6 222.5,85.4 336.7,43.3 l 3539.2,-1845.9 v -6814"
         style="fill:#000072;fill-opacity:1;fill-rule:nonzero;stroke:none"
         id="path2877" />
      <path
         d="m 15692.1,19393.2 -3313.2,1728.1 c -39.5,14.5 -79.4,21.2 -118.4,21.2 -46,0 -90.7,-9.4 -131.7,-26.8 v 326.1 c 0,62.2 39.5,96.5 56.5,108.4 12.2,8.5 39.4,24 75.4,24 11.2,0 23.2,-1.5 35.9,-5.2 l 3395.5,-1771.2 v -404.6"
         style="fill:#8ee9b3;fill-opacity:1;fill-rule:nonzero;stroke:none"
         id="path2879" />
      <path
         d="m 15900.9,13168.7 h 1493.4 v 6755.7 h -1493.4 z"
         style="fill:#05ce56;fill-opacity:1;fill-rule:nonzero;stroke:none"
         id="path2881" />
      <path
         d="m 15926.9,13194.7 h 1441.4 v 6703.7 h -1441.4 v -6703.7 m 1493.4,-52 h -1545.4 v 6807.7 h 1545.4 v -6807.7"
         style="fill:#000072;fill-opacity:1;fill-rule:nonzero;stroke:none"
         id="path2883" />
      <path
         d="m 16109.8,19370.9 h 1075.6 v 527.5 h -1075.6 z"
         style="fill:#8ee9b3;fill-opacity:1;fill-rule:nonzero;stroke:none"
         id="path2885" />
      <path
         d="m 17185.4,19898.4 h -1075.6 v 26 c 0,0.1 0,0.1 0,0.2 h 1075.6 c 0,-0.1 0,-0.1 0,-0.2 v -26"
         style="fill:#8c8cbf;fill-opacity:1;fill-rule:nonzero;stroke:none"
         id="path2887" />
      <path
         d="m 22057.4,14111.5 h 0.5 -0.5 m -4454.3,5641.9 V 13424 l 4409.2,891.4 c 59,14.8 99.9,67.2 99.9,128.2 v 6055.6 c 0,55.5 -31.3,88.6 -50,103.4 -18.6,14.8 -58,37.9 -112,25.2 -2.1,-0.4 -4.1,-0.9 -6.2,-1.3 l -4340.9,-873.1 m -208.8,-6793.5 c -47.8,0 -94.6,16.4 -132.2,47.2 -48.5,39.6 -76.7,99 -76.7,161.6 v 6755.7 c 0,99.5 70.2,185.1 167.7,204.7 l 4505.8,906.3 c 163.2,37 331.8,-1.5 463.1,-105.7 132.1,-104.9 207.9,-261.8 207.9,-430.5 v -6055.6 c 0,-257 -174.8,-477.2 -425.2,-535.5 -2,-0.5 -3.9,-0.9 -5.9,-1.3 L 17435.7,12964 c -13.8,-2.8 -27.6,-4.1 -41.4,-4.1"
         style="fill:#000072;fill-opacity:1;fill-rule:nonzero;stroke:none"
         id="path2889" />
      <path
         d="m 12260.7,21574.2 c -36,0 -63.2,-15.5 -75.4,-24 -17,-11.9 -56.5,-46.2 -56.5,-108.4 v -6029 c 0,-55.1 34.7,-104.9 86.4,-124 7.8,-2.9 15.5,-6.2 23,-10.1 l 3453.9,-1768.4 v 6287.5 L 12296.6,21569 c -12.7,3.7 -24.7,5.2 -35.9,5.2 m 3640.2,-8614.3 c -32.5,0 -65.2,7.6 -95.1,22.9 l -3748.1,1919.1 c -207.9,82.8 -346.6,286.3 -346.6,510.9 v 6029 c 0,179.6 87.9,348.2 235.3,451 147.3,102.7 336,126.9 504.5,64.9 8.4,-3.1 16.5,-6.7 24.4,-10.8 l 3522.2,-1837.3 c 69,-36 112.3,-107.4 112.3,-185.2 v -6755.7 c 0,-72.7 -37.9,-140.2 -99.9,-178.2 -33.4,-20.3 -71.1,-30.6 -109,-30.6"
         style="fill:#000072;fill-opacity:1;fill-rule:nonzero;stroke:none"
         id="path2891" />
      <path
         d="m 16109.8,13377.6 h 1075.6 v 6338 h -1075.6 z m 1284.5,-417.7 h -1493.4 c -115.3,0 -208.8,93.5 -208.8,208.8 v 6755.7 c 0,115.3 93.5,208.8 208.8,208.8 h 1493.4 c 115.3,0 208.8,-93.5 208.8,-208.8 v -6755.7 c 0,-115.3 -93.5,-208.8 -208.8,-208.8"
         style="fill:#000072;fill-opacity:1;fill-rule:nonzero;stroke:none"
         id="path2893" />
      <path
         d="m 19571.1,16704 -633.9,-879.1 c -83.1,531.1 32,1095.2 365,1570.6 346.2,495.2 862.2,801.8 1413.1,894.2 l -518.8,-719.7 -143.4,364.1 21.7,-533 -381.1,-527.3 -143.4,365.1 20.8,-534.9"
         style="fill:#ffffff;fill-opacity:1;fill-rule:nonzero;stroke:none"
         id="path2895" />
      <path
         d="m 20438.9,16601.2 c -332,-475.4 -821.6,-777.3 -1348.9,-882 l 357.5,527.3 480.1,225.5 -350.9,-33 429.2,632.9 495.3,238.7 -362.3,-41.5 654.7,965 c 101.9,-550 -8.5,-1137.6 -354.7,-1632.9"
         style="fill:#ffffff;fill-opacity:1;fill-rule:nonzero;stroke:none"
         id="path2897" />
      <path
         d="m 13659.4,18531.7 c 0,-1078.8 -457.8,-1953.4 -1382.3,-1953.4 -924.5,0 -1673.9,874.6 -1673.9,1953.4 0,1078.8 749.4,1953.4 1673.9,1953.4 924.5,0 1382.3,-874.6 1382.3,-1953.4"
         style="fill:#60547b;fill-opacity:1;fill-rule:nonzero;stroke:none"
         id="path2899" />
      <path
         d="m 12277.1,20459.1 c -908.7,0 -1648,-864.6 -1648,-1927.4 0,-1062.7 739.3,-1927.4 1648,-1927.4 1000,0 1356.3,995.7 1356.3,1927.4 0,931.8 -356.3,1927.4 -1356.3,1927.4 m 0,-3906.8 c -937.4,0 -1700,888 -1700,1979.4 0,1091.5 762.6,1979.4 1700,1979.4 855.5,0 1408.3,-777 1408.3,-1979.4 0,-1202.4 -552.8,-1979.4 -1408.3,-1979.4"
         style="fill:#000072;fill-opacity:1;fill-rule:nonzero;stroke:none"
         id="path2901" />
      <path
         d="m 12277.1,16604.3 c -326.4,0 -630.9,111.6 -887.2,303.8 -166.4,225.9 -288.7,496.9 -352.4,794.9 183.4,-80.6 382.1,-124.7 589.6,-124.7 924.5,0 1382.3,874.6 1382.3,1953.4 0,196.8 -15.3,386.7 -45.9,565.7 93.1,-22 180.2,-54.2 261.4,-95.8 290.6,-376.6 408.5,-933.8 408.5,-1469.9 0,-931.7 -356.3,-1927.4 -1356.3,-1927.4"
         style="fill:#433b78;fill-opacity:1;fill-rule:nonzero;stroke:none"
         id="path2903" />
      <path
         d="m 12277.1,16578.4 c -302.7,0 -586.6,93.7 -831.5,257.8 -19.1,23.4 -37.6,47.4 -55.7,71.9 256.3,-192.2 560.8,-303.8 887.2,-303.8 1000,0 1356.3,995.7 1356.3,1927.4 0,536.1 -117.9,1093.3 -408.5,1469.9 15.4,-7.9 30.5,-16.1 45.5,-24.6 259.7,-357.2 389,-872.3 389,-1445.3 0,-1078.8 -457.8,-1953.3 -1382.3,-1953.3"
         style="fill:#000072;fill-opacity:1;fill-rule:nonzero;stroke:none"
         id="path2905" />
      <path
         d="m 11037.5,17703 c -110.5,48.6 -215.5,110.4 -313.5,183.8 -61.4,201.7 -94.9,418.9 -94.9,644.9 0,1062.8 739.3,1927.4 1648,1927.4 257.4,0 472.2,-66 649.2,-179.8 14.2,-59.3 26.6,-119.9 37.2,-181.9 -94.3,22.3 -194.9,33.9 -301.6,33.9 -924.7,0 -1674.1,-874.2 -1674.1,-1953.3 0,-163.8 17.2,-322.9 49.7,-475"
         style="fill:#b7b2c3;fill-opacity:1;fill-rule:nonzero;stroke:none"
         id="path2907" />
      <path
         d="m 11446.2,16835.5 c -503.3,336.5 -842.9,970.2 -842.9,1696.2 0,1079.1 749.3,1953.4 1674.1,1953.4 433.7,0 764.7,-192.6 994.2,-508.8 -0.4,0.2 -0.8,0.4 -1.2,0.7 -98.4,135.3 -215.6,248 -351.6,332.6 2.6,-10.1 5.1,-20.2 7.5,-30.3 -177,113.8 -391.8,179.8 -649.2,179.8 -908.7,0 -1648,-864.6 -1648,-1927.4 0,-226 33.5,-443.2 94.9,-644.9 -11.7,8.8 -23.3,17.7 -34.8,26.8 130.9,-458.1 403.2,-840.8 756.4,-1077.4 0.2,-0.2 0.4,-0.5 0.6,-0.7"
         style="fill:#8c8cbf;fill-opacity:1;fill-rule:nonzero;stroke:none"
         id="path2909" />
      <path
         d="m 11389.9,16908.1 c -305.4,229.1 -542.3,572.7 -665.9,978.7 98,-73.4 203,-135.2 313.5,-183.8 63.7,-298 186,-569 352.4,-794.9 m 1835,3093.5 c -81.2,41.6 -168.3,73.8 -261.4,95.8 -10.6,62 -23,122.6 -37.2,181.9 115,-74 214.1,-168.2 298.6,-277.7"
         style="fill:#aaa7c2;fill-opacity:1;fill-rule:nonzero;stroke:none"
         id="path2911" />
      <path
         d="m 11445.6,16836.2 c -353.2,236.6 -625.5,619.3 -756.4,1077.4 11.5,-9.1 23.1,-18 34.8,-26.8 123.6,-406 360.5,-749.6 665.9,-978.7 18.1,-24.5 36.6,-48.5 55.7,-71.9 m 1824.8,3140.8 c -15,8.5 -30.1,16.7 -45.5,24.6 -84.5,109.5 -183.6,203.7 -298.6,277.7 -2.4,10.1 -4.9,20.2 -7.5,30.3 136,-84.6 253.2,-197.3 351.6,-332.6"
         style="fill:#8c8cbf;fill-opacity:1;fill-rule:nonzero;stroke:none"
         id="path2913" />
      <path
         d="m 12277.1,20276.3 c -807.9,0 -1465.1,-782.6 -1465.1,-1744.6 0,-961.9 657.2,-1744.5 1465.1,-1744.5 865.2,0 1173.5,901.1 1173.5,1744.5 0,843.4 -308.3,1744.6 -1173.5,1744.6 z m 0,-3906.8 c -1038.2,0 -1882.8,970 -1882.8,2162.2 0,1192.3 844.6,2162.2 1882.8,2162.2 966.6,0 1591.2,-848.7 1591.2,-2162.2 0,-1313.5 -624.6,-2162.2 -1591.2,-2162.2"
         style="fill:#000072;fill-opacity:1;fill-rule:nonzero;stroke:none"
         id="path2915" />
      <path
         d="m 27350.2,16434.8 c -703.2,-1787.6 -1886.7,-2296.9 -4142.6,-1558.6 -4839.8,2163.9 -1189.4,5947.3 1271.5,3527.3 l 1107.4,-902.3 1763.7,-1066.4"
         style="fill:#5f5476;fill-opacity:1;fill-rule:nonzero;stroke:none"
         id="path2917" />
      <path
         d="m 21825.9,15979.2 c -77,69.3 -150.5,141.8 -219.4,217.7 -224.2,243.7 -405.1,523.5 -496.4,825.5 -45.9,150.5 -69.8,305.8 -66.3,459.6 4.6,153.5 31.9,305.9 86.3,449.1 108.4,286.8 314.2,536.6 573.4,710.6 258.3,176.4 566.5,278.2 880.3,303 47.2,3.5 94.5,5.3 141.8,5.3 110.5,0 221.3,-9.6 330.8,-28.4 46.8,-7.7 93.3,-17 139.7,-27.9 -1401,-55.9 -2441.9,-1498.2 -1370.9,-2911 0.2,-1.2 0.5,-2.4 0.7,-3.5"
         style="fill:#b7b2c1;fill-opacity:1;fill-rule:nonzero;stroke:none"
         id="path2919" />
      <path
         d="m 27380,16423.1 c -48.1,-208.9 -115.8,-413.8 -202.2,-613.4 -86.2,-199.7 -194,-393.1 -326.2,-574.2 -133.9,-179.4 -294.1,-345.8 -481.3,-481.7 -92.5,-69.2 -192.1,-129.6 -295.4,-183.3 -104.7,-50.1 -211.8,-96.7 -322.6,-130.6 -221.3,-69.4 -450.2,-104.3 -676.1,-112 -226.2,-8 -449.2,10 -667.5,41.3 -436.9,63.6 -856.3,176.5 -1266,308.5 l -10.1,3.2 -10.2,4.6 c -331.7,148.8 -655.9,319.1 -965.2,518.9 -154.3,100.3 -305.4,207.4 -448.9,326.1 -144.3,117.2 -282.5,244.2 -409.6,384.2 -254,277.7 -473.4,605.4 -591.1,983.8 -58,188.4 -92,387.5 -90.7,588.7 2.2,201 36.3,403 104.3,593 135.3,381.1 397.5,708.4 722.3,936 324.1,230.8 711.8,363.3 1104.6,394.7 196.7,14.3 394.7,3.7 587.8,-30 193,-34.9 380.6,-93.6 558.3,-171 357.2,-154 666.9,-390.3 931.7,-657 l -14.5,13 c 90.5,-77.3 179.7,-156.4 267.4,-237.2 87,-81.7 173.5,-163.9 256.9,-250.1 83.7,-85.7 165.7,-173.6 244.7,-265 78.6,-92 155.9,-185.6 226.4,-287.6 10.4,-15.1 6.6,-35.9 -8.5,-46.4 -9.7,-6.6 -21.9,-7.4 -32,-3.2 -114.1,48.4 -221.4,105.2 -327.3,163.6 -105.6,59 -208.1,121.5 -309,186.1 -101.2,64.3 -199.3,132.4 -296.9,201.1 -96.8,69.6 -192.2,140.9 -286.2,214 l -4.1,3.1 -10.5,9.9 c -242.5,228.2 -519,412.9 -816.2,536.3 -148.7,61.3 -303.1,105.4 -459.7,131.1 -156.4,26.9 -315.4,34.8 -472.6,23.1 -313.8,-24.8 -622,-126.6 -880.3,-303 -259.2,-174 -465,-423.8 -573.4,-710.6 -54.4,-143.2 -81.7,-295.6 -86.3,-449.1 -3.5,-153.8 20.4,-309.1 66.3,-459.6 91.3,-302 272.2,-581.8 496.4,-825.5 111.5,-122.9 235.2,-236.8 366.2,-343.1 129.9,-107.6 268.9,-206.1 411.9,-299.1 286.9,-185.3 592.5,-346.3 908.3,-487.9 l -20.3,7.9 c 196.4,-63.1 393.6,-121.7 592.4,-169.8 198.8,-47.4 399.2,-83.3 598.9,-105.9 399.4,-44.7 796.9,-34.2 1163.8,63.2 368.7,93.4 700.1,297.4 978,581.6 279.7,283.7 502.5,636.7 714.7,1002.7 9,15.5 28.7,20.8 44.2,11.9 12.6,-7.3 18.5,-21.8 15.4,-35.3"
         style="fill:#000072;fill-opacity:1;fill-rule:nonzero;stroke:none"
         id="path2921" />
      <path
         d="m 24308.3,18523.7 c 29.9,80.6 76.9,149.3 128.8,214.5 51.7,65.3 112.8,124 174.8,182.1 62,58.1 127.9,113.4 196.1,167.1 69.5,52.8 140.6,104.6 220.9,149.7 16,9 36.1,3.3 45.1,-12.6 3.8,-6.9 5,-14.5 3.7,-21.7 -15.3,-90.9 -39.9,-175.3 -66.2,-258.5 -27.4,-82.4 -57.2,-163.1 -90.9,-241.1 -33.7,-78 -68.4,-155.3 -112.3,-226.1 -43.9,-70.8 -92.6,-138.3 -158.4,-193.7 -91.2,-76.9 -227.4,-65.2 -304.3,26 -51.8,61.5 -63.3,143.8 -37.3,214.3"
         style="fill:#000072;fill-opacity:1;fill-rule:nonzero;stroke:none"
         id="path2923" />
      <path
         d="m 18579.5,21807.3 c -9.9,-74.3 -34.7,-139.4 -69.6,-196.3 -16.5,-29.7 -37,-55.4 -58.5,-80.8 l -33.4,-36.8 c -11.9,-11.4 -24.7,-21.7 -37.1,-32.7 -49.8,-43.9 -108.4,-76.5 -169.1,-104.8 -60.5,-29.1 -124.3,-53.3 -190.5,-71.6 -263.5,-77 -569.3,-50.4 -819.1,83.8 -251.4,132.7 -439,356.4 -548.8,600 -111.1,245 -150.2,509.8 -139.8,764.3 l 417.2,-20.9 c -11.4,-196.2 -41.2,-397.8 -118.9,-597.6 -39,-99.6 -91.6,-198 -160,-291.2 -68.6,-92.6 -156.8,-180 -264.9,-242.1 -107.3,-63.1 -233.5,-95.8 -355.2,-95.6 -122.1,0.5 -239.1,31.5 -341.1,83.1 -102,52 -190,125.2 -255.8,213.1 -65.1,87.9 -109,191.8 -112.8,296.6 -0.7,19.1 14.2,35.2 33.4,35.9 8.7,0.4 16.9,-2.6 23.2,-7.7 l 1.4,-1.2 c 73.4,-59.8 146,-100.5 219,-130.3 73,-29.2 145.2,-47.7 214.7,-55.7 69.2,-8.8 135.1,-6 194.4,4.1 59.6,9.8 113,26.1 165,50.6 51.6,24.6 102.2,60.2 145.1,110.7 43.2,50.2 78,113.1 104.9,182.7 54.7,139.2 81.3,301.3 90.5,467.1 6.4,115.1 104.9,203.3 220.1,196.9 114.2,-6.4 201.8,-103.3 197.1,-217.1 l -0.1,-0.7 c -8.3,-198.4 22.8,-395.8 107.4,-562.2 83.2,-166.9 218.2,-296.4 373.1,-369.9 156,-73 329.7,-93 507.4,-63.2 44.3,7.6 89,18.3 133.6,32.3 22.6,5.6 44.1,15.6 66.8,22.9 23,6.6 45.6,15.2 69.7,22 l 74.2,20 80.8,17.4 c 57,9.9 116.8,20.8 192,21.6 l 2.3,0.1 c 22.8,0.2 41.5,-18.1 41.8,-40.9 0,-1.9 -0.1,-4.1 -0.4,-5.9"
         style="fill:#000072;fill-opacity:1;fill-rule:nonzero;stroke:none"
         id="path2925" />
      <path
         d="m 27514.7,12189 c -185.4,224.9 -437.2,383.2 -690.9,494.2 79,333.8 118.3,677.7 111.6,1026.9 -376.6,-302 -762.4,-519.6 -1162.9,-646.5 -293.8,112.9 -610.6,160.6 -925.8,160.6 -42.3,0 -84.6,-0.9 -126.8,-2.5 -215.4,-7.6 -427.2,-48.9 -637,-90.6 l -143.1,-34 c -509.2,164.9 -1046.1,455.6 -1618.7,881.3 v 33.2 c 19.5,15.4 37.9,32 55.1,49.8 605.3,87.8 1211.3,202.9 1811.7,344.3 73.1,-13.5 146.7,-25.7 220.8,-36.5 183.6,-26.3 370.5,-43.2 559.8,-43.2 35.8,0 71.7,0.6 107.7,1.9 225.9,7.7 454.8,42.6 676.1,112 110.8,33.9 217.9,80.5 322.6,130.6 103.3,53.7 202.9,114.1 295.4,183.3 182.3,132.3 339,293.6 470.6,467.5 422.6,162.7 835.9,339.1 1236.9,528.6 -2.2,-42.2 -4.6,-84.2 -7,-126.1 -77.7,-1318.2 -254.1,-2459.6 -556.1,-3434.8 m -898.8,9392 c -203,1817.7 -525.9,3442.1 -1047.6,4747 -138.8,346.6 2.2,735.9 316.9,932.2 8.2,-6 17.5,-10.8 27.6,-14.1 53.3,-17.6 100.1,-20.1 146.1,-20.2 45.8,0.3 87.6,9.5 127.5,22.5 80,25.2 151.4,68.2 216.8,118.4 63.5,53.7 123.8,110.3 186.1,165.2 5.8,4.8 11.7,9.7 17.4,14.7 585.4,-987.1 989,-2187.6 1134.3,-3608.6 4.4,-43.6 8,-86.7 12.3,-130.4 v -0.6 c 29.3,-318.5 57.2,-631.8 83.5,-939.8 -297.2,-493.6 -714,-920.4 -1220.9,-1286.3"
         style="fill:#b2b2d4;fill-opacity:1;fill-rule:nonzero;stroke:none"
         id="path2927" />
      <path
         d="m 22321.1,13978.4 c -7.4,5.4 -15,11.1 -22.3,16.6 7.6,5.3 15,10.9 22.3,16.6 v -33.2"
         style="fill:#7c7cb6;fill-opacity:1;fill-rule:nonzero;stroke:none"
         id="path2929" />
      <path
         d="m 21587.5,7736.3 c -319,0 -627.1,102.2 -881.4,294.7 -103,77.6 -194.9,169.1 -273.1,272.1 -168.6,221.6 -310.7,446.9 -422.5,669.8 l -0.1,0.3 -56.1,123.6 c 563,-309.4 1175.1,-449.3 1795.5,-449.3 2220.6,0.1 4543.6,1794.1 5074,4035.7 253.7,-111 505.5,-269.3 690.9,-494.2 -54.2,-175 -112.4,-344.5 -174.8,-508.8 v -0.7 c -724,-1908.7 -2012.7,-3106 -4105.4,-3693.7 -461,-107.4 -958.7,-187.5 -1495.6,-241.8 -50.6,-5.1 -101.1,-7.7 -151.4,-7.7"
         style="fill:#433b78;fill-opacity:1;fill-rule:nonzero;stroke:none"
         id="path2931" />
      <path
         d="m 22376.2,14061.4 c 96.2,99.6 153.7,234.8 153.7,382.2 v 537.5 c 193.7,-107.6 391.7,-205.5 592.5,-295.6 l 10.2,-4.6 10.1,-3.2 c 340.2,-109.6 687.1,-206.1 1045.2,-272 -600.4,-141.4 -1206.4,-256.5 -1811.7,-344.3 m 4464.7,1159.9 c 3.6,4.7 7.2,9.4 10.7,14.2 132.2,181.1 240,374.5 326.2,574.2 86.4,199.6 154.1,404.5 202.2,613.4 3.1,13.5 -2.8,28 -15.4,35.3 -5.1,2.9 -10.6,4.3 -16.1,4.3 -9.5,0 -18.8,-4.2 -25,-11.8 l -902.7,545.9 c 93.4,163.5 175.1,352.3 243.8,569 140.3,443.6 189.5,911.2 164.3,1375.7 -50.5,912.9 -118.8,1797 -213,2639.5 506.9,365.9 923.7,792.7 1220.9,1286.3 187.8,-2201.3 295.3,-4136.3 280.1,-5823.5 -0.6,-57.8 -1.2,-115.7 -2.4,-172.9 -0.6,-54.1 -1.2,-107.6 -2.5,-161.2 -4.3,-214.1 -10.4,-423.9 -18.4,-629.4 -4.5,-111.3 -9.9,-221.4 -15.8,-330.4 -401,-189.5 -814.3,-365.9 -1236.9,-528.6"
         style="fill:#423b75;fill-opacity:1;fill-rule:nonzero;stroke:none"
         id="path2933" />
      <path
         d="m 24929.4,12932.5 c -318.7,0 -647.9,54 -989.6,164.6 l 143.1,34 c 209.8,41.7 421.6,83 637,90.6 42.2,1.6 84.5,2.5 126.8,2.5 315.2,0 632,-47.7 925.8,-160.6 -273.6,-86.7 -554.2,-131.1 -843.1,-131.1"
         style="fill:#000072;fill-opacity:1;fill-rule:nonzero;stroke:none"
         id="path2935" />
      <path
         d="m 20010.4,8973.2 -54.4,108.4 -121.4,6.3 c -29.6,1.5 -59.2,3.1 -88.7,4.7 -16.8,48.4 -35.2,103.4 -54.3,163.3 86.2,-57.3 173.9,-110.4 262.7,-159.1 l 56.1,-123.6"
         style="fill:#000072;fill-opacity:1;fill-rule:nonzero;stroke:none"
         id="path2937" />
      <path
         d="m 21140.7,7627.7 c -46.5,0 -92.7,1.9 -138.7,5.6 -150.6,56.1 -292.8,133.4 -421.4,230.8 -116.9,88 -222.7,192.6 -313.8,312.6 -124.3,163 -231.3,324.2 -323.6,482.3 -43.1,73.9 -83.1,147.7 -119.4,220.3 -149.4,7.5 -299.8,17.1 -451.4,29 151.6,-11.9 302,-21.5 451.4,-29 v 0 0 c 0,0 -32.8,82.5 -77.9,213.3 29.5,-1.6 59.1,-3.2 88.7,-4.7 l 121.4,-6.3 54.4,-108.4 0.1,-0.3 c 111.8,-222.9 253.9,-448.2 422.5,-669.8 78.2,-103 170.1,-194.5 273.1,-272.1 254.3,-192.5 562.4,-294.7 881.4,-294.7 50.3,0 100.8,2.6 151.4,7.7 536.9,54.3 1034.6,134.4 1495.6,241.8 -578.4,-162.4 -1218.1,-278.2 -1924.5,-349.6 -56.6,-5.7 -113.1,-8.5 -169.3,-8.5"
         style="fill:#000072;fill-opacity:1;fill-rule:nonzero;stroke:none"
         id="path2939" />
      <path
         d="m 26058.9,27225.9 c -46,0.1 -92.8,2.6 -146.1,20.2 -10.1,3.3 -19.4,8.1 -27.6,14.1 7.7,4.8 15.4,9.5 23.3,14 222.2,128 421.6,274.2 595.1,441.3 v 0 c 35,-55.6 69.4,-111.9 103.1,-168.8 -5.7,-5 -11.6,-9.9 -17.4,-14.7 -62.3,-54.9 -122.6,-111.5 -186.1,-165.2 -65.4,-50.2 -136.8,-93.2 -216.8,-118.4 -39.9,-13 -81.7,-22.2 -127.5,-22.5"
         style="fill:#000072;fill-opacity:1;fill-rule:nonzero;stroke:none"
         id="path2941" />
      <path
         d="m 22298.8,13995 c -59.5,44.5 -119.3,90.4 -179.5,137.8 l 125.5,416.5 25.3,583.8 c 85.6,-52.7 172.3,-103.3 259.8,-152 v -537.5 c 0,-147.4 -57.5,-282.6 -153.7,-382.2 -17.2,-17.8 -35.6,-34.4 -55.1,-49.8 -7.3,-5.7 -14.7,-11.3 -22.3,-16.6"
         style="fill:#000072;fill-opacity:1;fill-rule:nonzero;stroke:none"
         id="path2943" />
      <path
         d="m 24900.4,14773.7 c -144.3,0 -290.3,8.9 -436.5,25.3 -199.7,22.6 -400.1,58.5 -598.9,105.9 -195.5,47.3 -389.4,104.8 -582.5,166.6 -312.1,140.4 -614.1,299.9 -897.9,483.2 -143,93 -282,191.5 -411.9,299.1 -47.9,38.9 -94.8,78.7 -140.5,119.7 -2.3,3 -4.7,6.2 -7,9.2 -104.3,527.7 41.4,791.5 437.1,791.5 196.9,0 455.6,-65.3 776.1,-195.8 637.8,-284.3 1266.8,-475.5 1826.5,-475.5 638.9,0 1187.6,249.3 1555.9,893.9 l 902.7,-545.9 c -1.1,-1.3 -2.2,-2.8 -3.1,-4.4 -212.2,-366 -435,-719 -714.7,-1002.7 -277.9,-284.2 -609.3,-488.2 -978,-581.6 -232.6,-61.7 -477.4,-88.5 -727.3,-88.5"
         style="fill:#423b75;fill-opacity:1;fill-rule:nonzero;stroke:none"
         id="path2945" />
      <path
         d="m 21832.2,15973.5 c -2.1,1.9 -4.2,3.8 -6.3,5.7 -0.2,1.1 -0.5,2.3 -0.7,3.5 2.3,-3 4.7,-6.2 7,-9.2"
         style="fill:#807ca9;fill-opacity:1;fill-rule:nonzero;stroke:none"
         id="path2947" />
      <path
         d="m 24968.5,14326 c -189.3,0 -376.2,16.9 -559.8,43.2 -74.1,10.8 -147.7,23 -220.8,36.5 -358.1,65.9 -705,162.4 -1045.2,272 l -10.1,3.2 -10.2,4.6 c -200.8,90.1 -398.8,188 -592.5,295.6 -87.5,48.7 -174.2,99.3 -259.8,152 l 10.4,239.4 -349.5,221.5 c -47,141 -82,269.4 -105.1,385.2 2.1,-1.9 4.2,-3.8 6.3,-5.7 45.7,-41 92.6,-80.8 140.5,-119.7 129.9,-107.6 268.9,-206.1 411.9,-299.1 283.8,-183.3 585.8,-342.8 897.9,-483.2 193.1,-61.8 387,-119.3 582.5,-166.6 198.8,-47.4 399.2,-83.3 598.9,-105.9 146.2,-16.4 292.2,-25.3 436.5,-25.3 249.9,0 494.7,26.8 727.3,88.5 368.7,93.4 700.1,297.4 978,581.6 279.7,283.7 502.5,636.7 714.7,1002.7 0.9,1.6 2,3.1 3.1,4.4 6.2,7.6 15.5,11.8 25,11.8 5.5,0 11,-1.4 16.1,-4.3 12.6,-7.3 18.5,-21.8 15.4,-35.3 -48.1,-208.9 -115.8,-413.8 -202.2,-613.4 -86.2,-199.7 -194,-393.1 -326.2,-574.2 -3.5,-4.8 -7.1,-9.5 -10.7,-14.2 -131.6,-173.9 -288.3,-335.2 -470.6,-467.5 -92.5,-69.2 -192.1,-129.6 -295.4,-183.3 -104.7,-50.1 -211.8,-96.7 -322.6,-130.6 -221.3,-69.4 -450.2,-104.3 -676.1,-112 -36,-1.3 -71.9,-1.9 -107.7,-1.9"
         style="fill:#000072;fill-opacity:1;fill-rule:nonzero;stroke:none"
         id="path2949" />
      <path
         d="m 19415.9,9114.6 c -842.1,65.1 -1686,203.3 -2475.9,498.2 -6.6,2.9 -13.4,5.4 -20.3,7.6 -916.1,345.5 -1758.7,903.5 -2439.9,1804.5 889.4,-560.8 2501.8,-1102.3 3780.5,-1102.3 386.4,0 742.2,49.4 1038.6,162.7 -1.6,-11.8 -3,-23.5 -4.4,-35.2 -17.5,-146.4 -21.1,-293.4 -10.3,-438.1 10.2,-144.7 30.1,-288.3 63,-427.7 13.9,-70.6 35.4,-138.6 53.6,-207.7 17.7,-53.5 33.9,-107.8 52.7,-160.8 -11.4,-30.3 -24,-64.2 -37.6,-101.2"
         style="fill:#b2b2d4;fill-opacity:1;fill-rule:nonzero;stroke:none"
         id="path2951" />
      <path
         d="m 19453.5,9215.8 c -18.8,53 -35,107.3 -52.7,160.8 -18.2,69.1 -39.7,137.1 -53.6,207.7 -32.9,139.4 -52.8,283 -63,427.7 -10.8,144.7 -7.2,291.7 10.3,438.1 1.4,11.7 2.8,23.4 4.4,35.2 81,30.9 157.5,66.6 229,107.4 -120.7,-319.4 36.3,-936.9 163.7,-1336.8 -59.2,39.4 -117.5,80.7 -175.4,124.2 0,0 -24.1,-61.3 -62.7,-164.3"
         style="fill:#000072;fill-opacity:1;fill-rule:nonzero;stroke:none"
         id="path2953" />
      <path
         d="m 19372.4,8908.3 c -10.1,0.8 -20.2,1.6 -30.3,2.4 -756.9,61 -1538.2,183.2 -2288.9,439.7 10.7,29.6 14.8,62 10.9,95.4 -9.1,76.4 -58.3,138.3 -124.1,167 789.9,-294.9 1633.8,-433.1 2475.9,-498.2 -22.2,-60.4 -47.2,-129.1 -73.8,-203.9 10.1,-0.8 20.2,-1.6 30.3,-2.4 m -2910.2,676.2 c -974.9,444.2 -1869.3,1161.8 -2552,2326.1 109.8,-154.8 308.5,-321.1 569.6,-485.7 681.2,-901 1523.8,-1459 2439.9,-1804.5 -19.9,6.3 -41,9.7 -62.8,9.7 -8.1,0 -16.4,-0.5 -24.8,-1.5 -123.4,-14.6 -246.7,-29.4 -369.9,-44.1"
         style="fill:#000072;fill-opacity:1;fill-rule:nonzero;stroke:none"
         id="path2955" />
      <path
         d="m 17053.2,9350.4 c -199.5,68.1 -396.9,145.7 -591,234.1 123.2,14.7 246.5,29.5 369.9,44.1 8.4,1 16.7,1.5 24.8,1.5 21.8,0 42.9,-3.4 62.8,-9.7 6.9,-2.2 13.7,-4.7 20.3,-7.6 65.8,-28.7 115,-90.6 124.1,-167 3.9,-33.4 -0.2,-65.8 -10.9,-95.4"
         style="fill:#000072;fill-opacity:1;fill-rule:nonzero;stroke:none"
         id="path2957" />
      <path
         d="m 19493.9,9108.8 c -26.1,1.9 -52,3.8 -78,5.8 13.6,37 26.2,70.9 37.6,101.2 4.9,-13.9 10,-27.6 15.3,-41.3 l 25.1,-65.7"
         style="fill:#7c7cb6;fill-opacity:1;fill-rule:nonzero;stroke:none"
         id="path2959" />
      <path
         d="m 19745.9,9092.6 c -83.9,4.8 -168.1,10.1 -252,16.2 l -25.1,65.7 c -5.3,13.7 -10.4,27.4 -15.3,41.3 38.6,103 62.7,164.3 62.7,164.3 57.9,-43.5 116.2,-84.8 175.4,-124.2 19.1,-59.9 37.5,-114.9 54.3,-163.3"
         style="fill:#000072;fill-opacity:1;fill-rule:nonzero;stroke:none"
         id="path2961" />
      <path
         d="m 19823.8,8879.3 c -149.4,7.5 -299.8,17.1 -451.4,29 -10.1,0.8 -20.2,1.6 -30.3,2.4 26.6,74.8 51.6,143.5 73.8,203.9 26,-2 51.9,-3.9 78,-5.8 83.9,-6.1 168.1,-11.4 252,-16.2 45.1,-130.8 77.9,-213.3 77.9,-213.3"
         style="fill:#000072;fill-opacity:1;fill-rule:nonzero;stroke:none"
         id="path2963" />
      <path
         d="m 18396.9,24837.6 c -69.6,0 -137.6,34.7 -177.2,98 -159.8,255.2 -494.2,422.7 -894.5,448.1 -437,27.6 -851.6,-115.7 -1056,-365.4 -73,-89.2 -204.6,-102.4 -293.9,-29.3 -89.2,73.1 -102.3,204.7 -29.3,293.9 291.2,355.7 829.7,554.1 1405.6,517.6 542.2,-34.3 987.6,-268.8 1222.1,-643.2 61.2,-97.8 31.6,-226.6 -66.2,-287.8 -34.4,-21.6 -72.7,-31.9 -110.6,-31.9"
         style="fill:#000072;fill-opacity:1;fill-rule:nonzero;stroke:none"
         id="path2965" />
      <path
         d="m 23023.6,24998.1 c -95.9,0 -182.3,66.5 -203.8,164.1 -24.8,112.6 46.5,224 159.1,248.8 l 2559.5,563.1 c 440,96.8 888.2,-61.6 1169.6,-413.4 l 178.6,-223.2 c 72.1,-90.1 57.5,-221.5 -32.6,-293.6 -90.1,-72 -221.5,-57.4 -293.6,32.7 l -178.5,223.2 c -181.3,226.7 -470.1,328.7 -753.7,266.4 l -2559.6,-563.1 c -15.1,-3.4 -30.2,-5 -45,-5"
         style="fill:#000072;fill-opacity:1;fill-rule:nonzero;stroke:none"
         id="path2967" />
      <path
         d="m 15184.5,23263.6 c 177.3,-32.2 358.3,15.6 496.6,131.1 138.4,115.4 217.7,285 217.7,465.2 v 1582.4 c 0,293.2 -209.4,544 -497.9,596.4 l -1720.1,312 c -177.2,32.1 -358.3,-15.7 -496.7,-131.1 -138.3,-115.5 -217.6,-285.1 -217.6,-465.3 V 24172 c 0,-293.3 209.4,-544.1 497.9,-596.4 z m 109.2,-427.6 c -61.1,0 -122.5,5.5 -183.7,16.6 l -1720.1,312 c -487.3,88.4 -841.1,512.1 -841.1,1007.4 v 1582.3 c 0,304.4 134,590.8 367.7,785.9 233.6,195 539.3,275.7 838.8,221.5 l 1720.1,-312 c 487.4,-88.5 841.1,-512.1 841.1,-1007.4 v -1582.4 c 0,-304.3 -134,-590.8 -367.7,-785.9 -185.8,-155.2 -417.4,-238 -655.1,-238"
         style="fill:#000072;fill-opacity:1;fill-rule:nonzero;stroke:none"
         id="path2969" />
      <path
         d="m 21994.2,25895.9 c -13.7,0 -27.3,-0.3 -41.1,-1 L 19398,25772.7 c -444.4,-21.2 -792.5,-386.3 -792.5,-831.2 v -1154.4 c 0,-229.9 91.6,-443.7 258,-602.3 166.3,-158.6 384,-239.8 614,-229 h -0.1 l 2555.2,122.2 c 444.4,21.3 792.4,386.4 792.4,831.2 v 1154.5 c 0,229.8 -91.6,443.7 -257.9,602.3 -156.4,149.1 -358.5,229.9 -572.9,229.9 z m -2506.8,-3148.7 h 0.5 z m -51.6,-210 c -322.1,0 -625.6,121.3 -860.5,345.3 -249.8,238.1 -387.4,559.4 -387.4,904.6 v 1154.4 c 0,668.2 522.7,1216.5 1190.1,1248.4 l 2555.2,122.2 c 344.9,16.5 672.3,-105.6 922.1,-343.8 249.8,-238.2 387.4,-559.4 387.4,-904.6 v -1154.5 c 0,-668.1 -522.8,-1216.5 -1190.1,-1248.4 l -2555.2,-122.2 c -20.6,-1 -41.2,-1.4 -61.6,-1.4"
         style="fill:#000072;fill-opacity:1;fill-rule:nonzero;stroke:none"
         id="path2971" />
      <path
         d="m 15450,24235.7 c 0,-572 -319.3,-1035.7 -713.3,-1035.7 -393.9,0 -713.2,463.7 -713.2,1035.7 0,572 319.3,1035.7 713.2,1035.7 394,0 713.3,-463.7 713.3,-1035.7"
         style="fill:#ffffff;fill-opacity:1;fill-rule:nonzero;stroke:none"
         id="path2973" />
      <path
         d="m 14736.8,25253.4 c -383.4,0 -695.3,-456.6 -695.3,-1017.7 0,-561.2 311.9,-1017.7 695.3,-1017.7 383.3,0 695.2,456.5 695.2,1017.7 0,561.1 -311.9,1017.7 -695.2,1017.7 z m 0,-2071.4 c -403.2,0 -731.3,472.7 -731.3,1053.7 0,581 328.1,1053.6 731.3,1053.6 403.2,0 731.2,-472.6 731.2,-1053.6 0,-581 -328,-1053.7 -731.2,-1053.7"
         style="fill:#000072;fill-opacity:1;fill-rule:nonzero;stroke:none"
         id="path2975" />
      <path
         d="m 15450,24235.7 c 0,-572 -319.3,-1035.7 -713.3,-1035.7 -393.9,0 -713.2,463.7 -713.2,1035.7 0,572 319.3,1035.7 713.2,1035.7 394,0 713.3,-463.7 713.3,-1035.7"
         style="fill:#ffffff;fill-opacity:1;fill-rule:nonzero;stroke:none"
         id="path2977" />
      <path
         d="m 14736.8,25253.4 c -383.4,0 -695.3,-456.6 -695.3,-1017.7 0,-561.2 311.9,-1017.7 695.3,-1017.7 383.3,0 695.2,456.5 695.2,1017.7 0,561.1 -311.9,1017.7 -695.2,1017.7 z m 0,-2071.4 c -403.2,0 -731.3,472.7 -731.3,1053.7 0,581 328.1,1053.6 731.3,1053.6 403.2,0 731.2,-472.6 731.2,-1053.6 0,-581 -328,-1053.7 -731.2,-1053.7"
         style="fill:#000072;fill-opacity:1;fill-rule:nonzero;stroke:none"
         id="path2979" />
      <path
         d="m 15450,24219.4 c 0,-465.6 -259.9,-843.1 -580.6,-843.1 -320.7,0 -580.6,377.5 -580.6,843.1 0,465.6 259.9,843 580.6,843 320.7,0 580.6,-377.4 580.6,-843"
         style="fill:#000072;fill-opacity:1;fill-rule:nonzero;stroke:none"
         id="path2981" />
      <path
         d="m 14736.8,25487.2 c -521,0 -929.1,-549.8 -929.1,-1251.5 0,-701.8 408.1,-1251.5 929.1,-1251.5 520.9,0 929,549.7 929,1251.5 0,701.7 -408.1,1251.5 -929,1251.5 z m 0,-215.8 c 393.9,0 713.2,-463.7 713.2,-1035.7 0,-572 -319.3,-1035.7 -713.2,-1035.7 -394,0 -713.3,463.7 -713.3,1035.7 0,572 319.3,1035.7 713.3,1035.7"
         style="fill:#000072;fill-opacity:1;fill-rule:nonzero;stroke:none"
         id="path2983" />
      <path
         d="m 14776.3,24497 c 0,-144.3 -117,-261.3 -261.3,-261.3 -144.3,0 -261.3,117 -261.3,261.3 0,144.3 117,261.3 261.3,261.3 144.3,0 261.3,-117 261.3,-261.3"
         style="fill:#ffffff;fill-opacity:1;fill-rule:nonzero;stroke:none"
         id="path2985" />
      <path
         d="m 19973.5,24075 c 0,-676.6 377.7,-1225 843.6,-1225 466,0 843.7,548.4 843.7,1225 0,676.5 -377.7,1225 -843.7,1225 -465.9,0 -843.6,-548.5 -843.6,-1225"
         style="fill:#ffffff;fill-opacity:1;fill-rule:nonzero;stroke:none"
         id="path2987" />
      <path
         d="m 20817.1,25278.7 c -453.4,0 -822.3,-540 -822.3,-1203.7 0,-663.8 368.9,-1203.7 822.3,-1203.7 453.5,0 822.4,539.9 822.4,1203.7 0,663.7 -368.9,1203.7 -822.4,1203.7 z m 0,-2450 c -476.9,0 -864.9,559.1 -864.9,1246.3 0,687.2 388,1246.3 864.9,1246.3 476.9,0 864.9,-559.1 864.9,-1246.3 0,-687.2 -388,-1246.3 -864.9,-1246.3"
         style="fill:#000072;fill-opacity:1;fill-rule:nonzero;stroke:none"
         id="path2989" />
      <path
         d="m 19973.5,24075 c 0,-676.6 377.7,-1225 843.6,-1225 466,0 843.7,548.4 843.7,1225 0,676.5 -377.7,1225 -843.7,1225 -465.9,0 -843.6,-548.5 -843.6,-1225"
         style="fill:#ffffff;fill-opacity:1;fill-rule:nonzero;stroke:none"
         id="path2991" />
      <path
         d="m 20817.1,25278.7 c -453.4,0 -822.3,-540 -822.3,-1203.7 0,-663.8 368.9,-1203.7 822.3,-1203.7 453.5,0 822.4,539.9 822.4,1203.7 0,663.7 -368.9,1203.7 -822.4,1203.7 z m 0,-2450 c -476.9,0 -864.9,559.1 -864.9,1246.3 0,687.2 388,1246.3 864.9,1246.3 476.9,0 864.9,-559.1 864.9,-1246.3 0,-687.2 -388,-1246.3 -864.9,-1246.3"
         style="fill:#000072;fill-opacity:1;fill-rule:nonzero;stroke:none"
         id="path2993" />
      <path
         d="m 19973.5,24055.7 c 0,-550.7 307.5,-997.2 686.7,-997.2 379.3,0 686.8,446.5 686.8,997.2 0,550.7 -307.5,997.2 -686.8,997.2 -379.2,0 -686.7,-446.5 -686.7,-997.2"
         style="fill:#000072;fill-opacity:1;fill-rule:nonzero;stroke:none"
         id="path2995" />
      <path
         d="m 20817.1,25555.2 c -616.2,0 -1098.8,-650.2 -1098.8,-1480.2 0,-830 482.6,-1480.3 1098.8,-1480.3 616.2,0 1098.9,650.3 1098.9,1480.3 0,830 -482.7,1480.2 -1098.9,1480.2 z m 0,-255.2 c 465.9,0 843.7,-548.4 843.7,-1225 0,-676.5 -377.8,-1225 -843.7,-1225 -465.9,0 -843.6,548.5 -843.6,1225 0,676.6 377.7,1225 843.6,1225"
         style="fill:#000072;fill-opacity:1;fill-rule:nonzero;stroke:none"
         id="path2997" />
      <path
         d="m 20770.3,24384.1 c 0,-170.7 138.4,-309.1 309.1,-309.1 170.7,0 309.1,138.4 309.1,309.1 0,170.7 -138.4,309.1 -309.1,309.1 -170.7,0 -309.1,-138.4 -309.1,-309.1"
         style="fill:#ffffff;fill-opacity:1;fill-rule:nonzero;stroke:none"
         id="path2999" />
      <path
         d="m 16670.9,23433.8 c -9.9,0 -20,0.3 -30.2,0.8 -165.3,9.1 -295.3,89.9 -290.3,180.4 4.7,85 126.5,148.5 278.1,148.5 10,0 20,-0.3 30.2,-0.9 165.3,-9 295.3,-89.8 290.3,-180.3 -4.6,-85 -126.5,-148.5 -278.1,-148.5"
         style="fill:#6666aa;fill-opacity:1;fill-rule:nonzero;stroke:none"
         id="path3001" />
      <path
         d="m 14569,28151.5 c -421.6,197.4 -714.5,462.5 -856.5,767.7 161.2,-77 334.8,-109.3 512.6,-109.3 787,0.1 1655.1,632.4 1890.9,816.4 1.9,-3.3 3.8,-6.5 5.7,-9.8 -273.5,-195.8 -535.2,-409.5 -783.6,-640.5 -276.9,-257.4 -533.5,-532.7 -769.1,-824.5"
         style="fill:#423b75;fill-opacity:1;fill-rule:nonzero;stroke:none"
         id="path3003" />
      <path
         d="m 14817,27995.7 c -22.3,40.9 -58.3,74.6 -104.9,93.5 -49.2,19.9 -96.9,40.7 -143.1,62.3 235.6,291.8 492.2,567.1 769.1,824.5 248.4,231 510.1,444.7 783.6,640.5 12.8,-21.7 25.4,-43.8 37.9,-66.2 L 15875,29275 14817,27995.7"
         style="fill:#000072;fill-opacity:1;fill-rule:nonzero;stroke:none"
         id="path3005" />
      <path
         d="m 14791.7,27965.1 h -316.9 l -299.8,59.9 -650,600 -175,575 c 109.9,-127.2 232.1,-218.6 362.5,-280.8 142,-305.2 434.9,-570.3 856.5,-767.7 46.2,-21.6 93.9,-42.4 143.1,-62.3 46.6,-18.9 82.6,-52.6 104.9,-93.5 l -25.3,-30.6 m 1367.9,1585.2 c -12.5,22.4 -25.1,44.5 -37.9,66.2 -1.9,3.3 -3.8,6.5 -5.7,9.8 40.1,31.3 61.9,49.6 61.9,49.6 V 29568 l -18.3,-17.7"
         style="fill:#000072;fill-opacity:1;fill-rule:nonzero;stroke:none"
         id="path3007" />
    </g>
  </g>
</svg>
